<?xml version="1.0" encoding="UTF-8" standalone="no"?>
<!DOCTYPE svg PUBLIC "-//W3C//DTD SVG 1.1//EN"
 "http://www.w3.org/Graphics/SVG/1.1/DTD/svg11.dtd">
<!-- Generated by graphviz version 2.44.1 (20200629.0846)
 -->
<!-- Title: Tree Pages: 1 -->
<svg width="1127pt" height="932pt"
 viewBox="0.00 0.00 1126.50 932.00" xmlns="http://www.w3.org/2000/svg" xmlns:xlink="http://www.w3.org/1999/xlink">
<g id="graph0" class="graph" transform="scale(1 1) rotate(0) translate(4 928)">
<title>Tree</title>
<polygon fill="white" stroke="transparent" points="-4,4 -4,-928 1122.5,-928 1122.5,4 -4,4"/>
<!-- 0 -->
<g id="node1" class="node">
<title>0</title>
<polygon fill="none" stroke="black" points="351.5,-924 246.5,-924 246.5,-886 351.5,-886 351.5,-924"/>
<text text-anchor="middle" x="299" y="-908.8" font-family="Times,serif" font-size="14.00">latitude &lt;= 42.9</text>
<text text-anchor="middle" x="299" y="-893.8" font-family="Times,serif" font-size="14.00">class = Canada</text>
</g>
<!-- 1 -->
<g id="node2" class="node">
<title>1</title>
<polygon fill="none" stroke="black" points="290.5,-850 171.5,-850 171.5,-812 290.5,-812 290.5,-850"/>
<text text-anchor="middle" x="231" y="-834.8" font-family="Times,serif" font-size="14.00">latitude &lt;= 42.096</text>
<text text-anchor="middle" x="231" y="-819.8" font-family="Times,serif" font-size="14.00">class = USA</text>
</g>
<!-- 0&#45;&gt;1 -->
<g id="edge1" class="edge">
<title>0&#45;&gt;1</title>
<path fill="none" stroke="black" d="M281.84,-885.83C273.85,-877.37 264.2,-867.15 255.46,-857.9"/>
<polygon fill="black" stroke="black" points="257.8,-855.28 248.39,-850.41 252.71,-860.09 257.8,-855.28"/>
<text text-anchor="middle" x="247.68" y="-871.7" font-family="Times,serif" font-size="14.00">True</text>
</g>
<!-- 6 -->
<g id="node7" class="node">
<title>6</title>
<polygon fill="none" stroke="black" points="427.5,-850 308.5,-850 308.5,-812 427.5,-812 427.5,-850"/>
<text text-anchor="middle" x="368" y="-834.8" font-family="Times,serif" font-size="14.00">latitude &lt;= 55.958</text>
<text text-anchor="middle" x="368" y="-819.8" font-family="Times,serif" font-size="14.00">class = Canada</text>
</g>
<!-- 0&#45;&gt;6 -->
<g id="edge6" class="edge">
<title>0&#45;&gt;6</title>
<path fill="none" stroke="black" d="M316.41,-885.83C324.52,-877.37 334.32,-867.15 343.18,-857.9"/>
<polygon fill="black" stroke="black" points="345.96,-860.05 350.35,-850.41 340.91,-855.21 345.96,-860.05"/>
<text text-anchor="middle" x="350.89" y="-871.71" font-family="Times,serif" font-size="14.00">False</text>
</g>
<!-- 2 -->
<g id="node3" class="node">
<title>2</title>
<polygon fill="none" stroke="black" points="155,-775 69,-775 69,-739 155,-739 155,-775"/>
<text text-anchor="middle" x="112" y="-753.3" font-family="Times,serif" font-size="14.00">class = USA</text>
</g>
<!-- 1&#45;&gt;2 -->
<g id="edge2" class="edge">
<title>1&#45;&gt;2</title>
<path fill="none" stroke="black" d="M200.97,-811.83C185.29,-802.34 165.94,-790.64 149.31,-780.57"/>
<polygon fill="black" stroke="black" points="150.75,-777.35 140.38,-775.17 147.12,-783.34 150.75,-777.35"/>
</g>
<!-- 3 -->
<g id="node4" class="node">
<title>3</title>
<polygon fill="none" stroke="black" points="292.5,-776 173.5,-776 173.5,-738 292.5,-738 292.5,-776"/>
<text text-anchor="middle" x="233" y="-760.8" font-family="Times,serif" font-size="14.00">latitude &lt;= 42.324</text>
<text text-anchor="middle" x="233" y="-745.8" font-family="Times,serif" font-size="14.00">class = USA</text>
</g>
<!-- 1&#45;&gt;3 -->
<g id="edge3" class="edge">
<title>1&#45;&gt;3</title>
<path fill="none" stroke="black" d="M231.5,-811.83C231.72,-804.13 231.97,-794.97 232.21,-786.42"/>
<polygon fill="black" stroke="black" points="235.71,-786.51 232.49,-776.41 228.71,-786.31 235.71,-786.51"/>
</g>
<!-- 4 -->
<g id="node5" class="node">
<title>4</title>
<polygon fill="none" stroke="black" points="172.5,-701 73.5,-701 73.5,-665 172.5,-665 172.5,-701"/>
<text text-anchor="middle" x="123" y="-679.3" font-family="Times,serif" font-size="14.00">class = Canada</text>
</g>
<!-- 3&#45;&gt;4 -->
<g id="edge4" class="edge">
<title>3&#45;&gt;4</title>
<path fill="none" stroke="black" d="M205.24,-737.83C190.88,-728.43 173.2,-716.86 157.91,-706.85"/>
<polygon fill="black" stroke="black" points="159.52,-703.72 149.23,-701.17 155.68,-709.58 159.52,-703.72"/>
</g>
<!-- 5 -->
<g id="node6" class="node">
<title>5</title>
<polygon fill="none" stroke="black" points="277,-701 191,-701 191,-665 277,-665 277,-701"/>
<text text-anchor="middle" x="234" y="-679.3" font-family="Times,serif" font-size="14.00">class = USA</text>
</g>
<!-- 3&#45;&gt;5 -->
<g id="edge5" class="edge">
<title>3&#45;&gt;5</title>
<path fill="none" stroke="black" d="M233.25,-737.83C233.36,-729.89 233.49,-720.41 233.62,-711.63"/>
<polygon fill="black" stroke="black" points="237.12,-711.47 233.76,-701.42 230.12,-711.37 237.12,-711.47"/>
</g>
<!-- 7 -->
<g id="node8" class="node">
<title>7</title>
<polygon fill="none" stroke="black" points="419.5,-776 314.5,-776 314.5,-738 419.5,-738 419.5,-776"/>
<text text-anchor="middle" x="367" y="-760.8" font-family="Times,serif" font-size="14.00">latitude &lt;= 49.0</text>
<text text-anchor="middle" x="367" y="-745.8" font-family="Times,serif" font-size="14.00">class = Canada</text>
</g>
<!-- 6&#45;&gt;7 -->
<g id="edge7" class="edge">
<title>6&#45;&gt;7</title>
<path fill="none" stroke="black" d="M367.75,-811.83C367.64,-804.13 367.51,-794.97 367.39,-786.42"/>
<polygon fill="black" stroke="black" points="370.89,-786.36 367.26,-776.41 363.9,-786.46 370.89,-786.36"/>
</g>
<!-- 56 -->
<g id="node57" class="node">
<title>56</title>
<polygon fill="none" stroke="black" points="524,-775 438,-775 438,-739 524,-739 524,-775"/>
<text text-anchor="middle" x="481" y="-753.3" font-family="Times,serif" font-size="14.00">class = USA</text>
</g>
<!-- 6&#45;&gt;56 -->
<g id="edge56" class="edge">
<title>6&#45;&gt;56</title>
<path fill="none" stroke="black" d="M396.51,-811.83C411.41,-802.34 429.78,-790.64 445.58,-780.57"/>
<polygon fill="black" stroke="black" points="447.5,-783.5 454.05,-775.17 443.74,-777.59 447.5,-783.5"/>
</g>
<!-- 8 -->
<g id="node9" class="node">
<title>8</title>
<polygon fill="none" stroke="black" points="433,-702 299,-702 299,-664 433,-664 433,-702"/>
<text text-anchor="middle" x="366" y="-686.8" font-family="Times,serif" font-size="14.00">longitude &lt;= &#45;94.582</text>
<text text-anchor="middle" x="366" y="-671.8" font-family="Times,serif" font-size="14.00">class = Canada</text>
</g>
<!-- 7&#45;&gt;8 -->
<g id="edge8" class="edge">
<title>7&#45;&gt;8</title>
<path fill="none" stroke="black" d="M366.75,-737.83C366.64,-730.13 366.51,-720.97 366.39,-712.42"/>
<polygon fill="black" stroke="black" points="369.89,-712.36 366.26,-702.41 362.9,-712.46 369.89,-712.36"/>
</g>
<!-- 55 -->
<g id="node56" class="node">
<title>55</title>
<polygon fill="none" stroke="black" points="550.5,-701 451.5,-701 451.5,-665 550.5,-665 550.5,-701"/>
<text text-anchor="middle" x="501" y="-679.3" font-family="Times,serif" font-size="14.00">class = Canada</text>
</g>
<!-- 7&#45;&gt;55 -->
<g id="edge55" class="edge">
<title>7&#45;&gt;55</title>
<path fill="none" stroke="black" d="M400.81,-737.83C418.8,-728.17 441.06,-716.2 460.03,-706.01"/>
<polygon fill="black" stroke="black" points="461.89,-708.99 469.04,-701.17 458.58,-702.82 461.89,-708.99"/>
</g>
<!-- 9 -->
<g id="node10" class="node">
<title>9</title>
<polygon fill="none" stroke="black" points="359,-628 219,-628 219,-590 359,-590 359,-628"/>
<text text-anchor="middle" x="289" y="-612.8" font-family="Times,serif" font-size="14.00">longitude &lt;= &#45;123.222</text>
<text text-anchor="middle" x="289" y="-597.8" font-family="Times,serif" font-size="14.00">class = USA</text>
</g>
<!-- 8&#45;&gt;9 -->
<g id="edge9" class="edge">
<title>8&#45;&gt;9</title>
<path fill="none" stroke="black" d="M346.57,-663.83C337.27,-655.13 325.98,-644.58 315.87,-635.13"/>
<polygon fill="black" stroke="black" points="318.12,-632.44 308.42,-628.16 313.34,-637.55 318.12,-632.44"/>
</g>
<!-- 12 -->
<g id="node13" class="node">
<title>12</title>
<polygon fill="none" stroke="black" points="511,-628 377,-628 377,-590 511,-590 511,-628"/>
<text text-anchor="middle" x="444" y="-612.8" font-family="Times,serif" font-size="14.00">longitude &lt;= &#45;69.246</text>
<text text-anchor="middle" x="444" y="-597.8" font-family="Times,serif" font-size="14.00">class = Canada</text>
</g>
<!-- 8&#45;&gt;12 -->
<g id="edge12" class="edge">
<title>8&#45;&gt;12</title>
<path fill="none" stroke="black" d="M385.68,-663.83C395.11,-655.13 406.54,-644.58 416.78,-635.13"/>
<polygon fill="black" stroke="black" points="419.35,-637.52 424.32,-628.16 414.6,-632.37 419.35,-637.52"/>
</g>
<!-- 10 -->
<g id="node11" class="node">
<title>10</title>
<polygon fill="none" stroke="black" points="236.5,-553 137.5,-553 137.5,-517 236.5,-517 236.5,-553"/>
<text text-anchor="middle" x="187" y="-531.3" font-family="Times,serif" font-size="14.00">class = Canada</text>
</g>
<!-- 9&#45;&gt;10 -->
<g id="edge10" class="edge">
<title>9&#45;&gt;10</title>
<path fill="none" stroke="black" d="M263.26,-589.83C250.07,-580.52 233.85,-569.07 219.77,-559.13"/>
<polygon fill="black" stroke="black" points="221.51,-556.08 211.33,-553.17 217.48,-561.8 221.51,-556.08"/>
</g>
<!-- 11 -->
<g id="node12" class="node">
<title>11</title>
<polygon fill="none" stroke="black" points="341,-553 255,-553 255,-517 341,-517 341,-553"/>
<text text-anchor="middle" x="298" y="-531.3" font-family="Times,serif" font-size="14.00">class = USA</text>
</g>
<!-- 9&#45;&gt;11 -->
<g id="edge11" class="edge">
<title>9&#45;&gt;11</title>
<path fill="none" stroke="black" d="M291.27,-589.83C292.26,-581.89 293.45,-572.41 294.55,-563.63"/>
<polygon fill="black" stroke="black" points="298.06,-563.77 295.82,-553.42 291.11,-562.91 298.06,-563.77"/>
</g>
<!-- 13 -->
<g id="node14" class="node">
<title>13</title>
<polygon fill="none" stroke="black" points="495.5,-554 376.5,-554 376.5,-516 495.5,-516 495.5,-554"/>
<text text-anchor="middle" x="436" y="-538.8" font-family="Times,serif" font-size="14.00">latitude &lt;= 43.093</text>
<text text-anchor="middle" x="436" y="-523.8" font-family="Times,serif" font-size="14.00">class = Canada</text>
</g>
<!-- 12&#45;&gt;13 -->
<g id="edge13" class="edge">
<title>12&#45;&gt;13</title>
<path fill="none" stroke="black" d="M441.98,-589.83C441.13,-582.13 440.11,-572.97 439.16,-564.42"/>
<polygon fill="black" stroke="black" points="442.63,-563.97 438.05,-554.41 435.67,-564.74 442.63,-563.97"/>
</g>
<!-- 36 -->
<g id="node37" class="node">
<title>36</title>
<polygon fill="none" stroke="black" points="812,-554 678,-554 678,-516 812,-516 812,-554"/>
<text text-anchor="middle" x="745" y="-538.8" font-family="Times,serif" font-size="14.00">longitude &lt;= &#45;66.952</text>
<text text-anchor="middle" x="745" y="-523.8" font-family="Times,serif" font-size="14.00">class = Canada</text>
</g>
<!-- 12&#45;&gt;36 -->
<g id="edge36" class="edge">
<title>12&#45;&gt;36</title>
<path fill="none" stroke="black" d="M511.18,-591.93C557.62,-580.82 619.51,-566.02 667.96,-554.43"/>
<polygon fill="black" stroke="black" points="668.86,-557.81 677.77,-552.08 667.23,-551 668.86,-557.81"/>
</g>
<!-- 14 -->
<g id="node15" class="node">
<title>14</title>
<polygon fill="none" stroke="black" points="231,-480 97,-480 97,-442 231,-442 231,-480"/>
<text text-anchor="middle" x="164" y="-464.8" font-family="Times,serif" font-size="14.00">longitude &lt;= &#45;81.845</text>
<text text-anchor="middle" x="164" y="-449.8" font-family="Times,serif" font-size="14.00">class = Canada</text>
</g>
<!-- 13&#45;&gt;14 -->
<g id="edge14" class="edge">
<title>13&#45;&gt;14</title>
<path fill="none" stroke="black" d="M376.31,-518.2C336.56,-507.68 283.94,-493.75 241.04,-482.39"/>
<polygon fill="black" stroke="black" points="241.76,-478.96 231.2,-479.79 239.97,-485.73 241.76,-478.96"/>
</g>
<!-- 19 -->
<g id="node20" class="node">
<title>19</title>
<polygon fill="none" stroke="black" points="495.5,-480 376.5,-480 376.5,-442 495.5,-442 495.5,-480"/>
<text text-anchor="middle" x="436" y="-464.8" font-family="Times,serif" font-size="14.00">latitude &lt;= 44.992</text>
<text text-anchor="middle" x="436" y="-449.8" font-family="Times,serif" font-size="14.00">class = Canada</text>
</g>
<!-- 13&#45;&gt;19 -->
<g id="edge19" class="edge">
<title>13&#45;&gt;19</title>
<path fill="none" stroke="black" d="M436,-515.83C436,-508.13 436,-498.97 436,-490.42"/>
<polygon fill="black" stroke="black" points="439.5,-490.41 436,-480.41 432.5,-490.41 439.5,-490.41"/>
</g>
<!-- 15 -->
<g id="node16" class="node">
<title>15</title>
<polygon fill="none" stroke="black" points="86,-405 0,-405 0,-369 86,-369 86,-405"/>
<text text-anchor="middle" x="43" y="-383.3" font-family="Times,serif" font-size="14.00">class = USA</text>
</g>
<!-- 14&#45;&gt;15 -->
<g id="edge15" class="edge">
<title>14&#45;&gt;15</title>
<path fill="none" stroke="black" d="M133.47,-441.83C117.37,-432.25 97.49,-420.42 80.46,-410.29"/>
<polygon fill="black" stroke="black" points="82.24,-407.28 71.86,-405.17 78.66,-413.29 82.24,-407.28"/>
</g>
<!-- 16 -->
<g id="node17" class="node">
<title>16</title>
<polygon fill="none" stroke="black" points="223.5,-406 104.5,-406 104.5,-368 223.5,-368 223.5,-406"/>
<text text-anchor="middle" x="164" y="-390.8" font-family="Times,serif" font-size="14.00">latitude &lt;= 43.039</text>
<text text-anchor="middle" x="164" y="-375.8" font-family="Times,serif" font-size="14.00">class = Canada</text>
</g>
<!-- 14&#45;&gt;16 -->
<g id="edge16" class="edge">
<title>14&#45;&gt;16</title>
<path fill="none" stroke="black" d="M164,-441.83C164,-434.13 164,-424.97 164,-416.42"/>
<polygon fill="black" stroke="black" points="167.5,-416.41 164,-406.41 160.5,-416.41 167.5,-416.41"/>
</g>
<!-- 17 -->
<g id="node18" class="node">
<title>17</title>
<polygon fill="none" stroke="black" points="102.5,-331 3.5,-331 3.5,-295 102.5,-295 102.5,-331"/>
<text text-anchor="middle" x="53" y="-309.3" font-family="Times,serif" font-size="14.00">class = Canada</text>
</g>
<!-- 16&#45;&gt;17 -->
<g id="edge17" class="edge">
<title>16&#45;&gt;17</title>
<path fill="none" stroke="black" d="M135.99,-367.83C121.49,-358.43 103.65,-346.86 88.23,-336.85"/>
<polygon fill="black" stroke="black" points="89.77,-333.68 79.47,-331.17 85.96,-339.55 89.77,-333.68"/>
</g>
<!-- 18 -->
<g id="node19" class="node">
<title>18</title>
<polygon fill="none" stroke="black" points="207,-331 121,-331 121,-295 207,-295 207,-331"/>
<text text-anchor="middle" x="164" y="-309.3" font-family="Times,serif" font-size="14.00">class = USA</text>
</g>
<!-- 16&#45;&gt;18 -->
<g id="edge18" class="edge">
<title>16&#45;&gt;18</title>
<path fill="none" stroke="black" d="M164,-367.83C164,-359.89 164,-350.41 164,-341.63"/>
<polygon fill="black" stroke="black" points="167.5,-341.42 164,-331.42 160.5,-341.42 167.5,-341.42"/>
</g>
<!-- 20 -->
<g id="node21" class="node">
<title>20</title>
<polygon fill="none" stroke="black" points="427.5,-406 308.5,-406 308.5,-368 427.5,-368 427.5,-406"/>
<text text-anchor="middle" x="368" y="-390.8" font-family="Times,serif" font-size="14.00">latitude &lt;= 44.542</text>
<text text-anchor="middle" x="368" y="-375.8" font-family="Times,serif" font-size="14.00">class = Canada</text>
</g>
<!-- 19&#45;&gt;20 -->
<g id="edge20" class="edge">
<title>19&#45;&gt;20</title>
<path fill="none" stroke="black" d="M418.84,-441.83C410.85,-433.37 401.2,-423.15 392.46,-413.9"/>
<polygon fill="black" stroke="black" points="394.8,-411.28 385.39,-406.41 389.71,-416.09 394.8,-411.28"/>
</g>
<!-- 35 -->
<g id="node36" class="node">
<title>35</title>
<polygon fill="none" stroke="black" points="544.5,-405 445.5,-405 445.5,-369 544.5,-369 544.5,-405"/>
<text text-anchor="middle" x="495" y="-383.3" font-family="Times,serif" font-size="14.00">class = Canada</text>
</g>
<!-- 19&#45;&gt;35 -->
<g id="edge35" class="edge">
<title>19&#45;&gt;35</title>
<path fill="none" stroke="black" d="M450.89,-441.83C457.96,-433.2 466.54,-422.73 474.24,-413.33"/>
<polygon fill="black" stroke="black" points="477.1,-415.37 480.73,-405.42 471.68,-410.93 477.1,-415.37"/>
</g>
<!-- 21 -->
<g id="node22" class="node">
<title>21</title>
<polygon fill="none" stroke="black" points="359,-332 225,-332 225,-294 359,-294 359,-332"/>
<text text-anchor="middle" x="292" y="-316.8" font-family="Times,serif" font-size="14.00">longitude &lt;= &#45;79.076</text>
<text text-anchor="middle" x="292" y="-301.8" font-family="Times,serif" font-size="14.00">class = Canada</text>
</g>
<!-- 20&#45;&gt;21 -->
<g id="edge21" class="edge">
<title>20&#45;&gt;21</title>
<path fill="none" stroke="black" d="M348.82,-367.83C339.64,-359.13 328.5,-348.58 318.52,-339.13"/>
<polygon fill="black" stroke="black" points="320.84,-336.5 311.17,-332.16 316.02,-341.58 320.84,-336.5"/>
</g>
<!-- 30 -->
<g id="node31" class="node">
<title>30</title>
<polygon fill="none" stroke="black" points="496.5,-332 377.5,-332 377.5,-294 496.5,-294 496.5,-332"/>
<text text-anchor="middle" x="437" y="-316.8" font-family="Times,serif" font-size="14.00">latitude &lt;= 44.706</text>
<text text-anchor="middle" x="437" y="-301.8" font-family="Times,serif" font-size="14.00">class = USA</text>
</g>
<!-- 20&#45;&gt;30 -->
<g id="edge30" class="edge">
<title>20&#45;&gt;30</title>
<path fill="none" stroke="black" d="M385.41,-367.83C393.52,-359.37 403.32,-349.15 412.18,-339.9"/>
<polygon fill="black" stroke="black" points="414.96,-342.05 419.35,-332.41 409.91,-337.21 414.96,-342.05"/>
</g>
<!-- 22 -->
<g id="node23" class="node">
<title>22</title>
<polygon fill="none" stroke="black" points="214.5,-257 115.5,-257 115.5,-221 214.5,-221 214.5,-257"/>
<text text-anchor="middle" x="165" y="-235.3" font-family="Times,serif" font-size="14.00">class = Canada</text>
</g>
<!-- 21&#45;&gt;22 -->
<g id="edge22" class="edge">
<title>21&#45;&gt;22</title>
<path fill="none" stroke="black" d="M259.95,-293.83C243.06,-284.25 222.19,-272.42 204.32,-262.29"/>
<polygon fill="black" stroke="black" points="205.71,-259.06 195.29,-257.17 202.26,-265.15 205.71,-259.06"/>
</g>
<!-- 23 -->
<g id="node24" class="node">
<title>23</title>
<polygon fill="none" stroke="black" points="351.5,-258 232.5,-258 232.5,-220 351.5,-220 351.5,-258"/>
<text text-anchor="middle" x="292" y="-242.8" font-family="Times,serif" font-size="14.00">latitude &lt;= 44.168</text>
<text text-anchor="middle" x="292" y="-227.8" font-family="Times,serif" font-size="14.00">class = Canada</text>
</g>
<!-- 21&#45;&gt;23 -->
<g id="edge23" class="edge">
<title>21&#45;&gt;23</title>
<path fill="none" stroke="black" d="M292,-293.83C292,-286.13 292,-276.97 292,-268.42"/>
<polygon fill="black" stroke="black" points="295.5,-268.41 292,-258.41 288.5,-268.41 295.5,-268.41"/>
</g>
<!-- 24 -->
<g id="node25" class="node">
<title>24</title>
<polygon fill="none" stroke="black" points="237.5,-184 110.5,-184 110.5,-146 237.5,-146 237.5,-184"/>
<text text-anchor="middle" x="174" y="-168.8" font-family="Times,serif" font-size="14.00">longitude &lt;= &#45;79.03</text>
<text text-anchor="middle" x="174" y="-153.8" font-family="Times,serif" font-size="14.00">class = USA</text>
</g>
<!-- 23&#45;&gt;24 -->
<g id="edge24" class="edge">
<title>23&#45;&gt;24</title>
<path fill="none" stroke="black" d="M262.22,-219.83C247.13,-210.62 228.62,-199.33 212.47,-189.47"/>
<polygon fill="black" stroke="black" points="214.13,-186.38 203.77,-184.16 210.48,-192.36 214.13,-186.38"/>
</g>
<!-- 29 -->
<g id="node30" class="node">
<title>29</title>
<polygon fill="none" stroke="black" points="354.5,-183 255.5,-183 255.5,-147 354.5,-147 354.5,-183"/>
<text text-anchor="middle" x="305" y="-161.3" font-family="Times,serif" font-size="14.00">class = Canada</text>
</g>
<!-- 23&#45;&gt;29 -->
<g id="edge29" class="edge">
<title>23&#45;&gt;29</title>
<path fill="none" stroke="black" d="M295.28,-219.83C296.73,-211.81 298.46,-202.2 300.06,-193.34"/>
<polygon fill="black" stroke="black" points="303.52,-193.88 301.86,-183.42 296.63,-192.64 303.52,-193.88"/>
</g>
<!-- 25 -->
<g id="node26" class="node">
<title>25</title>
<polygon fill="none" stroke="black" points="157,-109 71,-109 71,-73 157,-73 157,-109"/>
<text text-anchor="middle" x="114" y="-87.3" font-family="Times,serif" font-size="14.00">class = USA</text>
</g>
<!-- 24&#45;&gt;25 -->
<g id="edge25" class="edge">
<title>24&#45;&gt;25</title>
<path fill="none" stroke="black" d="M158.86,-145.83C151.66,-137.2 142.94,-126.73 135.11,-117.33"/>
<polygon fill="black" stroke="black" points="137.61,-114.86 128.51,-109.42 132.23,-119.34 137.61,-114.86"/>
</g>
<!-- 26 -->
<g id="node27" class="node">
<title>26</title>
<polygon fill="none" stroke="black" points="294.5,-110 175.5,-110 175.5,-72 294.5,-72 294.5,-110"/>
<text text-anchor="middle" x="235" y="-94.8" font-family="Times,serif" font-size="14.00">latitude &lt;= 43.988</text>
<text text-anchor="middle" x="235" y="-79.8" font-family="Times,serif" font-size="14.00">class = Canada</text>
</g>
<!-- 24&#45;&gt;26 -->
<g id="edge26" class="edge">
<title>24&#45;&gt;26</title>
<path fill="none" stroke="black" d="M189.39,-145.83C196.49,-137.45 205.05,-127.35 212.82,-118.17"/>
<polygon fill="black" stroke="black" points="215.61,-120.31 219.4,-110.41 210.27,-115.78 215.61,-120.31"/>
</g>
<!-- 27 -->
<g id="node28" class="node">
<title>27</title>
<polygon fill="none" stroke="black" points="228.5,-36 129.5,-36 129.5,0 228.5,0 228.5,-36"/>
<text text-anchor="middle" x="179" y="-14.3" font-family="Times,serif" font-size="14.00">class = Canada</text>
</g>
<!-- 26&#45;&gt;27 -->
<g id="edge27" class="edge">
<title>26&#45;&gt;27</title>
<path fill="none" stroke="black" d="M220.58,-71.72C213.93,-63.29 205.93,-53.15 198.73,-44.02"/>
<polygon fill="black" stroke="black" points="201.35,-41.69 192.41,-36 195.86,-46.02 201.35,-41.69"/>
</g>
<!-- 28 -->
<g id="node29" class="node">
<title>28</title>
<polygon fill="none" stroke="black" points="333,-36 247,-36 247,0 333,0 333,-36"/>
<text text-anchor="middle" x="290" y="-14.3" font-family="Times,serif" font-size="14.00">class = USA</text>
</g>
<!-- 26&#45;&gt;28 -->
<g id="edge28" class="edge">
<title>26&#45;&gt;28</title>
<path fill="none" stroke="black" d="M249.16,-71.72C255.69,-63.29 263.55,-53.15 270.62,-44.02"/>
<polygon fill="black" stroke="black" points="273.47,-46.05 276.83,-36 267.94,-41.77 273.47,-46.05"/>
</g>
<!-- 31 -->
<g id="node32" class="node">
<title>31</title>
<polygon fill="none" stroke="black" points="456,-257 370,-257 370,-221 456,-221 456,-257"/>
<text text-anchor="middle" x="413" y="-235.3" font-family="Times,serif" font-size="14.00">class = USA</text>
</g>
<!-- 30&#45;&gt;31 -->
<g id="edge31" class="edge">
<title>30&#45;&gt;31</title>
<path fill="none" stroke="black" d="M430.94,-293.83C428.24,-285.72 425,-275.99 422.02,-267.05"/>
<polygon fill="black" stroke="black" points="425.29,-265.8 418.81,-257.42 418.65,-268.01 425.29,-265.8"/>
</g>
<!-- 32 -->
<g id="node33" class="node">
<title>32</title>
<polygon fill="none" stroke="black" points="608,-258 474,-258 474,-220 608,-220 608,-258"/>
<text text-anchor="middle" x="541" y="-242.8" font-family="Times,serif" font-size="14.00">longitude &lt;= &#45;84.392</text>
<text text-anchor="middle" x="541" y="-227.8" font-family="Times,serif" font-size="14.00">class = Canada</text>
</g>
<!-- 30&#45;&gt;32 -->
<g id="edge32" class="edge">
<title>30&#45;&gt;32</title>
<path fill="none" stroke="black" d="M463.24,-293.83C476.3,-284.79 492.25,-273.75 506.3,-264.02"/>
<polygon fill="black" stroke="black" points="508.54,-266.73 514.76,-258.16 504.55,-260.98 508.54,-266.73"/>
</g>
<!-- 33 -->
<g id="node34" class="node">
<title>33</title>
<polygon fill="none" stroke="black" points="476,-183 390,-183 390,-147 476,-147 476,-183"/>
<text text-anchor="middle" x="433" y="-161.3" font-family="Times,serif" font-size="14.00">class = USA</text>
</g>
<!-- 32&#45;&gt;33 -->
<g id="edge33" class="edge">
<title>32&#45;&gt;33</title>
<path fill="none" stroke="black" d="M513.75,-219.83C499.64,-210.43 482.28,-198.86 467.28,-188.85"/>
<polygon fill="black" stroke="black" points="469.02,-185.81 458.76,-183.17 465.14,-191.63 469.02,-185.81"/>
</g>
<!-- 34 -->
<g id="node35" class="node">
<title>34</title>
<polygon fill="none" stroke="black" points="593.5,-183 494.5,-183 494.5,-147 593.5,-147 593.5,-183"/>
<text text-anchor="middle" x="544" y="-161.3" font-family="Times,serif" font-size="14.00">class = Canada</text>
</g>
<!-- 32&#45;&gt;34 -->
<g id="edge34" class="edge">
<title>32&#45;&gt;34</title>
<path fill="none" stroke="black" d="M541.76,-219.83C542.09,-211.89 542.48,-202.41 542.85,-193.63"/>
<polygon fill="black" stroke="black" points="546.35,-193.55 543.27,-183.42 539.36,-193.26 546.35,-193.55"/>
</g>
<!-- 37 -->
<g id="node38" class="node">
<title>37</title>
<polygon fill="none" stroke="black" points="812,-480 678,-480 678,-442 812,-442 812,-480"/>
<text text-anchor="middle" x="745" y="-464.8" font-family="Times,serif" font-size="14.00">longitude &lt;= &#45;67.279</text>
<text text-anchor="middle" x="745" y="-449.8" font-family="Times,serif" font-size="14.00">class = USA</text>
</g>
<!-- 36&#45;&gt;37 -->
<g id="edge37" class="edge">
<title>36&#45;&gt;37</title>
<path fill="none" stroke="black" d="M745,-515.83C745,-508.13 745,-498.97 745,-490.42"/>
<polygon fill="black" stroke="black" points="748.5,-490.41 745,-480.41 741.5,-490.41 748.5,-490.41"/>
</g>
<!-- 54 -->
<g id="node55" class="node">
<title>54</title>
<polygon fill="none" stroke="black" points="929.5,-479 830.5,-479 830.5,-443 929.5,-443 929.5,-479"/>
<text text-anchor="middle" x="880" y="-457.3" font-family="Times,serif" font-size="14.00">class = Canada</text>
</g>
<!-- 36&#45;&gt;54 -->
<g id="edge54" class="edge">
<title>36&#45;&gt;54</title>
<path fill="none" stroke="black" d="M779.07,-515.83C797.19,-506.17 819.62,-494.2 838.72,-484.01"/>
<polygon fill="black" stroke="black" points="840.63,-486.97 847.8,-479.17 837.33,-480.79 840.63,-486.97"/>
</g>
<!-- 38 -->
<g id="node39" class="node">
<title>38</title>
<polygon fill="none" stroke="black" points="808.5,-406 681.5,-406 681.5,-368 808.5,-368 808.5,-406"/>
<text text-anchor="middle" x="745" y="-390.8" font-family="Times,serif" font-size="14.00">longitude &lt;= &#45;67.93</text>
<text text-anchor="middle" x="745" y="-375.8" font-family="Times,serif" font-size="14.00">class = Canada</text>
</g>
<!-- 37&#45;&gt;38 -->
<g id="edge38" class="edge">
<title>37&#45;&gt;38</title>
<path fill="none" stroke="black" d="M745,-441.83C745,-434.13 745,-424.97 745,-416.42"/>
<polygon fill="black" stroke="black" points="748.5,-416.41 745,-406.41 741.5,-416.41 748.5,-416.41"/>
</g>
<!-- 53 -->
<g id="node54" class="node">
<title>53</title>
<polygon fill="none" stroke="black" points="913,-405 827,-405 827,-369 913,-369 913,-405"/>
<text text-anchor="middle" x="870" y="-383.3" font-family="Times,serif" font-size="14.00">class = USA</text>
</g>
<!-- 37&#45;&gt;53 -->
<g id="edge53" class="edge">
<title>37&#45;&gt;53</title>
<path fill="none" stroke="black" d="M776.54,-441.83C793.17,-432.25 813.71,-420.42 831.3,-410.29"/>
<polygon fill="black" stroke="black" points="833.27,-413.2 840.19,-405.17 829.78,-407.13 833.27,-413.2"/>
</g>
<!-- 39 -->
<g id="node40" class="node">
<title>39</title>
<polygon fill="none" stroke="black" points="812,-332 678,-332 678,-294 812,-294 812,-332"/>
<text text-anchor="middle" x="745" y="-316.8" font-family="Times,serif" font-size="14.00">longitude &lt;= &#45;68.325</text>
<text text-anchor="middle" x="745" y="-301.8" font-family="Times,serif" font-size="14.00">class = USA</text>
</g>
<!-- 38&#45;&gt;39 -->
<g id="edge39" class="edge">
<title>38&#45;&gt;39</title>
<path fill="none" stroke="black" d="M745,-367.83C745,-360.13 745,-350.97 745,-342.42"/>
<polygon fill="black" stroke="black" points="748.5,-342.41 745,-332.41 741.5,-342.41 748.5,-342.41"/>
</g>
<!-- 48 -->
<g id="node49" class="node">
<title>48</title>
<polygon fill="none" stroke="black" points="1001.5,-332 882.5,-332 882.5,-294 1001.5,-294 1001.5,-332"/>
<text text-anchor="middle" x="942" y="-316.8" font-family="Times,serif" font-size="14.00">latitude &lt;= 45.565</text>
<text text-anchor="middle" x="942" y="-301.8" font-family="Times,serif" font-size="14.00">class = Canada</text>
</g>
<!-- 38&#45;&gt;48 -->
<g id="edge48" class="edge">
<title>38&#45;&gt;48</title>
<path fill="none" stroke="black" d="M794.46,-367.92C821.27,-358.12 854.59,-345.95 882.78,-335.64"/>
<polygon fill="black" stroke="black" points="884.33,-338.8 892.52,-332.08 881.93,-332.23 884.33,-338.8"/>
</g>
<!-- 40 -->
<g id="node41" class="node">
<title>40</title>
<polygon fill="none" stroke="black" points="760,-258 626,-258 626,-220 760,-220 760,-258"/>
<text text-anchor="middle" x="693" y="-242.8" font-family="Times,serif" font-size="14.00">longitude &lt;= &#45;68.915</text>
<text text-anchor="middle" x="693" y="-227.8" font-family="Times,serif" font-size="14.00">class = Canada</text>
</g>
<!-- 39&#45;&gt;40 -->
<g id="edge40" class="edge">
<title>39&#45;&gt;40</title>
<path fill="none" stroke="black" d="M731.88,-293.83C725.95,-285.62 718.83,-275.76 712.31,-266.73"/>
<polygon fill="black" stroke="black" points="714.99,-264.47 706.3,-258.41 709.32,-268.57 714.99,-264.47"/>
</g>
<!-- 47 -->
<g id="node48" class="node">
<title>47</title>
<polygon fill="none" stroke="black" points="864,-257 778,-257 778,-221 864,-221 864,-257"/>
<text text-anchor="middle" x="821" y="-235.3" font-family="Times,serif" font-size="14.00">class = USA</text>
</g>
<!-- 39&#45;&gt;47 -->
<g id="edge47" class="edge">
<title>39&#45;&gt;47</title>
<path fill="none" stroke="black" d="M764.18,-293.83C773.64,-284.87 785.18,-273.93 795.39,-264.26"/>
<polygon fill="black" stroke="black" points="798.02,-266.59 802.87,-257.17 793.21,-261.51 798.02,-266.59"/>
</g>
<!-- 41 -->
<g id="node42" class="node">
<title>41</title>
<polygon fill="none" stroke="black" points="711,-183 625,-183 625,-147 711,-147 711,-183"/>
<text text-anchor="middle" x="668" y="-161.3" font-family="Times,serif" font-size="14.00">class = USA</text>
</g>
<!-- 40&#45;&gt;41 -->
<g id="edge41" class="edge">
<title>40&#45;&gt;41</title>
<path fill="none" stroke="black" d="M686.69,-219.83C683.87,-211.72 680.5,-201.99 677.39,-193.05"/>
<polygon fill="black" stroke="black" points="680.63,-191.72 674.05,-183.42 674.02,-194.01 680.63,-191.72"/>
</g>
<!-- 42 -->
<g id="node43" class="node">
<title>42</title>
<polygon fill="none" stroke="black" points="863,-184 729,-184 729,-146 863,-146 863,-184"/>
<text text-anchor="middle" x="796" y="-168.8" font-family="Times,serif" font-size="14.00">longitude &lt;= &#45;68.597</text>
<text text-anchor="middle" x="796" y="-153.8" font-family="Times,serif" font-size="14.00">class = Canada</text>
</g>
<!-- 40&#45;&gt;42 -->
<g id="edge42" class="edge">
<title>40&#45;&gt;42</title>
<path fill="none" stroke="black" d="M718.99,-219.83C731.92,-210.79 747.72,-199.75 761.64,-190.02"/>
<polygon fill="black" stroke="black" points="763.83,-192.76 770.02,-184.16 759.82,-187.02 763.83,-192.76"/>
</g>
<!-- 43 -->
<g id="node44" class="node">
<title>43</title>
<polygon fill="none" stroke="black" points="777.5,-109 678.5,-109 678.5,-73 777.5,-73 777.5,-109"/>
<text text-anchor="middle" x="728" y="-87.3" font-family="Times,serif" font-size="14.00">class = Canada</text>
</g>
<!-- 42&#45;&gt;43 -->
<g id="edge43" class="edge">
<title>42&#45;&gt;43</title>
<path fill="none" stroke="black" d="M778.84,-145.83C770.52,-137.02 760.4,-126.31 751.39,-116.76"/>
<polygon fill="black" stroke="black" points="753.86,-114.28 744.45,-109.42 748.77,-119.09 753.86,-114.28"/>
</g>
<!-- 44 -->
<g id="node45" class="node">
<title>44</title>
<polygon fill="none" stroke="black" points="930,-110 796,-110 796,-72 930,-72 930,-110"/>
<text text-anchor="middle" x="863" y="-94.8" font-family="Times,serif" font-size="14.00">longitude &lt;= &#45;68.459</text>
<text text-anchor="middle" x="863" y="-79.8" font-family="Times,serif" font-size="14.00">class = Canada</text>
</g>
<!-- 42&#45;&gt;44 -->
<g id="edge44" class="edge">
<title>42&#45;&gt;44</title>
<path fill="none" stroke="black" d="M812.91,-145.83C820.78,-137.37 830.29,-127.15 838.9,-117.9"/>
<polygon fill="black" stroke="black" points="841.62,-120.12 845.87,-110.41 836.49,-115.35 841.62,-120.12"/>
</g>
<!-- 45 -->
<g id="node46" class="node">
<title>45</title>
<polygon fill="none" stroke="black" points="850,-36 764,-36 764,0 850,0 850,-36"/>
<text text-anchor="middle" x="807" y="-14.3" font-family="Times,serif" font-size="14.00">class = USA</text>
</g>
<!-- 44&#45;&gt;45 -->
<g id="edge45" class="edge">
<title>44&#45;&gt;45</title>
<path fill="none" stroke="black" d="M848.58,-71.72C841.93,-63.29 833.93,-53.15 826.73,-44.02"/>
<polygon fill="black" stroke="black" points="829.35,-41.69 820.41,-36 823.86,-46.02 829.35,-41.69"/>
</g>
<!-- 46 -->
<g id="node47" class="node">
<title>46</title>
<polygon fill="none" stroke="black" points="967.5,-36 868.5,-36 868.5,0 967.5,0 967.5,-36"/>
<text text-anchor="middle" x="918" y="-14.3" font-family="Times,serif" font-size="14.00">class = Canada</text>
</g>
<!-- 44&#45;&gt;46 -->
<g id="edge46" class="edge">
<title>44&#45;&gt;46</title>
<path fill="none" stroke="black" d="M877.16,-71.72C883.69,-63.29 891.55,-53.15 898.62,-44.02"/>
<polygon fill="black" stroke="black" points="901.47,-46.05 904.83,-36 895.94,-41.77 901.47,-46.05"/>
</g>
<!-- 49 -->
<g id="node50" class="node">
<title>49</title>
<polygon fill="none" stroke="black" points="1001.5,-258 882.5,-258 882.5,-220 1001.5,-220 1001.5,-258"/>
<text text-anchor="middle" x="942" y="-242.8" font-family="Times,serif" font-size="14.00">latitude &lt;= 45.382</text>
<text text-anchor="middle" x="942" y="-227.8" font-family="Times,serif" font-size="14.00">class = Canada</text>
</g>
<!-- 48&#45;&gt;49 -->
<g id="edge49" class="edge">
<title>48&#45;&gt;49</title>
<path fill="none" stroke="black" d="M942,-293.83C942,-286.13 942,-276.97 942,-268.42"/>
<polygon fill="black" stroke="black" points="945.5,-268.41 942,-258.41 938.5,-268.41 945.5,-268.41"/>
</g>
<!-- 52 -->
<g id="node53" class="node">
<title>52</title>
<polygon fill="none" stroke="black" points="1118.5,-257 1019.5,-257 1019.5,-221 1118.5,-221 1118.5,-257"/>
<text text-anchor="middle" x="1069" y="-235.3" font-family="Times,serif" font-size="14.00">class = Canada</text>
</g>
<!-- 48&#45;&gt;52 -->
<g id="edge52" class="edge">
<title>48&#45;&gt;52</title>
<path fill="none" stroke="black" d="M974.05,-293.83C990.94,-284.25 1011.81,-272.42 1029.68,-262.29"/>
<polygon fill="black" stroke="black" points="1031.74,-265.15 1038.71,-257.17 1028.29,-259.06 1031.74,-265.15"/>
</g>
<!-- 50 -->
<g id="node51" class="node">
<title>50</title>
<polygon fill="none" stroke="black" points="987.5,-183 888.5,-183 888.5,-147 987.5,-147 987.5,-183"/>
<text text-anchor="middle" x="938" y="-161.3" font-family="Times,serif" font-size="14.00">class = Canada</text>
</g>
<!-- 49&#45;&gt;50 -->
<g id="edge50" class="edge">
<title>49&#45;&gt;50</title>
<path fill="none" stroke="black" d="M940.99,-219.83C940.55,-211.89 940.02,-202.41 939.53,-193.63"/>
<polygon fill="black" stroke="black" points="943.02,-193.21 938.97,-183.42 936.03,-193.6 943.02,-193.21"/>
</g>
<!-- 51 -->
<g id="node52" class="node">
<title>51</title>
<polygon fill="none" stroke="black" points="1092,-183 1006,-183 1006,-147 1092,-147 1092,-183"/>
<text text-anchor="middle" x="1049" y="-161.3" font-family="Times,serif" font-size="14.00">class = USA</text>
</g>
<!-- 49&#45;&gt;51 -->
<g id="edge51" class="edge">
<title>49&#45;&gt;51</title>
<path fill="none" stroke="black" d="M969,-219.83C982.97,-210.43 1000.17,-198.86 1015.04,-188.85"/>
<polygon fill="black" stroke="black" points="1017.14,-191.66 1023.48,-183.17 1013.23,-185.85 1017.14,-191.66"/>
</g>
</g>
</svg>
