<?xml version="1.0" encoding="UTF-8" standalone="no"?>
<!DOCTYPE svg PUBLIC "-//W3C//DTD SVG 1.1//EN"
 "http://www.w3.org/Graphics/SVG/1.1/DTD/svg11.dtd">
<!-- Generated by graphviz version 2.44.1 (20200629.0846)
 -->
<!-- Title: Tree Pages: 1 -->
<svg width="1875pt" height="636pt"
 viewBox="0.00 0.00 1875.00 636.00" xmlns="http://www.w3.org/2000/svg" xmlns:xlink="http://www.w3.org/1999/xlink">
<g id="graph0" class="graph" transform="scale(1 1) rotate(0) translate(4 632)">
<title>Tree</title>
<polygon fill="white" stroke="transparent" points="-4,4 -4,-632 1871,-632 1871,4 -4,4"/>
<!-- 0 -->
<g id="node1" class="node">
<title>0</title>
<polygon fill="none" stroke="black" points="593,-628 501,-628 501,-590 593,-590 593,-628"/>
<text text-anchor="middle" x="547" y="-612.8" font-family="Times,serif" font-size="14.00">lat &lt;= 37.682</text>
<text text-anchor="middle" x="547" y="-597.8" font-family="Times,serif" font-size="14.00">class = blue</text>
</g>
<!-- 1 -->
<g id="node2" class="node">
<title>1</title>
<polygon fill="none" stroke="black" points="363.5,-554 256.5,-554 256.5,-516 363.5,-516 363.5,-554"/>
<text text-anchor="middle" x="310" y="-538.8" font-family="Times,serif" font-size="14.00">lon &lt;= &#45;114.063</text>
<text text-anchor="middle" x="310" y="-523.8" font-family="Times,serif" font-size="14.00">class = red</text>
</g>
<!-- 0&#45;&gt;1 -->
<g id="edge1" class="edge">
<title>0&#45;&gt;1</title>
<path fill="none" stroke="black" d="M500.74,-593.95C464.4,-582.91 413.41,-567.41 373.29,-555.23"/>
<polygon fill="black" stroke="black" points="374.18,-551.84 363.6,-552.28 372.15,-558.54 374.18,-551.84"/>
<text text-anchor="middle" x="375.37" y="-570.64" font-family="Times,serif" font-size="14.00">True</text>
</g>
<!-- 24 -->
<g id="node25" class="node">
<title>24</title>
<polygon fill="none" stroke="black" points="894,-554 794,-554 794,-516 894,-516 894,-554"/>
<text text-anchor="middle" x="844" y="-538.8" font-family="Times,serif" font-size="14.00">lon &lt;= &#45;96.061</text>
<text text-anchor="middle" x="844" y="-523.8" font-family="Times,serif" font-size="14.00">class = blue</text>
</g>
<!-- 0&#45;&gt;24 -->
<g id="edge24" class="edge">
<title>0&#45;&gt;24</title>
<path fill="none" stroke="black" d="M593.08,-596.83C644.42,-584.38 727.6,-564.22 783.98,-550.55"/>
<polygon fill="black" stroke="black" points="784.94,-553.92 793.84,-548.16 783.29,-547.12 784.94,-553.92"/>
<text text-anchor="middle" x="780.82" y="-565.81" font-family="Times,serif" font-size="14.00">False</text>
</g>
<!-- 2 -->
<g id="node3" class="node">
<title>2</title>
<polygon fill="none" stroke="black" points="246,-479 164,-479 164,-443 246,-443 246,-479"/>
<text text-anchor="middle" x="205" y="-457.3" font-family="Times,serif" font-size="14.00">class = blue</text>
</g>
<!-- 1&#45;&gt;2 -->
<g id="edge2" class="edge">
<title>1&#45;&gt;2</title>
<path fill="none" stroke="black" d="M283.5,-515.83C269.79,-506.43 252.91,-494.86 238.33,-484.85"/>
<polygon fill="black" stroke="black" points="240.27,-481.94 230.04,-479.17 236.31,-487.71 240.27,-481.94"/>
</g>
<!-- 3 -->
<g id="node4" class="node">
<title>3</title>
<polygon fill="none" stroke="black" points="356,-480 264,-480 264,-442 356,-442 356,-480"/>
<text text-anchor="middle" x="310" y="-464.8" font-family="Times,serif" font-size="14.00">lat &lt;= 29.595</text>
<text text-anchor="middle" x="310" y="-449.8" font-family="Times,serif" font-size="14.00">class = red</text>
</g>
<!-- 1&#45;&gt;3 -->
<g id="edge3" class="edge">
<title>1&#45;&gt;3</title>
<path fill="none" stroke="black" d="M310,-515.83C310,-508.13 310,-498.97 310,-490.42"/>
<polygon fill="black" stroke="black" points="313.5,-490.41 310,-480.41 306.5,-490.41 313.5,-490.41"/>
</g>
<!-- 4 -->
<g id="node5" class="node">
<title>4</title>
<polygon fill="none" stroke="black" points="185,-406 85,-406 85,-368 185,-368 185,-406"/>
<text text-anchor="middle" x="135" y="-390.8" font-family="Times,serif" font-size="14.00">lon &lt;= &#45;90.074</text>
<text text-anchor="middle" x="135" y="-375.8" font-family="Times,serif" font-size="14.00">class = blue</text>
</g>
<!-- 3&#45;&gt;4 -->
<g id="edge4" class="edge">
<title>3&#45;&gt;4</title>
<path fill="none" stroke="black" d="M265.84,-441.83C242.23,-432.12 212.98,-420.08 188.13,-409.86"/>
<polygon fill="black" stroke="black" points="189.42,-406.61 178.84,-406.04 186.76,-413.08 189.42,-406.61"/>
</g>
<!-- 7 -->
<g id="node8" class="node">
<title>7</title>
<polygon fill="none" stroke="black" points="356,-406 264,-406 264,-368 356,-368 356,-406"/>
<text text-anchor="middle" x="310" y="-390.8" font-family="Times,serif" font-size="14.00">lat &lt;= 36.522</text>
<text text-anchor="middle" x="310" y="-375.8" font-family="Times,serif" font-size="14.00">class = red</text>
</g>
<!-- 3&#45;&gt;7 -->
<g id="edge7" class="edge">
<title>3&#45;&gt;7</title>
<path fill="none" stroke="black" d="M310,-441.83C310,-434.13 310,-424.97 310,-416.42"/>
<polygon fill="black" stroke="black" points="313.5,-416.41 310,-406.41 306.5,-416.41 313.5,-416.41"/>
</g>
<!-- 5 -->
<g id="node6" class="node">
<title>5</title>
<polygon fill="none" stroke="black" points="76,-331 0,-331 0,-295 76,-295 76,-331"/>
<text text-anchor="middle" x="38" y="-309.3" font-family="Times,serif" font-size="14.00">class = red</text>
</g>
<!-- 4&#45;&gt;5 -->
<g id="edge5" class="edge">
<title>4&#45;&gt;5</title>
<path fill="none" stroke="black" d="M110.52,-367.83C97.97,-358.52 82.55,-347.07 69.16,-337.13"/>
<polygon fill="black" stroke="black" points="71.25,-334.32 61.13,-331.17 67.08,-339.94 71.25,-334.32"/>
</g>
<!-- 6 -->
<g id="node7" class="node">
<title>6</title>
<polygon fill="none" stroke="black" points="176,-331 94,-331 94,-295 176,-295 176,-331"/>
<text text-anchor="middle" x="135" y="-309.3" font-family="Times,serif" font-size="14.00">class = blue</text>
</g>
<!-- 4&#45;&gt;6 -->
<g id="edge6" class="edge">
<title>4&#45;&gt;6</title>
<path fill="none" stroke="black" d="M135,-367.83C135,-359.89 135,-350.41 135,-341.63"/>
<polygon fill="black" stroke="black" points="138.5,-341.42 135,-331.42 131.5,-341.42 138.5,-341.42"/>
</g>
<!-- 8 -->
<g id="node9" class="node">
<title>8</title>
<polygon fill="none" stroke="black" points="301.5,-332 194.5,-332 194.5,-294 301.5,-294 301.5,-332"/>
<text text-anchor="middle" x="248" y="-316.8" font-family="Times,serif" font-size="14.00">lon &lt;= &#45;102.257</text>
<text text-anchor="middle" x="248" y="-301.8" font-family="Times,serif" font-size="14.00">class = red</text>
</g>
<!-- 7&#45;&gt;8 -->
<g id="edge8" class="edge">
<title>7&#45;&gt;8</title>
<path fill="none" stroke="black" d="M294.35,-367.83C287.14,-359.45 278.44,-349.35 270.54,-340.17"/>
<polygon fill="black" stroke="black" points="273.03,-337.71 263.86,-332.41 267.73,-342.27 273.03,-337.71"/>
</g>
<!-- 15 -->
<g id="node16" class="node">
<title>15</title>
<polygon fill="none" stroke="black" points="420,-332 320,-332 320,-294 420,-294 420,-332"/>
<text text-anchor="middle" x="370" y="-316.8" font-family="Times,serif" font-size="14.00">lon &lt;= &#45;82.415</text>
<text text-anchor="middle" x="370" y="-301.8" font-family="Times,serif" font-size="14.00">class = red</text>
</g>
<!-- 7&#45;&gt;15 -->
<g id="edge15" class="edge">
<title>7&#45;&gt;15</title>
<path fill="none" stroke="black" d="M325.14,-367.83C332.12,-359.45 340.54,-349.35 348.19,-340.17"/>
<polygon fill="black" stroke="black" points="350.94,-342.34 354.66,-332.41 345.56,-337.85 350.94,-342.34"/>
</g>
<!-- 9 -->
<g id="node10" class="node">
<title>9</title>
<polygon fill="none" stroke="black" points="191.5,-258 84.5,-258 84.5,-220 191.5,-220 191.5,-258"/>
<text text-anchor="middle" x="138" y="-242.8" font-family="Times,serif" font-size="14.00">lon &lt;= &#45;107.589</text>
<text text-anchor="middle" x="138" y="-227.8" font-family="Times,serif" font-size="14.00">class = red</text>
</g>
<!-- 8&#45;&gt;9 -->
<g id="edge9" class="edge">
<title>8&#45;&gt;9</title>
<path fill="none" stroke="black" d="M220.24,-293.83C206.3,-284.71 189.24,-273.54 174.28,-263.74"/>
<polygon fill="black" stroke="black" points="176.03,-260.71 165.75,-258.16 172.2,-266.57 176.03,-260.71"/>
</g>
<!-- 14 -->
<g id="node15" class="node">
<title>14</title>
<polygon fill="none" stroke="black" points="286,-257 210,-257 210,-221 286,-221 286,-257"/>
<text text-anchor="middle" x="248" y="-235.3" font-family="Times,serif" font-size="14.00">class = red</text>
</g>
<!-- 8&#45;&gt;14 -->
<g id="edge14" class="edge">
<title>8&#45;&gt;14</title>
<path fill="none" stroke="black" d="M248,-293.83C248,-285.89 248,-276.41 248,-267.63"/>
<polygon fill="black" stroke="black" points="251.5,-267.42 248,-257.42 244.5,-267.42 251.5,-267.42"/>
</g>
<!-- 10 -->
<g id="node11" class="node">
<title>10</title>
<polygon fill="none" stroke="black" points="82,-183 6,-183 6,-147 82,-147 82,-183"/>
<text text-anchor="middle" x="44" y="-161.3" font-family="Times,serif" font-size="14.00">class = red</text>
</g>
<!-- 9&#45;&gt;10 -->
<g id="edge10" class="edge">
<title>9&#45;&gt;10</title>
<path fill="none" stroke="black" d="M114.28,-219.83C102.23,-210.6 87.46,-199.29 74.57,-189.41"/>
<polygon fill="black" stroke="black" points="76.49,-186.47 66.42,-183.17 72.23,-192.03 76.49,-186.47"/>
</g>
<!-- 11 -->
<g id="node12" class="node">
<title>11</title>
<polygon fill="none" stroke="black" points="192,-184 100,-184 100,-146 192,-146 192,-184"/>
<text text-anchor="middle" x="146" y="-168.8" font-family="Times,serif" font-size="14.00">lat &lt;= 31.788</text>
<text text-anchor="middle" x="146" y="-153.8" font-family="Times,serif" font-size="14.00">class = blue</text>
</g>
<!-- 9&#45;&gt;11 -->
<g id="edge11" class="edge">
<title>9&#45;&gt;11</title>
<path fill="none" stroke="black" d="M140.02,-219.83C140.87,-212.13 141.89,-202.97 142.84,-194.42"/>
<polygon fill="black" stroke="black" points="146.33,-194.74 143.95,-184.41 139.37,-193.97 146.33,-194.74"/>
</g>
<!-- 12 -->
<g id="node13" class="node">
<title>12</title>
<polygon fill="none" stroke="black" points="136,-109 60,-109 60,-73 136,-73 136,-109"/>
<text text-anchor="middle" x="98" y="-87.3" font-family="Times,serif" font-size="14.00">class = red</text>
</g>
<!-- 11&#45;&gt;12 -->
<g id="edge12" class="edge">
<title>11&#45;&gt;12</title>
<path fill="none" stroke="black" d="M133.89,-145.83C128.25,-137.37 121.43,-127.15 115.27,-117.9"/>
<polygon fill="black" stroke="black" points="118.07,-115.8 109.61,-109.42 112.25,-119.68 118.07,-115.8"/>
</g>
<!-- 13 -->
<g id="node14" class="node">
<title>13</title>
<polygon fill="none" stroke="black" points="236,-109 154,-109 154,-73 236,-73 236,-109"/>
<text text-anchor="middle" x="195" y="-87.3" font-family="Times,serif" font-size="14.00">class = blue</text>
</g>
<!-- 11&#45;&gt;13 -->
<g id="edge13" class="edge">
<title>11&#45;&gt;13</title>
<path fill="none" stroke="black" d="M158.36,-145.83C164.12,-137.37 171.08,-127.15 177.37,-117.9"/>
<polygon fill="black" stroke="black" points="180.41,-119.65 183.15,-109.42 174.63,-115.72 180.41,-119.65"/>
</g>
<!-- 16 -->
<g id="node17" class="node">
<title>16</title>
<polygon fill="none" stroke="black" points="396,-258 304,-258 304,-220 396,-220 396,-258"/>
<text text-anchor="middle" x="350" y="-242.8" font-family="Times,serif" font-size="14.00">lat &lt;= 36.633</text>
<text text-anchor="middle" x="350" y="-227.8" font-family="Times,serif" font-size="14.00">class = red</text>
</g>
<!-- 15&#45;&gt;16 -->
<g id="edge16" class="edge">
<title>15&#45;&gt;16</title>
<path fill="none" stroke="black" d="M364.95,-293.83C362.79,-286.05 360.21,-276.77 357.82,-268.13"/>
<polygon fill="black" stroke="black" points="361.16,-267.11 355.11,-258.41 354.42,-268.99 361.16,-267.11"/>
</g>
<!-- 19 -->
<g id="node20" class="node">
<title>19</title>
<polygon fill="none" stroke="black" points="514,-258 414,-258 414,-220 514,-220 514,-258"/>
<text text-anchor="middle" x="464" y="-242.8" font-family="Times,serif" font-size="14.00">lon &lt;= &#45;80.706</text>
<text text-anchor="middle" x="464" y="-227.8" font-family="Times,serif" font-size="14.00">class = blue</text>
</g>
<!-- 15&#45;&gt;19 -->
<g id="edge19" class="edge">
<title>15&#45;&gt;19</title>
<path fill="none" stroke="black" d="M393.72,-293.83C405.41,-284.88 419.67,-273.96 432.28,-264.3"/>
<polygon fill="black" stroke="black" points="434.48,-267.02 440.29,-258.16 430.22,-261.47 434.48,-267.02"/>
</g>
<!-- 17 -->
<g id="node18" class="node">
<title>17</title>
<polygon fill="none" stroke="black" points="297,-183 215,-183 215,-147 297,-147 297,-183"/>
<text text-anchor="middle" x="256" y="-161.3" font-family="Times,serif" font-size="14.00">class = blue</text>
</g>
<!-- 16&#45;&gt;17 -->
<g id="edge17" class="edge">
<title>16&#45;&gt;17</title>
<path fill="none" stroke="black" d="M326.28,-219.83C314.23,-210.6 299.46,-199.29 286.57,-189.41"/>
<polygon fill="black" stroke="black" points="288.49,-186.47 278.42,-183.17 284.23,-192.03 288.49,-186.47"/>
</g>
<!-- 18 -->
<g id="node19" class="node">
<title>18</title>
<polygon fill="none" stroke="black" points="391,-183 315,-183 315,-147 391,-147 391,-183"/>
<text text-anchor="middle" x="353" y="-161.3" font-family="Times,serif" font-size="14.00">class = red</text>
</g>
<!-- 16&#45;&gt;18 -->
<g id="edge18" class="edge">
<title>16&#45;&gt;18</title>
<path fill="none" stroke="black" d="M350.76,-219.83C351.09,-211.89 351.48,-202.41 351.85,-193.63"/>
<polygon fill="black" stroke="black" points="355.35,-193.55 352.27,-183.42 348.36,-193.26 355.35,-193.55"/>
</g>
<!-- 20 -->
<g id="node21" class="node">
<title>20</title>
<polygon fill="none" stroke="black" points="501.5,-184 416.5,-184 416.5,-146 501.5,-146 501.5,-184"/>
<text text-anchor="middle" x="459" y="-168.8" font-family="Times,serif" font-size="14.00">lat &lt;= 37.15</text>
<text text-anchor="middle" x="459" y="-153.8" font-family="Times,serif" font-size="14.00">class = blue</text>
</g>
<!-- 19&#45;&gt;20 -->
<g id="edge20" class="edge">
<title>19&#45;&gt;20</title>
<path fill="none" stroke="black" d="M462.74,-219.83C462.2,-212.13 461.57,-202.97 460.97,-194.42"/>
<polygon fill="black" stroke="black" points="464.46,-194.15 460.28,-184.41 457.48,-194.63 464.46,-194.15"/>
</g>
<!-- 23 -->
<g id="node24" class="node">
<title>23</title>
<polygon fill="none" stroke="black" points="602,-183 520,-183 520,-147 602,-147 602,-183"/>
<text text-anchor="middle" x="561" y="-161.3" font-family="Times,serif" font-size="14.00">class = blue</text>
</g>
<!-- 19&#45;&gt;23 -->
<g id="edge23" class="edge">
<title>19&#45;&gt;23</title>
<path fill="none" stroke="black" d="M488.48,-219.83C501.03,-210.52 516.45,-199.07 529.84,-189.13"/>
<polygon fill="black" stroke="black" points="531.92,-191.94 537.87,-183.17 527.75,-186.32 531.92,-191.94"/>
</g>
<!-- 21 -->
<g id="node22" class="node">
<title>21</title>
<polygon fill="none" stroke="black" points="452,-109 370,-109 370,-73 452,-73 452,-109"/>
<text text-anchor="middle" x="411" y="-87.3" font-family="Times,serif" font-size="14.00">class = blue</text>
</g>
<!-- 20&#45;&gt;21 -->
<g id="edge21" class="edge">
<title>20&#45;&gt;21</title>
<path fill="none" stroke="black" d="M446.89,-145.83C441.25,-137.37 434.43,-127.15 428.27,-117.9"/>
<polygon fill="black" stroke="black" points="431.07,-115.8 422.61,-109.42 425.25,-119.68 431.07,-115.8"/>
</g>
<!-- 22 -->
<g id="node23" class="node">
<title>22</title>
<polygon fill="none" stroke="black" points="546,-109 470,-109 470,-73 546,-73 546,-109"/>
<text text-anchor="middle" x="508" y="-87.3" font-family="Times,serif" font-size="14.00">class = red</text>
</g>
<!-- 20&#45;&gt;22 -->
<g id="edge22" class="edge">
<title>20&#45;&gt;22</title>
<path fill="none" stroke="black" d="M471.36,-145.83C477.12,-137.37 484.08,-127.15 490.37,-117.9"/>
<polygon fill="black" stroke="black" points="493.41,-119.65 496.15,-109.42 487.63,-115.72 493.41,-119.65"/>
</g>
<!-- 25 -->
<g id="node26" class="node">
<title>25</title>
<polygon fill="none" stroke="black" points="897.5,-480 790.5,-480 790.5,-442 897.5,-442 897.5,-480"/>
<text text-anchor="middle" x="844" y="-464.8" font-family="Times,serif" font-size="14.00">lon &lt;= &#45;104.089</text>
<text text-anchor="middle" x="844" y="-449.8" font-family="Times,serif" font-size="14.00">class = red</text>
</g>
<!-- 24&#45;&gt;25 -->
<g id="edge25" class="edge">
<title>24&#45;&gt;25</title>
<path fill="none" stroke="black" d="M844,-515.83C844,-508.13 844,-498.97 844,-490.42"/>
<polygon fill="black" stroke="black" points="847.5,-490.41 844,-480.41 840.5,-490.41 847.5,-490.41"/>
</g>
<!-- 42 -->
<g id="node43" class="node">
<title>42</title>
<polygon fill="none" stroke="black" points="1465,-480 1373,-480 1373,-442 1465,-442 1465,-480"/>
<text text-anchor="middle" x="1419" y="-464.8" font-family="Times,serif" font-size="14.00">lat &lt;= 39.759</text>
<text text-anchor="middle" x="1419" y="-449.8" font-family="Times,serif" font-size="14.00">class = blue</text>
</g>
<!-- 24&#45;&gt;42 -->
<g id="edge42" class="edge">
<title>24&#45;&gt;42</title>
<path fill="none" stroke="black" d="M894.02,-527.74C1000.8,-514.37 1250.43,-483.11 1362.62,-469.06"/>
<polygon fill="black" stroke="black" points="1363.23,-472.51 1372.72,-467.79 1362.37,-465.56 1363.23,-472.51"/>
</g>
<!-- 26 -->
<g id="node27" class="node">
<title>26</title>
<polygon fill="none" stroke="black" points="833,-406 741,-406 741,-368 833,-368 833,-406"/>
<text text-anchor="middle" x="787" y="-390.8" font-family="Times,serif" font-size="14.00">lat &lt;= 41.895</text>
<text text-anchor="middle" x="787" y="-375.8" font-family="Times,serif" font-size="14.00">class = blue</text>
</g>
<!-- 25&#45;&gt;26 -->
<g id="edge26" class="edge">
<title>25&#45;&gt;26</title>
<path fill="none" stroke="black" d="M829.62,-441.83C823.05,-433.54 815.15,-423.56 807.94,-414.45"/>
<polygon fill="black" stroke="black" points="810.53,-412.08 801.58,-406.41 805.04,-416.43 810.53,-412.08"/>
</g>
<!-- 37 -->
<g id="node38" class="node">
<title>37</title>
<polygon fill="none" stroke="black" points="951,-406 851,-406 851,-368 951,-368 951,-406"/>
<text text-anchor="middle" x="901" y="-390.8" font-family="Times,serif" font-size="14.00">lon &lt;= &#45;96.557</text>
<text text-anchor="middle" x="901" y="-375.8" font-family="Times,serif" font-size="14.00">class = red</text>
</g>
<!-- 25&#45;&gt;37 -->
<g id="edge37" class="edge">
<title>25&#45;&gt;37</title>
<path fill="none" stroke="black" d="M858.38,-441.83C864.95,-433.54 872.85,-423.56 880.06,-414.45"/>
<polygon fill="black" stroke="black" points="882.96,-416.43 886.42,-406.41 877.47,-412.08 882.96,-416.43"/>
</g>
<!-- 27 -->
<g id="node28" class="node">
<title>27</title>
<polygon fill="none" stroke="black" points="727.5,-332 620.5,-332 620.5,-294 727.5,-294 727.5,-332"/>
<text text-anchor="middle" x="674" y="-316.8" font-family="Times,serif" font-size="14.00">lon &lt;= &#45;113.872</text>
<text text-anchor="middle" x="674" y="-301.8" font-family="Times,serif" font-size="14.00">class = blue</text>
</g>
<!-- 26&#45;&gt;27 -->
<g id="edge27" class="edge">
<title>26&#45;&gt;27</title>
<path fill="none" stroke="black" d="M758.49,-367.83C744.17,-358.71 726.64,-347.54 711.27,-337.74"/>
<polygon fill="black" stroke="black" points="712.82,-334.58 702.51,-332.16 709.06,-340.49 712.82,-334.58"/>
</g>
<!-- 32 -->
<g id="node33" class="node">
<title>32</title>
<polygon fill="none" stroke="black" points="830.5,-332 745.5,-332 745.5,-294 830.5,-294 830.5,-332"/>
<text text-anchor="middle" x="788" y="-316.8" font-family="Times,serif" font-size="14.00">lat &lt;= 45.33</text>
<text text-anchor="middle" x="788" y="-301.8" font-family="Times,serif" font-size="14.00">class = red</text>
</g>
<!-- 26&#45;&gt;32 -->
<g id="edge32" class="edge">
<title>26&#45;&gt;32</title>
<path fill="none" stroke="black" d="M787.25,-367.83C787.36,-360.13 787.49,-350.97 787.61,-342.42"/>
<polygon fill="black" stroke="black" points="791.1,-342.46 787.74,-332.41 784.11,-342.36 791.1,-342.46"/>
</g>
<!-- 28 -->
<g id="node29" class="node">
<title>28</title>
<polygon fill="none" stroke="black" points="614,-257 532,-257 532,-221 614,-221 614,-257"/>
<text text-anchor="middle" x="573" y="-235.3" font-family="Times,serif" font-size="14.00">class = blue</text>
</g>
<!-- 27&#45;&gt;28 -->
<g id="edge28" class="edge">
<title>27&#45;&gt;28</title>
<path fill="none" stroke="black" d="M648.51,-293.83C635.45,-284.52 619.39,-273.07 605.45,-263.13"/>
<polygon fill="black" stroke="black" points="607.26,-260.13 597.09,-257.17 603.2,-265.83 607.26,-260.13"/>
</g>
<!-- 29 -->
<g id="node30" class="node">
<title>29</title>
<polygon fill="none" stroke="black" points="724,-258 632,-258 632,-220 724,-220 724,-258"/>
<text text-anchor="middle" x="678" y="-242.8" font-family="Times,serif" font-size="14.00">lat &lt;= 38.917</text>
<text text-anchor="middle" x="678" y="-227.8" font-family="Times,serif" font-size="14.00">class = blue</text>
</g>
<!-- 27&#45;&gt;29 -->
<g id="edge29" class="edge">
<title>27&#45;&gt;29</title>
<path fill="none" stroke="black" d="M675.01,-293.83C675.44,-286.13 675.95,-276.97 676.42,-268.42"/>
<polygon fill="black" stroke="black" points="679.92,-268.59 676.98,-258.41 672.93,-268.2 679.92,-268.59"/>
</g>
<!-- 30 -->
<g id="node31" class="node">
<title>30</title>
<polygon fill="none" stroke="black" points="707,-183 631,-183 631,-147 707,-147 707,-183"/>
<text text-anchor="middle" x="669" y="-161.3" font-family="Times,serif" font-size="14.00">class = red</text>
</g>
<!-- 29&#45;&gt;30 -->
<g id="edge30" class="edge">
<title>29&#45;&gt;30</title>
<path fill="none" stroke="black" d="M675.73,-219.83C674.74,-211.89 673.55,-202.41 672.45,-193.63"/>
<polygon fill="black" stroke="black" points="675.89,-192.91 671.18,-183.42 668.94,-193.77 675.89,-192.91"/>
</g>
<!-- 31 -->
<g id="node32" class="node">
<title>31</title>
<polygon fill="none" stroke="black" points="807,-183 725,-183 725,-147 807,-147 807,-183"/>
<text text-anchor="middle" x="766" y="-161.3" font-family="Times,serif" font-size="14.00">class = blue</text>
</g>
<!-- 29&#45;&gt;31 -->
<g id="edge31" class="edge">
<title>29&#45;&gt;31</title>
<path fill="none" stroke="black" d="M700.21,-219.83C711.38,-210.69 725.05,-199.5 737.04,-189.7"/>
<polygon fill="black" stroke="black" points="739.49,-192.21 745.01,-183.17 735.06,-186.8 739.49,-192.21"/>
</g>
<!-- 33 -->
<g id="node34" class="node">
<title>33</title>
<polygon fill="none" stroke="black" points="818,-257 742,-257 742,-221 818,-221 818,-257"/>
<text text-anchor="middle" x="780" y="-235.3" font-family="Times,serif" font-size="14.00">class = red</text>
</g>
<!-- 32&#45;&gt;33 -->
<g id="edge33" class="edge">
<title>32&#45;&gt;33</title>
<path fill="none" stroke="black" d="M785.98,-293.83C785.1,-285.89 784.05,-276.41 783.07,-267.63"/>
<polygon fill="black" stroke="black" points="786.52,-266.97 781.94,-257.42 779.56,-267.74 786.52,-266.97"/>
</g>
<!-- 34 -->
<g id="node35" class="node">
<title>34</title>
<polygon fill="none" stroke="black" points="943.5,-258 836.5,-258 836.5,-220 943.5,-220 943.5,-258"/>
<text text-anchor="middle" x="890" y="-242.8" font-family="Times,serif" font-size="14.00">lon &lt;= &#45;133.954</text>
<text text-anchor="middle" x="890" y="-227.8" font-family="Times,serif" font-size="14.00">class = blue</text>
</g>
<!-- 32&#45;&gt;34 -->
<g id="edge34" class="edge">
<title>32&#45;&gt;34</title>
<path fill="none" stroke="black" d="M813.74,-293.83C826.54,-284.79 842.19,-273.75 855.97,-264.02"/>
<polygon fill="black" stroke="black" points="858.12,-266.79 864.27,-258.16 854.08,-261.07 858.12,-266.79"/>
</g>
<!-- 35 -->
<g id="node36" class="node">
<title>35</title>
<polygon fill="none" stroke="black" points="915,-183 839,-183 839,-147 915,-147 915,-183"/>
<text text-anchor="middle" x="877" y="-161.3" font-family="Times,serif" font-size="14.00">class = red</text>
</g>
<!-- 34&#45;&gt;35 -->
<g id="edge35" class="edge">
<title>34&#45;&gt;35</title>
<path fill="none" stroke="black" d="M886.72,-219.83C885.27,-211.81 883.54,-202.2 881.94,-193.34"/>
<polygon fill="black" stroke="black" points="885.37,-192.64 880.14,-183.42 878.48,-193.88 885.37,-192.64"/>
</g>
<!-- 36 -->
<g id="node37" class="node">
<title>36</title>
<polygon fill="none" stroke="black" points="1015,-183 933,-183 933,-147 1015,-147 1015,-183"/>
<text text-anchor="middle" x="974" y="-161.3" font-family="Times,serif" font-size="14.00">class = blue</text>
</g>
<!-- 34&#45;&gt;36 -->
<g id="edge36" class="edge">
<title>34&#45;&gt;36</title>
<path fill="none" stroke="black" d="M911.2,-219.83C921.86,-210.69 934.91,-199.5 946.35,-189.7"/>
<polygon fill="black" stroke="black" points="948.65,-192.34 953.97,-183.17 944.1,-187.02 948.65,-192.34"/>
</g>
<!-- 38 -->
<g id="node39" class="node">
<title>38</title>
<polygon fill="none" stroke="black" points="937,-331 861,-331 861,-295 937,-295 937,-331"/>
<text text-anchor="middle" x="899" y="-309.3" font-family="Times,serif" font-size="14.00">class = red</text>
</g>
<!-- 37&#45;&gt;38 -->
<g id="edge38" class="edge">
<title>37&#45;&gt;38</title>
<path fill="none" stroke="black" d="M900.5,-367.83C900.27,-359.89 900.01,-350.41 899.77,-341.63"/>
<polygon fill="black" stroke="black" points="903.26,-341.32 899.48,-331.42 896.26,-341.51 903.26,-341.32"/>
</g>
<!-- 39 -->
<g id="node40" class="node">
<title>39</title>
<polygon fill="none" stroke="black" points="1047,-332 955,-332 955,-294 1047,-294 1047,-332"/>
<text text-anchor="middle" x="1001" y="-316.8" font-family="Times,serif" font-size="14.00">lat &lt;= 42.007</text>
<text text-anchor="middle" x="1001" y="-301.8" font-family="Times,serif" font-size="14.00">class = blue</text>
</g>
<!-- 37&#45;&gt;39 -->
<g id="edge39" class="edge">
<title>37&#45;&gt;39</title>
<path fill="none" stroke="black" d="M926.23,-367.83C938.79,-358.79 954.13,-347.75 967.64,-338.02"/>
<polygon fill="black" stroke="black" points="969.7,-340.85 975.77,-332.16 965.61,-335.17 969.7,-340.85"/>
</g>
<!-- 40 -->
<g id="node41" class="node">
<title>40</title>
<polygon fill="none" stroke="black" points="1038,-257 962,-257 962,-221 1038,-221 1038,-257"/>
<text text-anchor="middle" x="1000" y="-235.3" font-family="Times,serif" font-size="14.00">class = red</text>
</g>
<!-- 39&#45;&gt;40 -->
<g id="edge40" class="edge">
<title>39&#45;&gt;40</title>
<path fill="none" stroke="black" d="M1000.75,-293.83C1000.64,-285.89 1000.51,-276.41 1000.38,-267.63"/>
<polygon fill="black" stroke="black" points="1003.88,-267.37 1000.24,-257.42 996.88,-267.47 1003.88,-267.37"/>
</g>
<!-- 41 -->
<g id="node42" class="node">
<title>41</title>
<polygon fill="none" stroke="black" points="1138,-257 1056,-257 1056,-221 1138,-221 1138,-257"/>
<text text-anchor="middle" x="1097" y="-235.3" font-family="Times,serif" font-size="14.00">class = blue</text>
</g>
<!-- 39&#45;&gt;41 -->
<g id="edge41" class="edge">
<title>39&#45;&gt;41</title>
<path fill="none" stroke="black" d="M1025.22,-293.83C1037.53,-284.6 1052.62,-273.29 1065.78,-263.41"/>
<polygon fill="black" stroke="black" points="1068.2,-265.97 1074.1,-257.17 1064,-260.37 1068.2,-265.97"/>
</g>
<!-- 43 -->
<g id="node44" class="node">
<title>43</title>
<polygon fill="none" stroke="black" points="1469,-406 1369,-406 1369,-368 1469,-368 1469,-406"/>
<text text-anchor="middle" x="1419" y="-390.8" font-family="Times,serif" font-size="14.00">lon &lt;= &#45;79.773</text>
<text text-anchor="middle" x="1419" y="-375.8" font-family="Times,serif" font-size="14.00">class = blue</text>
</g>
<!-- 42&#45;&gt;43 -->
<g id="edge43" class="edge">
<title>42&#45;&gt;43</title>
<path fill="none" stroke="black" d="M1419,-441.83C1419,-434.13 1419,-424.97 1419,-416.42"/>
<polygon fill="black" stroke="black" points="1422.5,-416.41 1419,-406.41 1415.5,-416.41 1422.5,-416.41"/>
</g>
<!-- 62 -->
<g id="node63" class="node">
<title>62</title>
<polygon fill="none" stroke="black" points="1767,-406 1667,-406 1667,-368 1767,-368 1767,-406"/>
<text text-anchor="middle" x="1717" y="-390.8" font-family="Times,serif" font-size="14.00">lon &lt;= &#45;84.905</text>
<text text-anchor="middle" x="1717" y="-375.8" font-family="Times,serif" font-size="14.00">class = blue</text>
</g>
<!-- 42&#45;&gt;62 -->
<g id="edge62" class="edge">
<title>42&#45;&gt;62</title>
<path fill="none" stroke="black" d="M1465.24,-448.83C1516.82,-436.36 1600.45,-416.16 1657.03,-402.49"/>
<polygon fill="black" stroke="black" points="1658.02,-405.85 1666.92,-400.1 1656.38,-399.05 1658.02,-405.85"/>
</g>
<!-- 44 -->
<g id="node45" class="node">
<title>44</title>
<polygon fill="none" stroke="black" points="1394,-332 1294,-332 1294,-294 1394,-294 1394,-332"/>
<text text-anchor="middle" x="1344" y="-316.8" font-family="Times,serif" font-size="14.00">lon &lt;= &#45;87.643</text>
<text text-anchor="middle" x="1344" y="-301.8" font-family="Times,serif" font-size="14.00">class = red</text>
</g>
<!-- 43&#45;&gt;44 -->
<g id="edge44" class="edge">
<title>43&#45;&gt;44</title>
<path fill="none" stroke="black" d="M1400.07,-367.83C1391.01,-359.13 1380.02,-348.58 1370.17,-339.13"/>
<polygon fill="black" stroke="black" points="1372.56,-336.56 1362.92,-332.16 1367.71,-341.61 1372.56,-336.56"/>
</g>
<!-- 57 -->
<g id="node58" class="node">
<title>57</title>
<polygon fill="none" stroke="black" points="1549,-332 1449,-332 1449,-294 1549,-294 1549,-332"/>
<text text-anchor="middle" x="1499" y="-316.8" font-family="Times,serif" font-size="14.00">lon &lt;= &#45;78.395</text>
<text text-anchor="middle" x="1499" y="-301.8" font-family="Times,serif" font-size="14.00">class = blue</text>
</g>
<!-- 43&#45;&gt;57 -->
<g id="edge57" class="edge">
<title>43&#45;&gt;57</title>
<path fill="none" stroke="black" d="M1439.19,-367.83C1448.85,-359.13 1460.58,-348.58 1471.08,-339.13"/>
<polygon fill="black" stroke="black" points="1473.73,-341.45 1478.82,-332.16 1469.04,-336.25 1473.73,-341.45"/>
</g>
<!-- 45 -->
<g id="node46" class="node">
<title>45</title>
<polygon fill="none" stroke="black" points="1249.5,-258 1156.5,-258 1156.5,-220 1249.5,-220 1249.5,-258"/>
<text text-anchor="middle" x="1203" y="-242.8" font-family="Times,serif" font-size="14.00">lon &lt;= &#45;90.12</text>
<text text-anchor="middle" x="1203" y="-227.8" font-family="Times,serif" font-size="14.00">class = blue</text>
</g>
<!-- 44&#45;&gt;45 -->
<g id="edge45" class="edge">
<title>44&#45;&gt;45</title>
<path fill="none" stroke="black" d="M1308.42,-293.83C1289.97,-284.41 1267.25,-272.81 1247.63,-262.79"/>
<polygon fill="black" stroke="black" points="1249.07,-259.59 1238.57,-258.16 1245.88,-265.83 1249.07,-259.59"/>
</g>
<!-- 52 -->
<g id="node53" class="node">
<title>52</title>
<polygon fill="none" stroke="black" points="1390,-258 1298,-258 1298,-220 1390,-220 1390,-258"/>
<text text-anchor="middle" x="1344" y="-242.8" font-family="Times,serif" font-size="14.00">lat &lt;= 38.562</text>
<text text-anchor="middle" x="1344" y="-227.8" font-family="Times,serif" font-size="14.00">class = red</text>
</g>
<!-- 44&#45;&gt;52 -->
<g id="edge52" class="edge">
<title>44&#45;&gt;52</title>
<path fill="none" stroke="black" d="M1344,-293.83C1344,-286.13 1344,-276.97 1344,-268.42"/>
<polygon fill="black" stroke="black" points="1347.5,-268.41 1344,-258.41 1340.5,-268.41 1347.5,-268.41"/>
</g>
<!-- 46 -->
<g id="node47" class="node">
<title>46</title>
<polygon fill="none" stroke="black" points="1140,-184 1040,-184 1040,-146 1140,-146 1140,-184"/>
<text text-anchor="middle" x="1090" y="-168.8" font-family="Times,serif" font-size="14.00">lon &lt;= &#45;90.841</text>
<text text-anchor="middle" x="1090" y="-153.8" font-family="Times,serif" font-size="14.00">class = red</text>
</g>
<!-- 45&#45;&gt;46 -->
<g id="edge46" class="edge">
<title>45&#45;&gt;46</title>
<path fill="none" stroke="black" d="M1174.49,-219.83C1160.17,-210.71 1142.64,-199.54 1127.27,-189.74"/>
<polygon fill="black" stroke="black" points="1128.82,-186.58 1118.51,-184.16 1125.06,-192.49 1128.82,-186.58"/>
</g>
<!-- 51 -->
<g id="node52" class="node">
<title>51</title>
<polygon fill="none" stroke="black" points="1240,-183 1158,-183 1158,-147 1240,-147 1240,-183"/>
<text text-anchor="middle" x="1199" y="-161.3" font-family="Times,serif" font-size="14.00">class = blue</text>
</g>
<!-- 45&#45;&gt;51 -->
<g id="edge51" class="edge">
<title>45&#45;&gt;51</title>
<path fill="none" stroke="black" d="M1201.99,-219.83C1201.55,-211.89 1201.02,-202.41 1200.53,-193.63"/>
<polygon fill="black" stroke="black" points="1204.02,-193.21 1199.97,-183.42 1197.03,-193.6 1204.02,-193.21"/>
</g>
<!-- 47 -->
<g id="node48" class="node">
<title>47</title>
<polygon fill="none" stroke="black" points="1079,-109 1003,-109 1003,-73 1079,-73 1079,-109"/>
<text text-anchor="middle" x="1041" y="-87.3" font-family="Times,serif" font-size="14.00">class = red</text>
</g>
<!-- 46&#45;&gt;47 -->
<g id="edge47" class="edge">
<title>46&#45;&gt;47</title>
<path fill="none" stroke="black" d="M1077.64,-145.83C1071.88,-137.37 1064.92,-127.15 1058.63,-117.9"/>
<polygon fill="black" stroke="black" points="1061.37,-115.72 1052.85,-109.42 1055.59,-119.65 1061.37,-115.72"/>
</g>
<!-- 48 -->
<g id="node49" class="node">
<title>48</title>
<polygon fill="none" stroke="black" points="1182.5,-110 1097.5,-110 1097.5,-72 1182.5,-72 1182.5,-110"/>
<text text-anchor="middle" x="1140" y="-94.8" font-family="Times,serif" font-size="14.00">lat &lt;= 38.85</text>
<text text-anchor="middle" x="1140" y="-79.8" font-family="Times,serif" font-size="14.00">class = blue</text>
</g>
<!-- 46&#45;&gt;48 -->
<g id="edge48" class="edge">
<title>46&#45;&gt;48</title>
<path fill="none" stroke="black" d="M1102.62,-145.83C1108.32,-137.62 1115.17,-127.76 1121.44,-118.73"/>
<polygon fill="black" stroke="black" points="1124.38,-120.62 1127.21,-110.41 1118.63,-116.63 1124.38,-120.62"/>
</g>
<!-- 49 -->
<g id="node50" class="node">
<title>49</title>
<polygon fill="none" stroke="black" points="1130,-36 1054,-36 1054,0 1130,0 1130,-36"/>
<text text-anchor="middle" x="1092" y="-14.3" font-family="Times,serif" font-size="14.00">class = red</text>
</g>
<!-- 48&#45;&gt;49 -->
<g id="edge49" class="edge">
<title>48&#45;&gt;49</title>
<path fill="none" stroke="black" d="M1127.64,-71.72C1122,-63.37 1115.22,-53.35 1109.1,-44.3"/>
<polygon fill="black" stroke="black" points="1112,-42.33 1103.5,-36 1106.2,-46.25 1112,-42.33"/>
</g>
<!-- 50 -->
<g id="node51" class="node">
<title>50</title>
<polygon fill="none" stroke="black" points="1230,-36 1148,-36 1148,0 1230,0 1230,-36"/>
<text text-anchor="middle" x="1189" y="-14.3" font-family="Times,serif" font-size="14.00">class = blue</text>
</g>
<!-- 48&#45;&gt;50 -->
<g id="edge50" class="edge">
<title>48&#45;&gt;50</title>
<path fill="none" stroke="black" d="M1152.62,-71.72C1158.38,-63.37 1165.29,-53.35 1171.54,-44.3"/>
<polygon fill="black" stroke="black" points="1174.47,-46.22 1177.27,-36 1168.7,-42.25 1174.47,-46.22"/>
</g>
<!-- 53 -->
<g id="node54" class="node">
<title>53</title>
<polygon fill="none" stroke="black" points="1350,-184 1258,-184 1258,-146 1350,-146 1350,-184"/>
<text text-anchor="middle" x="1304" y="-168.8" font-family="Times,serif" font-size="14.00">lat &lt;= 38.324</text>
<text text-anchor="middle" x="1304" y="-153.8" font-family="Times,serif" font-size="14.00">class = red</text>
</g>
<!-- 52&#45;&gt;53 -->
<g id="edge53" class="edge">
<title>52&#45;&gt;53</title>
<path fill="none" stroke="black" d="M1333.91,-219.83C1329.44,-211.79 1324.09,-202.17 1319.16,-193.29"/>
<polygon fill="black" stroke="black" points="1322.15,-191.46 1314.23,-184.41 1316.03,-194.85 1322.15,-191.46"/>
</g>
<!-- 56 -->
<g id="node57" class="node">
<title>56</title>
<polygon fill="none" stroke="black" points="1444,-183 1368,-183 1368,-147 1444,-147 1444,-183"/>
<text text-anchor="middle" x="1406" y="-161.3" font-family="Times,serif" font-size="14.00">class = red</text>
</g>
<!-- 52&#45;&gt;56 -->
<g id="edge56" class="edge">
<title>52&#45;&gt;56</title>
<path fill="none" stroke="black" d="M1359.65,-219.83C1367.16,-211.11 1376.28,-200.52 1384.43,-191.05"/>
<polygon fill="black" stroke="black" points="1387.13,-193.28 1391,-183.42 1381.82,-188.71 1387.13,-193.28"/>
</g>
<!-- 54 -->
<g id="node55" class="node">
<title>54</title>
<polygon fill="none" stroke="black" points="1334,-109 1258,-109 1258,-73 1334,-73 1334,-109"/>
<text text-anchor="middle" x="1296" y="-87.3" font-family="Times,serif" font-size="14.00">class = red</text>
</g>
<!-- 53&#45;&gt;54 -->
<g id="edge54" class="edge">
<title>53&#45;&gt;54</title>
<path fill="none" stroke="black" d="M1301.98,-145.83C1301.1,-137.89 1300.05,-128.41 1299.07,-119.63"/>
<polygon fill="black" stroke="black" points="1302.52,-118.97 1297.94,-109.42 1295.56,-119.74 1302.52,-118.97"/>
</g>
<!-- 55 -->
<g id="node56" class="node">
<title>55</title>
<polygon fill="none" stroke="black" points="1434,-109 1352,-109 1352,-73 1434,-73 1434,-109"/>
<text text-anchor="middle" x="1393" y="-87.3" font-family="Times,serif" font-size="14.00">class = blue</text>
</g>
<!-- 53&#45;&gt;55 -->
<g id="edge55" class="edge">
<title>53&#45;&gt;55</title>
<path fill="none" stroke="black" d="M1326.46,-145.83C1337.76,-136.69 1351.59,-125.5 1363.71,-115.7"/>
<polygon fill="black" stroke="black" points="1366.2,-118.18 1371.77,-109.17 1361.8,-112.74 1366.2,-118.18"/>
</g>
<!-- 58 -->
<g id="node59" class="node">
<title>58</title>
<polygon fill="none" stroke="black" points="1549,-258 1449,-258 1449,-220 1549,-220 1549,-258"/>
<text text-anchor="middle" x="1499" y="-242.8" font-family="Times,serif" font-size="14.00">lon &lt;= &#45;78.878</text>
<text text-anchor="middle" x="1499" y="-227.8" font-family="Times,serif" font-size="14.00">class = blue</text>
</g>
<!-- 57&#45;&gt;58 -->
<g id="edge58" class="edge">
<title>57&#45;&gt;58</title>
<path fill="none" stroke="black" d="M1499,-293.83C1499,-286.13 1499,-276.97 1499,-268.42"/>
<polygon fill="black" stroke="black" points="1502.5,-268.41 1499,-258.41 1495.5,-268.41 1502.5,-268.41"/>
</g>
<!-- 61 -->
<g id="node62" class="node">
<title>61</title>
<polygon fill="none" stroke="black" points="1649,-257 1567,-257 1567,-221 1649,-221 1649,-257"/>
<text text-anchor="middle" x="1608" y="-235.3" font-family="Times,serif" font-size="14.00">class = blue</text>
</g>
<!-- 57&#45;&gt;61 -->
<g id="edge61" class="edge">
<title>57&#45;&gt;61</title>
<path fill="none" stroke="black" d="M1526.51,-293.83C1540.74,-284.43 1558.26,-272.86 1573.41,-262.85"/>
<polygon fill="black" stroke="black" points="1575.59,-265.6 1582,-257.17 1571.73,-259.76 1575.59,-265.6"/>
</g>
<!-- 59 -->
<g id="node60" class="node">
<title>59</title>
<polygon fill="none" stroke="black" points="1544,-183 1462,-183 1462,-147 1544,-147 1544,-183"/>
<text text-anchor="middle" x="1503" y="-161.3" font-family="Times,serif" font-size="14.00">class = blue</text>
</g>
<!-- 58&#45;&gt;59 -->
<g id="edge59" class="edge">
<title>58&#45;&gt;59</title>
<path fill="none" stroke="black" d="M1500.01,-219.83C1500.45,-211.89 1500.98,-202.41 1501.47,-193.63"/>
<polygon fill="black" stroke="black" points="1504.97,-193.6 1502.03,-183.42 1497.98,-193.21 1504.97,-193.6"/>
</g>
<!-- 60 -->
<g id="node61" class="node">
<title>60</title>
<polygon fill="none" stroke="black" points="1638,-183 1562,-183 1562,-147 1638,-147 1638,-183"/>
<text text-anchor="middle" x="1600" y="-161.3" font-family="Times,serif" font-size="14.00">class = red</text>
</g>
<!-- 58&#45;&gt;60 -->
<g id="edge60" class="edge">
<title>58&#45;&gt;60</title>
<path fill="none" stroke="black" d="M1524.49,-219.83C1537.55,-210.52 1553.61,-199.07 1567.55,-189.13"/>
<polygon fill="black" stroke="black" points="1569.8,-191.83 1575.91,-183.17 1565.74,-186.13 1569.8,-191.83"/>
</g>
<!-- 63 -->
<g id="node64" class="node">
<title>63</title>
<polygon fill="none" stroke="black" points="1763,-332 1671,-332 1671,-294 1763,-294 1763,-332"/>
<text text-anchor="middle" x="1717" y="-316.8" font-family="Times,serif" font-size="14.00">lat &lt;= 41.739</text>
<text text-anchor="middle" x="1717" y="-301.8" font-family="Times,serif" font-size="14.00">class = blue</text>
</g>
<!-- 62&#45;&gt;63 -->
<g id="edge63" class="edge">
<title>62&#45;&gt;63</title>
<path fill="none" stroke="black" d="M1717,-367.83C1717,-360.13 1717,-350.97 1717,-342.42"/>
<polygon fill="black" stroke="black" points="1720.5,-342.41 1717,-332.41 1713.5,-342.41 1720.5,-342.41"/>
</g>
<!-- 72 -->
<g id="node73" class="node">
<title>72</title>
<polygon fill="none" stroke="black" points="1863,-331 1781,-331 1781,-295 1863,-295 1863,-331"/>
<text text-anchor="middle" x="1822" y="-309.3" font-family="Times,serif" font-size="14.00">class = blue</text>
</g>
<!-- 62&#45;&gt;72 -->
<g id="edge72" class="edge">
<title>62&#45;&gt;72</title>
<path fill="none" stroke="black" d="M1743.5,-367.83C1757.21,-358.43 1774.09,-346.86 1788.67,-336.85"/>
<polygon fill="black" stroke="black" points="1790.69,-339.71 1796.96,-331.17 1786.73,-333.94 1790.69,-339.71"/>
</g>
<!-- 64 -->
<g id="node65" class="node">
<title>64</title>
<polygon fill="none" stroke="black" points="1767,-258 1667,-258 1667,-220 1767,-220 1767,-258"/>
<text text-anchor="middle" x="1717" y="-242.8" font-family="Times,serif" font-size="14.00">lon &lt;= &#45;87.697</text>
<text text-anchor="middle" x="1717" y="-227.8" font-family="Times,serif" font-size="14.00">class = blue</text>
</g>
<!-- 63&#45;&gt;64 -->
<g id="edge64" class="edge">
<title>63&#45;&gt;64</title>
<path fill="none" stroke="black" d="M1717,-293.83C1717,-286.13 1717,-276.97 1717,-268.42"/>
<polygon fill="black" stroke="black" points="1720.5,-268.41 1717,-258.41 1713.5,-268.41 1720.5,-268.41"/>
</g>
<!-- 71 -->
<g id="node72" class="node">
<title>71</title>
<polygon fill="none" stroke="black" points="1867,-257 1785,-257 1785,-221 1867,-221 1867,-257"/>
<text text-anchor="middle" x="1826" y="-235.3" font-family="Times,serif" font-size="14.00">class = blue</text>
</g>
<!-- 63&#45;&gt;71 -->
<g id="edge71" class="edge">
<title>63&#45;&gt;71</title>
<path fill="none" stroke="black" d="M1744.51,-293.83C1758.74,-284.43 1776.26,-272.86 1791.41,-262.85"/>
<polygon fill="black" stroke="black" points="1793.59,-265.6 1800,-257.17 1789.73,-259.76 1793.59,-265.6"/>
</g>
<!-- 65 -->
<g id="node66" class="node">
<title>65</title>
<polygon fill="none" stroke="black" points="1763,-184 1663,-184 1663,-146 1763,-146 1763,-184"/>
<text text-anchor="middle" x="1713" y="-168.8" font-family="Times,serif" font-size="14.00">lon &lt;= &#45;91.379</text>
<text text-anchor="middle" x="1713" y="-153.8" font-family="Times,serif" font-size="14.00">class = blue</text>
</g>
<!-- 64&#45;&gt;65 -->
<g id="edge65" class="edge">
<title>64&#45;&gt;65</title>
<path fill="none" stroke="black" d="M1715.99,-219.83C1715.56,-212.13 1715.05,-202.97 1714.58,-194.42"/>
<polygon fill="black" stroke="black" points="1718.07,-194.2 1714.02,-184.41 1711.08,-194.59 1718.07,-194.2"/>
</g>
<!-- 70 -->
<g id="node71" class="node">
<title>70</title>
<polygon fill="none" stroke="black" points="1857,-183 1781,-183 1781,-147 1857,-147 1857,-183"/>
<text text-anchor="middle" x="1819" y="-161.3" font-family="Times,serif" font-size="14.00">class = red</text>
</g>
<!-- 64&#45;&gt;70 -->
<g id="edge70" class="edge">
<title>64&#45;&gt;70</title>
<path fill="none" stroke="black" d="M1742.74,-219.83C1755.93,-210.52 1772.15,-199.07 1786.23,-189.13"/>
<polygon fill="black" stroke="black" points="1788.52,-191.8 1794.67,-183.17 1784.49,-186.08 1788.52,-191.8"/>
</g>
<!-- 66 -->
<g id="node67" class="node">
<title>66</title>
<polygon fill="none" stroke="black" points="1708,-110 1608,-110 1608,-72 1708,-72 1708,-110"/>
<text text-anchor="middle" x="1658" y="-94.8" font-family="Times,serif" font-size="14.00">lon &lt;= &#45;95.317</text>
<text text-anchor="middle" x="1658" y="-79.8" font-family="Times,serif" font-size="14.00">class = red</text>
</g>
<!-- 65&#45;&gt;66 -->
<g id="edge66" class="edge">
<title>65&#45;&gt;66</title>
<path fill="none" stroke="black" d="M1699.12,-145.83C1692.79,-137.54 1685.16,-127.56 1678.21,-118.45"/>
<polygon fill="black" stroke="black" points="1680.92,-116.24 1672.07,-110.41 1675.35,-120.48 1680.92,-116.24"/>
</g>
<!-- 69 -->
<g id="node70" class="node">
<title>69</title>
<polygon fill="none" stroke="black" points="1808,-109 1726,-109 1726,-73 1808,-73 1808,-109"/>
<text text-anchor="middle" x="1767" y="-87.3" font-family="Times,serif" font-size="14.00">class = blue</text>
</g>
<!-- 65&#45;&gt;69 -->
<g id="edge69" class="edge">
<title>65&#45;&gt;69</title>
<path fill="none" stroke="black" d="M1726.63,-145.83C1733.04,-137.28 1740.79,-126.94 1747.79,-117.62"/>
<polygon fill="black" stroke="black" points="1750.74,-119.52 1753.94,-109.42 1745.14,-115.32 1750.74,-119.52"/>
</g>
<!-- 67 -->
<g id="node68" class="node">
<title>67</title>
<polygon fill="none" stroke="black" points="1650,-36 1568,-36 1568,0 1650,0 1650,-36"/>
<text text-anchor="middle" x="1609" y="-14.3" font-family="Times,serif" font-size="14.00">class = blue</text>
</g>
<!-- 66&#45;&gt;67 -->
<g id="edge67" class="edge">
<title>66&#45;&gt;67</title>
<path fill="none" stroke="black" d="M1645.38,-71.72C1639.62,-63.37 1632.71,-53.35 1626.46,-44.3"/>
<polygon fill="black" stroke="black" points="1629.3,-42.25 1620.73,-36 1623.53,-46.22 1629.3,-42.25"/>
</g>
<!-- 68 -->
<g id="node69" class="node">
<title>68</title>
<polygon fill="none" stroke="black" points="1744,-36 1668,-36 1668,0 1744,0 1744,-36"/>
<text text-anchor="middle" x="1706" y="-14.3" font-family="Times,serif" font-size="14.00">class = red</text>
</g>
<!-- 66&#45;&gt;68 -->
<g id="edge68" class="edge">
<title>66&#45;&gt;68</title>
<path fill="none" stroke="black" d="M1670.36,-71.72C1676,-63.37 1682.78,-53.35 1688.9,-44.3"/>
<polygon fill="black" stroke="black" points="1691.8,-46.25 1694.5,-36 1686,-42.33 1691.8,-46.25"/>
</g>
</g>
</svg>
