<?xml version="1.0" encoding="UTF-8" standalone="no"?>
<!DOCTYPE svg PUBLIC "-//W3C//DTD SVG 1.1//EN"
 "http://www.w3.org/Graphics/SVG/1.1/DTD/svg11.dtd">
<!-- Generated by graphviz version 2.44.1 (20200629.0846)
 -->
<!-- Title: Tree Pages: 1 -->
<svg width="1103pt" height="932pt"
 viewBox="0.00 0.00 1102.50 932.00" xmlns="http://www.w3.org/2000/svg" xmlns:xlink="http://www.w3.org/1999/xlink">
<g id="graph0" class="graph" transform="scale(1 1) rotate(0) translate(4 928)">
<title>Tree</title>
<polygon fill="white" stroke="transparent" points="-4,4 -4,-928 1098.5,-928 1098.5,4 -4,4"/>
<!-- 0 -->
<g id="node1" class="node">
<title>0</title>
<polygon fill="none" stroke="black" points="406.5,-924 301.5,-924 301.5,-886 406.5,-886 406.5,-924"/>
<text text-anchor="middle" x="354" y="-908.8" font-family="Times,serif" font-size="14.00">latitude &lt;= 42.9</text>
<text text-anchor="middle" x="354" y="-893.8" font-family="Times,serif" font-size="14.00">class = Canada</text>
</g>
<!-- 1 -->
<g id="node2" class="node">
<title>1</title>
<polygon fill="none" stroke="black" points="345.5,-850 226.5,-850 226.5,-812 345.5,-812 345.5,-850"/>
<text text-anchor="middle" x="286" y="-834.8" font-family="Times,serif" font-size="14.00">latitude &lt;= 42.096</text>
<text text-anchor="middle" x="286" y="-819.8" font-family="Times,serif" font-size="14.00">class = USA</text>
</g>
<!-- 0&#45;&gt;1 -->
<g id="edge1" class="edge">
<title>0&#45;&gt;1</title>
<path fill="none" stroke="black" d="M336.84,-885.83C328.85,-877.37 319.2,-867.15 310.46,-857.9"/>
<polygon fill="black" stroke="black" points="312.8,-855.28 303.39,-850.41 307.71,-860.09 312.8,-855.28"/>
<text text-anchor="middle" x="302.68" y="-871.7" font-family="Times,serif" font-size="14.00">True</text>
</g>
<!-- 6 -->
<g id="node7" class="node">
<title>6</title>
<polygon fill="none" stroke="black" points="482.5,-850 363.5,-850 363.5,-812 482.5,-812 482.5,-850"/>
<text text-anchor="middle" x="423" y="-834.8" font-family="Times,serif" font-size="14.00">latitude &lt;= 55.958</text>
<text text-anchor="middle" x="423" y="-819.8" font-family="Times,serif" font-size="14.00">class = Canada</text>
</g>
<!-- 0&#45;&gt;6 -->
<g id="edge6" class="edge">
<title>0&#45;&gt;6</title>
<path fill="none" stroke="black" d="M371.41,-885.83C379.52,-877.37 389.32,-867.15 398.18,-857.9"/>
<polygon fill="black" stroke="black" points="400.96,-860.05 405.35,-850.41 395.91,-855.21 400.96,-860.05"/>
<text text-anchor="middle" x="405.89" y="-871.71" font-family="Times,serif" font-size="14.00">False</text>
</g>
<!-- 2 -->
<g id="node3" class="node">
<title>2</title>
<polygon fill="none" stroke="black" points="210,-775 124,-775 124,-739 210,-739 210,-775"/>
<text text-anchor="middle" x="167" y="-753.3" font-family="Times,serif" font-size="14.00">class = USA</text>
</g>
<!-- 1&#45;&gt;2 -->
<g id="edge2" class="edge">
<title>1&#45;&gt;2</title>
<path fill="none" stroke="black" d="M255.97,-811.83C240.29,-802.34 220.94,-790.64 204.31,-780.57"/>
<polygon fill="black" stroke="black" points="205.75,-777.35 195.38,-775.17 202.12,-783.34 205.75,-777.35"/>
</g>
<!-- 3 -->
<g id="node4" class="node">
<title>3</title>
<polygon fill="none" stroke="black" points="347.5,-776 228.5,-776 228.5,-738 347.5,-738 347.5,-776"/>
<text text-anchor="middle" x="288" y="-760.8" font-family="Times,serif" font-size="14.00">latitude &lt;= 42.324</text>
<text text-anchor="middle" x="288" y="-745.8" font-family="Times,serif" font-size="14.00">class = USA</text>
</g>
<!-- 1&#45;&gt;3 -->
<g id="edge3" class="edge">
<title>1&#45;&gt;3</title>
<path fill="none" stroke="black" d="M286.5,-811.83C286.72,-804.13 286.97,-794.97 287.21,-786.42"/>
<polygon fill="black" stroke="black" points="290.71,-786.51 287.49,-776.41 283.71,-786.31 290.71,-786.51"/>
</g>
<!-- 4 -->
<g id="node5" class="node">
<title>4</title>
<polygon fill="none" stroke="black" points="227.5,-701 128.5,-701 128.5,-665 227.5,-665 227.5,-701"/>
<text text-anchor="middle" x="178" y="-679.3" font-family="Times,serif" font-size="14.00">class = Canada</text>
</g>
<!-- 3&#45;&gt;4 -->
<g id="edge4" class="edge">
<title>3&#45;&gt;4</title>
<path fill="none" stroke="black" d="M260.24,-737.83C245.88,-728.43 228.2,-716.86 212.91,-706.85"/>
<polygon fill="black" stroke="black" points="214.52,-703.72 204.23,-701.17 210.68,-709.58 214.52,-703.72"/>
</g>
<!-- 5 -->
<g id="node6" class="node">
<title>5</title>
<polygon fill="none" stroke="black" points="332,-701 246,-701 246,-665 332,-665 332,-701"/>
<text text-anchor="middle" x="289" y="-679.3" font-family="Times,serif" font-size="14.00">class = USA</text>
</g>
<!-- 3&#45;&gt;5 -->
<g id="edge5" class="edge">
<title>3&#45;&gt;5</title>
<path fill="none" stroke="black" d="M288.25,-737.83C288.36,-729.89 288.49,-720.41 288.62,-711.63"/>
<polygon fill="black" stroke="black" points="292.12,-711.47 288.76,-701.42 285.12,-711.37 292.12,-711.47"/>
</g>
<!-- 7 -->
<g id="node8" class="node">
<title>7</title>
<polygon fill="none" stroke="black" points="474.5,-776 369.5,-776 369.5,-738 474.5,-738 474.5,-776"/>
<text text-anchor="middle" x="422" y="-760.8" font-family="Times,serif" font-size="14.00">latitude &lt;= 49.0</text>
<text text-anchor="middle" x="422" y="-745.8" font-family="Times,serif" font-size="14.00">class = Canada</text>
</g>
<!-- 6&#45;&gt;7 -->
<g id="edge7" class="edge">
<title>6&#45;&gt;7</title>
<path fill="none" stroke="black" d="M422.75,-811.83C422.64,-804.13 422.51,-794.97 422.39,-786.42"/>
<polygon fill="black" stroke="black" points="425.89,-786.36 422.26,-776.41 418.9,-786.46 425.89,-786.36"/>
</g>
<!-- 54 -->
<g id="node55" class="node">
<title>54</title>
<polygon fill="none" stroke="black" points="579,-775 493,-775 493,-739 579,-739 579,-775"/>
<text text-anchor="middle" x="536" y="-753.3" font-family="Times,serif" font-size="14.00">class = USA</text>
</g>
<!-- 6&#45;&gt;54 -->
<g id="edge54" class="edge">
<title>6&#45;&gt;54</title>
<path fill="none" stroke="black" d="M451.51,-811.83C466.41,-802.34 484.78,-790.64 500.58,-780.57"/>
<polygon fill="black" stroke="black" points="502.5,-783.5 509.05,-775.17 498.74,-777.59 502.5,-783.5"/>
</g>
<!-- 8 -->
<g id="node9" class="node">
<title>8</title>
<polygon fill="none" stroke="black" points="488,-702 354,-702 354,-664 488,-664 488,-702"/>
<text text-anchor="middle" x="421" y="-686.8" font-family="Times,serif" font-size="14.00">longitude &lt;= &#45;94.582</text>
<text text-anchor="middle" x="421" y="-671.8" font-family="Times,serif" font-size="14.00">class = Canada</text>
</g>
<!-- 7&#45;&gt;8 -->
<g id="edge8" class="edge">
<title>7&#45;&gt;8</title>
<path fill="none" stroke="black" d="M421.75,-737.83C421.64,-730.13 421.51,-720.97 421.39,-712.42"/>
<polygon fill="black" stroke="black" points="424.89,-712.36 421.26,-702.41 417.9,-712.46 424.89,-712.36"/>
</g>
<!-- 53 -->
<g id="node54" class="node">
<title>53</title>
<polygon fill="none" stroke="black" points="605.5,-701 506.5,-701 506.5,-665 605.5,-665 605.5,-701"/>
<text text-anchor="middle" x="556" y="-679.3" font-family="Times,serif" font-size="14.00">class = Canada</text>
</g>
<!-- 7&#45;&gt;53 -->
<g id="edge53" class="edge">
<title>7&#45;&gt;53</title>
<path fill="none" stroke="black" d="M455.81,-737.83C473.8,-728.17 496.06,-716.2 515.03,-706.01"/>
<polygon fill="black" stroke="black" points="516.89,-708.99 524.04,-701.17 513.58,-702.82 516.89,-708.99"/>
</g>
<!-- 9 -->
<g id="node10" class="node">
<title>9</title>
<polygon fill="none" stroke="black" points="414,-628 274,-628 274,-590 414,-590 414,-628"/>
<text text-anchor="middle" x="344" y="-612.8" font-family="Times,serif" font-size="14.00">longitude &lt;= &#45;123.222</text>
<text text-anchor="middle" x="344" y="-597.8" font-family="Times,serif" font-size="14.00">class = USA</text>
</g>
<!-- 8&#45;&gt;9 -->
<g id="edge9" class="edge">
<title>8&#45;&gt;9</title>
<path fill="none" stroke="black" d="M401.57,-663.83C392.27,-655.13 380.98,-644.58 370.87,-635.13"/>
<polygon fill="black" stroke="black" points="373.12,-632.44 363.42,-628.16 368.34,-637.55 373.12,-632.44"/>
</g>
<!-- 12 -->
<g id="node13" class="node">
<title>12</title>
<polygon fill="none" stroke="black" points="566,-628 432,-628 432,-590 566,-590 566,-628"/>
<text text-anchor="middle" x="499" y="-612.8" font-family="Times,serif" font-size="14.00">longitude &lt;= &#45;69.246</text>
<text text-anchor="middle" x="499" y="-597.8" font-family="Times,serif" font-size="14.00">class = Canada</text>
</g>
<!-- 8&#45;&gt;12 -->
<g id="edge12" class="edge">
<title>8&#45;&gt;12</title>
<path fill="none" stroke="black" d="M440.68,-663.83C450.11,-655.13 461.54,-644.58 471.78,-635.13"/>
<polygon fill="black" stroke="black" points="474.35,-637.52 479.32,-628.16 469.6,-632.37 474.35,-637.52"/>
</g>
<!-- 10 -->
<g id="node11" class="node">
<title>10</title>
<polygon fill="none" stroke="black" points="291.5,-553 192.5,-553 192.5,-517 291.5,-517 291.5,-553"/>
<text text-anchor="middle" x="242" y="-531.3" font-family="Times,serif" font-size="14.00">class = Canada</text>
</g>
<!-- 9&#45;&gt;10 -->
<g id="edge10" class="edge">
<title>9&#45;&gt;10</title>
<path fill="none" stroke="black" d="M318.26,-589.83C305.07,-580.52 288.85,-569.07 274.77,-559.13"/>
<polygon fill="black" stroke="black" points="276.51,-556.08 266.33,-553.17 272.48,-561.8 276.51,-556.08"/>
</g>
<!-- 11 -->
<g id="node12" class="node">
<title>11</title>
<polygon fill="none" stroke="black" points="396,-553 310,-553 310,-517 396,-517 396,-553"/>
<text text-anchor="middle" x="353" y="-531.3" font-family="Times,serif" font-size="14.00">class = USA</text>
</g>
<!-- 9&#45;&gt;11 -->
<g id="edge11" class="edge">
<title>9&#45;&gt;11</title>
<path fill="none" stroke="black" d="M346.27,-589.83C347.26,-581.89 348.45,-572.41 349.55,-563.63"/>
<polygon fill="black" stroke="black" points="353.06,-563.77 350.82,-553.42 346.11,-562.91 353.06,-563.77"/>
</g>
<!-- 13 -->
<g id="node14" class="node">
<title>13</title>
<polygon fill="none" stroke="black" points="550.5,-554 431.5,-554 431.5,-516 550.5,-516 550.5,-554"/>
<text text-anchor="middle" x="491" y="-538.8" font-family="Times,serif" font-size="14.00">latitude &lt;= 43.093</text>
<text text-anchor="middle" x="491" y="-523.8" font-family="Times,serif" font-size="14.00">class = Canada</text>
</g>
<!-- 12&#45;&gt;13 -->
<g id="edge13" class="edge">
<title>12&#45;&gt;13</title>
<path fill="none" stroke="black" d="M496.98,-589.83C496.13,-582.13 495.11,-572.97 494.16,-564.42"/>
<polygon fill="black" stroke="black" points="497.63,-563.97 493.05,-554.41 490.67,-564.74 497.63,-563.97"/>
</g>
<!-- 36 -->
<g id="node37" class="node">
<title>36</title>
<polygon fill="none" stroke="black" points="754,-554 620,-554 620,-516 754,-516 754,-554"/>
<text text-anchor="middle" x="687" y="-538.8" font-family="Times,serif" font-size="14.00">longitude &lt;= &#45;66.952</text>
<text text-anchor="middle" x="687" y="-523.8" font-family="Times,serif" font-size="14.00">class = Canada</text>
</g>
<!-- 12&#45;&gt;36 -->
<g id="edge36" class="edge">
<title>12&#45;&gt;36</title>
<path fill="none" stroke="black" d="M546.44,-589.83C571.92,-580.07 603.5,-567.98 630.28,-557.72"/>
<polygon fill="black" stroke="black" points="631.81,-560.88 639.9,-554.04 629.31,-554.35 631.81,-560.88"/>
</g>
<!-- 14 -->
<g id="node15" class="node">
<title>14</title>
<polygon fill="none" stroke="black" points="346.5,-480 227.5,-480 227.5,-442 346.5,-442 346.5,-480"/>
<text text-anchor="middle" x="287" y="-464.8" font-family="Times,serif" font-size="14.00">latitude &lt;= 43.014</text>
<text text-anchor="middle" x="287" y="-449.8" font-family="Times,serif" font-size="14.00">class = Canada</text>
</g>
<!-- 13&#45;&gt;14 -->
<g id="edge14" class="edge">
<title>13&#45;&gt;14</title>
<path fill="none" stroke="black" d="M439.79,-515.92C411.9,-506.08 377.21,-493.84 347.94,-483.51"/>
<polygon fill="black" stroke="black" points="348.83,-480.11 338.24,-480.08 346.5,-486.71 348.83,-480.11"/>
</g>
<!-- 19 -->
<g id="node20" class="node">
<title>19</title>
<polygon fill="none" stroke="black" points="550.5,-480 431.5,-480 431.5,-442 550.5,-442 550.5,-480"/>
<text text-anchor="middle" x="491" y="-464.8" font-family="Times,serif" font-size="14.00">latitude &lt;= 44.992</text>
<text text-anchor="middle" x="491" y="-449.8" font-family="Times,serif" font-size="14.00">class = Canada</text>
</g>
<!-- 13&#45;&gt;19 -->
<g id="edge19" class="edge">
<title>13&#45;&gt;19</title>
<path fill="none" stroke="black" d="M491,-515.83C491,-508.13 491,-498.97 491,-490.42"/>
<polygon fill="black" stroke="black" points="494.5,-490.41 491,-480.41 487.5,-490.41 494.5,-490.41"/>
</g>
<!-- 15 -->
<g id="node16" class="node">
<title>15</title>
<polygon fill="none" stroke="black" points="221,-406 87,-406 87,-368 221,-368 221,-406"/>
<text text-anchor="middle" x="154" y="-390.8" font-family="Times,serif" font-size="14.00">longitude &lt;= &#45;81.845</text>
<text text-anchor="middle" x="154" y="-375.8" font-family="Times,serif" font-size="14.00">class = Canada</text>
</g>
<!-- 14&#45;&gt;15 -->
<g id="edge15" class="edge">
<title>14&#45;&gt;15</title>
<path fill="none" stroke="black" d="M253.44,-441.83C236.11,-432.45 214.79,-420.91 196.35,-410.92"/>
<polygon fill="black" stroke="black" points="198.01,-407.85 187.55,-406.16 194.68,-414 198.01,-407.85"/>
</g>
<!-- 18 -->
<g id="node19" class="node">
<title>18</title>
<polygon fill="none" stroke="black" points="330,-405 244,-405 244,-369 330,-369 330,-405"/>
<text text-anchor="middle" x="287" y="-383.3" font-family="Times,serif" font-size="14.00">class = USA</text>
</g>
<!-- 14&#45;&gt;18 -->
<g id="edge18" class="edge">
<title>14&#45;&gt;18</title>
<path fill="none" stroke="black" d="M287,-441.83C287,-433.89 287,-424.41 287,-415.63"/>
<polygon fill="black" stroke="black" points="290.5,-415.42 287,-405.42 283.5,-415.42 290.5,-415.42"/>
</g>
<!-- 16 -->
<g id="node17" class="node">
<title>16</title>
<polygon fill="none" stroke="black" points="86,-331 0,-331 0,-295 86,-295 86,-331"/>
<text text-anchor="middle" x="43" y="-309.3" font-family="Times,serif" font-size="14.00">class = USA</text>
</g>
<!-- 15&#45;&gt;16 -->
<g id="edge16" class="edge">
<title>15&#45;&gt;16</title>
<path fill="none" stroke="black" d="M125.99,-367.83C111.49,-358.43 93.65,-346.86 78.23,-336.85"/>
<polygon fill="black" stroke="black" points="79.77,-333.68 69.47,-331.17 75.96,-339.55 79.77,-333.68"/>
</g>
<!-- 17 -->
<g id="node18" class="node">
<title>17</title>
<polygon fill="none" stroke="black" points="203.5,-331 104.5,-331 104.5,-295 203.5,-295 203.5,-331"/>
<text text-anchor="middle" x="154" y="-309.3" font-family="Times,serif" font-size="14.00">class = Canada</text>
</g>
<!-- 15&#45;&gt;17 -->
<g id="edge17" class="edge">
<title>15&#45;&gt;17</title>
<path fill="none" stroke="black" d="M154,-367.83C154,-359.89 154,-350.41 154,-341.63"/>
<polygon fill="black" stroke="black" points="157.5,-341.42 154,-331.42 150.5,-341.42 157.5,-341.42"/>
</g>
<!-- 20 -->
<g id="node21" class="node">
<title>20</title>
<polygon fill="none" stroke="black" points="485.5,-406 366.5,-406 366.5,-368 485.5,-368 485.5,-406"/>
<text text-anchor="middle" x="426" y="-390.8" font-family="Times,serif" font-size="14.00">latitude &lt;= 44.542</text>
<text text-anchor="middle" x="426" y="-375.8" font-family="Times,serif" font-size="14.00">class = Canada</text>
</g>
<!-- 19&#45;&gt;20 -->
<g id="edge20" class="edge">
<title>19&#45;&gt;20</title>
<path fill="none" stroke="black" d="M474.6,-441.83C466.96,-433.37 457.73,-423.15 449.38,-413.9"/>
<polygon fill="black" stroke="black" points="451.92,-411.49 442.62,-406.41 446.73,-416.18 451.92,-411.49"/>
</g>
<!-- 35 -->
<g id="node36" class="node">
<title>35</title>
<polygon fill="none" stroke="black" points="602.5,-405 503.5,-405 503.5,-369 602.5,-369 602.5,-405"/>
<text text-anchor="middle" x="553" y="-383.3" font-family="Times,serif" font-size="14.00">class = Canada</text>
</g>
<!-- 19&#45;&gt;35 -->
<g id="edge35" class="edge">
<title>19&#45;&gt;35</title>
<path fill="none" stroke="black" d="M506.65,-441.83C514.16,-433.11 523.28,-422.52 531.43,-413.05"/>
<polygon fill="black" stroke="black" points="534.13,-415.28 538,-405.42 528.82,-410.71 534.13,-415.28"/>
</g>
<!-- 21 -->
<g id="node22" class="node">
<title>21</title>
<polygon fill="none" stroke="black" points="356,-332 222,-332 222,-294 356,-294 356,-332"/>
<text text-anchor="middle" x="289" y="-316.8" font-family="Times,serif" font-size="14.00">longitude &lt;= &#45;79.076</text>
<text text-anchor="middle" x="289" y="-301.8" font-family="Times,serif" font-size="14.00">class = Canada</text>
</g>
<!-- 20&#45;&gt;21 -->
<g id="edge21" class="edge">
<title>20&#45;&gt;21</title>
<path fill="none" stroke="black" d="M391.43,-367.83C373.58,-358.45 351.62,-346.91 332.62,-336.92"/>
<polygon fill="black" stroke="black" points="334.04,-333.72 323.56,-332.16 330.78,-339.91 334.04,-333.72"/>
</g>
<!-- 30 -->
<g id="node31" class="node">
<title>30</title>
<polygon fill="none" stroke="black" points="508,-332 374,-332 374,-294 508,-294 508,-332"/>
<text text-anchor="middle" x="441" y="-316.8" font-family="Times,serif" font-size="14.00">longitude &lt;= &#45;84.392</text>
<text text-anchor="middle" x="441" y="-301.8" font-family="Times,serif" font-size="14.00">class = USA</text>
</g>
<!-- 20&#45;&gt;30 -->
<g id="edge30" class="edge">
<title>20&#45;&gt;30</title>
<path fill="none" stroke="black" d="M429.79,-367.83C431.39,-360.13 433.3,-350.97 435.08,-342.42"/>
<polygon fill="black" stroke="black" points="438.55,-342.92 437.16,-332.41 431.7,-341.49 438.55,-342.92"/>
</g>
<!-- 22 -->
<g id="node23" class="node">
<title>22</title>
<polygon fill="none" stroke="black" points="211.5,-257 112.5,-257 112.5,-221 211.5,-221 211.5,-257"/>
<text text-anchor="middle" x="162" y="-235.3" font-family="Times,serif" font-size="14.00">class = Canada</text>
</g>
<!-- 21&#45;&gt;22 -->
<g id="edge22" class="edge">
<title>21&#45;&gt;22</title>
<path fill="none" stroke="black" d="M256.95,-293.83C240.06,-284.25 219.19,-272.42 201.32,-262.29"/>
<polygon fill="black" stroke="black" points="202.71,-259.06 192.29,-257.17 199.26,-265.15 202.71,-259.06"/>
</g>
<!-- 23 -->
<g id="node24" class="node">
<title>23</title>
<polygon fill="none" stroke="black" points="348.5,-258 229.5,-258 229.5,-220 348.5,-220 348.5,-258"/>
<text text-anchor="middle" x="289" y="-242.8" font-family="Times,serif" font-size="14.00">latitude &lt;= 44.168</text>
<text text-anchor="middle" x="289" y="-227.8" font-family="Times,serif" font-size="14.00">class = Canada</text>
</g>
<!-- 21&#45;&gt;23 -->
<g id="edge23" class="edge">
<title>21&#45;&gt;23</title>
<path fill="none" stroke="black" d="M289,-293.83C289,-286.13 289,-276.97 289,-268.42"/>
<polygon fill="black" stroke="black" points="292.5,-268.41 289,-258.41 285.5,-268.41 292.5,-268.41"/>
</g>
<!-- 24 -->
<g id="node25" class="node">
<title>24</title>
<polygon fill="none" stroke="black" points="231.5,-184 104.5,-184 104.5,-146 231.5,-146 231.5,-184"/>
<text text-anchor="middle" x="168" y="-168.8" font-family="Times,serif" font-size="14.00">longitude &lt;= &#45;79.03</text>
<text text-anchor="middle" x="168" y="-153.8" font-family="Times,serif" font-size="14.00">class = USA</text>
</g>
<!-- 23&#45;&gt;24 -->
<g id="edge24" class="edge">
<title>23&#45;&gt;24</title>
<path fill="none" stroke="black" d="M258.47,-219.83C242.99,-210.62 224.01,-199.33 207.44,-189.47"/>
<polygon fill="black" stroke="black" points="208.91,-186.27 198.52,-184.16 205.33,-192.28 208.91,-186.27"/>
</g>
<!-- 29 -->
<g id="node30" class="node">
<title>29</title>
<polygon fill="none" stroke="black" points="348.5,-183 249.5,-183 249.5,-147 348.5,-147 348.5,-183"/>
<text text-anchor="middle" x="299" y="-161.3" font-family="Times,serif" font-size="14.00">class = Canada</text>
</g>
<!-- 23&#45;&gt;29 -->
<g id="edge29" class="edge">
<title>23&#45;&gt;29</title>
<path fill="none" stroke="black" d="M291.52,-219.83C292.64,-211.81 293.97,-202.2 295.2,-193.34"/>
<polygon fill="black" stroke="black" points="298.67,-193.8 296.58,-183.42 291.74,-192.84 298.67,-193.8"/>
</g>
<!-- 25 -->
<g id="node26" class="node">
<title>25</title>
<polygon fill="none" stroke="black" points="147,-109 61,-109 61,-73 147,-73 147,-109"/>
<text text-anchor="middle" x="104" y="-87.3" font-family="Times,serif" font-size="14.00">class = USA</text>
</g>
<!-- 24&#45;&gt;25 -->
<g id="edge25" class="edge">
<title>24&#45;&gt;25</title>
<path fill="none" stroke="black" d="M151.85,-145.83C144.1,-137.11 134.68,-126.52 126.26,-117.05"/>
<polygon fill="black" stroke="black" points="128.74,-114.57 119.48,-109.42 123.51,-119.22 128.74,-114.57"/>
</g>
<!-- 26 -->
<g id="node27" class="node">
<title>26</title>
<polygon fill="none" stroke="black" points="299,-110 165,-110 165,-72 299,-72 299,-110"/>
<text text-anchor="middle" x="232" y="-94.8" font-family="Times,serif" font-size="14.00">longitude &lt;= &#45;77.678</text>
<text text-anchor="middle" x="232" y="-79.8" font-family="Times,serif" font-size="14.00">class = Canada</text>
</g>
<!-- 24&#45;&gt;26 -->
<g id="edge26" class="edge">
<title>24&#45;&gt;26</title>
<path fill="none" stroke="black" d="M184.15,-145.83C191.67,-137.37 200.76,-127.15 208.98,-117.9"/>
<polygon fill="black" stroke="black" points="211.6,-120.21 215.63,-110.41 206.37,-115.56 211.6,-120.21"/>
</g>
<!-- 27 -->
<g id="node28" class="node">
<title>27</title>
<polygon fill="none" stroke="black" points="225.5,-36 126.5,-36 126.5,0 225.5,0 225.5,-36"/>
<text text-anchor="middle" x="176" y="-14.3" font-family="Times,serif" font-size="14.00">class = Canada</text>
</g>
<!-- 26&#45;&gt;27 -->
<g id="edge27" class="edge">
<title>26&#45;&gt;27</title>
<path fill="none" stroke="black" d="M217.58,-71.72C210.93,-63.29 202.93,-53.15 195.73,-44.02"/>
<polygon fill="black" stroke="black" points="198.35,-41.69 189.41,-36 192.86,-46.02 198.35,-41.69"/>
</g>
<!-- 28 -->
<g id="node29" class="node">
<title>28</title>
<polygon fill="none" stroke="black" points="330,-36 244,-36 244,0 330,0 330,-36"/>
<text text-anchor="middle" x="287" y="-14.3" font-family="Times,serif" font-size="14.00">class = USA</text>
</g>
<!-- 26&#45;&gt;28 -->
<g id="edge28" class="edge">
<title>26&#45;&gt;28</title>
<path fill="none" stroke="black" d="M246.16,-71.72C252.69,-63.29 260.55,-53.15 267.62,-44.02"/>
<polygon fill="black" stroke="black" points="270.47,-46.05 273.83,-36 264.94,-41.77 270.47,-46.05"/>
</g>
<!-- 31 -->
<g id="node32" class="node">
<title>31</title>
<polygon fill="none" stroke="black" points="453,-257 367,-257 367,-221 453,-221 453,-257"/>
<text text-anchor="middle" x="410" y="-235.3" font-family="Times,serif" font-size="14.00">class = USA</text>
</g>
<!-- 30&#45;&gt;31 -->
<g id="edge31" class="edge">
<title>30&#45;&gt;31</title>
<path fill="none" stroke="black" d="M433.18,-293.83C429.65,-285.63 425.41,-275.78 421.52,-266.76"/>
<polygon fill="black" stroke="black" points="424.67,-265.22 417.5,-257.42 418.24,-267.99 424.67,-265.22"/>
</g>
<!-- 32 -->
<g id="node33" class="node">
<title>32</title>
<polygon fill="none" stroke="black" points="590.5,-258 471.5,-258 471.5,-220 590.5,-220 590.5,-258"/>
<text text-anchor="middle" x="531" y="-242.8" font-family="Times,serif" font-size="14.00">latitude &lt;= 44.706</text>
<text text-anchor="middle" x="531" y="-227.8" font-family="Times,serif" font-size="14.00">class = Canada</text>
</g>
<!-- 30&#45;&gt;32 -->
<g id="edge32" class="edge">
<title>30&#45;&gt;32</title>
<path fill="none" stroke="black" d="M463.71,-293.83C474.8,-284.96 488.3,-274.16 500.29,-264.57"/>
<polygon fill="black" stroke="black" points="502.67,-267.14 508.3,-258.16 498.3,-261.68 502.67,-267.14"/>
</g>
<!-- 33 -->
<g id="node34" class="node">
<title>33</title>
<polygon fill="none" stroke="black" points="463,-183 377,-183 377,-147 463,-147 463,-183"/>
<text text-anchor="middle" x="420" y="-161.3" font-family="Times,serif" font-size="14.00">class = USA</text>
</g>
<!-- 32&#45;&gt;33 -->
<g id="edge33" class="edge">
<title>32&#45;&gt;33</title>
<path fill="none" stroke="black" d="M502.99,-219.83C488.49,-210.43 470.65,-198.86 455.23,-188.85"/>
<polygon fill="black" stroke="black" points="456.77,-185.68 446.47,-183.17 452.96,-191.55 456.77,-185.68"/>
</g>
<!-- 34 -->
<g id="node35" class="node">
<title>34</title>
<polygon fill="none" stroke="black" points="580.5,-183 481.5,-183 481.5,-147 580.5,-147 580.5,-183"/>
<text text-anchor="middle" x="531" y="-161.3" font-family="Times,serif" font-size="14.00">class = Canada</text>
</g>
<!-- 32&#45;&gt;34 -->
<g id="edge34" class="edge">
<title>32&#45;&gt;34</title>
<path fill="none" stroke="black" d="M531,-219.83C531,-211.89 531,-202.41 531,-193.63"/>
<polygon fill="black" stroke="black" points="534.5,-193.42 531,-183.42 527.5,-193.42 534.5,-193.42"/>
</g>
<!-- 37 -->
<g id="node38" class="node">
<title>37</title>
<polygon fill="none" stroke="black" points="754,-480 620,-480 620,-442 754,-442 754,-480"/>
<text text-anchor="middle" x="687" y="-464.8" font-family="Times,serif" font-size="14.00">longitude &lt;= &#45;67.279</text>
<text text-anchor="middle" x="687" y="-449.8" font-family="Times,serif" font-size="14.00">class = USA</text>
</g>
<!-- 36&#45;&gt;37 -->
<g id="edge37" class="edge">
<title>36&#45;&gt;37</title>
<path fill="none" stroke="black" d="M687,-515.83C687,-508.13 687,-498.97 687,-490.42"/>
<polygon fill="black" stroke="black" points="690.5,-490.41 687,-480.41 683.5,-490.41 690.5,-490.41"/>
</g>
<!-- 52 -->
<g id="node53" class="node">
<title>52</title>
<polygon fill="none" stroke="black" points="871.5,-479 772.5,-479 772.5,-443 871.5,-443 871.5,-479"/>
<text text-anchor="middle" x="822" y="-457.3" font-family="Times,serif" font-size="14.00">class = Canada</text>
</g>
<!-- 36&#45;&gt;52 -->
<g id="edge52" class="edge">
<title>36&#45;&gt;52</title>
<path fill="none" stroke="black" d="M721.07,-515.83C739.19,-506.17 761.62,-494.2 780.72,-484.01"/>
<polygon fill="black" stroke="black" points="782.63,-486.97 789.8,-479.17 779.33,-480.79 782.63,-486.97"/>
</g>
<!-- 38 -->
<g id="node39" class="node">
<title>38</title>
<polygon fill="none" stroke="black" points="750.5,-406 623.5,-406 623.5,-368 750.5,-368 750.5,-406"/>
<text text-anchor="middle" x="687" y="-390.8" font-family="Times,serif" font-size="14.00">longitude &lt;= &#45;67.93</text>
<text text-anchor="middle" x="687" y="-375.8" font-family="Times,serif" font-size="14.00">class = Canada</text>
</g>
<!-- 37&#45;&gt;38 -->
<g id="edge38" class="edge">
<title>37&#45;&gt;38</title>
<path fill="none" stroke="black" d="M687,-441.83C687,-434.13 687,-424.97 687,-416.42"/>
<polygon fill="black" stroke="black" points="690.5,-416.41 687,-406.41 683.5,-416.41 690.5,-416.41"/>
</g>
<!-- 51 -->
<g id="node52" class="node">
<title>51</title>
<polygon fill="none" stroke="black" points="855,-405 769,-405 769,-369 855,-369 855,-405"/>
<text text-anchor="middle" x="812" y="-383.3" font-family="Times,serif" font-size="14.00">class = USA</text>
</g>
<!-- 37&#45;&gt;51 -->
<g id="edge51" class="edge">
<title>37&#45;&gt;51</title>
<path fill="none" stroke="black" d="M718.54,-441.83C735.17,-432.25 755.71,-420.42 773.3,-410.29"/>
<polygon fill="black" stroke="black" points="775.27,-413.2 782.19,-405.17 771.78,-407.13 775.27,-413.2"/>
</g>
<!-- 39 -->
<g id="node40" class="node">
<title>39</title>
<polygon fill="none" stroke="black" points="754,-332 620,-332 620,-294 754,-294 754,-332"/>
<text text-anchor="middle" x="687" y="-316.8" font-family="Times,serif" font-size="14.00">longitude &lt;= &#45;68.325</text>
<text text-anchor="middle" x="687" y="-301.8" font-family="Times,serif" font-size="14.00">class = USA</text>
</g>
<!-- 38&#45;&gt;39 -->
<g id="edge39" class="edge">
<title>38&#45;&gt;39</title>
<path fill="none" stroke="black" d="M687,-367.83C687,-360.13 687,-350.97 687,-342.42"/>
<polygon fill="black" stroke="black" points="690.5,-342.41 687,-332.41 683.5,-342.41 690.5,-342.41"/>
</g>
<!-- 46 -->
<g id="node47" class="node">
<title>46</title>
<polygon fill="none" stroke="black" points="977.5,-332 858.5,-332 858.5,-294 977.5,-294 977.5,-332"/>
<text text-anchor="middle" x="918" y="-316.8" font-family="Times,serif" font-size="14.00">latitude &lt;= 45.565</text>
<text text-anchor="middle" x="918" y="-301.8" font-family="Times,serif" font-size="14.00">class = Canada</text>
</g>
<!-- 38&#45;&gt;46 -->
<g id="edge46" class="edge">
<title>38&#45;&gt;46</title>
<path fill="none" stroke="black" d="M744.99,-367.92C776.98,-357.95 816.88,-345.52 850.29,-335.1"/>
<polygon fill="black" stroke="black" points="851.48,-338.4 859.98,-332.08 849.39,-331.72 851.48,-338.4"/>
</g>
<!-- 40 -->
<g id="node41" class="node">
<title>40</title>
<polygon fill="none" stroke="black" points="731.5,-258 612.5,-258 612.5,-220 731.5,-220 731.5,-258"/>
<text text-anchor="middle" x="672" y="-242.8" font-family="Times,serif" font-size="14.00">latitude &lt;= 47.256</text>
<text text-anchor="middle" x="672" y="-227.8" font-family="Times,serif" font-size="14.00">class = Canada</text>
</g>
<!-- 39&#45;&gt;40 -->
<g id="edge40" class="edge">
<title>39&#45;&gt;40</title>
<path fill="none" stroke="black" d="M683.21,-293.83C681.61,-286.13 679.7,-276.97 677.92,-268.42"/>
<polygon fill="black" stroke="black" points="681.3,-267.49 675.84,-258.41 674.45,-268.92 681.3,-267.49"/>
</g>
<!-- 45 -->
<g id="node46" class="node">
<title>45</title>
<polygon fill="none" stroke="black" points="836,-257 750,-257 750,-221 836,-221 836,-257"/>
<text text-anchor="middle" x="793" y="-235.3" font-family="Times,serif" font-size="14.00">class = USA</text>
</g>
<!-- 39&#45;&gt;45 -->
<g id="edge45" class="edge">
<title>39&#45;&gt;45</title>
<path fill="none" stroke="black" d="M713.75,-293.83C727.59,-284.43 744.63,-272.86 759.36,-262.85"/>
<polygon fill="black" stroke="black" points="761.41,-265.69 767.72,-257.17 757.48,-259.9 761.41,-265.69"/>
</g>
<!-- 41 -->
<g id="node42" class="node">
<title>41</title>
<polygon fill="none" stroke="black" points="697.5,-183 598.5,-183 598.5,-147 697.5,-147 697.5,-183"/>
<text text-anchor="middle" x="648" y="-161.3" font-family="Times,serif" font-size="14.00">class = Canada</text>
</g>
<!-- 40&#45;&gt;41 -->
<g id="edge41" class="edge">
<title>40&#45;&gt;41</title>
<path fill="none" stroke="black" d="M665.94,-219.83C663.24,-211.72 660,-201.99 657.02,-193.05"/>
<polygon fill="black" stroke="black" points="660.29,-191.8 653.81,-183.42 653.65,-194.01 660.29,-191.8"/>
</g>
<!-- 42 -->
<g id="node43" class="node">
<title>42</title>
<polygon fill="none" stroke="black" points="850,-184 716,-184 716,-146 850,-146 850,-184"/>
<text text-anchor="middle" x="783" y="-168.8" font-family="Times,serif" font-size="14.00">longitude &lt;= &#45;68.459</text>
<text text-anchor="middle" x="783" y="-153.8" font-family="Times,serif" font-size="14.00">class = USA</text>
</g>
<!-- 40&#45;&gt;42 -->
<g id="edge42" class="edge">
<title>40&#45;&gt;42</title>
<path fill="none" stroke="black" d="M700.01,-219.83C714.08,-210.71 731.29,-199.54 746.39,-189.74"/>
<polygon fill="black" stroke="black" points="748.51,-192.54 755,-184.16 744.7,-186.67 748.51,-192.54"/>
</g>
<!-- 43 -->
<g id="node44" class="node">
<title>43</title>
<polygon fill="none" stroke="black" points="770,-109 684,-109 684,-73 770,-73 770,-109"/>
<text text-anchor="middle" x="727" y="-87.3" font-family="Times,serif" font-size="14.00">class = USA</text>
</g>
<!-- 42&#45;&gt;43 -->
<g id="edge43" class="edge">
<title>42&#45;&gt;43</title>
<path fill="none" stroke="black" d="M768.87,-145.83C762.15,-137.2 754.01,-126.73 746.7,-117.33"/>
<polygon fill="black" stroke="black" points="749.45,-115.16 740.55,-109.42 743.92,-119.46 749.45,-115.16"/>
</g>
<!-- 44 -->
<g id="node45" class="node">
<title>44</title>
<polygon fill="none" stroke="black" points="887.5,-109 788.5,-109 788.5,-73 887.5,-73 887.5,-109"/>
<text text-anchor="middle" x="838" y="-87.3" font-family="Times,serif" font-size="14.00">class = Canada</text>
</g>
<!-- 42&#45;&gt;44 -->
<g id="edge44" class="edge">
<title>42&#45;&gt;44</title>
<path fill="none" stroke="black" d="M796.88,-145.83C803.41,-137.28 811.31,-126.94 818.43,-117.62"/>
<polygon fill="black" stroke="black" points="821.41,-119.49 824.69,-109.42 815.84,-115.24 821.41,-119.49"/>
</g>
<!-- 47 -->
<g id="node48" class="node">
<title>47</title>
<polygon fill="none" stroke="black" points="977.5,-258 858.5,-258 858.5,-220 977.5,-220 977.5,-258"/>
<text text-anchor="middle" x="918" y="-242.8" font-family="Times,serif" font-size="14.00">latitude &lt;= 45.382</text>
<text text-anchor="middle" x="918" y="-227.8" font-family="Times,serif" font-size="14.00">class = Canada</text>
</g>
<!-- 46&#45;&gt;47 -->
<g id="edge47" class="edge">
<title>46&#45;&gt;47</title>
<path fill="none" stroke="black" d="M918,-293.83C918,-286.13 918,-276.97 918,-268.42"/>
<polygon fill="black" stroke="black" points="921.5,-268.41 918,-258.41 914.5,-268.41 921.5,-268.41"/>
</g>
<!-- 50 -->
<g id="node51" class="node">
<title>50</title>
<polygon fill="none" stroke="black" points="1094.5,-257 995.5,-257 995.5,-221 1094.5,-221 1094.5,-257"/>
<text text-anchor="middle" x="1045" y="-235.3" font-family="Times,serif" font-size="14.00">class = Canada</text>
</g>
<!-- 46&#45;&gt;50 -->
<g id="edge50" class="edge">
<title>46&#45;&gt;50</title>
<path fill="none" stroke="black" d="M950.05,-293.83C966.94,-284.25 987.81,-272.42 1005.68,-262.29"/>
<polygon fill="black" stroke="black" points="1007.74,-265.15 1014.71,-257.17 1004.29,-259.06 1007.74,-265.15"/>
</g>
<!-- 48 -->
<g id="node49" class="node">
<title>48</title>
<polygon fill="none" stroke="black" points="967.5,-183 868.5,-183 868.5,-147 967.5,-147 967.5,-183"/>
<text text-anchor="middle" x="918" y="-161.3" font-family="Times,serif" font-size="14.00">class = Canada</text>
</g>
<!-- 47&#45;&gt;48 -->
<g id="edge48" class="edge">
<title>47&#45;&gt;48</title>
<path fill="none" stroke="black" d="M918,-219.83C918,-211.89 918,-202.41 918,-193.63"/>
<polygon fill="black" stroke="black" points="921.5,-193.42 918,-183.42 914.5,-193.42 921.5,-193.42"/>
</g>
<!-- 49 -->
<g id="node50" class="node">
<title>49</title>
<polygon fill="none" stroke="black" points="1072,-183 986,-183 986,-147 1072,-147 1072,-183"/>
<text text-anchor="middle" x="1029" y="-161.3" font-family="Times,serif" font-size="14.00">class = USA</text>
</g>
<!-- 47&#45;&gt;49 -->
<g id="edge49" class="edge">
<title>47&#45;&gt;49</title>
<path fill="none" stroke="black" d="M946.01,-219.83C960.51,-210.43 978.35,-198.86 993.77,-188.85"/>
<polygon fill="black" stroke="black" points="996.04,-191.55 1002.53,-183.17 992.23,-185.68 996.04,-191.55"/>
</g>
</g>
</svg>
