<?xml version="1.0" encoding="UTF-8" standalone="no"?>
<!DOCTYPE svg PUBLIC "-//W3C//DTD SVG 1.1//EN"
 "http://www.w3.org/Graphics/SVG/1.1/DTD/svg11.dtd">
<!-- Generated by graphviz version 2.44.1 (20200629.0846)
 -->
<!-- Title: Tree Pages: 1 -->
<svg width="1906pt" height="636pt"
 viewBox="0.00 0.00 1906.00 636.00" xmlns="http://www.w3.org/2000/svg" xmlns:xlink="http://www.w3.org/1999/xlink">
<g id="graph0" class="graph" transform="scale(1 1) rotate(0) translate(4 632)">
<title>Tree</title>
<polygon fill="white" stroke="transparent" points="-4,4 -4,-632 1902,-632 1902,4 -4,4"/>
<!-- 0 -->
<g id="node1" class="node">
<title>0</title>
<polygon fill="none" stroke="black" points="609,-628 517,-628 517,-590 609,-590 609,-628"/>
<text text-anchor="middle" x="563" y="-612.8" font-family="Times,serif" font-size="14.00">lat &lt;= 37.682</text>
<text text-anchor="middle" x="563" y="-597.8" font-family="Times,serif" font-size="14.00">class = blue</text>
</g>
<!-- 1 -->
<g id="node2" class="node">
<title>1</title>
<polygon fill="none" stroke="black" points="363.5,-554 256.5,-554 256.5,-516 363.5,-516 363.5,-554"/>
<text text-anchor="middle" x="310" y="-538.8" font-family="Times,serif" font-size="14.00">lon &lt;= &#45;114.063</text>
<text text-anchor="middle" x="310" y="-523.8" font-family="Times,serif" font-size="14.00">class = red</text>
</g>
<!-- 0&#45;&gt;1 -->
<g id="edge1" class="edge">
<title>0&#45;&gt;1</title>
<path fill="none" stroke="black" d="M516.89,-594.88C476.74,-583.45 418.14,-566.78 373.55,-554.09"/>
<polygon fill="black" stroke="black" points="374.27,-550.65 363.69,-551.28 372.35,-557.38 374.27,-550.65"/>
<text text-anchor="middle" x="375.85" y="-569.42" font-family="Times,serif" font-size="14.00">True</text>
</g>
<!-- 24 -->
<g id="node25" class="node">
<title>24</title>
<polygon fill="none" stroke="black" points="923,-554 823,-554 823,-516 923,-516 923,-554"/>
<text text-anchor="middle" x="873" y="-538.8" font-family="Times,serif" font-size="14.00">lon &lt;= &#45;96.061</text>
<text text-anchor="middle" x="873" y="-523.8" font-family="Times,serif" font-size="14.00">class = blue</text>
</g>
<!-- 0&#45;&gt;24 -->
<g id="edge24" class="edge">
<title>0&#45;&gt;24</title>
<path fill="none" stroke="black" d="M609.08,-597.3C663.21,-584.73 753.17,-563.83 812.78,-549.99"/>
<polygon fill="black" stroke="black" points="813.86,-553.33 822.81,-547.66 812.28,-546.51 813.86,-553.33"/>
<text text-anchor="middle" x="809.59" y="-565.18" font-family="Times,serif" font-size="14.00">False</text>
</g>
<!-- 2 -->
<g id="node3" class="node">
<title>2</title>
<polygon fill="none" stroke="black" points="246,-479 164,-479 164,-443 246,-443 246,-479"/>
<text text-anchor="middle" x="205" y="-457.3" font-family="Times,serif" font-size="14.00">class = blue</text>
</g>
<!-- 1&#45;&gt;2 -->
<g id="edge2" class="edge">
<title>1&#45;&gt;2</title>
<path fill="none" stroke="black" d="M283.5,-515.83C269.79,-506.43 252.91,-494.86 238.33,-484.85"/>
<polygon fill="black" stroke="black" points="240.27,-481.94 230.04,-479.17 236.31,-487.71 240.27,-481.94"/>
</g>
<!-- 3 -->
<g id="node4" class="node">
<title>3</title>
<polygon fill="none" stroke="black" points="356,-480 264,-480 264,-442 356,-442 356,-480"/>
<text text-anchor="middle" x="310" y="-464.8" font-family="Times,serif" font-size="14.00">lat &lt;= 29.595</text>
<text text-anchor="middle" x="310" y="-449.8" font-family="Times,serif" font-size="14.00">class = red</text>
</g>
<!-- 1&#45;&gt;3 -->
<g id="edge3" class="edge">
<title>1&#45;&gt;3</title>
<path fill="none" stroke="black" d="M310,-515.83C310,-508.13 310,-498.97 310,-490.42"/>
<polygon fill="black" stroke="black" points="313.5,-490.41 310,-480.41 306.5,-490.41 313.5,-490.41"/>
</g>
<!-- 4 -->
<g id="node5" class="node">
<title>4</title>
<polygon fill="none" stroke="black" points="185,-406 85,-406 85,-368 185,-368 185,-406"/>
<text text-anchor="middle" x="135" y="-390.8" font-family="Times,serif" font-size="14.00">lon &lt;= &#45;90.074</text>
<text text-anchor="middle" x="135" y="-375.8" font-family="Times,serif" font-size="14.00">class = blue</text>
</g>
<!-- 3&#45;&gt;4 -->
<g id="edge4" class="edge">
<title>3&#45;&gt;4</title>
<path fill="none" stroke="black" d="M265.84,-441.83C242.23,-432.12 212.98,-420.08 188.13,-409.86"/>
<polygon fill="black" stroke="black" points="189.42,-406.61 178.84,-406.04 186.76,-413.08 189.42,-406.61"/>
</g>
<!-- 7 -->
<g id="node8" class="node">
<title>7</title>
<polygon fill="none" stroke="black" points="356,-406 264,-406 264,-368 356,-368 356,-406"/>
<text text-anchor="middle" x="310" y="-390.8" font-family="Times,serif" font-size="14.00">lat &lt;= 36.522</text>
<text text-anchor="middle" x="310" y="-375.8" font-family="Times,serif" font-size="14.00">class = red</text>
</g>
<!-- 3&#45;&gt;7 -->
<g id="edge7" class="edge">
<title>3&#45;&gt;7</title>
<path fill="none" stroke="black" d="M310,-441.83C310,-434.13 310,-424.97 310,-416.42"/>
<polygon fill="black" stroke="black" points="313.5,-416.41 310,-406.41 306.5,-416.41 313.5,-416.41"/>
</g>
<!-- 5 -->
<g id="node6" class="node">
<title>5</title>
<polygon fill="none" stroke="black" points="76,-331 0,-331 0,-295 76,-295 76,-331"/>
<text text-anchor="middle" x="38" y="-309.3" font-family="Times,serif" font-size="14.00">class = red</text>
</g>
<!-- 4&#45;&gt;5 -->
<g id="edge5" class="edge">
<title>4&#45;&gt;5</title>
<path fill="none" stroke="black" d="M110.52,-367.83C97.97,-358.52 82.55,-347.07 69.16,-337.13"/>
<polygon fill="black" stroke="black" points="71.25,-334.32 61.13,-331.17 67.08,-339.94 71.25,-334.32"/>
</g>
<!-- 6 -->
<g id="node7" class="node">
<title>6</title>
<polygon fill="none" stroke="black" points="176,-331 94,-331 94,-295 176,-295 176,-331"/>
<text text-anchor="middle" x="135" y="-309.3" font-family="Times,serif" font-size="14.00">class = blue</text>
</g>
<!-- 4&#45;&gt;6 -->
<g id="edge6" class="edge">
<title>4&#45;&gt;6</title>
<path fill="none" stroke="black" d="M135,-367.83C135,-359.89 135,-350.41 135,-341.63"/>
<polygon fill="black" stroke="black" points="138.5,-341.42 135,-331.42 131.5,-341.42 138.5,-341.42"/>
</g>
<!-- 8 -->
<g id="node9" class="node">
<title>8</title>
<polygon fill="none" stroke="black" points="301.5,-332 194.5,-332 194.5,-294 301.5,-294 301.5,-332"/>
<text text-anchor="middle" x="248" y="-316.8" font-family="Times,serif" font-size="14.00">lon &lt;= &#45;102.257</text>
<text text-anchor="middle" x="248" y="-301.8" font-family="Times,serif" font-size="14.00">class = red</text>
</g>
<!-- 7&#45;&gt;8 -->
<g id="edge8" class="edge">
<title>7&#45;&gt;8</title>
<path fill="none" stroke="black" d="M294.35,-367.83C287.14,-359.45 278.44,-349.35 270.54,-340.17"/>
<polygon fill="black" stroke="black" points="273.03,-337.71 263.86,-332.41 267.73,-342.27 273.03,-337.71"/>
</g>
<!-- 15 -->
<g id="node16" class="node">
<title>15</title>
<polygon fill="none" stroke="black" points="420,-332 320,-332 320,-294 420,-294 420,-332"/>
<text text-anchor="middle" x="370" y="-316.8" font-family="Times,serif" font-size="14.00">lon &lt;= &#45;82.415</text>
<text text-anchor="middle" x="370" y="-301.8" font-family="Times,serif" font-size="14.00">class = red</text>
</g>
<!-- 7&#45;&gt;15 -->
<g id="edge15" class="edge">
<title>7&#45;&gt;15</title>
<path fill="none" stroke="black" d="M325.14,-367.83C332.12,-359.45 340.54,-349.35 348.19,-340.17"/>
<polygon fill="black" stroke="black" points="350.94,-342.34 354.66,-332.41 345.56,-337.85 350.94,-342.34"/>
</g>
<!-- 9 -->
<g id="node10" class="node">
<title>9</title>
<polygon fill="none" stroke="black" points="191.5,-258 84.5,-258 84.5,-220 191.5,-220 191.5,-258"/>
<text text-anchor="middle" x="138" y="-242.8" font-family="Times,serif" font-size="14.00">lon &lt;= &#45;107.589</text>
<text text-anchor="middle" x="138" y="-227.8" font-family="Times,serif" font-size="14.00">class = red</text>
</g>
<!-- 8&#45;&gt;9 -->
<g id="edge9" class="edge">
<title>8&#45;&gt;9</title>
<path fill="none" stroke="black" d="M220.24,-293.83C206.3,-284.71 189.24,-273.54 174.28,-263.74"/>
<polygon fill="black" stroke="black" points="176.03,-260.71 165.75,-258.16 172.2,-266.57 176.03,-260.71"/>
</g>
<!-- 14 -->
<g id="node15" class="node">
<title>14</title>
<polygon fill="none" stroke="black" points="286,-257 210,-257 210,-221 286,-221 286,-257"/>
<text text-anchor="middle" x="248" y="-235.3" font-family="Times,serif" font-size="14.00">class = red</text>
</g>
<!-- 8&#45;&gt;14 -->
<g id="edge14" class="edge">
<title>8&#45;&gt;14</title>
<path fill="none" stroke="black" d="M248,-293.83C248,-285.89 248,-276.41 248,-267.63"/>
<polygon fill="black" stroke="black" points="251.5,-267.42 248,-257.42 244.5,-267.42 251.5,-267.42"/>
</g>
<!-- 10 -->
<g id="node11" class="node">
<title>10</title>
<polygon fill="none" stroke="black" points="87,-183 11,-183 11,-147 87,-147 87,-183"/>
<text text-anchor="middle" x="49" y="-161.3" font-family="Times,serif" font-size="14.00">class = red</text>
</g>
<!-- 9&#45;&gt;10 -->
<g id="edge10" class="edge">
<title>9&#45;&gt;10</title>
<path fill="none" stroke="black" d="M115.54,-219.83C104.24,-210.69 90.41,-199.5 78.29,-189.7"/>
<polygon fill="black" stroke="black" points="80.2,-186.74 70.23,-183.17 75.8,-192.18 80.2,-186.74"/>
</g>
<!-- 11 -->
<g id="node12" class="node">
<title>11</title>
<polygon fill="none" stroke="black" points="197,-184 105,-184 105,-146 197,-146 197,-184"/>
<text text-anchor="middle" x="151" y="-168.8" font-family="Times,serif" font-size="14.00">lat &lt;= 31.788</text>
<text text-anchor="middle" x="151" y="-153.8" font-family="Times,serif" font-size="14.00">class = blue</text>
</g>
<!-- 9&#45;&gt;11 -->
<g id="edge11" class="edge">
<title>9&#45;&gt;11</title>
<path fill="none" stroke="black" d="M141.28,-219.83C142.67,-212.13 144.32,-202.97 145.87,-194.42"/>
<polygon fill="black" stroke="black" points="149.34,-194.88 147.68,-184.41 142.45,-193.63 149.34,-194.88"/>
</g>
<!-- 12 -->
<g id="node13" class="node">
<title>12</title>
<polygon fill="none" stroke="black" points="141,-109 65,-109 65,-73 141,-73 141,-109"/>
<text text-anchor="middle" x="103" y="-87.3" font-family="Times,serif" font-size="14.00">class = red</text>
</g>
<!-- 11&#45;&gt;12 -->
<g id="edge12" class="edge">
<title>11&#45;&gt;12</title>
<path fill="none" stroke="black" d="M138.89,-145.83C133.25,-137.37 126.43,-127.15 120.27,-117.9"/>
<polygon fill="black" stroke="black" points="123.07,-115.8 114.61,-109.42 117.25,-119.68 123.07,-115.8"/>
</g>
<!-- 13 -->
<g id="node14" class="node">
<title>13</title>
<polygon fill="none" stroke="black" points="241,-109 159,-109 159,-73 241,-73 241,-109"/>
<text text-anchor="middle" x="200" y="-87.3" font-family="Times,serif" font-size="14.00">class = blue</text>
</g>
<!-- 11&#45;&gt;13 -->
<g id="edge13" class="edge">
<title>11&#45;&gt;13</title>
<path fill="none" stroke="black" d="M163.36,-145.83C169.12,-137.37 176.08,-127.15 182.37,-117.9"/>
<polygon fill="black" stroke="black" points="185.41,-119.65 188.15,-109.42 179.63,-115.72 185.41,-119.65"/>
</g>
<!-- 16 -->
<g id="node17" class="node">
<title>16</title>
<polygon fill="none" stroke="black" points="411.5,-258 304.5,-258 304.5,-220 411.5,-220 411.5,-258"/>
<text text-anchor="middle" x="358" y="-242.8" font-family="Times,serif" font-size="14.00">lon &lt;= &#45;100.922</text>
<text text-anchor="middle" x="358" y="-227.8" font-family="Times,serif" font-size="14.00">class = red</text>
</g>
<!-- 15&#45;&gt;16 -->
<g id="edge16" class="edge">
<title>15&#45;&gt;16</title>
<path fill="none" stroke="black" d="M366.97,-293.83C365.69,-286.13 364.16,-276.97 362.74,-268.42"/>
<polygon fill="black" stroke="black" points="366.17,-267.7 361.07,-258.41 359.26,-268.85 366.17,-267.7"/>
</g>
<!-- 19 -->
<g id="node20" class="node">
<title>19</title>
<polygon fill="none" stroke="black" points="530,-258 430,-258 430,-220 530,-220 530,-258"/>
<text text-anchor="middle" x="480" y="-242.8" font-family="Times,serif" font-size="14.00">lon &lt;= &#45;80.706</text>
<text text-anchor="middle" x="480" y="-227.8" font-family="Times,serif" font-size="14.00">class = blue</text>
</g>
<!-- 15&#45;&gt;19 -->
<g id="edge19" class="edge">
<title>15&#45;&gt;19</title>
<path fill="none" stroke="black" d="M397.76,-293.83C411.7,-284.71 428.76,-273.54 443.72,-263.74"/>
<polygon fill="black" stroke="black" points="445.8,-266.57 452.25,-258.16 441.97,-260.71 445.8,-266.57"/>
</g>
<!-- 17 -->
<g id="node18" class="node">
<title>17</title>
<polygon fill="none" stroke="black" points="306,-183 224,-183 224,-147 306,-147 306,-183"/>
<text text-anchor="middle" x="265" y="-161.3" font-family="Times,serif" font-size="14.00">class = blue</text>
</g>
<!-- 16&#45;&gt;17 -->
<g id="edge17" class="edge">
<title>16&#45;&gt;17</title>
<path fill="none" stroke="black" d="M334.53,-219.83C322.61,-210.6 308,-199.29 295.24,-189.41"/>
<polygon fill="black" stroke="black" points="297.23,-186.53 287.18,-183.17 292.94,-192.06 297.23,-186.53"/>
</g>
<!-- 18 -->
<g id="node19" class="node">
<title>18</title>
<polygon fill="none" stroke="black" points="400,-183 324,-183 324,-147 400,-147 400,-183"/>
<text text-anchor="middle" x="362" y="-161.3" font-family="Times,serif" font-size="14.00">class = red</text>
</g>
<!-- 16&#45;&gt;18 -->
<g id="edge18" class="edge">
<title>16&#45;&gt;18</title>
<path fill="none" stroke="black" d="M359.01,-219.83C359.45,-211.89 359.98,-202.41 360.47,-193.63"/>
<polygon fill="black" stroke="black" points="363.97,-193.6 361.03,-183.42 356.98,-193.21 363.97,-193.6"/>
</g>
<!-- 20 -->
<g id="node21" class="node">
<title>20</title>
<polygon fill="none" stroke="black" points="526,-184 426,-184 426,-146 526,-146 526,-184"/>
<text text-anchor="middle" x="476" y="-168.8" font-family="Times,serif" font-size="14.00">lon &lt;= &#45;81.939</text>
<text text-anchor="middle" x="476" y="-153.8" font-family="Times,serif" font-size="14.00">class = blue</text>
</g>
<!-- 19&#45;&gt;20 -->
<g id="edge20" class="edge">
<title>19&#45;&gt;20</title>
<path fill="none" stroke="black" d="M478.99,-219.83C478.56,-212.13 478.05,-202.97 477.58,-194.42"/>
<polygon fill="black" stroke="black" points="481.07,-194.2 477.02,-184.41 474.08,-194.59 481.07,-194.2"/>
</g>
<!-- 23 -->
<g id="node24" class="node">
<title>23</title>
<polygon fill="none" stroke="black" points="626,-183 544,-183 544,-147 626,-147 626,-183"/>
<text text-anchor="middle" x="585" y="-161.3" font-family="Times,serif" font-size="14.00">class = blue</text>
</g>
<!-- 19&#45;&gt;23 -->
<g id="edge23" class="edge">
<title>19&#45;&gt;23</title>
<path fill="none" stroke="black" d="M506.5,-219.83C520.21,-210.43 537.09,-198.86 551.67,-188.85"/>
<polygon fill="black" stroke="black" points="553.69,-191.71 559.96,-183.17 549.73,-185.94 553.69,-191.71"/>
</g>
<!-- 21 -->
<g id="node22" class="node">
<title>21</title>
<polygon fill="none" stroke="black" points="469,-109 387,-109 387,-73 469,-73 469,-109"/>
<text text-anchor="middle" x="428" y="-87.3" font-family="Times,serif" font-size="14.00">class = blue</text>
</g>
<!-- 20&#45;&gt;21 -->
<g id="edge21" class="edge">
<title>20&#45;&gt;21</title>
<path fill="none" stroke="black" d="M463.89,-145.83C458.25,-137.37 451.43,-127.15 445.27,-117.9"/>
<polygon fill="black" stroke="black" points="448.07,-115.8 439.61,-109.42 442.25,-119.68 448.07,-115.8"/>
</g>
<!-- 22 -->
<g id="node23" class="node">
<title>22</title>
<polygon fill="none" stroke="black" points="563,-109 487,-109 487,-73 563,-73 563,-109"/>
<text text-anchor="middle" x="525" y="-87.3" font-family="Times,serif" font-size="14.00">class = red</text>
</g>
<!-- 20&#45;&gt;22 -->
<g id="edge22" class="edge">
<title>20&#45;&gt;22</title>
<path fill="none" stroke="black" d="M488.36,-145.83C494.12,-137.37 501.08,-127.15 507.37,-117.9"/>
<polygon fill="black" stroke="black" points="510.41,-119.65 513.15,-109.42 504.63,-115.72 510.41,-119.65"/>
</g>
<!-- 25 -->
<g id="node26" class="node">
<title>25</title>
<polygon fill="none" stroke="black" points="926.5,-480 819.5,-480 819.5,-442 926.5,-442 926.5,-480"/>
<text text-anchor="middle" x="873" y="-464.8" font-family="Times,serif" font-size="14.00">lon &lt;= &#45;104.089</text>
<text text-anchor="middle" x="873" y="-449.8" font-family="Times,serif" font-size="14.00">class = red</text>
</g>
<!-- 24&#45;&gt;25 -->
<g id="edge25" class="edge">
<title>24&#45;&gt;25</title>
<path fill="none" stroke="black" d="M873,-515.83C873,-508.13 873,-498.97 873,-490.42"/>
<polygon fill="black" stroke="black" points="876.5,-490.41 873,-480.41 869.5,-490.41 876.5,-490.41"/>
</g>
<!-- 42 -->
<g id="node43" class="node">
<title>42</title>
<polygon fill="none" stroke="black" points="1496,-480 1404,-480 1404,-442 1496,-442 1496,-480"/>
<text text-anchor="middle" x="1450" y="-464.8" font-family="Times,serif" font-size="14.00">lat &lt;= 39.759</text>
<text text-anchor="middle" x="1450" y="-449.8" font-family="Times,serif" font-size="14.00">class = blue</text>
</g>
<!-- 24&#45;&gt;42 -->
<g id="edge42" class="edge">
<title>24&#45;&gt;42</title>
<path fill="none" stroke="black" d="M923.2,-527.74C1030.48,-514.35 1281.46,-483.03 1393.85,-469.01"/>
<polygon fill="black" stroke="black" points="1394.47,-472.46 1403.96,-467.75 1393.6,-465.51 1394.47,-472.46"/>
</g>
<!-- 26 -->
<g id="node27" class="node">
<title>26</title>
<polygon fill="none" stroke="black" points="862,-406 770,-406 770,-368 862,-368 862,-406"/>
<text text-anchor="middle" x="816" y="-390.8" font-family="Times,serif" font-size="14.00">lat &lt;= 41.895</text>
<text text-anchor="middle" x="816" y="-375.8" font-family="Times,serif" font-size="14.00">class = blue</text>
</g>
<!-- 25&#45;&gt;26 -->
<g id="edge26" class="edge">
<title>25&#45;&gt;26</title>
<path fill="none" stroke="black" d="M858.62,-441.83C852.05,-433.54 844.15,-423.56 836.94,-414.45"/>
<polygon fill="black" stroke="black" points="839.53,-412.08 830.58,-406.41 834.04,-416.43 839.53,-412.08"/>
</g>
<!-- 37 -->
<g id="node38" class="node">
<title>37</title>
<polygon fill="none" stroke="black" points="980,-406 880,-406 880,-368 980,-368 980,-406"/>
<text text-anchor="middle" x="930" y="-390.8" font-family="Times,serif" font-size="14.00">lon &lt;= &#45;96.557</text>
<text text-anchor="middle" x="930" y="-375.8" font-family="Times,serif" font-size="14.00">class = red</text>
</g>
<!-- 25&#45;&gt;37 -->
<g id="edge37" class="edge">
<title>25&#45;&gt;37</title>
<path fill="none" stroke="black" d="M887.38,-441.83C893.95,-433.54 901.85,-423.56 909.06,-414.45"/>
<polygon fill="black" stroke="black" points="911.96,-416.43 915.42,-406.41 906.47,-412.08 911.96,-416.43"/>
</g>
<!-- 27 -->
<g id="node28" class="node">
<title>27</title>
<polygon fill="none" stroke="black" points="755.5,-332 648.5,-332 648.5,-294 755.5,-294 755.5,-332"/>
<text text-anchor="middle" x="702" y="-316.8" font-family="Times,serif" font-size="14.00">lon &lt;= &#45;113.872</text>
<text text-anchor="middle" x="702" y="-301.8" font-family="Times,serif" font-size="14.00">class = blue</text>
</g>
<!-- 26&#45;&gt;27 -->
<g id="edge27" class="edge">
<title>26&#45;&gt;27</title>
<path fill="none" stroke="black" d="M787.23,-367.83C772.79,-358.71 755.1,-347.54 739.6,-337.74"/>
<polygon fill="black" stroke="black" points="741.08,-334.54 730.76,-332.16 737.34,-340.46 741.08,-334.54"/>
</g>
<!-- 32 -->
<g id="node33" class="node">
<title>32</title>
<polygon fill="none" stroke="black" points="858.5,-332 773.5,-332 773.5,-294 858.5,-294 858.5,-332"/>
<text text-anchor="middle" x="816" y="-316.8" font-family="Times,serif" font-size="14.00">lat &lt;= 45.33</text>
<text text-anchor="middle" x="816" y="-301.8" font-family="Times,serif" font-size="14.00">class = red</text>
</g>
<!-- 26&#45;&gt;32 -->
<g id="edge32" class="edge">
<title>26&#45;&gt;32</title>
<path fill="none" stroke="black" d="M816,-367.83C816,-360.13 816,-350.97 816,-342.42"/>
<polygon fill="black" stroke="black" points="819.5,-342.41 816,-332.41 812.5,-342.41 819.5,-342.41"/>
</g>
<!-- 28 -->
<g id="node29" class="node">
<title>28</title>
<polygon fill="none" stroke="black" points="630,-257 548,-257 548,-221 630,-221 630,-257"/>
<text text-anchor="middle" x="589" y="-235.3" font-family="Times,serif" font-size="14.00">class = blue</text>
</g>
<!-- 27&#45;&gt;28 -->
<g id="edge28" class="edge">
<title>27&#45;&gt;28</title>
<path fill="none" stroke="black" d="M673.49,-293.83C658.59,-284.34 640.22,-272.64 624.42,-262.57"/>
<polygon fill="black" stroke="black" points="626.26,-259.59 615.95,-257.17 622.5,-265.5 626.26,-259.59"/>
</g>
<!-- 29 -->
<g id="node30" class="node">
<title>29</title>
<polygon fill="none" stroke="black" points="755.5,-258 648.5,-258 648.5,-220 755.5,-220 755.5,-258"/>
<text text-anchor="middle" x="702" y="-242.8" font-family="Times,serif" font-size="14.00">lon &lt;= &#45;107.957</text>
<text text-anchor="middle" x="702" y="-227.8" font-family="Times,serif" font-size="14.00">class = blue</text>
</g>
<!-- 27&#45;&gt;29 -->
<g id="edge29" class="edge">
<title>27&#45;&gt;29</title>
<path fill="none" stroke="black" d="M702,-293.83C702,-286.13 702,-276.97 702,-268.42"/>
<polygon fill="black" stroke="black" points="705.5,-268.41 702,-258.41 698.5,-268.41 705.5,-268.41"/>
</g>
<!-- 30 -->
<g id="node31" class="node">
<title>30</title>
<polygon fill="none" stroke="black" points="732,-183 656,-183 656,-147 732,-147 732,-183"/>
<text text-anchor="middle" x="694" y="-161.3" font-family="Times,serif" font-size="14.00">class = red</text>
</g>
<!-- 29&#45;&gt;30 -->
<g id="edge30" class="edge">
<title>29&#45;&gt;30</title>
<path fill="none" stroke="black" d="M699.98,-219.83C699.1,-211.89 698.05,-202.41 697.07,-193.63"/>
<polygon fill="black" stroke="black" points="700.52,-192.97 695.94,-183.42 693.56,-193.74 700.52,-192.97"/>
</g>
<!-- 31 -->
<g id="node32" class="node">
<title>31</title>
<polygon fill="none" stroke="black" points="832,-183 750,-183 750,-147 832,-147 832,-183"/>
<text text-anchor="middle" x="791" y="-161.3" font-family="Times,serif" font-size="14.00">class = blue</text>
</g>
<!-- 29&#45;&gt;31 -->
<g id="edge31" class="edge">
<title>29&#45;&gt;31</title>
<path fill="none" stroke="black" d="M724.46,-219.83C735.76,-210.69 749.59,-199.5 761.71,-189.7"/>
<polygon fill="black" stroke="black" points="764.2,-192.18 769.77,-183.17 759.8,-186.74 764.2,-192.18"/>
</g>
<!-- 33 -->
<g id="node34" class="node">
<title>33</title>
<polygon fill="none" stroke="black" points="850,-257 774,-257 774,-221 850,-221 850,-257"/>
<text text-anchor="middle" x="812" y="-235.3" font-family="Times,serif" font-size="14.00">class = red</text>
</g>
<!-- 32&#45;&gt;33 -->
<g id="edge33" class="edge">
<title>32&#45;&gt;33</title>
<path fill="none" stroke="black" d="M814.99,-293.83C814.55,-285.89 814.02,-276.41 813.53,-267.63"/>
<polygon fill="black" stroke="black" points="817.02,-267.21 812.97,-257.42 810.03,-267.6 817.02,-267.21"/>
</g>
<!-- 34 -->
<g id="node35" class="node">
<title>34</title>
<polygon fill="none" stroke="black" points="975.5,-258 868.5,-258 868.5,-220 975.5,-220 975.5,-258"/>
<text text-anchor="middle" x="922" y="-242.8" font-family="Times,serif" font-size="14.00">lon &lt;= &#45;133.954</text>
<text text-anchor="middle" x="922" y="-227.8" font-family="Times,serif" font-size="14.00">class = blue</text>
</g>
<!-- 32&#45;&gt;34 -->
<g id="edge34" class="edge">
<title>32&#45;&gt;34</title>
<path fill="none" stroke="black" d="M842.75,-293.83C856.06,-284.79 872.32,-273.75 886.64,-264.02"/>
<polygon fill="black" stroke="black" points="888.95,-266.68 895.26,-258.16 885.02,-260.89 888.95,-266.68"/>
</g>
<!-- 35 -->
<g id="node36" class="node">
<title>35</title>
<polygon fill="none" stroke="black" points="944,-183 868,-183 868,-147 944,-147 944,-183"/>
<text text-anchor="middle" x="906" y="-161.3" font-family="Times,serif" font-size="14.00">class = red</text>
</g>
<!-- 34&#45;&gt;35 -->
<g id="edge35" class="edge">
<title>34&#45;&gt;35</title>
<path fill="none" stroke="black" d="M917.96,-219.83C916.18,-211.81 914.04,-202.2 912.08,-193.34"/>
<polygon fill="black" stroke="black" points="915.46,-192.42 909.87,-183.42 908.62,-193.94 915.46,-192.42"/>
</g>
<!-- 36 -->
<g id="node37" class="node">
<title>36</title>
<polygon fill="none" stroke="black" points="1044,-183 962,-183 962,-147 1044,-147 1044,-183"/>
<text text-anchor="middle" x="1003" y="-161.3" font-family="Times,serif" font-size="14.00">class = blue</text>
</g>
<!-- 34&#45;&gt;36 -->
<g id="edge36" class="edge">
<title>34&#45;&gt;36</title>
<path fill="none" stroke="black" d="M942.44,-219.83C952.62,-210.78 965.07,-199.72 976.02,-189.98"/>
<polygon fill="black" stroke="black" points="978.53,-192.43 983.68,-183.17 973.88,-187.2 978.53,-192.43"/>
</g>
<!-- 38 -->
<g id="node39" class="node">
<title>38</title>
<polygon fill="none" stroke="black" points="968,-331 892,-331 892,-295 968,-295 968,-331"/>
<text text-anchor="middle" x="930" y="-309.3" font-family="Times,serif" font-size="14.00">class = red</text>
</g>
<!-- 37&#45;&gt;38 -->
<g id="edge38" class="edge">
<title>37&#45;&gt;38</title>
<path fill="none" stroke="black" d="M930,-367.83C930,-359.89 930,-350.41 930,-341.63"/>
<polygon fill="black" stroke="black" points="933.5,-341.42 930,-331.42 926.5,-341.42 933.5,-341.42"/>
</g>
<!-- 39 -->
<g id="node40" class="node">
<title>39</title>
<polygon fill="none" stroke="black" points="1078,-332 986,-332 986,-294 1078,-294 1078,-332"/>
<text text-anchor="middle" x="1032" y="-316.8" font-family="Times,serif" font-size="14.00">lat &lt;= 42.007</text>
<text text-anchor="middle" x="1032" y="-301.8" font-family="Times,serif" font-size="14.00">class = blue</text>
</g>
<!-- 37&#45;&gt;39 -->
<g id="edge39" class="edge">
<title>37&#45;&gt;39</title>
<path fill="none" stroke="black" d="M955.74,-367.83C968.54,-358.79 984.19,-347.75 997.97,-338.02"/>
<polygon fill="black" stroke="black" points="1000.12,-340.79 1006.27,-332.16 996.08,-335.07 1000.12,-340.79"/>
</g>
<!-- 40 -->
<g id="node41" class="node">
<title>40</title>
<polygon fill="none" stroke="black" points="1070,-257 994,-257 994,-221 1070,-221 1070,-257"/>
<text text-anchor="middle" x="1032" y="-235.3" font-family="Times,serif" font-size="14.00">class = red</text>
</g>
<!-- 39&#45;&gt;40 -->
<g id="edge40" class="edge">
<title>39&#45;&gt;40</title>
<path fill="none" stroke="black" d="M1032,-293.83C1032,-285.89 1032,-276.41 1032,-267.63"/>
<polygon fill="black" stroke="black" points="1035.5,-267.42 1032,-257.42 1028.5,-267.42 1035.5,-267.42"/>
</g>
<!-- 41 -->
<g id="node42" class="node">
<title>41</title>
<polygon fill="none" stroke="black" points="1170,-257 1088,-257 1088,-221 1170,-221 1170,-257"/>
<text text-anchor="middle" x="1129" y="-235.3" font-family="Times,serif" font-size="14.00">class = blue</text>
</g>
<!-- 39&#45;&gt;41 -->
<g id="edge41" class="edge">
<title>39&#45;&gt;41</title>
<path fill="none" stroke="black" d="M1056.48,-293.83C1069.03,-284.52 1084.45,-273.07 1097.84,-263.13"/>
<polygon fill="black" stroke="black" points="1099.92,-265.94 1105.87,-257.17 1095.75,-260.32 1099.92,-265.94"/>
</g>
<!-- 43 -->
<g id="node44" class="node">
<title>43</title>
<polygon fill="none" stroke="black" points="1500,-406 1400,-406 1400,-368 1500,-368 1500,-406"/>
<text text-anchor="middle" x="1450" y="-390.8" font-family="Times,serif" font-size="14.00">lon &lt;= &#45;79.773</text>
<text text-anchor="middle" x="1450" y="-375.8" font-family="Times,serif" font-size="14.00">class = blue</text>
</g>
<!-- 42&#45;&gt;43 -->
<g id="edge43" class="edge">
<title>42&#45;&gt;43</title>
<path fill="none" stroke="black" d="M1450,-441.83C1450,-434.13 1450,-424.97 1450,-416.42"/>
<polygon fill="black" stroke="black" points="1453.5,-416.41 1450,-406.41 1446.5,-416.41 1453.5,-416.41"/>
</g>
<!-- 62 -->
<g id="node63" class="node">
<title>62</title>
<polygon fill="none" stroke="black" points="1798,-406 1698,-406 1698,-368 1798,-368 1798,-406"/>
<text text-anchor="middle" x="1748" y="-390.8" font-family="Times,serif" font-size="14.00">lon &lt;= &#45;84.905</text>
<text text-anchor="middle" x="1748" y="-375.8" font-family="Times,serif" font-size="14.00">class = blue</text>
</g>
<!-- 42&#45;&gt;62 -->
<g id="edge62" class="edge">
<title>42&#45;&gt;62</title>
<path fill="none" stroke="black" d="M1496.24,-448.83C1547.82,-436.36 1631.45,-416.16 1688.03,-402.49"/>
<polygon fill="black" stroke="black" points="1689.02,-405.85 1697.92,-400.1 1687.38,-399.05 1689.02,-405.85"/>
</g>
<!-- 44 -->
<g id="node45" class="node">
<title>44</title>
<polygon fill="none" stroke="black" points="1425,-332 1325,-332 1325,-294 1425,-294 1425,-332"/>
<text text-anchor="middle" x="1375" y="-316.8" font-family="Times,serif" font-size="14.00">lon &lt;= &#45;87.643</text>
<text text-anchor="middle" x="1375" y="-301.8" font-family="Times,serif" font-size="14.00">class = red</text>
</g>
<!-- 43&#45;&gt;44 -->
<g id="edge44" class="edge">
<title>43&#45;&gt;44</title>
<path fill="none" stroke="black" d="M1431.07,-367.83C1422.01,-359.13 1411.02,-348.58 1401.17,-339.13"/>
<polygon fill="black" stroke="black" points="1403.56,-336.56 1393.92,-332.16 1398.71,-341.61 1403.56,-336.56"/>
</g>
<!-- 57 -->
<g id="node58" class="node">
<title>57</title>
<polygon fill="none" stroke="black" points="1580,-332 1480,-332 1480,-294 1580,-294 1580,-332"/>
<text text-anchor="middle" x="1530" y="-316.8" font-family="Times,serif" font-size="14.00">lon &lt;= &#45;78.395</text>
<text text-anchor="middle" x="1530" y="-301.8" font-family="Times,serif" font-size="14.00">class = blue</text>
</g>
<!-- 43&#45;&gt;57 -->
<g id="edge57" class="edge">
<title>43&#45;&gt;57</title>
<path fill="none" stroke="black" d="M1470.19,-367.83C1479.85,-359.13 1491.58,-348.58 1502.08,-339.13"/>
<polygon fill="black" stroke="black" points="1504.73,-341.45 1509.82,-332.16 1500.04,-336.25 1504.73,-341.45"/>
</g>
<!-- 45 -->
<g id="node46" class="node">
<title>45</title>
<polygon fill="none" stroke="black" points="1281.5,-258 1188.5,-258 1188.5,-220 1281.5,-220 1281.5,-258"/>
<text text-anchor="middle" x="1235" y="-242.8" font-family="Times,serif" font-size="14.00">lon &lt;= &#45;90.12</text>
<text text-anchor="middle" x="1235" y="-227.8" font-family="Times,serif" font-size="14.00">class = blue</text>
</g>
<!-- 44&#45;&gt;45 -->
<g id="edge45" class="edge">
<title>44&#45;&gt;45</title>
<path fill="none" stroke="black" d="M1339.67,-293.83C1321.35,-284.41 1298.79,-272.81 1279.31,-262.79"/>
<polygon fill="black" stroke="black" points="1280.81,-259.62 1270.32,-258.16 1277.61,-265.85 1280.81,-259.62"/>
</g>
<!-- 52 -->
<g id="node53" class="node">
<title>52</title>
<polygon fill="none" stroke="black" points="1421,-258 1329,-258 1329,-220 1421,-220 1421,-258"/>
<text text-anchor="middle" x="1375" y="-242.8" font-family="Times,serif" font-size="14.00">lat &lt;= 38.562</text>
<text text-anchor="middle" x="1375" y="-227.8" font-family="Times,serif" font-size="14.00">class = red</text>
</g>
<!-- 44&#45;&gt;52 -->
<g id="edge52" class="edge">
<title>44&#45;&gt;52</title>
<path fill="none" stroke="black" d="M1375,-293.83C1375,-286.13 1375,-276.97 1375,-268.42"/>
<polygon fill="black" stroke="black" points="1378.5,-268.41 1375,-258.41 1371.5,-268.41 1378.5,-268.41"/>
</g>
<!-- 46 -->
<g id="node47" class="node">
<title>46</title>
<polygon fill="none" stroke="black" points="1171,-184 1071,-184 1071,-146 1171,-146 1171,-184"/>
<text text-anchor="middle" x="1121" y="-168.8" font-family="Times,serif" font-size="14.00">lon &lt;= &#45;90.841</text>
<text text-anchor="middle" x="1121" y="-153.8" font-family="Times,serif" font-size="14.00">class = red</text>
</g>
<!-- 45&#45;&gt;46 -->
<g id="edge46" class="edge">
<title>45&#45;&gt;46</title>
<path fill="none" stroke="black" d="M1206.23,-219.83C1191.79,-210.71 1174.1,-199.54 1158.6,-189.74"/>
<polygon fill="black" stroke="black" points="1160.08,-186.54 1149.76,-184.16 1156.34,-192.46 1160.08,-186.54"/>
</g>
<!-- 51 -->
<g id="node52" class="node">
<title>51</title>
<polygon fill="none" stroke="black" points="1271,-183 1189,-183 1189,-147 1271,-147 1271,-183"/>
<text text-anchor="middle" x="1230" y="-161.3" font-family="Times,serif" font-size="14.00">class = blue</text>
</g>
<!-- 45&#45;&gt;51 -->
<g id="edge51" class="edge">
<title>45&#45;&gt;51</title>
<path fill="none" stroke="black" d="M1233.74,-219.83C1233.19,-211.89 1232.53,-202.41 1231.92,-193.63"/>
<polygon fill="black" stroke="black" points="1235.39,-193.15 1231.21,-183.42 1228.41,-193.64 1235.39,-193.15"/>
</g>
<!-- 47 -->
<g id="node48" class="node">
<title>47</title>
<polygon fill="none" stroke="black" points="1106,-109 1030,-109 1030,-73 1106,-73 1106,-109"/>
<text text-anchor="middle" x="1068" y="-87.3" font-family="Times,serif" font-size="14.00">class = red</text>
</g>
<!-- 46&#45;&gt;47 -->
<g id="edge47" class="edge">
<title>46&#45;&gt;47</title>
<path fill="none" stroke="black" d="M1107.63,-145.83C1101.33,-137.28 1093.72,-126.94 1086.86,-117.62"/>
<polygon fill="black" stroke="black" points="1089.57,-115.4 1080.82,-109.42 1083.93,-119.55 1089.57,-115.4"/>
</g>
<!-- 48 -->
<g id="node49" class="node">
<title>48</title>
<polygon fill="none" stroke="black" points="1224,-110 1124,-110 1124,-72 1224,-72 1224,-110"/>
<text text-anchor="middle" x="1174" y="-94.8" font-family="Times,serif" font-size="14.00">lon &lt;= &#45;90.327</text>
<text text-anchor="middle" x="1174" y="-79.8" font-family="Times,serif" font-size="14.00">class = blue</text>
</g>
<!-- 46&#45;&gt;48 -->
<g id="edge48" class="edge">
<title>46&#45;&gt;48</title>
<path fill="none" stroke="black" d="M1134.37,-145.83C1140.42,-137.62 1147.68,-127.76 1154.32,-118.73"/>
<polygon fill="black" stroke="black" points="1157.34,-120.54 1160.45,-110.41 1151.7,-116.39 1157.34,-120.54"/>
</g>
<!-- 49 -->
<g id="node50" class="node">
<title>49</title>
<polygon fill="none" stroke="black" points="1167,-36 1085,-36 1085,0 1167,0 1167,-36"/>
<text text-anchor="middle" x="1126" y="-14.3" font-family="Times,serif" font-size="14.00">class = blue</text>
</g>
<!-- 48&#45;&gt;49 -->
<g id="edge49" class="edge">
<title>48&#45;&gt;49</title>
<path fill="none" stroke="black" d="M1161.64,-71.72C1156,-63.37 1149.22,-53.35 1143.1,-44.3"/>
<polygon fill="black" stroke="black" points="1146,-42.33 1137.5,-36 1140.2,-46.25 1146,-42.33"/>
</g>
<!-- 50 -->
<g id="node51" class="node">
<title>50</title>
<polygon fill="none" stroke="black" points="1261,-36 1185,-36 1185,0 1261,0 1261,-36"/>
<text text-anchor="middle" x="1223" y="-14.3" font-family="Times,serif" font-size="14.00">class = red</text>
</g>
<!-- 48&#45;&gt;50 -->
<g id="edge50" class="edge">
<title>48&#45;&gt;50</title>
<path fill="none" stroke="black" d="M1186.62,-71.72C1192.38,-63.37 1199.29,-53.35 1205.54,-44.3"/>
<polygon fill="black" stroke="black" points="1208.47,-46.22 1211.27,-36 1202.7,-42.25 1208.47,-46.22"/>
</g>
<!-- 53 -->
<g id="node54" class="node">
<title>53</title>
<polygon fill="none" stroke="black" points="1381,-184 1289,-184 1289,-146 1381,-146 1381,-184"/>
<text text-anchor="middle" x="1335" y="-168.8" font-family="Times,serif" font-size="14.00">lat &lt;= 38.324</text>
<text text-anchor="middle" x="1335" y="-153.8" font-family="Times,serif" font-size="14.00">class = red</text>
</g>
<!-- 52&#45;&gt;53 -->
<g id="edge53" class="edge">
<title>52&#45;&gt;53</title>
<path fill="none" stroke="black" d="M1364.91,-219.83C1360.44,-211.79 1355.09,-202.17 1350.16,-193.29"/>
<polygon fill="black" stroke="black" points="1353.15,-191.46 1345.23,-184.41 1347.03,-194.85 1353.15,-191.46"/>
</g>
<!-- 56 -->
<g id="node57" class="node">
<title>56</title>
<polygon fill="none" stroke="black" points="1475,-183 1399,-183 1399,-147 1475,-147 1475,-183"/>
<text text-anchor="middle" x="1437" y="-161.3" font-family="Times,serif" font-size="14.00">class = red</text>
</g>
<!-- 52&#45;&gt;56 -->
<g id="edge56" class="edge">
<title>52&#45;&gt;56</title>
<path fill="none" stroke="black" d="M1390.65,-219.83C1398.16,-211.11 1407.28,-200.52 1415.43,-191.05"/>
<polygon fill="black" stroke="black" points="1418.13,-193.28 1422,-183.42 1412.82,-188.71 1418.13,-193.28"/>
</g>
<!-- 54 -->
<g id="node55" class="node">
<title>54</title>
<polygon fill="none" stroke="black" points="1372,-109 1296,-109 1296,-73 1372,-73 1372,-109"/>
<text text-anchor="middle" x="1334" y="-87.3" font-family="Times,serif" font-size="14.00">class = red</text>
</g>
<!-- 53&#45;&gt;54 -->
<g id="edge54" class="edge">
<title>53&#45;&gt;54</title>
<path fill="none" stroke="black" d="M1334.75,-145.83C1334.64,-137.89 1334.51,-128.41 1334.38,-119.63"/>
<polygon fill="black" stroke="black" points="1337.88,-119.37 1334.24,-109.42 1330.88,-119.47 1337.88,-119.37"/>
</g>
<!-- 55 -->
<g id="node56" class="node">
<title>55</title>
<polygon fill="none" stroke="black" points="1472,-109 1390,-109 1390,-73 1472,-73 1472,-109"/>
<text text-anchor="middle" x="1431" y="-87.3" font-family="Times,serif" font-size="14.00">class = blue</text>
</g>
<!-- 53&#45;&gt;55 -->
<g id="edge55" class="edge">
<title>53&#45;&gt;55</title>
<path fill="none" stroke="black" d="M1359.22,-145.83C1371.53,-136.6 1386.62,-125.29 1399.78,-115.41"/>
<polygon fill="black" stroke="black" points="1402.2,-117.97 1408.1,-109.17 1398,-112.37 1402.2,-117.97"/>
</g>
<!-- 58 -->
<g id="node59" class="node">
<title>58</title>
<polygon fill="none" stroke="black" points="1580,-258 1480,-258 1480,-220 1580,-220 1580,-258"/>
<text text-anchor="middle" x="1530" y="-242.8" font-family="Times,serif" font-size="14.00">lon &lt;= &#45;78.878</text>
<text text-anchor="middle" x="1530" y="-227.8" font-family="Times,serif" font-size="14.00">class = blue</text>
</g>
<!-- 57&#45;&gt;58 -->
<g id="edge58" class="edge">
<title>57&#45;&gt;58</title>
<path fill="none" stroke="black" d="M1530,-293.83C1530,-286.13 1530,-276.97 1530,-268.42"/>
<polygon fill="black" stroke="black" points="1533.5,-268.41 1530,-258.41 1526.5,-268.41 1533.5,-268.41"/>
</g>
<!-- 61 -->
<g id="node62" class="node">
<title>61</title>
<polygon fill="none" stroke="black" points="1680,-257 1598,-257 1598,-221 1680,-221 1680,-257"/>
<text text-anchor="middle" x="1639" y="-235.3" font-family="Times,serif" font-size="14.00">class = blue</text>
</g>
<!-- 57&#45;&gt;61 -->
<g id="edge61" class="edge">
<title>57&#45;&gt;61</title>
<path fill="none" stroke="black" d="M1557.51,-293.83C1571.74,-284.43 1589.26,-272.86 1604.41,-262.85"/>
<polygon fill="black" stroke="black" points="1606.59,-265.6 1613,-257.17 1602.73,-259.76 1606.59,-265.6"/>
</g>
<!-- 59 -->
<g id="node60" class="node">
<title>59</title>
<polygon fill="none" stroke="black" points="1575,-183 1493,-183 1493,-147 1575,-147 1575,-183"/>
<text text-anchor="middle" x="1534" y="-161.3" font-family="Times,serif" font-size="14.00">class = blue</text>
</g>
<!-- 58&#45;&gt;59 -->
<g id="edge59" class="edge">
<title>58&#45;&gt;59</title>
<path fill="none" stroke="black" d="M1531.01,-219.83C1531.45,-211.89 1531.98,-202.41 1532.47,-193.63"/>
<polygon fill="black" stroke="black" points="1535.97,-193.6 1533.03,-183.42 1528.98,-193.21 1535.97,-193.6"/>
</g>
<!-- 60 -->
<g id="node61" class="node">
<title>60</title>
<polygon fill="none" stroke="black" points="1669,-183 1593,-183 1593,-147 1669,-147 1669,-183"/>
<text text-anchor="middle" x="1631" y="-161.3" font-family="Times,serif" font-size="14.00">class = red</text>
</g>
<!-- 58&#45;&gt;60 -->
<g id="edge60" class="edge">
<title>58&#45;&gt;60</title>
<path fill="none" stroke="black" d="M1555.49,-219.83C1568.55,-210.52 1584.61,-199.07 1598.55,-189.13"/>
<polygon fill="black" stroke="black" points="1600.8,-191.83 1606.91,-183.17 1596.74,-186.13 1600.8,-191.83"/>
</g>
<!-- 63 -->
<g id="node64" class="node">
<title>63</title>
<polygon fill="none" stroke="black" points="1794,-332 1702,-332 1702,-294 1794,-294 1794,-332"/>
<text text-anchor="middle" x="1748" y="-316.8" font-family="Times,serif" font-size="14.00">lat &lt;= 41.739</text>
<text text-anchor="middle" x="1748" y="-301.8" font-family="Times,serif" font-size="14.00">class = blue</text>
</g>
<!-- 62&#45;&gt;63 -->
<g id="edge63" class="edge">
<title>62&#45;&gt;63</title>
<path fill="none" stroke="black" d="M1748,-367.83C1748,-360.13 1748,-350.97 1748,-342.42"/>
<polygon fill="black" stroke="black" points="1751.5,-342.41 1748,-332.41 1744.5,-342.41 1751.5,-342.41"/>
</g>
<!-- 72 -->
<g id="node73" class="node">
<title>72</title>
<polygon fill="none" stroke="black" points="1894,-331 1812,-331 1812,-295 1894,-295 1894,-331"/>
<text text-anchor="middle" x="1853" y="-309.3" font-family="Times,serif" font-size="14.00">class = blue</text>
</g>
<!-- 62&#45;&gt;72 -->
<g id="edge72" class="edge">
<title>62&#45;&gt;72</title>
<path fill="none" stroke="black" d="M1774.5,-367.83C1788.21,-358.43 1805.09,-346.86 1819.67,-336.85"/>
<polygon fill="black" stroke="black" points="1821.69,-339.71 1827.96,-331.17 1817.73,-333.94 1821.69,-339.71"/>
</g>
<!-- 64 -->
<g id="node65" class="node">
<title>64</title>
<polygon fill="none" stroke="black" points="1798,-258 1698,-258 1698,-220 1798,-220 1798,-258"/>
<text text-anchor="middle" x="1748" y="-242.8" font-family="Times,serif" font-size="14.00">lon &lt;= &#45;87.697</text>
<text text-anchor="middle" x="1748" y="-227.8" font-family="Times,serif" font-size="14.00">class = blue</text>
</g>
<!-- 63&#45;&gt;64 -->
<g id="edge64" class="edge">
<title>63&#45;&gt;64</title>
<path fill="none" stroke="black" d="M1748,-293.83C1748,-286.13 1748,-276.97 1748,-268.42"/>
<polygon fill="black" stroke="black" points="1751.5,-268.41 1748,-258.41 1744.5,-268.41 1751.5,-268.41"/>
</g>
<!-- 71 -->
<g id="node72" class="node">
<title>71</title>
<polygon fill="none" stroke="black" points="1898,-257 1816,-257 1816,-221 1898,-221 1898,-257"/>
<text text-anchor="middle" x="1857" y="-235.3" font-family="Times,serif" font-size="14.00">class = blue</text>
</g>
<!-- 63&#45;&gt;71 -->
<g id="edge71" class="edge">
<title>63&#45;&gt;71</title>
<path fill="none" stroke="black" d="M1775.51,-293.83C1789.74,-284.43 1807.26,-272.86 1822.41,-262.85"/>
<polygon fill="black" stroke="black" points="1824.59,-265.6 1831,-257.17 1820.73,-259.76 1824.59,-265.6"/>
</g>
<!-- 65 -->
<g id="node66" class="node">
<title>65</title>
<polygon fill="none" stroke="black" points="1794,-184 1694,-184 1694,-146 1794,-146 1794,-184"/>
<text text-anchor="middle" x="1744" y="-168.8" font-family="Times,serif" font-size="14.00">lon &lt;= &#45;91.379</text>
<text text-anchor="middle" x="1744" y="-153.8" font-family="Times,serif" font-size="14.00">class = blue</text>
</g>
<!-- 64&#45;&gt;65 -->
<g id="edge65" class="edge">
<title>64&#45;&gt;65</title>
<path fill="none" stroke="black" d="M1746.99,-219.83C1746.56,-212.13 1746.05,-202.97 1745.58,-194.42"/>
<polygon fill="black" stroke="black" points="1749.07,-194.2 1745.02,-184.41 1742.08,-194.59 1749.07,-194.2"/>
</g>
<!-- 70 -->
<g id="node71" class="node">
<title>70</title>
<polygon fill="none" stroke="black" points="1888,-183 1812,-183 1812,-147 1888,-147 1888,-183"/>
<text text-anchor="middle" x="1850" y="-161.3" font-family="Times,serif" font-size="14.00">class = red</text>
</g>
<!-- 64&#45;&gt;70 -->
<g id="edge70" class="edge">
<title>64&#45;&gt;70</title>
<path fill="none" stroke="black" d="M1773.74,-219.83C1786.93,-210.52 1803.15,-199.07 1817.23,-189.13"/>
<polygon fill="black" stroke="black" points="1819.52,-191.8 1825.67,-183.17 1815.49,-186.08 1819.52,-191.8"/>
</g>
<!-- 66 -->
<g id="node67" class="node">
<title>66</title>
<polygon fill="none" stroke="black" points="1737,-110 1645,-110 1645,-72 1737,-72 1737,-110"/>
<text text-anchor="middle" x="1691" y="-94.8" font-family="Times,serif" font-size="14.00">lat &lt;= 40.775</text>
<text text-anchor="middle" x="1691" y="-79.8" font-family="Times,serif" font-size="14.00">class = red</text>
</g>
<!-- 65&#45;&gt;66 -->
<g id="edge66" class="edge">
<title>65&#45;&gt;66</title>
<path fill="none" stroke="black" d="M1730.63,-145.83C1724.58,-137.62 1717.32,-127.76 1710.68,-118.73"/>
<polygon fill="black" stroke="black" points="1713.3,-116.39 1704.55,-110.41 1707.66,-120.54 1713.3,-116.39"/>
</g>
<!-- 69 -->
<g id="node70" class="node">
<title>69</title>
<polygon fill="none" stroke="black" points="1837,-109 1755,-109 1755,-73 1837,-73 1837,-109"/>
<text text-anchor="middle" x="1796" y="-87.3" font-family="Times,serif" font-size="14.00">class = blue</text>
</g>
<!-- 65&#45;&gt;69 -->
<g id="edge69" class="edge">
<title>65&#45;&gt;69</title>
<path fill="none" stroke="black" d="M1757.12,-145.83C1763.3,-137.28 1770.76,-126.94 1777.5,-117.62"/>
<polygon fill="black" stroke="black" points="1780.4,-119.57 1783.42,-109.42 1774.73,-115.48 1780.4,-119.57"/>
</g>
<!-- 67 -->
<g id="node68" class="node">
<title>67</title>
<polygon fill="none" stroke="black" points="1680,-36 1604,-36 1604,0 1680,0 1680,-36"/>
<text text-anchor="middle" x="1642" y="-14.3" font-family="Times,serif" font-size="14.00">class = red</text>
</g>
<!-- 66&#45;&gt;67 -->
<g id="edge67" class="edge">
<title>66&#45;&gt;67</title>
<path fill="none" stroke="black" d="M1678.38,-71.72C1672.62,-63.37 1665.71,-53.35 1659.46,-44.3"/>
<polygon fill="black" stroke="black" points="1662.3,-42.25 1653.73,-36 1656.53,-46.22 1662.3,-42.25"/>
</g>
<!-- 68 -->
<g id="node69" class="node">
<title>68</title>
<polygon fill="none" stroke="black" points="1780,-36 1698,-36 1698,0 1780,0 1780,-36"/>
<text text-anchor="middle" x="1739" y="-14.3" font-family="Times,serif" font-size="14.00">class = blue</text>
</g>
<!-- 66&#45;&gt;68 -->
<g id="edge68" class="edge">
<title>66&#45;&gt;68</title>
<path fill="none" stroke="black" d="M1703.36,-71.72C1709,-63.37 1715.78,-53.35 1721.9,-44.3"/>
<polygon fill="black" stroke="black" points="1724.8,-46.25 1727.5,-36 1719,-42.33 1724.8,-46.25"/>
</g>
</g>
</svg>
