<?xml version="1.0" encoding="UTF-8" standalone="no"?>
<!DOCTYPE svg PUBLIC "-//W3C//DTD SVG 1.1//EN"
 "http://www.w3.org/Graphics/SVG/1.1/DTD/svg11.dtd">
<!-- Generated by graphviz version 2.44.1 (20200629.0846)
 -->
<!-- Title: Tree Pages: 1 -->
<svg width="1113pt" height="932pt"
 viewBox="0.00 0.00 1112.50 932.00" xmlns="http://www.w3.org/2000/svg" xmlns:xlink="http://www.w3.org/1999/xlink">
<g id="graph0" class="graph" transform="scale(1 1) rotate(0) translate(4 928)">
<title>Tree</title>
<polygon fill="white" stroke="transparent" points="-4,4 -4,-928 1108.5,-928 1108.5,4 -4,4"/>
<!-- 0 -->
<g id="node1" class="node">
<title>0</title>
<polygon fill="none" stroke="black" points="347.5,-924 242.5,-924 242.5,-886 347.5,-886 347.5,-924"/>
<text text-anchor="middle" x="295" y="-908.8" font-family="Times,serif" font-size="14.00">latitude &lt;= 42.9</text>
<text text-anchor="middle" x="295" y="-893.8" font-family="Times,serif" font-size="14.00">class = Canada</text>
</g>
<!-- 1 -->
<g id="node2" class="node">
<title>1</title>
<polygon fill="none" stroke="black" points="286.5,-850 167.5,-850 167.5,-812 286.5,-812 286.5,-850"/>
<text text-anchor="middle" x="227" y="-834.8" font-family="Times,serif" font-size="14.00">latitude &lt;= 42.096</text>
<text text-anchor="middle" x="227" y="-819.8" font-family="Times,serif" font-size="14.00">class = USA</text>
</g>
<!-- 0&#45;&gt;1 -->
<g id="edge1" class="edge">
<title>0&#45;&gt;1</title>
<path fill="none" stroke="black" d="M277.84,-885.83C269.85,-877.37 260.2,-867.15 251.46,-857.9"/>
<polygon fill="black" stroke="black" points="253.8,-855.28 244.39,-850.41 248.71,-860.09 253.8,-855.28"/>
<text text-anchor="middle" x="243.68" y="-871.7" font-family="Times,serif" font-size="14.00">True</text>
</g>
<!-- 6 -->
<g id="node7" class="node">
<title>6</title>
<polygon fill="none" stroke="black" points="423.5,-850 304.5,-850 304.5,-812 423.5,-812 423.5,-850"/>
<text text-anchor="middle" x="364" y="-834.8" font-family="Times,serif" font-size="14.00">latitude &lt;= 55.958</text>
<text text-anchor="middle" x="364" y="-819.8" font-family="Times,serif" font-size="14.00">class = Canada</text>
</g>
<!-- 0&#45;&gt;6 -->
<g id="edge6" class="edge">
<title>0&#45;&gt;6</title>
<path fill="none" stroke="black" d="M312.41,-885.83C320.52,-877.37 330.32,-867.15 339.18,-857.9"/>
<polygon fill="black" stroke="black" points="341.96,-860.05 346.35,-850.41 336.91,-855.21 341.96,-860.05"/>
<text text-anchor="middle" x="346.89" y="-871.71" font-family="Times,serif" font-size="14.00">False</text>
</g>
<!-- 2 -->
<g id="node3" class="node">
<title>2</title>
<polygon fill="none" stroke="black" points="151,-775 65,-775 65,-739 151,-739 151,-775"/>
<text text-anchor="middle" x="108" y="-753.3" font-family="Times,serif" font-size="14.00">class = USA</text>
</g>
<!-- 1&#45;&gt;2 -->
<g id="edge2" class="edge">
<title>1&#45;&gt;2</title>
<path fill="none" stroke="black" d="M196.97,-811.83C181.29,-802.34 161.94,-790.64 145.31,-780.57"/>
<polygon fill="black" stroke="black" points="146.75,-777.35 136.38,-775.17 143.12,-783.34 146.75,-777.35"/>
</g>
<!-- 3 -->
<g id="node4" class="node">
<title>3</title>
<polygon fill="none" stroke="black" points="288.5,-776 169.5,-776 169.5,-738 288.5,-738 288.5,-776"/>
<text text-anchor="middle" x="229" y="-760.8" font-family="Times,serif" font-size="14.00">latitude &lt;= 42.324</text>
<text text-anchor="middle" x="229" y="-745.8" font-family="Times,serif" font-size="14.00">class = USA</text>
</g>
<!-- 1&#45;&gt;3 -->
<g id="edge3" class="edge">
<title>1&#45;&gt;3</title>
<path fill="none" stroke="black" d="M227.5,-811.83C227.72,-804.13 227.97,-794.97 228.21,-786.42"/>
<polygon fill="black" stroke="black" points="231.71,-786.51 228.49,-776.41 224.71,-786.31 231.71,-786.51"/>
</g>
<!-- 4 -->
<g id="node5" class="node">
<title>4</title>
<polygon fill="none" stroke="black" points="168.5,-701 69.5,-701 69.5,-665 168.5,-665 168.5,-701"/>
<text text-anchor="middle" x="119" y="-679.3" font-family="Times,serif" font-size="14.00">class = Canada</text>
</g>
<!-- 3&#45;&gt;4 -->
<g id="edge4" class="edge">
<title>3&#45;&gt;4</title>
<path fill="none" stroke="black" d="M201.24,-737.83C186.88,-728.43 169.2,-716.86 153.91,-706.85"/>
<polygon fill="black" stroke="black" points="155.52,-703.72 145.23,-701.17 151.68,-709.58 155.52,-703.72"/>
</g>
<!-- 5 -->
<g id="node6" class="node">
<title>5</title>
<polygon fill="none" stroke="black" points="273,-701 187,-701 187,-665 273,-665 273,-701"/>
<text text-anchor="middle" x="230" y="-679.3" font-family="Times,serif" font-size="14.00">class = USA</text>
</g>
<!-- 3&#45;&gt;5 -->
<g id="edge5" class="edge">
<title>3&#45;&gt;5</title>
<path fill="none" stroke="black" d="M229.25,-737.83C229.36,-729.89 229.49,-720.41 229.62,-711.63"/>
<polygon fill="black" stroke="black" points="233.12,-711.47 229.76,-701.42 226.12,-711.37 233.12,-711.47"/>
</g>
<!-- 7 -->
<g id="node8" class="node">
<title>7</title>
<polygon fill="none" stroke="black" points="415.5,-776 310.5,-776 310.5,-738 415.5,-738 415.5,-776"/>
<text text-anchor="middle" x="363" y="-760.8" font-family="Times,serif" font-size="14.00">latitude &lt;= 49.0</text>
<text text-anchor="middle" x="363" y="-745.8" font-family="Times,serif" font-size="14.00">class = Canada</text>
</g>
<!-- 6&#45;&gt;7 -->
<g id="edge7" class="edge">
<title>6&#45;&gt;7</title>
<path fill="none" stroke="black" d="M363.75,-811.83C363.64,-804.13 363.51,-794.97 363.39,-786.42"/>
<polygon fill="black" stroke="black" points="366.89,-786.36 363.26,-776.41 359.9,-786.46 366.89,-786.36"/>
</g>
<!-- 54 -->
<g id="node55" class="node">
<title>54</title>
<polygon fill="none" stroke="black" points="520,-775 434,-775 434,-739 520,-739 520,-775"/>
<text text-anchor="middle" x="477" y="-753.3" font-family="Times,serif" font-size="14.00">class = USA</text>
</g>
<!-- 6&#45;&gt;54 -->
<g id="edge54" class="edge">
<title>6&#45;&gt;54</title>
<path fill="none" stroke="black" d="M392.51,-811.83C407.41,-802.34 425.78,-790.64 441.58,-780.57"/>
<polygon fill="black" stroke="black" points="443.5,-783.5 450.05,-775.17 439.74,-777.59 443.5,-783.5"/>
</g>
<!-- 8 -->
<g id="node9" class="node">
<title>8</title>
<polygon fill="none" stroke="black" points="429,-702 295,-702 295,-664 429,-664 429,-702"/>
<text text-anchor="middle" x="362" y="-686.8" font-family="Times,serif" font-size="14.00">longitude &lt;= &#45;94.582</text>
<text text-anchor="middle" x="362" y="-671.8" font-family="Times,serif" font-size="14.00">class = Canada</text>
</g>
<!-- 7&#45;&gt;8 -->
<g id="edge8" class="edge">
<title>7&#45;&gt;8</title>
<path fill="none" stroke="black" d="M362.75,-737.83C362.64,-730.13 362.51,-720.97 362.39,-712.42"/>
<polygon fill="black" stroke="black" points="365.89,-712.36 362.26,-702.41 358.9,-712.46 365.89,-712.36"/>
</g>
<!-- 53 -->
<g id="node54" class="node">
<title>53</title>
<polygon fill="none" stroke="black" points="546.5,-701 447.5,-701 447.5,-665 546.5,-665 546.5,-701"/>
<text text-anchor="middle" x="497" y="-679.3" font-family="Times,serif" font-size="14.00">class = Canada</text>
</g>
<!-- 7&#45;&gt;53 -->
<g id="edge53" class="edge">
<title>7&#45;&gt;53</title>
<path fill="none" stroke="black" d="M396.81,-737.83C414.8,-728.17 437.06,-716.2 456.03,-706.01"/>
<polygon fill="black" stroke="black" points="457.89,-708.99 465.04,-701.17 454.58,-702.82 457.89,-708.99"/>
</g>
<!-- 9 -->
<g id="node10" class="node">
<title>9</title>
<polygon fill="none" stroke="black" points="355,-628 215,-628 215,-590 355,-590 355,-628"/>
<text text-anchor="middle" x="285" y="-612.8" font-family="Times,serif" font-size="14.00">longitude &lt;= &#45;123.222</text>
<text text-anchor="middle" x="285" y="-597.8" font-family="Times,serif" font-size="14.00">class = USA</text>
</g>
<!-- 8&#45;&gt;9 -->
<g id="edge9" class="edge">
<title>8&#45;&gt;9</title>
<path fill="none" stroke="black" d="M342.57,-663.83C333.27,-655.13 321.98,-644.58 311.87,-635.13"/>
<polygon fill="black" stroke="black" points="314.12,-632.44 304.42,-628.16 309.34,-637.55 314.12,-632.44"/>
</g>
<!-- 12 -->
<g id="node13" class="node">
<title>12</title>
<polygon fill="none" stroke="black" points="507,-628 373,-628 373,-590 507,-590 507,-628"/>
<text text-anchor="middle" x="440" y="-612.8" font-family="Times,serif" font-size="14.00">longitude &lt;= &#45;69.246</text>
<text text-anchor="middle" x="440" y="-597.8" font-family="Times,serif" font-size="14.00">class = Canada</text>
</g>
<!-- 8&#45;&gt;12 -->
<g id="edge12" class="edge">
<title>8&#45;&gt;12</title>
<path fill="none" stroke="black" d="M381.68,-663.83C391.11,-655.13 402.54,-644.58 412.78,-635.13"/>
<polygon fill="black" stroke="black" points="415.35,-637.52 420.32,-628.16 410.6,-632.37 415.35,-637.52"/>
</g>
<!-- 10 -->
<g id="node11" class="node">
<title>10</title>
<polygon fill="none" stroke="black" points="232.5,-553 133.5,-553 133.5,-517 232.5,-517 232.5,-553"/>
<text text-anchor="middle" x="183" y="-531.3" font-family="Times,serif" font-size="14.00">class = Canada</text>
</g>
<!-- 9&#45;&gt;10 -->
<g id="edge10" class="edge">
<title>9&#45;&gt;10</title>
<path fill="none" stroke="black" d="M259.26,-589.83C246.07,-580.52 229.85,-569.07 215.77,-559.13"/>
<polygon fill="black" stroke="black" points="217.51,-556.08 207.33,-553.17 213.48,-561.8 217.51,-556.08"/>
</g>
<!-- 11 -->
<g id="node12" class="node">
<title>11</title>
<polygon fill="none" stroke="black" points="337,-553 251,-553 251,-517 337,-517 337,-553"/>
<text text-anchor="middle" x="294" y="-531.3" font-family="Times,serif" font-size="14.00">class = USA</text>
</g>
<!-- 9&#45;&gt;11 -->
<g id="edge11" class="edge">
<title>9&#45;&gt;11</title>
<path fill="none" stroke="black" d="M287.27,-589.83C288.26,-581.89 289.45,-572.41 290.55,-563.63"/>
<polygon fill="black" stroke="black" points="294.06,-563.77 291.82,-553.42 287.11,-562.91 294.06,-563.77"/>
</g>
<!-- 13 -->
<g id="node14" class="node">
<title>13</title>
<polygon fill="none" stroke="black" points="491.5,-554 372.5,-554 372.5,-516 491.5,-516 491.5,-554"/>
<text text-anchor="middle" x="432" y="-538.8" font-family="Times,serif" font-size="14.00">latitude &lt;= 43.093</text>
<text text-anchor="middle" x="432" y="-523.8" font-family="Times,serif" font-size="14.00">class = Canada</text>
</g>
<!-- 12&#45;&gt;13 -->
<g id="edge13" class="edge">
<title>12&#45;&gt;13</title>
<path fill="none" stroke="black" d="M437.98,-589.83C437.13,-582.13 436.11,-572.97 435.16,-564.42"/>
<polygon fill="black" stroke="black" points="438.63,-563.97 434.05,-554.41 431.67,-564.74 438.63,-563.97"/>
</g>
<!-- 36 -->
<g id="node37" class="node">
<title>36</title>
<polygon fill="none" stroke="black" points="801,-554 667,-554 667,-516 801,-516 801,-554"/>
<text text-anchor="middle" x="734" y="-538.8" font-family="Times,serif" font-size="14.00">longitude &lt;= &#45;66.952</text>
<text text-anchor="middle" x="734" y="-523.8" font-family="Times,serif" font-size="14.00">class = Canada</text>
</g>
<!-- 12&#45;&gt;36 -->
<g id="edge36" class="edge">
<title>12&#45;&gt;36</title>
<path fill="none" stroke="black" d="M507.08,-591.57C551.78,-580.63 610.64,-566.21 657.21,-554.81"/>
<polygon fill="black" stroke="black" points="658.07,-558.2 666.95,-552.42 656.41,-551.4 658.07,-558.2"/>
</g>
<!-- 14 -->
<g id="node15" class="node">
<title>14</title>
<polygon fill="none" stroke="black" points="231,-480 97,-480 97,-442 231,-442 231,-480"/>
<text text-anchor="middle" x="164" y="-464.8" font-family="Times,serif" font-size="14.00">longitude &lt;= &#45;81.845</text>
<text text-anchor="middle" x="164" y="-449.8" font-family="Times,serif" font-size="14.00">class = Canada</text>
</g>
<!-- 13&#45;&gt;14 -->
<g id="edge14" class="edge">
<title>13&#45;&gt;14</title>
<path fill="none" stroke="black" d="M372.19,-517.93C333.49,-507.53 282.72,-493.9 241.01,-482.69"/>
<polygon fill="black" stroke="black" points="241.73,-479.26 231.17,-480.05 239.92,-486.02 241.73,-479.26"/>
</g>
<!-- 19 -->
<g id="node20" class="node">
<title>19</title>
<polygon fill="none" stroke="black" points="491.5,-480 372.5,-480 372.5,-442 491.5,-442 491.5,-480"/>
<text text-anchor="middle" x="432" y="-464.8" font-family="Times,serif" font-size="14.00">latitude &lt;= 44.992</text>
<text text-anchor="middle" x="432" y="-449.8" font-family="Times,serif" font-size="14.00">class = Canada</text>
</g>
<!-- 13&#45;&gt;19 -->
<g id="edge19" class="edge">
<title>13&#45;&gt;19</title>
<path fill="none" stroke="black" d="M432,-515.83C432,-508.13 432,-498.97 432,-490.42"/>
<polygon fill="black" stroke="black" points="435.5,-490.41 432,-480.41 428.5,-490.41 435.5,-490.41"/>
</g>
<!-- 15 -->
<g id="node16" class="node">
<title>15</title>
<polygon fill="none" stroke="black" points="86,-405 0,-405 0,-369 86,-369 86,-405"/>
<text text-anchor="middle" x="43" y="-383.3" font-family="Times,serif" font-size="14.00">class = USA</text>
</g>
<!-- 14&#45;&gt;15 -->
<g id="edge15" class="edge">
<title>14&#45;&gt;15</title>
<path fill="none" stroke="black" d="M133.47,-441.83C117.37,-432.25 97.49,-420.42 80.46,-410.29"/>
<polygon fill="black" stroke="black" points="82.24,-407.28 71.86,-405.17 78.66,-413.29 82.24,-407.28"/>
</g>
<!-- 16 -->
<g id="node17" class="node">
<title>16</title>
<polygon fill="none" stroke="black" points="223.5,-406 104.5,-406 104.5,-368 223.5,-368 223.5,-406"/>
<text text-anchor="middle" x="164" y="-390.8" font-family="Times,serif" font-size="14.00">latitude &lt;= 43.039</text>
<text text-anchor="middle" x="164" y="-375.8" font-family="Times,serif" font-size="14.00">class = Canada</text>
</g>
<!-- 14&#45;&gt;16 -->
<g id="edge16" class="edge">
<title>14&#45;&gt;16</title>
<path fill="none" stroke="black" d="M164,-441.83C164,-434.13 164,-424.97 164,-416.42"/>
<polygon fill="black" stroke="black" points="167.5,-416.41 164,-406.41 160.5,-416.41 167.5,-416.41"/>
</g>
<!-- 17 -->
<g id="node18" class="node">
<title>17</title>
<polygon fill="none" stroke="black" points="102.5,-331 3.5,-331 3.5,-295 102.5,-295 102.5,-331"/>
<text text-anchor="middle" x="53" y="-309.3" font-family="Times,serif" font-size="14.00">class = Canada</text>
</g>
<!-- 16&#45;&gt;17 -->
<g id="edge17" class="edge">
<title>16&#45;&gt;17</title>
<path fill="none" stroke="black" d="M135.99,-367.83C121.49,-358.43 103.65,-346.86 88.23,-336.85"/>
<polygon fill="black" stroke="black" points="89.77,-333.68 79.47,-331.17 85.96,-339.55 89.77,-333.68"/>
</g>
<!-- 18 -->
<g id="node19" class="node">
<title>18</title>
<polygon fill="none" stroke="black" points="207,-331 121,-331 121,-295 207,-295 207,-331"/>
<text text-anchor="middle" x="164" y="-309.3" font-family="Times,serif" font-size="14.00">class = USA</text>
</g>
<!-- 16&#45;&gt;18 -->
<g id="edge18" class="edge">
<title>16&#45;&gt;18</title>
<path fill="none" stroke="black" d="M164,-367.83C164,-359.89 164,-350.41 164,-341.63"/>
<polygon fill="black" stroke="black" points="167.5,-341.42 164,-331.42 160.5,-341.42 167.5,-341.42"/>
</g>
<!-- 20 -->
<g id="node21" class="node">
<title>20</title>
<polygon fill="none" stroke="black" points="423.5,-406 304.5,-406 304.5,-368 423.5,-368 423.5,-406"/>
<text text-anchor="middle" x="364" y="-390.8" font-family="Times,serif" font-size="14.00">latitude &lt;= 44.542</text>
<text text-anchor="middle" x="364" y="-375.8" font-family="Times,serif" font-size="14.00">class = Canada</text>
</g>
<!-- 19&#45;&gt;20 -->
<g id="edge20" class="edge">
<title>19&#45;&gt;20</title>
<path fill="none" stroke="black" d="M414.84,-441.83C406.85,-433.37 397.2,-423.15 388.46,-413.9"/>
<polygon fill="black" stroke="black" points="390.8,-411.28 381.39,-406.41 385.71,-416.09 390.8,-411.28"/>
</g>
<!-- 35 -->
<g id="node36" class="node">
<title>35</title>
<polygon fill="none" stroke="black" points="540.5,-405 441.5,-405 441.5,-369 540.5,-369 540.5,-405"/>
<text text-anchor="middle" x="491" y="-383.3" font-family="Times,serif" font-size="14.00">class = Canada</text>
</g>
<!-- 19&#45;&gt;35 -->
<g id="edge35" class="edge">
<title>19&#45;&gt;35</title>
<path fill="none" stroke="black" d="M446.89,-441.83C453.96,-433.2 462.54,-422.73 470.24,-413.33"/>
<polygon fill="black" stroke="black" points="473.1,-415.37 476.73,-405.42 467.68,-410.93 473.1,-415.37"/>
</g>
<!-- 21 -->
<g id="node22" class="node">
<title>21</title>
<polygon fill="none" stroke="black" points="359,-332 225,-332 225,-294 359,-294 359,-332"/>
<text text-anchor="middle" x="292" y="-316.8" font-family="Times,serif" font-size="14.00">longitude &lt;= &#45;79.076</text>
<text text-anchor="middle" x="292" y="-301.8" font-family="Times,serif" font-size="14.00">class = Canada</text>
</g>
<!-- 20&#45;&gt;21 -->
<g id="edge21" class="edge">
<title>20&#45;&gt;21</title>
<path fill="none" stroke="black" d="M345.83,-367.83C337.28,-359.28 326.94,-348.94 317.62,-339.62"/>
<polygon fill="black" stroke="black" points="319.96,-337.01 310.41,-332.41 315.01,-341.96 319.96,-337.01"/>
</g>
<!-- 30 -->
<g id="node31" class="node">
<title>30</title>
<polygon fill="none" stroke="black" points="511,-332 377,-332 377,-294 511,-294 511,-332"/>
<text text-anchor="middle" x="444" y="-316.8" font-family="Times,serif" font-size="14.00">longitude &lt;= &#45;84.392</text>
<text text-anchor="middle" x="444" y="-301.8" font-family="Times,serif" font-size="14.00">class = USA</text>
</g>
<!-- 20&#45;&gt;30 -->
<g id="edge30" class="edge">
<title>20&#45;&gt;30</title>
<path fill="none" stroke="black" d="M384.19,-367.83C393.85,-359.13 405.58,-348.58 416.08,-339.13"/>
<polygon fill="black" stroke="black" points="418.73,-341.45 423.82,-332.16 414.04,-336.25 418.73,-341.45"/>
</g>
<!-- 22 -->
<g id="node23" class="node">
<title>22</title>
<polygon fill="none" stroke="black" points="214.5,-257 115.5,-257 115.5,-221 214.5,-221 214.5,-257"/>
<text text-anchor="middle" x="165" y="-235.3" font-family="Times,serif" font-size="14.00">class = Canada</text>
</g>
<!-- 21&#45;&gt;22 -->
<g id="edge22" class="edge">
<title>21&#45;&gt;22</title>
<path fill="none" stroke="black" d="M259.95,-293.83C243.06,-284.25 222.19,-272.42 204.32,-262.29"/>
<polygon fill="black" stroke="black" points="205.71,-259.06 195.29,-257.17 202.26,-265.15 205.71,-259.06"/>
</g>
<!-- 23 -->
<g id="node24" class="node">
<title>23</title>
<polygon fill="none" stroke="black" points="351.5,-258 232.5,-258 232.5,-220 351.5,-220 351.5,-258"/>
<text text-anchor="middle" x="292" y="-242.8" font-family="Times,serif" font-size="14.00">latitude &lt;= 44.168</text>
<text text-anchor="middle" x="292" y="-227.8" font-family="Times,serif" font-size="14.00">class = Canada</text>
</g>
<!-- 21&#45;&gt;23 -->
<g id="edge23" class="edge">
<title>21&#45;&gt;23</title>
<path fill="none" stroke="black" d="M292,-293.83C292,-286.13 292,-276.97 292,-268.42"/>
<polygon fill="black" stroke="black" points="295.5,-268.41 292,-258.41 288.5,-268.41 295.5,-268.41"/>
</g>
<!-- 24 -->
<g id="node25" class="node">
<title>24</title>
<polygon fill="none" stroke="black" points="234.5,-184 107.5,-184 107.5,-146 234.5,-146 234.5,-184"/>
<text text-anchor="middle" x="171" y="-168.8" font-family="Times,serif" font-size="14.00">longitude &lt;= &#45;79.03</text>
<text text-anchor="middle" x="171" y="-153.8" font-family="Times,serif" font-size="14.00">class = USA</text>
</g>
<!-- 23&#45;&gt;24 -->
<g id="edge24" class="edge">
<title>23&#45;&gt;24</title>
<path fill="none" stroke="black" d="M261.47,-219.83C245.99,-210.62 227.01,-199.33 210.44,-189.47"/>
<polygon fill="black" stroke="black" points="211.91,-186.27 201.52,-184.16 208.33,-192.28 211.91,-186.27"/>
</g>
<!-- 29 -->
<g id="node30" class="node">
<title>29</title>
<polygon fill="none" stroke="black" points="351.5,-183 252.5,-183 252.5,-147 351.5,-147 351.5,-183"/>
<text text-anchor="middle" x="302" y="-161.3" font-family="Times,serif" font-size="14.00">class = Canada</text>
</g>
<!-- 23&#45;&gt;29 -->
<g id="edge29" class="edge">
<title>23&#45;&gt;29</title>
<path fill="none" stroke="black" d="M294.52,-219.83C295.64,-211.81 296.97,-202.2 298.2,-193.34"/>
<polygon fill="black" stroke="black" points="301.67,-193.8 299.58,-183.42 294.74,-192.84 301.67,-193.8"/>
</g>
<!-- 25 -->
<g id="node26" class="node">
<title>25</title>
<polygon fill="none" stroke="black" points="150,-109 64,-109 64,-73 150,-73 150,-109"/>
<text text-anchor="middle" x="107" y="-87.3" font-family="Times,serif" font-size="14.00">class = USA</text>
</g>
<!-- 24&#45;&gt;25 -->
<g id="edge25" class="edge">
<title>24&#45;&gt;25</title>
<path fill="none" stroke="black" d="M154.85,-145.83C147.1,-137.11 137.68,-126.52 129.26,-117.05"/>
<polygon fill="black" stroke="black" points="131.74,-114.57 122.48,-109.42 126.51,-119.22 131.74,-114.57"/>
</g>
<!-- 26 -->
<g id="node27" class="node">
<title>26</title>
<polygon fill="none" stroke="black" points="302,-110 168,-110 168,-72 302,-72 302,-110"/>
<text text-anchor="middle" x="235" y="-94.8" font-family="Times,serif" font-size="14.00">longitude &lt;= &#45;77.678</text>
<text text-anchor="middle" x="235" y="-79.8" font-family="Times,serif" font-size="14.00">class = Canada</text>
</g>
<!-- 24&#45;&gt;26 -->
<g id="edge26" class="edge">
<title>24&#45;&gt;26</title>
<path fill="none" stroke="black" d="M187.15,-145.83C194.67,-137.37 203.76,-127.15 211.98,-117.9"/>
<polygon fill="black" stroke="black" points="214.6,-120.21 218.63,-110.41 209.37,-115.56 214.6,-120.21"/>
</g>
<!-- 27 -->
<g id="node28" class="node">
<title>27</title>
<polygon fill="none" stroke="black" points="228.5,-36 129.5,-36 129.5,0 228.5,0 228.5,-36"/>
<text text-anchor="middle" x="179" y="-14.3" font-family="Times,serif" font-size="14.00">class = Canada</text>
</g>
<!-- 26&#45;&gt;27 -->
<g id="edge27" class="edge">
<title>26&#45;&gt;27</title>
<path fill="none" stroke="black" d="M220.58,-71.72C213.93,-63.29 205.93,-53.15 198.73,-44.02"/>
<polygon fill="black" stroke="black" points="201.35,-41.69 192.41,-36 195.86,-46.02 201.35,-41.69"/>
</g>
<!-- 28 -->
<g id="node29" class="node">
<title>28</title>
<polygon fill="none" stroke="black" points="333,-36 247,-36 247,0 333,0 333,-36"/>
<text text-anchor="middle" x="290" y="-14.3" font-family="Times,serif" font-size="14.00">class = USA</text>
</g>
<!-- 26&#45;&gt;28 -->
<g id="edge28" class="edge">
<title>26&#45;&gt;28</title>
<path fill="none" stroke="black" d="M249.16,-71.72C255.69,-63.29 263.55,-53.15 270.62,-44.02"/>
<polygon fill="black" stroke="black" points="273.47,-46.05 276.83,-36 267.94,-41.77 273.47,-46.05"/>
</g>
<!-- 31 -->
<g id="node32" class="node">
<title>31</title>
<polygon fill="none" stroke="black" points="456,-257 370,-257 370,-221 456,-221 456,-257"/>
<text text-anchor="middle" x="413" y="-235.3" font-family="Times,serif" font-size="14.00">class = USA</text>
</g>
<!-- 30&#45;&gt;31 -->
<g id="edge31" class="edge">
<title>30&#45;&gt;31</title>
<path fill="none" stroke="black" d="M436.18,-293.83C432.65,-285.63 428.41,-275.78 424.52,-266.76"/>
<polygon fill="black" stroke="black" points="427.67,-265.22 420.5,-257.42 421.24,-267.99 427.67,-265.22"/>
</g>
<!-- 32 -->
<g id="node33" class="node">
<title>32</title>
<polygon fill="none" stroke="black" points="608,-258 474,-258 474,-220 608,-220 608,-258"/>
<text text-anchor="middle" x="541" y="-242.8" font-family="Times,serif" font-size="14.00">longitude &lt;= &#45;75.503</text>
<text text-anchor="middle" x="541" y="-227.8" font-family="Times,serif" font-size="14.00">class = Canada</text>
</g>
<!-- 30&#45;&gt;32 -->
<g id="edge32" class="edge">
<title>30&#45;&gt;32</title>
<path fill="none" stroke="black" d="M468.48,-293.83C480.54,-284.88 495.25,-273.96 508.27,-264.3"/>
<polygon fill="black" stroke="black" points="510.59,-266.93 516.53,-258.16 506.41,-261.31 510.59,-266.93"/>
</g>
<!-- 33 -->
<g id="node34" class="node">
<title>33</title>
<polygon fill="none" stroke="black" points="480.5,-183 381.5,-183 381.5,-147 480.5,-147 480.5,-183"/>
<text text-anchor="middle" x="431" y="-161.3" font-family="Times,serif" font-size="14.00">class = Canada</text>
</g>
<!-- 32&#45;&gt;33 -->
<g id="edge33" class="edge">
<title>32&#45;&gt;33</title>
<path fill="none" stroke="black" d="M513.24,-219.83C498.88,-210.43 481.2,-198.86 465.91,-188.85"/>
<polygon fill="black" stroke="black" points="467.52,-185.72 457.23,-183.17 463.68,-191.58 467.52,-185.72"/>
</g>
<!-- 34 -->
<g id="node35" class="node">
<title>34</title>
<polygon fill="none" stroke="black" points="585,-183 499,-183 499,-147 585,-147 585,-183"/>
<text text-anchor="middle" x="542" y="-161.3" font-family="Times,serif" font-size="14.00">class = USA</text>
</g>
<!-- 32&#45;&gt;34 -->
<g id="edge34" class="edge">
<title>32&#45;&gt;34</title>
<path fill="none" stroke="black" d="M541.25,-219.83C541.36,-211.89 541.49,-202.41 541.62,-193.63"/>
<polygon fill="black" stroke="black" points="545.12,-193.47 541.76,-183.42 538.12,-193.37 545.12,-193.47"/>
</g>
<!-- 37 -->
<g id="node38" class="node">
<title>37</title>
<polygon fill="none" stroke="black" points="801,-480 667,-480 667,-442 801,-442 801,-480"/>
<text text-anchor="middle" x="734" y="-464.8" font-family="Times,serif" font-size="14.00">longitude &lt;= &#45;67.279</text>
<text text-anchor="middle" x="734" y="-449.8" font-family="Times,serif" font-size="14.00">class = USA</text>
</g>
<!-- 36&#45;&gt;37 -->
<g id="edge37" class="edge">
<title>36&#45;&gt;37</title>
<path fill="none" stroke="black" d="M734,-515.83C734,-508.13 734,-498.97 734,-490.42"/>
<polygon fill="black" stroke="black" points="737.5,-490.41 734,-480.41 730.5,-490.41 737.5,-490.41"/>
</g>
<!-- 52 -->
<g id="node53" class="node">
<title>52</title>
<polygon fill="none" stroke="black" points="918.5,-479 819.5,-479 819.5,-443 918.5,-443 918.5,-479"/>
<text text-anchor="middle" x="869" y="-457.3" font-family="Times,serif" font-size="14.00">class = Canada</text>
</g>
<!-- 36&#45;&gt;52 -->
<g id="edge52" class="edge">
<title>36&#45;&gt;52</title>
<path fill="none" stroke="black" d="M768.07,-515.83C786.19,-506.17 808.62,-494.2 827.72,-484.01"/>
<polygon fill="black" stroke="black" points="829.63,-486.97 836.8,-479.17 826.33,-480.79 829.63,-486.97"/>
</g>
<!-- 38 -->
<g id="node39" class="node">
<title>38</title>
<polygon fill="none" stroke="black" points="797.5,-406 670.5,-406 670.5,-368 797.5,-368 797.5,-406"/>
<text text-anchor="middle" x="734" y="-390.8" font-family="Times,serif" font-size="14.00">longitude &lt;= &#45;67.93</text>
<text text-anchor="middle" x="734" y="-375.8" font-family="Times,serif" font-size="14.00">class = Canada</text>
</g>
<!-- 37&#45;&gt;38 -->
<g id="edge38" class="edge">
<title>37&#45;&gt;38</title>
<path fill="none" stroke="black" d="M734,-441.83C734,-434.13 734,-424.97 734,-416.42"/>
<polygon fill="black" stroke="black" points="737.5,-416.41 734,-406.41 730.5,-416.41 737.5,-416.41"/>
</g>
<!-- 51 -->
<g id="node52" class="node">
<title>51</title>
<polygon fill="none" stroke="black" points="902,-405 816,-405 816,-369 902,-369 902,-405"/>
<text text-anchor="middle" x="859" y="-383.3" font-family="Times,serif" font-size="14.00">class = USA</text>
</g>
<!-- 37&#45;&gt;51 -->
<g id="edge51" class="edge">
<title>37&#45;&gt;51</title>
<path fill="none" stroke="black" d="M765.54,-441.83C782.17,-432.25 802.71,-420.42 820.3,-410.29"/>
<polygon fill="black" stroke="black" points="822.27,-413.2 829.19,-405.17 818.78,-407.13 822.27,-413.2"/>
</g>
<!-- 39 -->
<g id="node40" class="node">
<title>39</title>
<polygon fill="none" stroke="black" points="801,-332 667,-332 667,-294 801,-294 801,-332"/>
<text text-anchor="middle" x="734" y="-316.8" font-family="Times,serif" font-size="14.00">longitude &lt;= &#45;68.325</text>
<text text-anchor="middle" x="734" y="-301.8" font-family="Times,serif" font-size="14.00">class = USA</text>
</g>
<!-- 38&#45;&gt;39 -->
<g id="edge39" class="edge">
<title>38&#45;&gt;39</title>
<path fill="none" stroke="black" d="M734,-367.83C734,-360.13 734,-350.97 734,-342.42"/>
<polygon fill="black" stroke="black" points="737.5,-342.41 734,-332.41 730.5,-342.41 737.5,-342.41"/>
</g>
<!-- 46 -->
<g id="node47" class="node">
<title>46</title>
<polygon fill="none" stroke="black" points="987.5,-332 868.5,-332 868.5,-294 987.5,-294 987.5,-332"/>
<text text-anchor="middle" x="928" y="-316.8" font-family="Times,serif" font-size="14.00">latitude &lt;= 45.565</text>
<text text-anchor="middle" x="928" y="-301.8" font-family="Times,serif" font-size="14.00">class = Canada</text>
</g>
<!-- 38&#45;&gt;46 -->
<g id="edge46" class="edge">
<title>38&#45;&gt;46</title>
<path fill="none" stroke="black" d="M782.95,-367.83C809.36,-358.03 842.13,-345.87 869.83,-335.59"/>
<polygon fill="black" stroke="black" points="871.24,-338.8 879.4,-332.04 868.8,-332.24 871.24,-338.8"/>
</g>
<!-- 40 -->
<g id="node41" class="node">
<title>40</title>
<polygon fill="none" stroke="black" points="745.5,-258 626.5,-258 626.5,-220 745.5,-220 745.5,-258"/>
<text text-anchor="middle" x="686" y="-242.8" font-family="Times,serif" font-size="14.00">latitude &lt;= 47.256</text>
<text text-anchor="middle" x="686" y="-227.8" font-family="Times,serif" font-size="14.00">class = Canada</text>
</g>
<!-- 39&#45;&gt;40 -->
<g id="edge40" class="edge">
<title>39&#45;&gt;40</title>
<path fill="none" stroke="black" d="M721.89,-293.83C716.47,-285.71 709.98,-275.96 704.01,-267.01"/>
<polygon fill="black" stroke="black" points="706.73,-264.79 698.28,-258.41 700.91,-268.68 706.73,-264.79"/>
</g>
<!-- 45 -->
<g id="node46" class="node">
<title>45</title>
<polygon fill="none" stroke="black" points="850,-257 764,-257 764,-221 850,-221 850,-257"/>
<text text-anchor="middle" x="807" y="-235.3" font-family="Times,serif" font-size="14.00">class = USA</text>
</g>
<!-- 39&#45;&gt;45 -->
<g id="edge45" class="edge">
<title>39&#45;&gt;45</title>
<path fill="none" stroke="black" d="M752.42,-293.83C761.51,-284.87 772.6,-273.93 782.4,-264.26"/>
<polygon fill="black" stroke="black" points="784.93,-266.69 789.59,-257.17 780.01,-261.7 784.93,-266.69"/>
</g>
<!-- 41 -->
<g id="node42" class="node">
<title>41</title>
<polygon fill="none" stroke="black" points="705.5,-183 606.5,-183 606.5,-147 705.5,-147 705.5,-183"/>
<text text-anchor="middle" x="656" y="-161.3" font-family="Times,serif" font-size="14.00">class = Canada</text>
</g>
<!-- 40&#45;&gt;41 -->
<g id="edge41" class="edge">
<title>40&#45;&gt;41</title>
<path fill="none" stroke="black" d="M678.43,-219.83C675.01,-211.63 670.91,-201.78 667.15,-192.76"/>
<polygon fill="black" stroke="black" points="670.33,-191.3 663.26,-183.42 663.87,-193.99 670.33,-191.3"/>
</g>
<!-- 42 -->
<g id="node43" class="node">
<title>42</title>
<polygon fill="none" stroke="black" points="858,-184 724,-184 724,-146 858,-146 858,-184"/>
<text text-anchor="middle" x="791" y="-168.8" font-family="Times,serif" font-size="14.00">longitude &lt;= &#45;68.459</text>
<text text-anchor="middle" x="791" y="-153.8" font-family="Times,serif" font-size="14.00">class = USA</text>
</g>
<!-- 40&#45;&gt;42 -->
<g id="edge42" class="edge">
<title>40&#45;&gt;42</title>
<path fill="none" stroke="black" d="M712.5,-219.83C725.68,-210.79 741.78,-199.75 755.97,-190.02"/>
<polygon fill="black" stroke="black" points="758.24,-192.7 764.51,-184.16 754.29,-186.93 758.24,-192.7"/>
</g>
<!-- 43 -->
<g id="node44" class="node">
<title>43</title>
<polygon fill="none" stroke="black" points="778,-109 692,-109 692,-73 778,-73 778,-109"/>
<text text-anchor="middle" x="735" y="-87.3" font-family="Times,serif" font-size="14.00">class = USA</text>
</g>
<!-- 42&#45;&gt;43 -->
<g id="edge43" class="edge">
<title>42&#45;&gt;43</title>
<path fill="none" stroke="black" d="M776.87,-145.83C770.15,-137.2 762.01,-126.73 754.7,-117.33"/>
<polygon fill="black" stroke="black" points="757.45,-115.16 748.55,-109.42 751.92,-119.46 757.45,-115.16"/>
</g>
<!-- 44 -->
<g id="node45" class="node">
<title>44</title>
<polygon fill="none" stroke="black" points="895.5,-109 796.5,-109 796.5,-73 895.5,-73 895.5,-109"/>
<text text-anchor="middle" x="846" y="-87.3" font-family="Times,serif" font-size="14.00">class = Canada</text>
</g>
<!-- 42&#45;&gt;44 -->
<g id="edge44" class="edge">
<title>42&#45;&gt;44</title>
<path fill="none" stroke="black" d="M804.88,-145.83C811.41,-137.28 819.31,-126.94 826.43,-117.62"/>
<polygon fill="black" stroke="black" points="829.41,-119.49 832.69,-109.42 823.84,-115.24 829.41,-119.49"/>
</g>
<!-- 47 -->
<g id="node48" class="node">
<title>47</title>
<polygon fill="none" stroke="black" points="987.5,-258 868.5,-258 868.5,-220 987.5,-220 987.5,-258"/>
<text text-anchor="middle" x="928" y="-242.8" font-family="Times,serif" font-size="14.00">latitude &lt;= 45.382</text>
<text text-anchor="middle" x="928" y="-227.8" font-family="Times,serif" font-size="14.00">class = Canada</text>
</g>
<!-- 46&#45;&gt;47 -->
<g id="edge47" class="edge">
<title>46&#45;&gt;47</title>
<path fill="none" stroke="black" d="M928,-293.83C928,-286.13 928,-276.97 928,-268.42"/>
<polygon fill="black" stroke="black" points="931.5,-268.41 928,-258.41 924.5,-268.41 931.5,-268.41"/>
</g>
<!-- 50 -->
<g id="node51" class="node">
<title>50</title>
<polygon fill="none" stroke="black" points="1104.5,-257 1005.5,-257 1005.5,-221 1104.5,-221 1104.5,-257"/>
<text text-anchor="middle" x="1055" y="-235.3" font-family="Times,serif" font-size="14.00">class = Canada</text>
</g>
<!-- 46&#45;&gt;50 -->
<g id="edge50" class="edge">
<title>46&#45;&gt;50</title>
<path fill="none" stroke="black" d="M960.05,-293.83C976.94,-284.25 997.81,-272.42 1015.68,-262.29"/>
<polygon fill="black" stroke="black" points="1017.74,-265.15 1024.71,-257.17 1014.29,-259.06 1017.74,-265.15"/>
</g>
<!-- 48 -->
<g id="node49" class="node">
<title>48</title>
<polygon fill="none" stroke="black" points="976.5,-183 877.5,-183 877.5,-147 976.5,-147 976.5,-183"/>
<text text-anchor="middle" x="927" y="-161.3" font-family="Times,serif" font-size="14.00">class = Canada</text>
</g>
<!-- 47&#45;&gt;48 -->
<g id="edge48" class="edge">
<title>47&#45;&gt;48</title>
<path fill="none" stroke="black" d="M927.75,-219.83C927.64,-211.89 927.51,-202.41 927.38,-193.63"/>
<polygon fill="black" stroke="black" points="930.88,-193.37 927.24,-183.42 923.88,-193.47 930.88,-193.37"/>
</g>
<!-- 49 -->
<g id="node50" class="node">
<title>49</title>
<polygon fill="none" stroke="black" points="1081,-183 995,-183 995,-147 1081,-147 1081,-183"/>
<text text-anchor="middle" x="1038" y="-161.3" font-family="Times,serif" font-size="14.00">class = USA</text>
</g>
<!-- 47&#45;&gt;49 -->
<g id="edge49" class="edge">
<title>47&#45;&gt;49</title>
<path fill="none" stroke="black" d="M955.76,-219.83C970.12,-210.43 987.8,-198.86 1003.09,-188.85"/>
<polygon fill="black" stroke="black" points="1005.32,-191.58 1011.77,-183.17 1001.48,-185.72 1005.32,-191.58"/>
</g>
</g>
</svg>
