<?xml version="1.0" encoding="UTF-8" standalone="no"?>
<!DOCTYPE svg PUBLIC "-//W3C//DTD SVG 1.1//EN"
 "http://www.w3.org/Graphics/SVG/1.1/DTD/svg11.dtd">
<!-- Generated by graphviz version 2.44.1 (20200629.0846)
 -->
<!-- Title: Tree Pages: 1 -->
<svg width="1937pt" height="636pt"
 viewBox="0.00 0.00 1937.00 636.00" xmlns="http://www.w3.org/2000/svg" xmlns:xlink="http://www.w3.org/1999/xlink">
<g id="graph0" class="graph" transform="scale(1 1) rotate(0) translate(4 632)">
<title>Tree</title>
<polygon fill="white" stroke="transparent" points="-4,4 -4,-632 1933,-632 1933,4 -4,4"/>
<!-- 0 -->
<g id="node1" class="node">
<title>0</title>
<polygon fill="none" stroke="black" points="635,-628 543,-628 543,-590 635,-590 635,-628"/>
<text text-anchor="middle" x="589" y="-612.8" font-family="Times,serif" font-size="14.00">lat &lt;= 37.682</text>
<text text-anchor="middle" x="589" y="-597.8" font-family="Times,serif" font-size="14.00">class = blue</text>
</g>
<!-- 1 -->
<g id="node2" class="node">
<title>1</title>
<polygon fill="none" stroke="black" points="363.5,-554 256.5,-554 256.5,-516 363.5,-516 363.5,-554"/>
<text text-anchor="middle" x="310" y="-538.8" font-family="Times,serif" font-size="14.00">lon &lt;= &#45;114.063</text>
<text text-anchor="middle" x="310" y="-523.8" font-family="Times,serif" font-size="14.00">class = red</text>
</g>
<!-- 0&#45;&gt;1 -->
<g id="edge1" class="edge">
<title>0&#45;&gt;1</title>
<path fill="none" stroke="black" d="M542.93,-596.11C496.69,-584.18 425.11,-565.71 373.5,-552.39"/>
<polygon fill="black" stroke="black" points="374.34,-548.99 363.78,-549.88 372.59,-555.77 374.34,-548.99"/>
<text text-anchor="middle" x="376.48" y="-567.71" font-family="Times,serif" font-size="14.00">True</text>
</g>
<!-- 24 -->
<g id="node25" class="node">
<title>24</title>
<polygon fill="none" stroke="black" points="975,-554 875,-554 875,-516 975,-516 975,-554"/>
<text text-anchor="middle" x="925" y="-538.8" font-family="Times,serif" font-size="14.00">lon &lt;= &#45;96.061</text>
<text text-anchor="middle" x="925" y="-523.8" font-family="Times,serif" font-size="14.00">class = blue</text>
</g>
<!-- 0&#45;&gt;24 -->
<g id="edge24" class="edge">
<title>0&#45;&gt;24</title>
<path fill="none" stroke="black" d="M635.01,-598.14C694.76,-585.34 799.17,-562.96 865.06,-548.84"/>
<polygon fill="black" stroke="black" points="865.85,-552.26 874.89,-546.74 864.38,-545.41 865.85,-552.26"/>
<text text-anchor="middle" x="861.31" y="-564.03" font-family="Times,serif" font-size="14.00">False</text>
</g>
<!-- 2 -->
<g id="node3" class="node">
<title>2</title>
<polygon fill="none" stroke="black" points="246,-479 164,-479 164,-443 246,-443 246,-479"/>
<text text-anchor="middle" x="205" y="-457.3" font-family="Times,serif" font-size="14.00">class = blue</text>
</g>
<!-- 1&#45;&gt;2 -->
<g id="edge2" class="edge">
<title>1&#45;&gt;2</title>
<path fill="none" stroke="black" d="M283.5,-515.83C269.79,-506.43 252.91,-494.86 238.33,-484.85"/>
<polygon fill="black" stroke="black" points="240.27,-481.94 230.04,-479.17 236.31,-487.71 240.27,-481.94"/>
</g>
<!-- 3 -->
<g id="node4" class="node">
<title>3</title>
<polygon fill="none" stroke="black" points="356,-480 264,-480 264,-442 356,-442 356,-480"/>
<text text-anchor="middle" x="310" y="-464.8" font-family="Times,serif" font-size="14.00">lat &lt;= 29.595</text>
<text text-anchor="middle" x="310" y="-449.8" font-family="Times,serif" font-size="14.00">class = red</text>
</g>
<!-- 1&#45;&gt;3 -->
<g id="edge3" class="edge">
<title>1&#45;&gt;3</title>
<path fill="none" stroke="black" d="M310,-515.83C310,-508.13 310,-498.97 310,-490.42"/>
<polygon fill="black" stroke="black" points="313.5,-490.41 310,-480.41 306.5,-490.41 313.5,-490.41"/>
</g>
<!-- 4 -->
<g id="node5" class="node">
<title>4</title>
<polygon fill="none" stroke="black" points="185,-406 85,-406 85,-368 185,-368 185,-406"/>
<text text-anchor="middle" x="135" y="-390.8" font-family="Times,serif" font-size="14.00">lon &lt;= &#45;90.074</text>
<text text-anchor="middle" x="135" y="-375.8" font-family="Times,serif" font-size="14.00">class = blue</text>
</g>
<!-- 3&#45;&gt;4 -->
<g id="edge4" class="edge">
<title>3&#45;&gt;4</title>
<path fill="none" stroke="black" d="M265.84,-441.83C242.23,-432.12 212.98,-420.08 188.13,-409.86"/>
<polygon fill="black" stroke="black" points="189.42,-406.61 178.84,-406.04 186.76,-413.08 189.42,-406.61"/>
</g>
<!-- 7 -->
<g id="node8" class="node">
<title>7</title>
<polygon fill="none" stroke="black" points="356,-406 264,-406 264,-368 356,-368 356,-406"/>
<text text-anchor="middle" x="310" y="-390.8" font-family="Times,serif" font-size="14.00">lat &lt;= 36.522</text>
<text text-anchor="middle" x="310" y="-375.8" font-family="Times,serif" font-size="14.00">class = red</text>
</g>
<!-- 3&#45;&gt;7 -->
<g id="edge7" class="edge">
<title>3&#45;&gt;7</title>
<path fill="none" stroke="black" d="M310,-441.83C310,-434.13 310,-424.97 310,-416.42"/>
<polygon fill="black" stroke="black" points="313.5,-416.41 310,-406.41 306.5,-416.41 313.5,-416.41"/>
</g>
<!-- 5 -->
<g id="node6" class="node">
<title>5</title>
<polygon fill="none" stroke="black" points="76,-331 0,-331 0,-295 76,-295 76,-331"/>
<text text-anchor="middle" x="38" y="-309.3" font-family="Times,serif" font-size="14.00">class = red</text>
</g>
<!-- 4&#45;&gt;5 -->
<g id="edge5" class="edge">
<title>4&#45;&gt;5</title>
<path fill="none" stroke="black" d="M110.52,-367.83C97.97,-358.52 82.55,-347.07 69.16,-337.13"/>
<polygon fill="black" stroke="black" points="71.25,-334.32 61.13,-331.17 67.08,-339.94 71.25,-334.32"/>
</g>
<!-- 6 -->
<g id="node7" class="node">
<title>6</title>
<polygon fill="none" stroke="black" points="176,-331 94,-331 94,-295 176,-295 176,-331"/>
<text text-anchor="middle" x="135" y="-309.3" font-family="Times,serif" font-size="14.00">class = blue</text>
</g>
<!-- 4&#45;&gt;6 -->
<g id="edge6" class="edge">
<title>4&#45;&gt;6</title>
<path fill="none" stroke="black" d="M135,-367.83C135,-359.89 135,-350.41 135,-341.63"/>
<polygon fill="black" stroke="black" points="138.5,-341.42 135,-331.42 131.5,-341.42 138.5,-341.42"/>
</g>
<!-- 8 -->
<g id="node9" class="node">
<title>8</title>
<polygon fill="none" stroke="black" points="301.5,-332 194.5,-332 194.5,-294 301.5,-294 301.5,-332"/>
<text text-anchor="middle" x="248" y="-316.8" font-family="Times,serif" font-size="14.00">lon &lt;= &#45;102.257</text>
<text text-anchor="middle" x="248" y="-301.8" font-family="Times,serif" font-size="14.00">class = red</text>
</g>
<!-- 7&#45;&gt;8 -->
<g id="edge8" class="edge">
<title>7&#45;&gt;8</title>
<path fill="none" stroke="black" d="M294.35,-367.83C287.14,-359.45 278.44,-349.35 270.54,-340.17"/>
<polygon fill="black" stroke="black" points="273.03,-337.71 263.86,-332.41 267.73,-342.27 273.03,-337.71"/>
</g>
<!-- 15 -->
<g id="node16" class="node">
<title>15</title>
<polygon fill="none" stroke="black" points="420,-332 320,-332 320,-294 420,-294 420,-332"/>
<text text-anchor="middle" x="370" y="-316.8" font-family="Times,serif" font-size="14.00">lon &lt;= &#45;82.415</text>
<text text-anchor="middle" x="370" y="-301.8" font-family="Times,serif" font-size="14.00">class = red</text>
</g>
<!-- 7&#45;&gt;15 -->
<g id="edge15" class="edge">
<title>7&#45;&gt;15</title>
<path fill="none" stroke="black" d="M325.14,-367.83C332.12,-359.45 340.54,-349.35 348.19,-340.17"/>
<polygon fill="black" stroke="black" points="350.94,-342.34 354.66,-332.41 345.56,-337.85 350.94,-342.34"/>
</g>
<!-- 9 -->
<g id="node10" class="node">
<title>9</title>
<polygon fill="none" stroke="black" points="191.5,-258 84.5,-258 84.5,-220 191.5,-220 191.5,-258"/>
<text text-anchor="middle" x="138" y="-242.8" font-family="Times,serif" font-size="14.00">lon &lt;= &#45;107.589</text>
<text text-anchor="middle" x="138" y="-227.8" font-family="Times,serif" font-size="14.00">class = red</text>
</g>
<!-- 8&#45;&gt;9 -->
<g id="edge9" class="edge">
<title>8&#45;&gt;9</title>
<path fill="none" stroke="black" d="M220.24,-293.83C206.3,-284.71 189.24,-273.54 174.28,-263.74"/>
<polygon fill="black" stroke="black" points="176.03,-260.71 165.75,-258.16 172.2,-266.57 176.03,-260.71"/>
</g>
<!-- 14 -->
<g id="node15" class="node">
<title>14</title>
<polygon fill="none" stroke="black" points="286,-257 210,-257 210,-221 286,-221 286,-257"/>
<text text-anchor="middle" x="248" y="-235.3" font-family="Times,serif" font-size="14.00">class = red</text>
</g>
<!-- 8&#45;&gt;14 -->
<g id="edge14" class="edge">
<title>8&#45;&gt;14</title>
<path fill="none" stroke="black" d="M248,-293.83C248,-285.89 248,-276.41 248,-267.63"/>
<polygon fill="black" stroke="black" points="251.5,-267.42 248,-257.42 244.5,-267.42 251.5,-267.42"/>
</g>
<!-- 10 -->
<g id="node11" class="node">
<title>10</title>
<polygon fill="none" stroke="black" points="83,-183 7,-183 7,-147 83,-147 83,-183"/>
<text text-anchor="middle" x="45" y="-161.3" font-family="Times,serif" font-size="14.00">class = red</text>
</g>
<!-- 9&#45;&gt;10 -->
<g id="edge10" class="edge">
<title>9&#45;&gt;10</title>
<path fill="none" stroke="black" d="M114.53,-219.83C102.61,-210.6 88,-199.29 75.24,-189.41"/>
<polygon fill="black" stroke="black" points="77.23,-186.53 67.18,-183.17 72.94,-192.06 77.23,-186.53"/>
</g>
<!-- 11 -->
<g id="node12" class="node">
<title>11</title>
<polygon fill="none" stroke="black" points="193,-184 101,-184 101,-146 193,-146 193,-184"/>
<text text-anchor="middle" x="147" y="-168.8" font-family="Times,serif" font-size="14.00">lat &lt;= 31.788</text>
<text text-anchor="middle" x="147" y="-153.8" font-family="Times,serif" font-size="14.00">class = blue</text>
</g>
<!-- 9&#45;&gt;11 -->
<g id="edge11" class="edge">
<title>9&#45;&gt;11</title>
<path fill="none" stroke="black" d="M140.27,-219.83C141.23,-212.13 142.38,-202.97 143.45,-194.42"/>
<polygon fill="black" stroke="black" points="146.93,-194.77 144.7,-184.41 139.98,-193.9 146.93,-194.77"/>
</g>
<!-- 12 -->
<g id="node13" class="node">
<title>12</title>
<polygon fill="none" stroke="black" points="137,-109 61,-109 61,-73 137,-73 137,-109"/>
<text text-anchor="middle" x="99" y="-87.3" font-family="Times,serif" font-size="14.00">class = red</text>
</g>
<!-- 11&#45;&gt;12 -->
<g id="edge12" class="edge">
<title>11&#45;&gt;12</title>
<path fill="none" stroke="black" d="M134.89,-145.83C129.25,-137.37 122.43,-127.15 116.27,-117.9"/>
<polygon fill="black" stroke="black" points="119.07,-115.8 110.61,-109.42 113.25,-119.68 119.07,-115.8"/>
</g>
<!-- 13 -->
<g id="node14" class="node">
<title>13</title>
<polygon fill="none" stroke="black" points="237,-109 155,-109 155,-73 237,-73 237,-109"/>
<text text-anchor="middle" x="196" y="-87.3" font-family="Times,serif" font-size="14.00">class = blue</text>
</g>
<!-- 11&#45;&gt;13 -->
<g id="edge13" class="edge">
<title>11&#45;&gt;13</title>
<path fill="none" stroke="black" d="M159.36,-145.83C165.12,-137.37 172.08,-127.15 178.37,-117.9"/>
<polygon fill="black" stroke="black" points="181.41,-119.65 184.15,-109.42 175.63,-115.72 181.41,-119.65"/>
</g>
<!-- 16 -->
<g id="node17" class="node">
<title>16</title>
<polygon fill="none" stroke="black" points="411.5,-258 304.5,-258 304.5,-220 411.5,-220 411.5,-258"/>
<text text-anchor="middle" x="358" y="-242.8" font-family="Times,serif" font-size="14.00">lon &lt;= &#45;100.922</text>
<text text-anchor="middle" x="358" y="-227.8" font-family="Times,serif" font-size="14.00">class = red</text>
</g>
<!-- 15&#45;&gt;16 -->
<g id="edge16" class="edge">
<title>15&#45;&gt;16</title>
<path fill="none" stroke="black" d="M366.97,-293.83C365.69,-286.13 364.16,-276.97 362.74,-268.42"/>
<polygon fill="black" stroke="black" points="366.17,-267.7 361.07,-258.41 359.26,-268.85 366.17,-267.7"/>
</g>
<!-- 19 -->
<g id="node20" class="node">
<title>19</title>
<polygon fill="none" stroke="black" points="530,-258 430,-258 430,-220 530,-220 530,-258"/>
<text text-anchor="middle" x="480" y="-242.8" font-family="Times,serif" font-size="14.00">lon &lt;= &#45;80.706</text>
<text text-anchor="middle" x="480" y="-227.8" font-family="Times,serif" font-size="14.00">class = blue</text>
</g>
<!-- 15&#45;&gt;19 -->
<g id="edge19" class="edge">
<title>15&#45;&gt;19</title>
<path fill="none" stroke="black" d="M397.76,-293.83C411.7,-284.71 428.76,-273.54 443.72,-263.74"/>
<polygon fill="black" stroke="black" points="445.8,-266.57 452.25,-258.16 441.97,-260.71 445.8,-266.57"/>
</g>
<!-- 17 -->
<g id="node18" class="node">
<title>17</title>
<polygon fill="none" stroke="black" points="302,-183 220,-183 220,-147 302,-147 302,-183"/>
<text text-anchor="middle" x="261" y="-161.3" font-family="Times,serif" font-size="14.00">class = blue</text>
</g>
<!-- 16&#45;&gt;17 -->
<g id="edge17" class="edge">
<title>16&#45;&gt;17</title>
<path fill="none" stroke="black" d="M333.52,-219.83C320.97,-210.52 305.55,-199.07 292.16,-189.13"/>
<polygon fill="black" stroke="black" points="294.25,-186.32 284.13,-183.17 290.08,-191.94 294.25,-186.32"/>
</g>
<!-- 18 -->
<g id="node19" class="node">
<title>18</title>
<polygon fill="none" stroke="black" points="396,-183 320,-183 320,-147 396,-147 396,-183"/>
<text text-anchor="middle" x="358" y="-161.3" font-family="Times,serif" font-size="14.00">class = red</text>
</g>
<!-- 16&#45;&gt;18 -->
<g id="edge18" class="edge">
<title>16&#45;&gt;18</title>
<path fill="none" stroke="black" d="M358,-219.83C358,-211.89 358,-202.41 358,-193.63"/>
<polygon fill="black" stroke="black" points="361.5,-193.42 358,-183.42 354.5,-193.42 361.5,-193.42"/>
</g>
<!-- 20 -->
<g id="node21" class="node">
<title>20</title>
<polygon fill="none" stroke="black" points="499.5,-184 414.5,-184 414.5,-146 499.5,-146 499.5,-184"/>
<text text-anchor="middle" x="457" y="-168.8" font-family="Times,serif" font-size="14.00">lat &lt;= 37.15</text>
<text text-anchor="middle" x="457" y="-153.8" font-family="Times,serif" font-size="14.00">class = blue</text>
</g>
<!-- 19&#45;&gt;20 -->
<g id="edge20" class="edge">
<title>19&#45;&gt;20</title>
<path fill="none" stroke="black" d="M474.2,-219.83C471.71,-212.05 468.75,-202.77 465.99,-194.13"/>
<polygon fill="black" stroke="black" points="469.26,-192.87 462.88,-184.41 462.59,-195 469.26,-192.87"/>
</g>
<!-- 23 -->
<g id="node24" class="node">
<title>23</title>
<polygon fill="none" stroke="black" points="600,-183 518,-183 518,-147 600,-147 600,-183"/>
<text text-anchor="middle" x="559" y="-161.3" font-family="Times,serif" font-size="14.00">class = blue</text>
</g>
<!-- 19&#45;&gt;23 -->
<g id="edge23" class="edge">
<title>19&#45;&gt;23</title>
<path fill="none" stroke="black" d="M499.94,-219.83C509.87,-210.78 522,-199.72 532.69,-189.98"/>
<polygon fill="black" stroke="black" points="535.13,-192.49 540.16,-183.17 530.41,-187.32 535.13,-192.49"/>
</g>
<!-- 21 -->
<g id="node22" class="node">
<title>21</title>
<polygon fill="none" stroke="black" points="450,-109 368,-109 368,-73 450,-73 450,-109"/>
<text text-anchor="middle" x="409" y="-87.3" font-family="Times,serif" font-size="14.00">class = blue</text>
</g>
<!-- 20&#45;&gt;21 -->
<g id="edge21" class="edge">
<title>20&#45;&gt;21</title>
<path fill="none" stroke="black" d="M444.89,-145.83C439.25,-137.37 432.43,-127.15 426.27,-117.9"/>
<polygon fill="black" stroke="black" points="429.07,-115.8 420.61,-109.42 423.25,-119.68 429.07,-115.8"/>
</g>
<!-- 22 -->
<g id="node23" class="node">
<title>22</title>
<polygon fill="none" stroke="black" points="544,-109 468,-109 468,-73 544,-73 544,-109"/>
<text text-anchor="middle" x="506" y="-87.3" font-family="Times,serif" font-size="14.00">class = red</text>
</g>
<!-- 20&#45;&gt;22 -->
<g id="edge22" class="edge">
<title>20&#45;&gt;22</title>
<path fill="none" stroke="black" d="M469.36,-145.83C475.12,-137.37 482.08,-127.15 488.37,-117.9"/>
<polygon fill="black" stroke="black" points="491.41,-119.65 494.15,-109.42 485.63,-115.72 491.41,-119.65"/>
</g>
<!-- 25 -->
<g id="node26" class="node">
<title>25</title>
<polygon fill="none" stroke="black" points="978.5,-480 871.5,-480 871.5,-442 978.5,-442 978.5,-480"/>
<text text-anchor="middle" x="925" y="-464.8" font-family="Times,serif" font-size="14.00">lon &lt;= &#45;104.089</text>
<text text-anchor="middle" x="925" y="-449.8" font-family="Times,serif" font-size="14.00">class = red</text>
</g>
<!-- 24&#45;&gt;25 -->
<g id="edge25" class="edge">
<title>24&#45;&gt;25</title>
<path fill="none" stroke="black" d="M925,-515.83C925,-508.13 925,-498.97 925,-490.42"/>
<polygon fill="black" stroke="black" points="928.5,-490.41 925,-480.41 921.5,-490.41 928.5,-490.41"/>
</g>
<!-- 42 -->
<g id="node43" class="node">
<title>42</title>
<polygon fill="none" stroke="black" points="1538,-480 1446,-480 1446,-442 1538,-442 1538,-480"/>
<text text-anchor="middle" x="1492" y="-464.8" font-family="Times,serif" font-size="14.00">lat &lt;= 39.759</text>
<text text-anchor="middle" x="1492" y="-449.8" font-family="Times,serif" font-size="14.00">class = blue</text>
</g>
<!-- 24&#45;&gt;42 -->
<g id="edge42" class="edge">
<title>24&#45;&gt;42</title>
<path fill="none" stroke="black" d="M975.32,-527.61C1080.97,-514.19 1325.26,-483.17 1435.83,-469.13"/>
<polygon fill="black" stroke="black" points="1436.31,-472.6 1445.79,-467.87 1435.43,-465.66 1436.31,-472.6"/>
</g>
<!-- 26 -->
<g id="node27" class="node">
<title>26</title>
<polygon fill="none" stroke="black" points="914,-406 822,-406 822,-368 914,-368 914,-406"/>
<text text-anchor="middle" x="868" y="-390.8" font-family="Times,serif" font-size="14.00">lat &lt;= 41.895</text>
<text text-anchor="middle" x="868" y="-375.8" font-family="Times,serif" font-size="14.00">class = blue</text>
</g>
<!-- 25&#45;&gt;26 -->
<g id="edge26" class="edge">
<title>25&#45;&gt;26</title>
<path fill="none" stroke="black" d="M910.62,-441.83C904.05,-433.54 896.15,-423.56 888.94,-414.45"/>
<polygon fill="black" stroke="black" points="891.53,-412.08 882.58,-406.41 886.04,-416.43 891.53,-412.08"/>
</g>
<!-- 37 -->
<g id="node38" class="node">
<title>37</title>
<polygon fill="none" stroke="black" points="1032,-406 932,-406 932,-368 1032,-368 1032,-406"/>
<text text-anchor="middle" x="982" y="-390.8" font-family="Times,serif" font-size="14.00">lon &lt;= &#45;96.557</text>
<text text-anchor="middle" x="982" y="-375.8" font-family="Times,serif" font-size="14.00">class = red</text>
</g>
<!-- 25&#45;&gt;37 -->
<g id="edge37" class="edge">
<title>25&#45;&gt;37</title>
<path fill="none" stroke="black" d="M939.38,-441.83C945.95,-433.54 953.85,-423.56 961.06,-414.45"/>
<polygon fill="black" stroke="black" points="963.96,-416.43 967.42,-406.41 958.47,-412.08 963.96,-416.43"/>
</g>
<!-- 27 -->
<g id="node28" class="node">
<title>27</title>
<polygon fill="none" stroke="black" points="811.5,-332 726.5,-332 726.5,-294 811.5,-294 811.5,-332"/>
<text text-anchor="middle" x="769" y="-316.8" font-family="Times,serif" font-size="14.00">lat &lt;= 38.44</text>
<text text-anchor="middle" x="769" y="-301.8" font-family="Times,serif" font-size="14.00">class = blue</text>
</g>
<!-- 26&#45;&gt;27 -->
<g id="edge27" class="edge">
<title>26&#45;&gt;27</title>
<path fill="none" stroke="black" d="M843.02,-367.83C830.71,-358.88 815.69,-347.96 802.41,-338.3"/>
<polygon fill="black" stroke="black" points="804.12,-335.21 793.97,-332.16 800,-340.88 804.12,-335.21"/>
</g>
<!-- 32 -->
<g id="node33" class="node">
<title>32</title>
<polygon fill="none" stroke="black" points="914.5,-332 829.5,-332 829.5,-294 914.5,-294 914.5,-332"/>
<text text-anchor="middle" x="872" y="-316.8" font-family="Times,serif" font-size="14.00">lat &lt;= 45.33</text>
<text text-anchor="middle" x="872" y="-301.8" font-family="Times,serif" font-size="14.00">class = red</text>
</g>
<!-- 26&#45;&gt;32 -->
<g id="edge32" class="edge">
<title>26&#45;&gt;32</title>
<path fill="none" stroke="black" d="M869.01,-367.83C869.44,-360.13 869.95,-350.97 870.42,-342.42"/>
<polygon fill="black" stroke="black" points="873.92,-342.59 870.98,-332.41 866.93,-342.2 873.92,-342.59"/>
</g>
<!-- 28 -->
<g id="node29" class="node">
<title>28</title>
<polygon fill="none" stroke="black" points="712.5,-258 605.5,-258 605.5,-220 712.5,-220 712.5,-258"/>
<text text-anchor="middle" x="659" y="-242.8" font-family="Times,serif" font-size="14.00">lon &lt;= &#45;115.526</text>
<text text-anchor="middle" x="659" y="-227.8" font-family="Times,serif" font-size="14.00">class = blue</text>
</g>
<!-- 27&#45;&gt;28 -->
<g id="edge28" class="edge">
<title>27&#45;&gt;28</title>
<path fill="none" stroke="black" d="M741.24,-293.83C727.3,-284.71 710.24,-273.54 695.28,-263.74"/>
<polygon fill="black" stroke="black" points="697.03,-260.71 686.75,-258.16 693.2,-266.57 697.03,-260.71"/>
</g>
<!-- 31 -->
<g id="node32" class="node">
<title>31</title>
<polygon fill="none" stroke="black" points="813,-257 731,-257 731,-221 813,-221 813,-257"/>
<text text-anchor="middle" x="772" y="-235.3" font-family="Times,serif" font-size="14.00">class = blue</text>
</g>
<!-- 27&#45;&gt;31 -->
<g id="edge31" class="edge">
<title>27&#45;&gt;31</title>
<path fill="none" stroke="black" d="M769.76,-293.83C770.09,-285.89 770.48,-276.41 770.85,-267.63"/>
<polygon fill="black" stroke="black" points="774.35,-267.55 771.27,-257.42 767.36,-267.26 774.35,-267.55"/>
</g>
<!-- 29 -->
<g id="node30" class="node">
<title>29</title>
<polygon fill="none" stroke="black" points="700,-183 618,-183 618,-147 700,-147 700,-183"/>
<text text-anchor="middle" x="659" y="-161.3" font-family="Times,serif" font-size="14.00">class = blue</text>
</g>
<!-- 28&#45;&gt;29 -->
<g id="edge29" class="edge">
<title>28&#45;&gt;29</title>
<path fill="none" stroke="black" d="M659,-219.83C659,-211.89 659,-202.41 659,-193.63"/>
<polygon fill="black" stroke="black" points="662.5,-193.42 659,-183.42 655.5,-193.42 662.5,-193.42"/>
</g>
<!-- 30 -->
<g id="node31" class="node">
<title>30</title>
<polygon fill="none" stroke="black" points="794,-183 718,-183 718,-147 794,-147 794,-183"/>
<text text-anchor="middle" x="756" y="-161.3" font-family="Times,serif" font-size="14.00">class = red</text>
</g>
<!-- 28&#45;&gt;30 -->
<g id="edge30" class="edge">
<title>28&#45;&gt;30</title>
<path fill="none" stroke="black" d="M683.48,-219.83C696.03,-210.52 711.45,-199.07 724.84,-189.13"/>
<polygon fill="black" stroke="black" points="726.92,-191.94 732.87,-183.17 722.75,-186.32 726.92,-191.94"/>
</g>
<!-- 33 -->
<g id="node34" class="node">
<title>33</title>
<polygon fill="none" stroke="black" points="907,-257 831,-257 831,-221 907,-221 907,-257"/>
<text text-anchor="middle" x="869" y="-235.3" font-family="Times,serif" font-size="14.00">class = red</text>
</g>
<!-- 32&#45;&gt;33 -->
<g id="edge33" class="edge">
<title>32&#45;&gt;33</title>
<path fill="none" stroke="black" d="M871.24,-293.83C870.91,-285.89 870.52,-276.41 870.15,-267.63"/>
<polygon fill="black" stroke="black" points="873.64,-267.26 869.73,-257.42 866.65,-267.55 873.64,-267.26"/>
</g>
<!-- 34 -->
<g id="node35" class="node">
<title>34</title>
<polygon fill="none" stroke="black" points="1017,-258 925,-258 925,-220 1017,-220 1017,-258"/>
<text text-anchor="middle" x="971" y="-242.8" font-family="Times,serif" font-size="14.00">lat &lt;= 50.907</text>
<text text-anchor="middle" x="971" y="-227.8" font-family="Times,serif" font-size="14.00">class = blue</text>
</g>
<!-- 32&#45;&gt;34 -->
<g id="edge34" class="edge">
<title>32&#45;&gt;34</title>
<path fill="none" stroke="black" d="M896.98,-293.83C909.29,-284.88 924.31,-273.96 937.59,-264.3"/>
<polygon fill="black" stroke="black" points="940,-266.88 946.03,-258.16 935.88,-261.21 940,-266.88"/>
</g>
<!-- 35 -->
<g id="node36" class="node">
<title>35</title>
<polygon fill="none" stroke="black" points="983,-183 901,-183 901,-147 983,-147 983,-183"/>
<text text-anchor="middle" x="942" y="-161.3" font-family="Times,serif" font-size="14.00">class = blue</text>
</g>
<!-- 34&#45;&gt;35 -->
<g id="edge35" class="edge">
<title>34&#45;&gt;35</title>
<path fill="none" stroke="black" d="M963.68,-219.83C960.38,-211.63 956.41,-201.78 952.78,-192.76"/>
<polygon fill="black" stroke="black" points="956,-191.39 949.02,-183.42 949.51,-194 956,-191.39"/>
</g>
<!-- 36 -->
<g id="node37" class="node">
<title>36</title>
<polygon fill="none" stroke="black" points="1077,-183 1001,-183 1001,-147 1077,-147 1077,-183"/>
<text text-anchor="middle" x="1039" y="-161.3" font-family="Times,serif" font-size="14.00">class = red</text>
</g>
<!-- 34&#45;&gt;36 -->
<g id="edge36" class="edge">
<title>34&#45;&gt;36</title>
<path fill="none" stroke="black" d="M988.16,-219.83C996.48,-211.02 1006.6,-200.31 1015.61,-190.76"/>
<polygon fill="black" stroke="black" points="1018.23,-193.09 1022.55,-183.42 1013.14,-188.28 1018.23,-193.09"/>
</g>
<!-- 38 -->
<g id="node39" class="node">
<title>38</title>
<polygon fill="none" stroke="black" points="1013,-331 937,-331 937,-295 1013,-295 1013,-331"/>
<text text-anchor="middle" x="975" y="-309.3" font-family="Times,serif" font-size="14.00">class = red</text>
</g>
<!-- 37&#45;&gt;38 -->
<g id="edge38" class="edge">
<title>37&#45;&gt;38</title>
<path fill="none" stroke="black" d="M980.23,-367.83C979.46,-359.89 978.54,-350.41 977.69,-341.63"/>
<polygon fill="black" stroke="black" points="981.14,-341.03 976.69,-331.42 974.18,-341.71 981.14,-341.03"/>
</g>
<!-- 39 -->
<g id="node40" class="node">
<title>39</title>
<polygon fill="none" stroke="black" points="1123,-332 1031,-332 1031,-294 1123,-294 1123,-332"/>
<text text-anchor="middle" x="1077" y="-316.8" font-family="Times,serif" font-size="14.00">lat &lt;= 42.007</text>
<text text-anchor="middle" x="1077" y="-301.8" font-family="Times,serif" font-size="14.00">class = blue</text>
</g>
<!-- 37&#45;&gt;39 -->
<g id="edge39" class="edge">
<title>37&#45;&gt;39</title>
<path fill="none" stroke="black" d="M1005.97,-367.83C1017.79,-358.88 1032.2,-347.96 1044.94,-338.3"/>
<polygon fill="black" stroke="black" points="1047.18,-340.99 1053.04,-332.16 1042.95,-335.41 1047.18,-340.99"/>
</g>
<!-- 40 -->
<g id="node41" class="node">
<title>40</title>
<polygon fill="none" stroke="black" points="1111,-257 1035,-257 1035,-221 1111,-221 1111,-257"/>
<text text-anchor="middle" x="1073" y="-235.3" font-family="Times,serif" font-size="14.00">class = red</text>
</g>
<!-- 39&#45;&gt;40 -->
<g id="edge40" class="edge">
<title>39&#45;&gt;40</title>
<path fill="none" stroke="black" d="M1075.99,-293.83C1075.55,-285.89 1075.02,-276.41 1074.53,-267.63"/>
<polygon fill="black" stroke="black" points="1078.02,-267.21 1073.97,-257.42 1071.03,-267.6 1078.02,-267.21"/>
</g>
<!-- 41 -->
<g id="node42" class="node">
<title>41</title>
<polygon fill="none" stroke="black" points="1211,-257 1129,-257 1129,-221 1211,-221 1211,-257"/>
<text text-anchor="middle" x="1170" y="-235.3" font-family="Times,serif" font-size="14.00">class = blue</text>
</g>
<!-- 39&#45;&gt;41 -->
<g id="edge41" class="edge">
<title>39&#45;&gt;41</title>
<path fill="none" stroke="black" d="M1100.47,-293.83C1112.39,-284.6 1127,-273.29 1139.76,-263.41"/>
<polygon fill="black" stroke="black" points="1142.06,-266.06 1147.82,-257.17 1137.77,-260.53 1142.06,-266.06"/>
</g>
<!-- 43 -->
<g id="node44" class="node">
<title>43</title>
<polygon fill="none" stroke="black" points="1542,-406 1442,-406 1442,-368 1542,-368 1542,-406"/>
<text text-anchor="middle" x="1492" y="-390.8" font-family="Times,serif" font-size="14.00">lon &lt;= &#45;79.773</text>
<text text-anchor="middle" x="1492" y="-375.8" font-family="Times,serif" font-size="14.00">class = blue</text>
</g>
<!-- 42&#45;&gt;43 -->
<g id="edge43" class="edge">
<title>42&#45;&gt;43</title>
<path fill="none" stroke="black" d="M1492,-441.83C1492,-434.13 1492,-424.97 1492,-416.42"/>
<polygon fill="black" stroke="black" points="1495.5,-416.41 1492,-406.41 1488.5,-416.41 1495.5,-416.41"/>
</g>
<!-- 62 -->
<g id="node63" class="node">
<title>62</title>
<polygon fill="none" stroke="black" points="1829,-406 1729,-406 1729,-368 1829,-368 1829,-406"/>
<text text-anchor="middle" x="1779" y="-390.8" font-family="Times,serif" font-size="14.00">lon &lt;= &#45;84.905</text>
<text text-anchor="middle" x="1779" y="-375.8" font-family="Times,serif" font-size="14.00">class = blue</text>
</g>
<!-- 42&#45;&gt;62 -->
<g id="edge62" class="edge">
<title>42&#45;&gt;62</title>
<path fill="none" stroke="black" d="M1538.11,-448.43C1587.19,-436.12 1665.04,-416.59 1718.89,-403.08"/>
<polygon fill="black" stroke="black" points="1719.81,-406.46 1728.66,-400.63 1718.11,-399.67 1719.81,-406.46"/>
</g>
<!-- 44 -->
<g id="node45" class="node">
<title>44</title>
<polygon fill="none" stroke="black" points="1474,-332 1374,-332 1374,-294 1474,-294 1474,-332"/>
<text text-anchor="middle" x="1424" y="-316.8" font-family="Times,serif" font-size="14.00">lon &lt;= &#45;87.643</text>
<text text-anchor="middle" x="1424" y="-301.8" font-family="Times,serif" font-size="14.00">class = red</text>
</g>
<!-- 43&#45;&gt;44 -->
<g id="edge44" class="edge">
<title>43&#45;&gt;44</title>
<path fill="none" stroke="black" d="M1474.84,-367.83C1466.85,-359.37 1457.2,-349.15 1448.46,-339.9"/>
<polygon fill="black" stroke="black" points="1450.8,-337.28 1441.39,-332.41 1445.71,-342.09 1450.8,-337.28"/>
</g>
<!-- 57 -->
<g id="node58" class="node">
<title>57</title>
<polygon fill="none" stroke="black" points="1611,-332 1511,-332 1511,-294 1611,-294 1611,-332"/>
<text text-anchor="middle" x="1561" y="-316.8" font-family="Times,serif" font-size="14.00">lon &lt;= &#45;78.395</text>
<text text-anchor="middle" x="1561" y="-301.8" font-family="Times,serif" font-size="14.00">class = blue</text>
</g>
<!-- 43&#45;&gt;57 -->
<g id="edge57" class="edge">
<title>43&#45;&gt;57</title>
<path fill="none" stroke="black" d="M1509.41,-367.83C1517.52,-359.37 1527.32,-349.15 1536.18,-339.9"/>
<polygon fill="black" stroke="black" points="1538.96,-342.05 1543.35,-332.41 1533.91,-337.21 1538.96,-342.05"/>
</g>
<!-- 45 -->
<g id="node46" class="node">
<title>45</title>
<polygon fill="none" stroke="black" points="1322.5,-258 1229.5,-258 1229.5,-220 1322.5,-220 1322.5,-258"/>
<text text-anchor="middle" x="1276" y="-242.8" font-family="Times,serif" font-size="14.00">lon &lt;= &#45;90.12</text>
<text text-anchor="middle" x="1276" y="-227.8" font-family="Times,serif" font-size="14.00">class = blue</text>
</g>
<!-- 44&#45;&gt;45 -->
<g id="edge45" class="edge">
<title>44&#45;&gt;45</title>
<path fill="none" stroke="black" d="M1386.65,-293.83C1367.12,-284.33 1343.04,-272.61 1322.33,-262.54"/>
<polygon fill="black" stroke="black" points="1323.6,-259.27 1313.08,-258.04 1320.54,-265.56 1323.6,-259.27"/>
</g>
<!-- 52 -->
<g id="node53" class="node">
<title>52</title>
<polygon fill="none" stroke="black" points="1470,-258 1378,-258 1378,-220 1470,-220 1470,-258"/>
<text text-anchor="middle" x="1424" y="-242.8" font-family="Times,serif" font-size="14.00">lat &lt;= 38.562</text>
<text text-anchor="middle" x="1424" y="-227.8" font-family="Times,serif" font-size="14.00">class = red</text>
</g>
<!-- 44&#45;&gt;52 -->
<g id="edge52" class="edge">
<title>44&#45;&gt;52</title>
<path fill="none" stroke="black" d="M1424,-293.83C1424,-286.13 1424,-276.97 1424,-268.42"/>
<polygon fill="black" stroke="black" points="1427.5,-268.41 1424,-258.41 1420.5,-268.41 1427.5,-268.41"/>
</g>
<!-- 46 -->
<g id="node47" class="node">
<title>46</title>
<polygon fill="none" stroke="black" points="1202,-184 1102,-184 1102,-146 1202,-146 1202,-184"/>
<text text-anchor="middle" x="1152" y="-168.8" font-family="Times,serif" font-size="14.00">lon &lt;= &#45;90.841</text>
<text text-anchor="middle" x="1152" y="-153.8" font-family="Times,serif" font-size="14.00">class = red</text>
</g>
<!-- 45&#45;&gt;46 -->
<g id="edge46" class="edge">
<title>45&#45;&gt;46</title>
<path fill="none" stroke="black" d="M1244.71,-219.83C1228.7,-210.54 1209.04,-199.12 1191.95,-189.2"/>
<polygon fill="black" stroke="black" points="1193.69,-186.16 1183.28,-184.16 1190.17,-192.21 1193.69,-186.16"/>
</g>
<!-- 51 -->
<g id="node52" class="node">
<title>51</title>
<polygon fill="none" stroke="black" points="1302,-183 1220,-183 1220,-147 1302,-147 1302,-183"/>
<text text-anchor="middle" x="1261" y="-161.3" font-family="Times,serif" font-size="14.00">class = blue</text>
</g>
<!-- 45&#45;&gt;51 -->
<g id="edge51" class="edge">
<title>45&#45;&gt;51</title>
<path fill="none" stroke="black" d="M1272.21,-219.83C1270.54,-211.81 1268.54,-202.2 1266.7,-193.34"/>
<polygon fill="black" stroke="black" points="1270.09,-192.49 1264.63,-183.42 1263.24,-193.92 1270.09,-192.49"/>
</g>
<!-- 47 -->
<g id="node48" class="node">
<title>47</title>
<polygon fill="none" stroke="black" points="1141,-109 1065,-109 1065,-73 1141,-73 1141,-109"/>
<text text-anchor="middle" x="1103" y="-87.3" font-family="Times,serif" font-size="14.00">class = red</text>
</g>
<!-- 46&#45;&gt;47 -->
<g id="edge47" class="edge">
<title>46&#45;&gt;47</title>
<path fill="none" stroke="black" d="M1139.64,-145.83C1133.88,-137.37 1126.92,-127.15 1120.63,-117.9"/>
<polygon fill="black" stroke="black" points="1123.37,-115.72 1114.85,-109.42 1117.59,-119.65 1123.37,-115.72"/>
</g>
<!-- 48 -->
<g id="node49" class="node">
<title>48</title>
<polygon fill="none" stroke="black" points="1244.5,-110 1159.5,-110 1159.5,-72 1244.5,-72 1244.5,-110"/>
<text text-anchor="middle" x="1202" y="-94.8" font-family="Times,serif" font-size="14.00">lat &lt;= 38.85</text>
<text text-anchor="middle" x="1202" y="-79.8" font-family="Times,serif" font-size="14.00">class = blue</text>
</g>
<!-- 46&#45;&gt;48 -->
<g id="edge48" class="edge">
<title>46&#45;&gt;48</title>
<path fill="none" stroke="black" d="M1164.62,-145.83C1170.32,-137.62 1177.17,-127.76 1183.44,-118.73"/>
<polygon fill="black" stroke="black" points="1186.38,-120.62 1189.21,-110.41 1180.63,-116.63 1186.38,-120.62"/>
</g>
<!-- 49 -->
<g id="node50" class="node">
<title>49</title>
<polygon fill="none" stroke="black" points="1192,-36 1116,-36 1116,0 1192,0 1192,-36"/>
<text text-anchor="middle" x="1154" y="-14.3" font-family="Times,serif" font-size="14.00">class = red</text>
</g>
<!-- 48&#45;&gt;49 -->
<g id="edge49" class="edge">
<title>48&#45;&gt;49</title>
<path fill="none" stroke="black" d="M1189.64,-71.72C1184,-63.37 1177.22,-53.35 1171.1,-44.3"/>
<polygon fill="black" stroke="black" points="1174,-42.33 1165.5,-36 1168.2,-46.25 1174,-42.33"/>
</g>
<!-- 50 -->
<g id="node51" class="node">
<title>50</title>
<polygon fill="none" stroke="black" points="1292,-36 1210,-36 1210,0 1292,0 1292,-36"/>
<text text-anchor="middle" x="1251" y="-14.3" font-family="Times,serif" font-size="14.00">class = blue</text>
</g>
<!-- 48&#45;&gt;50 -->
<g id="edge50" class="edge">
<title>48&#45;&gt;50</title>
<path fill="none" stroke="black" d="M1214.62,-71.72C1220.38,-63.37 1227.29,-53.35 1233.54,-44.3"/>
<polygon fill="black" stroke="black" points="1236.47,-46.22 1239.27,-36 1230.7,-42.25 1236.47,-46.22"/>
</g>
<!-- 53 -->
<g id="node54" class="node">
<title>53</title>
<polygon fill="none" stroke="black" points="1412,-184 1320,-184 1320,-146 1412,-146 1412,-184"/>
<text text-anchor="middle" x="1366" y="-168.8" font-family="Times,serif" font-size="14.00">lat &lt;= 38.324</text>
<text text-anchor="middle" x="1366" y="-153.8" font-family="Times,serif" font-size="14.00">class = red</text>
</g>
<!-- 52&#45;&gt;53 -->
<g id="edge53" class="edge">
<title>52&#45;&gt;53</title>
<path fill="none" stroke="black" d="M1409.36,-219.83C1402.68,-211.54 1394.64,-201.56 1387.31,-192.45"/>
<polygon fill="black" stroke="black" points="1389.83,-190.01 1380.83,-184.41 1384.38,-194.4 1389.83,-190.01"/>
</g>
<!-- 56 -->
<g id="node57" class="node">
<title>56</title>
<polygon fill="none" stroke="black" points="1506,-183 1430,-183 1430,-147 1506,-147 1506,-183"/>
<text text-anchor="middle" x="1468" y="-161.3" font-family="Times,serif" font-size="14.00">class = red</text>
</g>
<!-- 52&#45;&gt;56 -->
<g id="edge56" class="edge">
<title>52&#45;&gt;56</title>
<path fill="none" stroke="black" d="M1435.1,-219.83C1440.22,-211.46 1446.39,-201.36 1452,-192.19"/>
<polygon fill="black" stroke="black" points="1455.13,-193.78 1457.36,-183.42 1449.15,-190.13 1455.13,-193.78"/>
</g>
<!-- 54 -->
<g id="node55" class="node">
<title>54</title>
<polygon fill="none" stroke="black" points="1396,-109 1320,-109 1320,-73 1396,-73 1396,-109"/>
<text text-anchor="middle" x="1358" y="-87.3" font-family="Times,serif" font-size="14.00">class = red</text>
</g>
<!-- 53&#45;&gt;54 -->
<g id="edge54" class="edge">
<title>53&#45;&gt;54</title>
<path fill="none" stroke="black" d="M1363.98,-145.83C1363.1,-137.89 1362.05,-128.41 1361.07,-119.63"/>
<polygon fill="black" stroke="black" points="1364.52,-118.97 1359.94,-109.42 1357.56,-119.74 1364.52,-118.97"/>
</g>
<!-- 55 -->
<g id="node56" class="node">
<title>55</title>
<polygon fill="none" stroke="black" points="1496,-109 1414,-109 1414,-73 1496,-73 1496,-109"/>
<text text-anchor="middle" x="1455" y="-87.3" font-family="Times,serif" font-size="14.00">class = blue</text>
</g>
<!-- 53&#45;&gt;55 -->
<g id="edge55" class="edge">
<title>53&#45;&gt;55</title>
<path fill="none" stroke="black" d="M1388.46,-145.83C1399.76,-136.69 1413.59,-125.5 1425.71,-115.7"/>
<polygon fill="black" stroke="black" points="1428.2,-118.18 1433.77,-109.17 1423.8,-112.74 1428.2,-118.18"/>
</g>
<!-- 58 -->
<g id="node59" class="node">
<title>58</title>
<polygon fill="none" stroke="black" points="1611,-258 1511,-258 1511,-220 1611,-220 1611,-258"/>
<text text-anchor="middle" x="1561" y="-242.8" font-family="Times,serif" font-size="14.00">lon &lt;= &#45;78.878</text>
<text text-anchor="middle" x="1561" y="-227.8" font-family="Times,serif" font-size="14.00">class = blue</text>
</g>
<!-- 57&#45;&gt;58 -->
<g id="edge58" class="edge">
<title>57&#45;&gt;58</title>
<path fill="none" stroke="black" d="M1561,-293.83C1561,-286.13 1561,-276.97 1561,-268.42"/>
<polygon fill="black" stroke="black" points="1564.5,-268.41 1561,-258.41 1557.5,-268.41 1564.5,-268.41"/>
</g>
<!-- 61 -->
<g id="node62" class="node">
<title>61</title>
<polygon fill="none" stroke="black" points="1711,-257 1629,-257 1629,-221 1711,-221 1711,-257"/>
<text text-anchor="middle" x="1670" y="-235.3" font-family="Times,serif" font-size="14.00">class = blue</text>
</g>
<!-- 57&#45;&gt;61 -->
<g id="edge61" class="edge">
<title>57&#45;&gt;61</title>
<path fill="none" stroke="black" d="M1588.51,-293.83C1602.74,-284.43 1620.26,-272.86 1635.41,-262.85"/>
<polygon fill="black" stroke="black" points="1637.59,-265.6 1644,-257.17 1633.73,-259.76 1637.59,-265.6"/>
</g>
<!-- 59 -->
<g id="node60" class="node">
<title>59</title>
<polygon fill="none" stroke="black" points="1606,-183 1524,-183 1524,-147 1606,-147 1606,-183"/>
<text text-anchor="middle" x="1565" y="-161.3" font-family="Times,serif" font-size="14.00">class = blue</text>
</g>
<!-- 58&#45;&gt;59 -->
<g id="edge59" class="edge">
<title>58&#45;&gt;59</title>
<path fill="none" stroke="black" d="M1562.01,-219.83C1562.45,-211.89 1562.98,-202.41 1563.47,-193.63"/>
<polygon fill="black" stroke="black" points="1566.97,-193.6 1564.03,-183.42 1559.98,-193.21 1566.97,-193.6"/>
</g>
<!-- 60 -->
<g id="node61" class="node">
<title>60</title>
<polygon fill="none" stroke="black" points="1700,-183 1624,-183 1624,-147 1700,-147 1700,-183"/>
<text text-anchor="middle" x="1662" y="-161.3" font-family="Times,serif" font-size="14.00">class = red</text>
</g>
<!-- 58&#45;&gt;60 -->
<g id="edge60" class="edge">
<title>58&#45;&gt;60</title>
<path fill="none" stroke="black" d="M1586.49,-219.83C1599.55,-210.52 1615.61,-199.07 1629.55,-189.13"/>
<polygon fill="black" stroke="black" points="1631.8,-191.83 1637.91,-183.17 1627.74,-186.13 1631.8,-191.83"/>
</g>
<!-- 63 -->
<g id="node64" class="node">
<title>63</title>
<polygon fill="none" stroke="black" points="1825,-332 1733,-332 1733,-294 1825,-294 1825,-332"/>
<text text-anchor="middle" x="1779" y="-316.8" font-family="Times,serif" font-size="14.00">lat &lt;= 41.739</text>
<text text-anchor="middle" x="1779" y="-301.8" font-family="Times,serif" font-size="14.00">class = blue</text>
</g>
<!-- 62&#45;&gt;63 -->
<g id="edge63" class="edge">
<title>62&#45;&gt;63</title>
<path fill="none" stroke="black" d="M1779,-367.83C1779,-360.13 1779,-350.97 1779,-342.42"/>
<polygon fill="black" stroke="black" points="1782.5,-342.41 1779,-332.41 1775.5,-342.41 1782.5,-342.41"/>
</g>
<!-- 72 -->
<g id="node73" class="node">
<title>72</title>
<polygon fill="none" stroke="black" points="1925,-331 1843,-331 1843,-295 1925,-295 1925,-331"/>
<text text-anchor="middle" x="1884" y="-309.3" font-family="Times,serif" font-size="14.00">class = blue</text>
</g>
<!-- 62&#45;&gt;72 -->
<g id="edge72" class="edge">
<title>62&#45;&gt;72</title>
<path fill="none" stroke="black" d="M1805.5,-367.83C1819.21,-358.43 1836.09,-346.86 1850.67,-336.85"/>
<polygon fill="black" stroke="black" points="1852.69,-339.71 1858.96,-331.17 1848.73,-333.94 1852.69,-339.71"/>
</g>
<!-- 64 -->
<g id="node65" class="node">
<title>64</title>
<polygon fill="none" stroke="black" points="1829,-258 1729,-258 1729,-220 1829,-220 1829,-258"/>
<text text-anchor="middle" x="1779" y="-242.8" font-family="Times,serif" font-size="14.00">lon &lt;= &#45;87.697</text>
<text text-anchor="middle" x="1779" y="-227.8" font-family="Times,serif" font-size="14.00">class = blue</text>
</g>
<!-- 63&#45;&gt;64 -->
<g id="edge64" class="edge">
<title>63&#45;&gt;64</title>
<path fill="none" stroke="black" d="M1779,-293.83C1779,-286.13 1779,-276.97 1779,-268.42"/>
<polygon fill="black" stroke="black" points="1782.5,-268.41 1779,-258.41 1775.5,-268.41 1782.5,-268.41"/>
</g>
<!-- 71 -->
<g id="node72" class="node">
<title>71</title>
<polygon fill="none" stroke="black" points="1929,-257 1847,-257 1847,-221 1929,-221 1929,-257"/>
<text text-anchor="middle" x="1888" y="-235.3" font-family="Times,serif" font-size="14.00">class = blue</text>
</g>
<!-- 63&#45;&gt;71 -->
<g id="edge71" class="edge">
<title>63&#45;&gt;71</title>
<path fill="none" stroke="black" d="M1806.51,-293.83C1820.74,-284.43 1838.26,-272.86 1853.41,-262.85"/>
<polygon fill="black" stroke="black" points="1855.59,-265.6 1862,-257.17 1851.73,-259.76 1855.59,-265.6"/>
</g>
<!-- 65 -->
<g id="node66" class="node">
<title>65</title>
<polygon fill="none" stroke="black" points="1825,-184 1725,-184 1725,-146 1825,-146 1825,-184"/>
<text text-anchor="middle" x="1775" y="-168.8" font-family="Times,serif" font-size="14.00">lon &lt;= &#45;91.379</text>
<text text-anchor="middle" x="1775" y="-153.8" font-family="Times,serif" font-size="14.00">class = blue</text>
</g>
<!-- 64&#45;&gt;65 -->
<g id="edge65" class="edge">
<title>64&#45;&gt;65</title>
<path fill="none" stroke="black" d="M1777.99,-219.83C1777.56,-212.13 1777.05,-202.97 1776.58,-194.42"/>
<polygon fill="black" stroke="black" points="1780.07,-194.2 1776.02,-184.41 1773.08,-194.59 1780.07,-194.2"/>
</g>
<!-- 70 -->
<g id="node71" class="node">
<title>70</title>
<polygon fill="none" stroke="black" points="1919,-183 1843,-183 1843,-147 1919,-147 1919,-183"/>
<text text-anchor="middle" x="1881" y="-161.3" font-family="Times,serif" font-size="14.00">class = red</text>
</g>
<!-- 64&#45;&gt;70 -->
<g id="edge70" class="edge">
<title>64&#45;&gt;70</title>
<path fill="none" stroke="black" d="M1804.74,-219.83C1817.93,-210.52 1834.15,-199.07 1848.23,-189.13"/>
<polygon fill="black" stroke="black" points="1850.52,-191.8 1856.67,-183.17 1846.49,-186.08 1850.52,-191.8"/>
</g>
<!-- 66 -->
<g id="node67" class="node">
<title>66</title>
<polygon fill="none" stroke="black" points="1768,-110 1676,-110 1676,-72 1768,-72 1768,-110"/>
<text text-anchor="middle" x="1722" y="-94.8" font-family="Times,serif" font-size="14.00">lat &lt;= 40.775</text>
<text text-anchor="middle" x="1722" y="-79.8" font-family="Times,serif" font-size="14.00">class = red</text>
</g>
<!-- 65&#45;&gt;66 -->
<g id="edge66" class="edge">
<title>65&#45;&gt;66</title>
<path fill="none" stroke="black" d="M1761.63,-145.83C1755.58,-137.62 1748.32,-127.76 1741.68,-118.73"/>
<polygon fill="black" stroke="black" points="1744.3,-116.39 1735.55,-110.41 1738.66,-120.54 1744.3,-116.39"/>
</g>
<!-- 69 -->
<g id="node70" class="node">
<title>69</title>
<polygon fill="none" stroke="black" points="1868,-109 1786,-109 1786,-73 1868,-73 1868,-109"/>
<text text-anchor="middle" x="1827" y="-87.3" font-family="Times,serif" font-size="14.00">class = blue</text>
</g>
<!-- 65&#45;&gt;69 -->
<g id="edge69" class="edge">
<title>65&#45;&gt;69</title>
<path fill="none" stroke="black" d="M1788.12,-145.83C1794.3,-137.28 1801.76,-126.94 1808.5,-117.62"/>
<polygon fill="black" stroke="black" points="1811.4,-119.57 1814.42,-109.42 1805.73,-115.48 1811.4,-119.57"/>
</g>
<!-- 67 -->
<g id="node68" class="node">
<title>67</title>
<polygon fill="none" stroke="black" points="1711,-36 1635,-36 1635,0 1711,0 1711,-36"/>
<text text-anchor="middle" x="1673" y="-14.3" font-family="Times,serif" font-size="14.00">class = red</text>
</g>
<!-- 66&#45;&gt;67 -->
<g id="edge67" class="edge">
<title>66&#45;&gt;67</title>
<path fill="none" stroke="black" d="M1709.38,-71.72C1703.62,-63.37 1696.71,-53.35 1690.46,-44.3"/>
<polygon fill="black" stroke="black" points="1693.3,-42.25 1684.73,-36 1687.53,-46.22 1693.3,-42.25"/>
</g>
<!-- 68 -->
<g id="node69" class="node">
<title>68</title>
<polygon fill="none" stroke="black" points="1811,-36 1729,-36 1729,0 1811,0 1811,-36"/>
<text text-anchor="middle" x="1770" y="-14.3" font-family="Times,serif" font-size="14.00">class = blue</text>
</g>
<!-- 66&#45;&gt;68 -->
<g id="edge68" class="edge">
<title>66&#45;&gt;68</title>
<path fill="none" stroke="black" d="M1734.36,-71.72C1740,-63.37 1746.78,-53.35 1752.9,-44.3"/>
<polygon fill="black" stroke="black" points="1755.8,-46.25 1758.5,-36 1750,-42.33 1755.8,-46.25"/>
</g>
</g>
</svg>
