<?xml version="1.0" encoding="UTF-8" standalone="no"?>
<!DOCTYPE svg PUBLIC "-//W3C//DTD SVG 1.1//EN"
 "http://www.w3.org/Graphics/SVG/1.1/DTD/svg11.dtd">
<!-- Generated by graphviz version 2.44.1 (20200629.0846)
 -->
<!-- Title: Tree Pages: 1 -->
<svg width="1110pt" height="932pt"
 viewBox="0.00 0.00 1109.50 932.00" xmlns="http://www.w3.org/2000/svg" xmlns:xlink="http://www.w3.org/1999/xlink">
<g id="graph0" class="graph" transform="scale(1 1) rotate(0) translate(4 928)">
<title>Tree</title>
<polygon fill="white" stroke="transparent" points="-4,4 -4,-928 1105.5,-928 1105.5,4 -4,4"/>
<!-- 0 -->
<g id="node1" class="node">
<title>0</title>
<polygon fill="none" stroke="black" points="376.5,-924 271.5,-924 271.5,-886 376.5,-886 376.5,-924"/>
<text text-anchor="middle" x="324" y="-908.8" font-family="Times,serif" font-size="14.00">latitude &lt;= 42.9</text>
<text text-anchor="middle" x="324" y="-893.8" font-family="Times,serif" font-size="14.00">class = Canada</text>
</g>
<!-- 1 -->
<g id="node2" class="node">
<title>1</title>
<polygon fill="none" stroke="black" points="315.5,-850 196.5,-850 196.5,-812 315.5,-812 315.5,-850"/>
<text text-anchor="middle" x="256" y="-834.8" font-family="Times,serif" font-size="14.00">latitude &lt;= 42.096</text>
<text text-anchor="middle" x="256" y="-819.8" font-family="Times,serif" font-size="14.00">class = USA</text>
</g>
<!-- 0&#45;&gt;1 -->
<g id="edge1" class="edge">
<title>0&#45;&gt;1</title>
<path fill="none" stroke="black" d="M306.84,-885.83C298.85,-877.37 289.2,-867.15 280.46,-857.9"/>
<polygon fill="black" stroke="black" points="282.8,-855.28 273.39,-850.41 277.71,-860.09 282.8,-855.28"/>
<text text-anchor="middle" x="272.68" y="-871.7" font-family="Times,serif" font-size="14.00">True</text>
</g>
<!-- 6 -->
<g id="node7" class="node">
<title>6</title>
<polygon fill="none" stroke="black" points="452.5,-850 333.5,-850 333.5,-812 452.5,-812 452.5,-850"/>
<text text-anchor="middle" x="393" y="-834.8" font-family="Times,serif" font-size="14.00">latitude &lt;= 55.958</text>
<text text-anchor="middle" x="393" y="-819.8" font-family="Times,serif" font-size="14.00">class = Canada</text>
</g>
<!-- 0&#45;&gt;6 -->
<g id="edge6" class="edge">
<title>0&#45;&gt;6</title>
<path fill="none" stroke="black" d="M341.41,-885.83C349.52,-877.37 359.32,-867.15 368.18,-857.9"/>
<polygon fill="black" stroke="black" points="370.96,-860.05 375.35,-850.41 365.91,-855.21 370.96,-860.05"/>
<text text-anchor="middle" x="375.89" y="-871.71" font-family="Times,serif" font-size="14.00">False</text>
</g>
<!-- 2 -->
<g id="node3" class="node">
<title>2</title>
<polygon fill="none" stroke="black" points="180,-775 94,-775 94,-739 180,-739 180,-775"/>
<text text-anchor="middle" x="137" y="-753.3" font-family="Times,serif" font-size="14.00">class = USA</text>
</g>
<!-- 1&#45;&gt;2 -->
<g id="edge2" class="edge">
<title>1&#45;&gt;2</title>
<path fill="none" stroke="black" d="M225.97,-811.83C210.29,-802.34 190.94,-790.64 174.31,-780.57"/>
<polygon fill="black" stroke="black" points="175.75,-777.35 165.38,-775.17 172.12,-783.34 175.75,-777.35"/>
</g>
<!-- 3 -->
<g id="node4" class="node">
<title>3</title>
<polygon fill="none" stroke="black" points="317.5,-776 198.5,-776 198.5,-738 317.5,-738 317.5,-776"/>
<text text-anchor="middle" x="258" y="-760.8" font-family="Times,serif" font-size="14.00">latitude &lt;= 42.324</text>
<text text-anchor="middle" x="258" y="-745.8" font-family="Times,serif" font-size="14.00">class = USA</text>
</g>
<!-- 1&#45;&gt;3 -->
<g id="edge3" class="edge">
<title>1&#45;&gt;3</title>
<path fill="none" stroke="black" d="M256.5,-811.83C256.72,-804.13 256.97,-794.97 257.21,-786.42"/>
<polygon fill="black" stroke="black" points="260.71,-786.51 257.49,-776.41 253.71,-786.31 260.71,-786.51"/>
</g>
<!-- 4 -->
<g id="node5" class="node">
<title>4</title>
<polygon fill="none" stroke="black" points="197.5,-701 98.5,-701 98.5,-665 197.5,-665 197.5,-701"/>
<text text-anchor="middle" x="148" y="-679.3" font-family="Times,serif" font-size="14.00">class = Canada</text>
</g>
<!-- 3&#45;&gt;4 -->
<g id="edge4" class="edge">
<title>3&#45;&gt;4</title>
<path fill="none" stroke="black" d="M230.24,-737.83C215.88,-728.43 198.2,-716.86 182.91,-706.85"/>
<polygon fill="black" stroke="black" points="184.52,-703.72 174.23,-701.17 180.68,-709.58 184.52,-703.72"/>
</g>
<!-- 5 -->
<g id="node6" class="node">
<title>5</title>
<polygon fill="none" stroke="black" points="302,-701 216,-701 216,-665 302,-665 302,-701"/>
<text text-anchor="middle" x="259" y="-679.3" font-family="Times,serif" font-size="14.00">class = USA</text>
</g>
<!-- 3&#45;&gt;5 -->
<g id="edge5" class="edge">
<title>3&#45;&gt;5</title>
<path fill="none" stroke="black" d="M258.25,-737.83C258.36,-729.89 258.49,-720.41 258.62,-711.63"/>
<polygon fill="black" stroke="black" points="262.12,-711.47 258.76,-701.42 255.12,-711.37 262.12,-711.47"/>
</g>
<!-- 7 -->
<g id="node8" class="node">
<title>7</title>
<polygon fill="none" stroke="black" points="444.5,-776 339.5,-776 339.5,-738 444.5,-738 444.5,-776"/>
<text text-anchor="middle" x="392" y="-760.8" font-family="Times,serif" font-size="14.00">latitude &lt;= 49.0</text>
<text text-anchor="middle" x="392" y="-745.8" font-family="Times,serif" font-size="14.00">class = Canada</text>
</g>
<!-- 6&#45;&gt;7 -->
<g id="edge7" class="edge">
<title>6&#45;&gt;7</title>
<path fill="none" stroke="black" d="M392.75,-811.83C392.64,-804.13 392.51,-794.97 392.39,-786.42"/>
<polygon fill="black" stroke="black" points="395.89,-786.36 392.26,-776.41 388.9,-786.46 395.89,-786.36"/>
</g>
<!-- 54 -->
<g id="node55" class="node">
<title>54</title>
<polygon fill="none" stroke="black" points="549,-775 463,-775 463,-739 549,-739 549,-775"/>
<text text-anchor="middle" x="506" y="-753.3" font-family="Times,serif" font-size="14.00">class = USA</text>
</g>
<!-- 6&#45;&gt;54 -->
<g id="edge54" class="edge">
<title>6&#45;&gt;54</title>
<path fill="none" stroke="black" d="M421.51,-811.83C436.41,-802.34 454.78,-790.64 470.58,-780.57"/>
<polygon fill="black" stroke="black" points="472.5,-783.5 479.05,-775.17 468.74,-777.59 472.5,-783.5"/>
</g>
<!-- 8 -->
<g id="node9" class="node">
<title>8</title>
<polygon fill="none" stroke="black" points="458,-702 324,-702 324,-664 458,-664 458,-702"/>
<text text-anchor="middle" x="391" y="-686.8" font-family="Times,serif" font-size="14.00">longitude &lt;= &#45;94.582</text>
<text text-anchor="middle" x="391" y="-671.8" font-family="Times,serif" font-size="14.00">class = Canada</text>
</g>
<!-- 7&#45;&gt;8 -->
<g id="edge8" class="edge">
<title>7&#45;&gt;8</title>
<path fill="none" stroke="black" d="M391.75,-737.83C391.64,-730.13 391.51,-720.97 391.39,-712.42"/>
<polygon fill="black" stroke="black" points="394.89,-712.36 391.26,-702.41 387.9,-712.46 394.89,-712.36"/>
</g>
<!-- 53 -->
<g id="node54" class="node">
<title>53</title>
<polygon fill="none" stroke="black" points="575.5,-701 476.5,-701 476.5,-665 575.5,-665 575.5,-701"/>
<text text-anchor="middle" x="526" y="-679.3" font-family="Times,serif" font-size="14.00">class = Canada</text>
</g>
<!-- 7&#45;&gt;53 -->
<g id="edge53" class="edge">
<title>7&#45;&gt;53</title>
<path fill="none" stroke="black" d="M425.81,-737.83C443.8,-728.17 466.06,-716.2 485.03,-706.01"/>
<polygon fill="black" stroke="black" points="486.89,-708.99 494.04,-701.17 483.58,-702.82 486.89,-708.99"/>
</g>
<!-- 9 -->
<g id="node10" class="node">
<title>9</title>
<polygon fill="none" stroke="black" points="384,-628 244,-628 244,-590 384,-590 384,-628"/>
<text text-anchor="middle" x="314" y="-612.8" font-family="Times,serif" font-size="14.00">longitude &lt;= &#45;123.222</text>
<text text-anchor="middle" x="314" y="-597.8" font-family="Times,serif" font-size="14.00">class = USA</text>
</g>
<!-- 8&#45;&gt;9 -->
<g id="edge9" class="edge">
<title>8&#45;&gt;9</title>
<path fill="none" stroke="black" d="M371.57,-663.83C362.27,-655.13 350.98,-644.58 340.87,-635.13"/>
<polygon fill="black" stroke="black" points="343.12,-632.44 333.42,-628.16 338.34,-637.55 343.12,-632.44"/>
</g>
<!-- 12 -->
<g id="node13" class="node">
<title>12</title>
<polygon fill="none" stroke="black" points="536,-628 402,-628 402,-590 536,-590 536,-628"/>
<text text-anchor="middle" x="469" y="-612.8" font-family="Times,serif" font-size="14.00">longitude &lt;= &#45;69.246</text>
<text text-anchor="middle" x="469" y="-597.8" font-family="Times,serif" font-size="14.00">class = Canada</text>
</g>
<!-- 8&#45;&gt;12 -->
<g id="edge12" class="edge">
<title>8&#45;&gt;12</title>
<path fill="none" stroke="black" d="M410.68,-663.83C420.11,-655.13 431.54,-644.58 441.78,-635.13"/>
<polygon fill="black" stroke="black" points="444.35,-637.52 449.32,-628.16 439.6,-632.37 444.35,-637.52"/>
</g>
<!-- 10 -->
<g id="node11" class="node">
<title>10</title>
<polygon fill="none" stroke="black" points="261.5,-553 162.5,-553 162.5,-517 261.5,-517 261.5,-553"/>
<text text-anchor="middle" x="212" y="-531.3" font-family="Times,serif" font-size="14.00">class = Canada</text>
</g>
<!-- 9&#45;&gt;10 -->
<g id="edge10" class="edge">
<title>9&#45;&gt;10</title>
<path fill="none" stroke="black" d="M288.26,-589.83C275.07,-580.52 258.85,-569.07 244.77,-559.13"/>
<polygon fill="black" stroke="black" points="246.51,-556.08 236.33,-553.17 242.48,-561.8 246.51,-556.08"/>
</g>
<!-- 11 -->
<g id="node12" class="node">
<title>11</title>
<polygon fill="none" stroke="black" points="366,-553 280,-553 280,-517 366,-517 366,-553"/>
<text text-anchor="middle" x="323" y="-531.3" font-family="Times,serif" font-size="14.00">class = USA</text>
</g>
<!-- 9&#45;&gt;11 -->
<g id="edge11" class="edge">
<title>9&#45;&gt;11</title>
<path fill="none" stroke="black" d="M316.27,-589.83C317.26,-581.89 318.45,-572.41 319.55,-563.63"/>
<polygon fill="black" stroke="black" points="323.06,-563.77 320.82,-553.42 316.11,-562.91 323.06,-563.77"/>
</g>
<!-- 13 -->
<g id="node14" class="node">
<title>13</title>
<polygon fill="none" stroke="black" points="520.5,-554 401.5,-554 401.5,-516 520.5,-516 520.5,-554"/>
<text text-anchor="middle" x="461" y="-538.8" font-family="Times,serif" font-size="14.00">latitude &lt;= 43.093</text>
<text text-anchor="middle" x="461" y="-523.8" font-family="Times,serif" font-size="14.00">class = Canada</text>
</g>
<!-- 12&#45;&gt;13 -->
<g id="edge13" class="edge">
<title>12&#45;&gt;13</title>
<path fill="none" stroke="black" d="M466.98,-589.83C466.13,-582.13 465.11,-572.97 464.16,-564.42"/>
<polygon fill="black" stroke="black" points="467.63,-563.97 463.05,-554.41 460.67,-564.74 467.63,-563.97"/>
</g>
<!-- 36 -->
<g id="node37" class="node">
<title>36</title>
<polygon fill="none" stroke="black" points="712,-554 578,-554 578,-516 712,-516 712,-554"/>
<text text-anchor="middle" x="645" y="-538.8" font-family="Times,serif" font-size="14.00">longitude &lt;= &#45;66.952</text>
<text text-anchor="middle" x="645" y="-523.8" font-family="Times,serif" font-size="14.00">class = Canada</text>
</g>
<!-- 12&#45;&gt;36 -->
<g id="edge36" class="edge">
<title>12&#45;&gt;36</title>
<path fill="none" stroke="black" d="M513.41,-589.83C537.16,-580.12 566.57,-568.08 591.57,-557.86"/>
<polygon fill="black" stroke="black" points="592.98,-561.06 600.91,-554.04 590.33,-554.58 592.98,-561.06"/>
</g>
<!-- 14 -->
<g id="node15" class="node">
<title>14</title>
<polygon fill="none" stroke="black" points="344.5,-480 225.5,-480 225.5,-442 344.5,-442 344.5,-480"/>
<text text-anchor="middle" x="285" y="-464.8" font-family="Times,serif" font-size="14.00">latitude &lt;= 43.014</text>
<text text-anchor="middle" x="285" y="-449.8" font-family="Times,serif" font-size="14.00">class = Canada</text>
</g>
<!-- 13&#45;&gt;14 -->
<g id="edge14" class="edge">
<title>13&#45;&gt;14</title>
<path fill="none" stroke="black" d="M416.59,-515.83C392.84,-506.12 363.43,-494.08 338.43,-483.86"/>
<polygon fill="black" stroke="black" points="339.67,-480.58 329.09,-480.04 337.02,-487.06 339.67,-480.58"/>
</g>
<!-- 19 -->
<g id="node20" class="node">
<title>19</title>
<polygon fill="none" stroke="black" points="520.5,-480 401.5,-480 401.5,-442 520.5,-442 520.5,-480"/>
<text text-anchor="middle" x="461" y="-464.8" font-family="Times,serif" font-size="14.00">latitude &lt;= 44.992</text>
<text text-anchor="middle" x="461" y="-449.8" font-family="Times,serif" font-size="14.00">class = Canada</text>
</g>
<!-- 13&#45;&gt;19 -->
<g id="edge19" class="edge">
<title>13&#45;&gt;19</title>
<path fill="none" stroke="black" d="M461,-515.83C461,-508.13 461,-498.97 461,-490.42"/>
<polygon fill="black" stroke="black" points="464.5,-490.41 461,-480.41 457.5,-490.41 464.5,-490.41"/>
</g>
<!-- 15 -->
<g id="node16" class="node">
<title>15</title>
<polygon fill="none" stroke="black" points="221,-406 87,-406 87,-368 221,-368 221,-406"/>
<text text-anchor="middle" x="154" y="-390.8" font-family="Times,serif" font-size="14.00">longitude &lt;= &#45;81.845</text>
<text text-anchor="middle" x="154" y="-375.8" font-family="Times,serif" font-size="14.00">class = Canada</text>
</g>
<!-- 14&#45;&gt;15 -->
<g id="edge15" class="edge">
<title>14&#45;&gt;15</title>
<path fill="none" stroke="black" d="M251.94,-441.83C235.03,-432.54 214.26,-421.12 196.21,-411.2"/>
<polygon fill="black" stroke="black" points="197.5,-407.91 187.05,-406.16 194.12,-414.05 197.5,-407.91"/>
</g>
<!-- 18 -->
<g id="node19" class="node">
<title>18</title>
<polygon fill="none" stroke="black" points="328,-405 242,-405 242,-369 328,-369 328,-405"/>
<text text-anchor="middle" x="285" y="-383.3" font-family="Times,serif" font-size="14.00">class = USA</text>
</g>
<!-- 14&#45;&gt;18 -->
<g id="edge18" class="edge">
<title>14&#45;&gt;18</title>
<path fill="none" stroke="black" d="M285,-441.83C285,-433.89 285,-424.41 285,-415.63"/>
<polygon fill="black" stroke="black" points="288.5,-415.42 285,-405.42 281.5,-415.42 288.5,-415.42"/>
</g>
<!-- 16 -->
<g id="node17" class="node">
<title>16</title>
<polygon fill="none" stroke="black" points="86,-331 0,-331 0,-295 86,-295 86,-331"/>
<text text-anchor="middle" x="43" y="-309.3" font-family="Times,serif" font-size="14.00">class = USA</text>
</g>
<!-- 15&#45;&gt;16 -->
<g id="edge16" class="edge">
<title>15&#45;&gt;16</title>
<path fill="none" stroke="black" d="M125.99,-367.83C111.49,-358.43 93.65,-346.86 78.23,-336.85"/>
<polygon fill="black" stroke="black" points="79.77,-333.68 69.47,-331.17 75.96,-339.55 79.77,-333.68"/>
</g>
<!-- 17 -->
<g id="node18" class="node">
<title>17</title>
<polygon fill="none" stroke="black" points="203.5,-331 104.5,-331 104.5,-295 203.5,-295 203.5,-331"/>
<text text-anchor="middle" x="154" y="-309.3" font-family="Times,serif" font-size="14.00">class = Canada</text>
</g>
<!-- 15&#45;&gt;17 -->
<g id="edge17" class="edge">
<title>15&#45;&gt;17</title>
<path fill="none" stroke="black" d="M154,-367.83C154,-359.89 154,-350.41 154,-341.63"/>
<polygon fill="black" stroke="black" points="157.5,-341.42 154,-331.42 150.5,-341.42 157.5,-341.42"/>
</g>
<!-- 20 -->
<g id="node21" class="node">
<title>20</title>
<polygon fill="none" stroke="black" points="465.5,-406 346.5,-406 346.5,-368 465.5,-368 465.5,-406"/>
<text text-anchor="middle" x="406" y="-390.8" font-family="Times,serif" font-size="14.00">latitude &lt;= 44.542</text>
<text text-anchor="middle" x="406" y="-375.8" font-family="Times,serif" font-size="14.00">class = Canada</text>
</g>
<!-- 19&#45;&gt;20 -->
<g id="edge20" class="edge">
<title>19&#45;&gt;20</title>
<path fill="none" stroke="black" d="M447.12,-441.83C440.79,-433.54 433.16,-423.56 426.21,-414.45"/>
<polygon fill="black" stroke="black" points="428.92,-412.24 420.07,-406.41 423.35,-416.48 428.92,-412.24"/>
</g>
<!-- 35 -->
<g id="node36" class="node">
<title>35</title>
<polygon fill="none" stroke="black" points="582.5,-405 483.5,-405 483.5,-369 582.5,-369 582.5,-405"/>
<text text-anchor="middle" x="533" y="-383.3" font-family="Times,serif" font-size="14.00">class = Canada</text>
</g>
<!-- 19&#45;&gt;35 -->
<g id="edge35" class="edge">
<title>19&#45;&gt;35</title>
<path fill="none" stroke="black" d="M479.17,-441.83C487.98,-433.02 498.69,-422.31 508.24,-412.76"/>
<polygon fill="black" stroke="black" points="510.99,-414.96 515.58,-405.42 506.04,-410.01 510.99,-414.96"/>
</g>
<!-- 21 -->
<g id="node22" class="node">
<title>21</title>
<polygon fill="none" stroke="black" points="356,-332 222,-332 222,-294 356,-294 356,-332"/>
<text text-anchor="middle" x="289" y="-316.8" font-family="Times,serif" font-size="14.00">longitude &lt;= &#45;79.076</text>
<text text-anchor="middle" x="289" y="-301.8" font-family="Times,serif" font-size="14.00">class = Canada</text>
</g>
<!-- 20&#45;&gt;21 -->
<g id="edge21" class="edge">
<title>20&#45;&gt;21</title>
<path fill="none" stroke="black" d="M376.48,-367.83C361.51,-358.62 343.16,-347.33 327.14,-337.47"/>
<polygon fill="black" stroke="black" points="328.87,-334.42 318.51,-332.16 325.2,-340.38 328.87,-334.42"/>
</g>
<!-- 30 -->
<g id="node31" class="node">
<title>30</title>
<polygon fill="none" stroke="black" points="493.5,-332 374.5,-332 374.5,-294 493.5,-294 493.5,-332"/>
<text text-anchor="middle" x="434" y="-316.8" font-family="Times,serif" font-size="14.00">latitude &lt;= 44.706</text>
<text text-anchor="middle" x="434" y="-301.8" font-family="Times,serif" font-size="14.00">class = USA</text>
</g>
<!-- 20&#45;&gt;30 -->
<g id="edge30" class="edge">
<title>20&#45;&gt;30</title>
<path fill="none" stroke="black" d="M413.07,-367.83C416.13,-359.96 419.78,-350.57 423.17,-341.85"/>
<polygon fill="black" stroke="black" points="426.48,-343 426.84,-332.41 419.95,-340.46 426.48,-343"/>
</g>
<!-- 22 -->
<g id="node23" class="node">
<title>22</title>
<polygon fill="none" stroke="black" points="211.5,-257 112.5,-257 112.5,-221 211.5,-221 211.5,-257"/>
<text text-anchor="middle" x="162" y="-235.3" font-family="Times,serif" font-size="14.00">class = Canada</text>
</g>
<!-- 21&#45;&gt;22 -->
<g id="edge22" class="edge">
<title>21&#45;&gt;22</title>
<path fill="none" stroke="black" d="M256.95,-293.83C240.06,-284.25 219.19,-272.42 201.32,-262.29"/>
<polygon fill="black" stroke="black" points="202.71,-259.06 192.29,-257.17 199.26,-265.15 202.71,-259.06"/>
</g>
<!-- 23 -->
<g id="node24" class="node">
<title>23</title>
<polygon fill="none" stroke="black" points="348.5,-258 229.5,-258 229.5,-220 348.5,-220 348.5,-258"/>
<text text-anchor="middle" x="289" y="-242.8" font-family="Times,serif" font-size="14.00">latitude &lt;= 44.168</text>
<text text-anchor="middle" x="289" y="-227.8" font-family="Times,serif" font-size="14.00">class = Canada</text>
</g>
<!-- 21&#45;&gt;23 -->
<g id="edge23" class="edge">
<title>21&#45;&gt;23</title>
<path fill="none" stroke="black" d="M289,-293.83C289,-286.13 289,-276.97 289,-268.42"/>
<polygon fill="black" stroke="black" points="292.5,-268.41 289,-258.41 285.5,-268.41 292.5,-268.41"/>
</g>
<!-- 24 -->
<g id="node25" class="node">
<title>24</title>
<polygon fill="none" stroke="black" points="228.5,-184 109.5,-184 109.5,-146 228.5,-146 228.5,-184"/>
<text text-anchor="middle" x="169" y="-168.8" font-family="Times,serif" font-size="14.00">latitude &lt;= 43.511</text>
<text text-anchor="middle" x="169" y="-153.8" font-family="Times,serif" font-size="14.00">class = USA</text>
</g>
<!-- 23&#45;&gt;24 -->
<g id="edge24" class="edge">
<title>23&#45;&gt;24</title>
<path fill="none" stroke="black" d="M258.72,-219.83C243.37,-210.62 224.55,-199.33 208.12,-189.47"/>
<polygon fill="black" stroke="black" points="209.65,-186.31 199.27,-184.16 206.05,-192.31 209.65,-186.31"/>
</g>
<!-- 29 -->
<g id="node30" class="node">
<title>29</title>
<polygon fill="none" stroke="black" points="345.5,-183 246.5,-183 246.5,-147 345.5,-147 345.5,-183"/>
<text text-anchor="middle" x="296" y="-161.3" font-family="Times,serif" font-size="14.00">class = Canada</text>
</g>
<!-- 23&#45;&gt;29 -->
<g id="edge29" class="edge">
<title>23&#45;&gt;29</title>
<path fill="none" stroke="black" d="M290.77,-219.83C291.54,-211.89 292.46,-202.41 293.31,-193.63"/>
<polygon fill="black" stroke="black" points="296.82,-193.71 294.31,-183.42 289.86,-193.03 296.82,-193.71"/>
</g>
<!-- 25 -->
<g id="node26" class="node">
<title>25</title>
<polygon fill="none" stroke="black" points="152,-109 66,-109 66,-73 152,-73 152,-109"/>
<text text-anchor="middle" x="109" y="-87.3" font-family="Times,serif" font-size="14.00">class = USA</text>
</g>
<!-- 24&#45;&gt;25 -->
<g id="edge25" class="edge">
<title>24&#45;&gt;25</title>
<path fill="none" stroke="black" d="M153.86,-145.83C146.66,-137.2 137.94,-126.73 130.11,-117.33"/>
<polygon fill="black" stroke="black" points="132.61,-114.86 123.51,-109.42 127.23,-119.34 132.61,-114.86"/>
</g>
<!-- 26 -->
<g id="node27" class="node">
<title>26</title>
<polygon fill="none" stroke="black" points="289.5,-110 170.5,-110 170.5,-72 289.5,-72 289.5,-110"/>
<text text-anchor="middle" x="230" y="-94.8" font-family="Times,serif" font-size="14.00">latitude &lt;= 43.988</text>
<text text-anchor="middle" x="230" y="-79.8" font-family="Times,serif" font-size="14.00">class = Canada</text>
</g>
<!-- 24&#45;&gt;26 -->
<g id="edge26" class="edge">
<title>24&#45;&gt;26</title>
<path fill="none" stroke="black" d="M184.39,-145.83C191.49,-137.45 200.05,-127.35 207.82,-118.17"/>
<polygon fill="black" stroke="black" points="210.61,-120.31 214.4,-110.41 205.27,-115.78 210.61,-120.31"/>
</g>
<!-- 27 -->
<g id="node28" class="node">
<title>27</title>
<polygon fill="none" stroke="black" points="223.5,-36 124.5,-36 124.5,0 223.5,0 223.5,-36"/>
<text text-anchor="middle" x="174" y="-14.3" font-family="Times,serif" font-size="14.00">class = Canada</text>
</g>
<!-- 26&#45;&gt;27 -->
<g id="edge27" class="edge">
<title>26&#45;&gt;27</title>
<path fill="none" stroke="black" d="M215.58,-71.72C208.93,-63.29 200.93,-53.15 193.73,-44.02"/>
<polygon fill="black" stroke="black" points="196.35,-41.69 187.41,-36 190.86,-46.02 196.35,-41.69"/>
</g>
<!-- 28 -->
<g id="node29" class="node">
<title>28</title>
<polygon fill="none" stroke="black" points="328,-36 242,-36 242,0 328,0 328,-36"/>
<text text-anchor="middle" x="285" y="-14.3" font-family="Times,serif" font-size="14.00">class = USA</text>
</g>
<!-- 26&#45;&gt;28 -->
<g id="edge28" class="edge">
<title>26&#45;&gt;28</title>
<path fill="none" stroke="black" d="M244.16,-71.72C250.69,-63.29 258.55,-53.15 265.62,-44.02"/>
<polygon fill="black" stroke="black" points="268.47,-46.05 271.83,-36 262.94,-41.77 268.47,-46.05"/>
</g>
<!-- 31 -->
<g id="node32" class="node">
<title>31</title>
<polygon fill="none" stroke="black" points="453,-257 367,-257 367,-221 453,-221 453,-257"/>
<text text-anchor="middle" x="410" y="-235.3" font-family="Times,serif" font-size="14.00">class = USA</text>
</g>
<!-- 30&#45;&gt;31 -->
<g id="edge31" class="edge">
<title>30&#45;&gt;31</title>
<path fill="none" stroke="black" d="M427.94,-293.83C425.24,-285.72 422,-275.99 419.02,-267.05"/>
<polygon fill="black" stroke="black" points="422.29,-265.8 415.81,-257.42 415.65,-268.01 422.29,-265.8"/>
</g>
<!-- 32 -->
<g id="node33" class="node">
<title>32</title>
<polygon fill="none" stroke="black" points="590.5,-258 471.5,-258 471.5,-220 590.5,-220 590.5,-258"/>
<text text-anchor="middle" x="531" y="-242.8" font-family="Times,serif" font-size="14.00">latitude &lt;= 44.848</text>
<text text-anchor="middle" x="531" y="-227.8" font-family="Times,serif" font-size="14.00">class = Canada</text>
</g>
<!-- 30&#45;&gt;32 -->
<g id="edge32" class="edge">
<title>30&#45;&gt;32</title>
<path fill="none" stroke="black" d="M458.48,-293.83C470.54,-284.88 485.25,-273.96 498.27,-264.3"/>
<polygon fill="black" stroke="black" points="500.59,-266.93 506.53,-258.16 496.41,-261.31 500.59,-266.93"/>
</g>
<!-- 33 -->
<g id="node34" class="node">
<title>33</title>
<polygon fill="none" stroke="black" points="470.5,-183 371.5,-183 371.5,-147 470.5,-147 470.5,-183"/>
<text text-anchor="middle" x="421" y="-161.3" font-family="Times,serif" font-size="14.00">class = Canada</text>
</g>
<!-- 32&#45;&gt;33 -->
<g id="edge33" class="edge">
<title>32&#45;&gt;33</title>
<path fill="none" stroke="black" d="M503.24,-219.83C488.88,-210.43 471.2,-198.86 455.91,-188.85"/>
<polygon fill="black" stroke="black" points="457.52,-185.72 447.23,-183.17 453.68,-191.58 457.52,-185.72"/>
</g>
<!-- 34 -->
<g id="node35" class="node">
<title>34</title>
<polygon fill="none" stroke="black" points="575,-183 489,-183 489,-147 575,-147 575,-183"/>
<text text-anchor="middle" x="532" y="-161.3" font-family="Times,serif" font-size="14.00">class = USA</text>
</g>
<!-- 32&#45;&gt;34 -->
<g id="edge34" class="edge">
<title>32&#45;&gt;34</title>
<path fill="none" stroke="black" d="M531.25,-219.83C531.36,-211.89 531.49,-202.41 531.62,-193.63"/>
<polygon fill="black" stroke="black" points="535.12,-193.47 531.76,-183.42 528.12,-193.37 535.12,-193.47"/>
</g>
<!-- 37 -->
<g id="node38" class="node">
<title>37</title>
<polygon fill="none" stroke="black" points="704.5,-480 585.5,-480 585.5,-442 704.5,-442 704.5,-480"/>
<text text-anchor="middle" x="645" y="-464.8" font-family="Times,serif" font-size="14.00">latitude &lt;= 45.195</text>
<text text-anchor="middle" x="645" y="-449.8" font-family="Times,serif" font-size="14.00">class = USA</text>
</g>
<!-- 36&#45;&gt;37 -->
<g id="edge37" class="edge">
<title>36&#45;&gt;37</title>
<path fill="none" stroke="black" d="M645,-515.83C645,-508.13 645,-498.97 645,-490.42"/>
<polygon fill="black" stroke="black" points="648.5,-490.41 645,-480.41 641.5,-490.41 648.5,-490.41"/>
</g>
<!-- 52 -->
<g id="node53" class="node">
<title>52</title>
<polygon fill="none" stroke="black" points="821.5,-479 722.5,-479 722.5,-443 821.5,-443 821.5,-479"/>
<text text-anchor="middle" x="772" y="-457.3" font-family="Times,serif" font-size="14.00">class = Canada</text>
</g>
<!-- 36&#45;&gt;52 -->
<g id="edge52" class="edge">
<title>36&#45;&gt;52</title>
<path fill="none" stroke="black" d="M677.05,-515.83C693.94,-506.25 714.81,-494.42 732.68,-484.29"/>
<polygon fill="black" stroke="black" points="734.74,-487.15 741.71,-479.17 731.29,-481.06 734.74,-487.15"/>
</g>
<!-- 38 -->
<g id="node39" class="node">
<title>38</title>
<polygon fill="none" stroke="black" points="688,-405 602,-405 602,-369 688,-369 688,-405"/>
<text text-anchor="middle" x="645" y="-383.3" font-family="Times,serif" font-size="14.00">class = USA</text>
</g>
<!-- 37&#45;&gt;38 -->
<g id="edge38" class="edge">
<title>37&#45;&gt;38</title>
<path fill="none" stroke="black" d="M645,-441.83C645,-433.89 645,-424.41 645,-415.63"/>
<polygon fill="black" stroke="black" points="648.5,-415.42 645,-405.42 641.5,-415.42 648.5,-415.42"/>
</g>
<!-- 39 -->
<g id="node40" class="node">
<title>39</title>
<polygon fill="none" stroke="black" points="834.5,-406 707.5,-406 707.5,-368 834.5,-368 834.5,-406"/>
<text text-anchor="middle" x="771" y="-390.8" font-family="Times,serif" font-size="14.00">longitude &lt;= &#45;67.93</text>
<text text-anchor="middle" x="771" y="-375.8" font-family="Times,serif" font-size="14.00">class = Canada</text>
</g>
<!-- 37&#45;&gt;39 -->
<g id="edge39" class="edge">
<title>37&#45;&gt;39</title>
<path fill="none" stroke="black" d="M676.8,-441.83C693.06,-432.54 713.04,-421.12 730.41,-411.2"/>
<polygon fill="black" stroke="black" points="732.27,-414.16 739.22,-406.16 728.8,-408.09 732.27,-414.16"/>
</g>
<!-- 40 -->
<g id="node41" class="node">
<title>40</title>
<polygon fill="none" stroke="black" points="838,-332 704,-332 704,-294 838,-294 838,-332"/>
<text text-anchor="middle" x="771" y="-316.8" font-family="Times,serif" font-size="14.00">longitude &lt;= &#45;68.325</text>
<text text-anchor="middle" x="771" y="-301.8" font-family="Times,serif" font-size="14.00">class = USA</text>
</g>
<!-- 39&#45;&gt;40 -->
<g id="edge40" class="edge">
<title>39&#45;&gt;40</title>
<path fill="none" stroke="black" d="M771,-367.83C771,-360.13 771,-350.97 771,-342.42"/>
<polygon fill="black" stroke="black" points="774.5,-342.41 771,-332.41 767.5,-342.41 774.5,-342.41"/>
</g>
<!-- 47 -->
<g id="node48" class="node">
<title>47</title>
<polygon fill="none" stroke="black" points="976.5,-332 857.5,-332 857.5,-294 976.5,-294 976.5,-332"/>
<text text-anchor="middle" x="917" y="-316.8" font-family="Times,serif" font-size="14.00">latitude &lt;= 45.565</text>
<text text-anchor="middle" x="917" y="-301.8" font-family="Times,serif" font-size="14.00">class = Canada</text>
</g>
<!-- 39&#45;&gt;47 -->
<g id="edge47" class="edge">
<title>39&#45;&gt;47</title>
<path fill="none" stroke="black" d="M807.84,-367.83C827.11,-358.33 850.87,-346.61 871.3,-336.54"/>
<polygon fill="black" stroke="black" points="873,-339.6 880.42,-332.04 869.91,-333.32 873,-339.6"/>
</g>
<!-- 41 -->
<g id="node42" class="node">
<title>41</title>
<polygon fill="none" stroke="black" points="727.5,-258 608.5,-258 608.5,-220 727.5,-220 727.5,-258"/>
<text text-anchor="middle" x="668" y="-242.8" font-family="Times,serif" font-size="14.00">latitude &lt;= 47.256</text>
<text text-anchor="middle" x="668" y="-227.8" font-family="Times,serif" font-size="14.00">class = Canada</text>
</g>
<!-- 40&#45;&gt;41 -->
<g id="edge41" class="edge">
<title>40&#45;&gt;41</title>
<path fill="none" stroke="black" d="M745.01,-293.83C732.08,-284.79 716.28,-273.75 702.36,-264.02"/>
<polygon fill="black" stroke="black" points="704.18,-261.02 693.98,-258.16 700.17,-266.76 704.18,-261.02"/>
</g>
<!-- 46 -->
<g id="node47" class="node">
<title>46</title>
<polygon fill="none" stroke="black" points="832,-257 746,-257 746,-221 832,-221 832,-257"/>
<text text-anchor="middle" x="789" y="-235.3" font-family="Times,serif" font-size="14.00">class = USA</text>
</g>
<!-- 40&#45;&gt;46 -->
<g id="edge46" class="edge">
<title>40&#45;&gt;46</title>
<path fill="none" stroke="black" d="M775.54,-293.83C777.55,-285.81 779.95,-276.2 782.17,-267.34"/>
<polygon fill="black" stroke="black" points="785.62,-267.97 784.65,-257.42 778.82,-266.27 785.62,-267.97"/>
</g>
<!-- 42 -->
<g id="node43" class="node">
<title>42</title>
<polygon fill="none" stroke="black" points="698.5,-183 599.5,-183 599.5,-147 698.5,-147 698.5,-183"/>
<text text-anchor="middle" x="649" y="-161.3" font-family="Times,serif" font-size="14.00">class = Canada</text>
</g>
<!-- 41&#45;&gt;42 -->
<g id="edge42" class="edge">
<title>41&#45;&gt;42</title>
<path fill="none" stroke="black" d="M663.21,-219.83C661.09,-211.81 658.55,-202.2 656.21,-193.34"/>
<polygon fill="black" stroke="black" points="659.53,-192.19 653.6,-183.42 652.76,-193.98 659.53,-192.19"/>
</g>
<!-- 43 -->
<g id="node44" class="node">
<title>43</title>
<polygon fill="none" stroke="black" points="851,-184 717,-184 717,-146 851,-146 851,-184"/>
<text text-anchor="middle" x="784" y="-168.8" font-family="Times,serif" font-size="14.00">longitude &lt;= &#45;68.459</text>
<text text-anchor="middle" x="784" y="-153.8" font-family="Times,serif" font-size="14.00">class = USA</text>
</g>
<!-- 41&#45;&gt;43 -->
<g id="edge43" class="edge">
<title>41&#45;&gt;43</title>
<path fill="none" stroke="black" d="M697.27,-219.83C712.11,-210.62 730.3,-199.33 746.19,-189.47"/>
<polygon fill="black" stroke="black" points="748.09,-192.41 754.74,-184.16 744.4,-186.46 748.09,-192.41"/>
</g>
<!-- 44 -->
<g id="node45" class="node">
<title>44</title>
<polygon fill="none" stroke="black" points="771,-109 685,-109 685,-73 771,-73 771,-109"/>
<text text-anchor="middle" x="728" y="-87.3" font-family="Times,serif" font-size="14.00">class = USA</text>
</g>
<!-- 43&#45;&gt;44 -->
<g id="edge44" class="edge">
<title>43&#45;&gt;44</title>
<path fill="none" stroke="black" d="M769.87,-145.83C763.15,-137.2 755.01,-126.73 747.7,-117.33"/>
<polygon fill="black" stroke="black" points="750.45,-115.16 741.55,-109.42 744.92,-119.46 750.45,-115.16"/>
</g>
<!-- 45 -->
<g id="node46" class="node">
<title>45</title>
<polygon fill="none" stroke="black" points="888.5,-109 789.5,-109 789.5,-73 888.5,-73 888.5,-109"/>
<text text-anchor="middle" x="839" y="-87.3" font-family="Times,serif" font-size="14.00">class = Canada</text>
</g>
<!-- 43&#45;&gt;45 -->
<g id="edge45" class="edge">
<title>43&#45;&gt;45</title>
<path fill="none" stroke="black" d="M797.88,-145.83C804.41,-137.28 812.31,-126.94 819.43,-117.62"/>
<polygon fill="black" stroke="black" points="822.41,-119.49 825.69,-109.42 816.84,-115.24 822.41,-119.49"/>
</g>
<!-- 48 -->
<g id="node49" class="node">
<title>48</title>
<polygon fill="none" stroke="black" points="984,-258 850,-258 850,-220 984,-220 984,-258"/>
<text text-anchor="middle" x="917" y="-242.8" font-family="Times,serif" font-size="14.00">longitude &lt;= &#45;67.355</text>
<text text-anchor="middle" x="917" y="-227.8" font-family="Times,serif" font-size="14.00">class = Canada</text>
</g>
<!-- 47&#45;&gt;48 -->
<g id="edge48" class="edge">
<title>47&#45;&gt;48</title>
<path fill="none" stroke="black" d="M917,-293.83C917,-286.13 917,-276.97 917,-268.42"/>
<polygon fill="black" stroke="black" points="920.5,-268.41 917,-258.41 913.5,-268.41 920.5,-268.41"/>
</g>
<!-- 51 -->
<g id="node52" class="node">
<title>51</title>
<polygon fill="none" stroke="black" points="1101.5,-257 1002.5,-257 1002.5,-221 1101.5,-221 1101.5,-257"/>
<text text-anchor="middle" x="1052" y="-235.3" font-family="Times,serif" font-size="14.00">class = Canada</text>
</g>
<!-- 47&#45;&gt;51 -->
<g id="edge51" class="edge">
<title>47&#45;&gt;51</title>
<path fill="none" stroke="black" d="M951.07,-293.83C969.19,-284.17 991.62,-272.2 1010.72,-262.01"/>
<polygon fill="black" stroke="black" points="1012.63,-264.97 1019.8,-257.17 1009.33,-258.79 1012.63,-264.97"/>
</g>
<!-- 49 -->
<g id="node50" class="node">
<title>49</title>
<polygon fill="none" stroke="black" points="958,-183 872,-183 872,-147 958,-147 958,-183"/>
<text text-anchor="middle" x="915" y="-161.3" font-family="Times,serif" font-size="14.00">class = USA</text>
</g>
<!-- 48&#45;&gt;49 -->
<g id="edge49" class="edge">
<title>48&#45;&gt;49</title>
<path fill="none" stroke="black" d="M916.5,-219.83C916.27,-211.89 916.01,-202.41 915.77,-193.63"/>
<polygon fill="black" stroke="black" points="919.26,-193.32 915.48,-183.42 912.26,-193.51 919.26,-193.32"/>
</g>
<!-- 50 -->
<g id="node51" class="node">
<title>50</title>
<polygon fill="none" stroke="black" points="1075.5,-183 976.5,-183 976.5,-147 1075.5,-147 1075.5,-183"/>
<text text-anchor="middle" x="1026" y="-161.3" font-family="Times,serif" font-size="14.00">class = Canada</text>
</g>
<!-- 48&#45;&gt;50 -->
<g id="edge50" class="edge">
<title>48&#45;&gt;50</title>
<path fill="none" stroke="black" d="M944.51,-219.83C958.74,-210.43 976.26,-198.86 991.41,-188.85"/>
<polygon fill="black" stroke="black" points="993.59,-191.6 1000,-183.17 989.73,-185.76 993.59,-191.6"/>
</g>
</g>
</svg>
