<?xml version="1.0" encoding="UTF-8" standalone="no"?>
<!DOCTYPE svg PUBLIC "-//W3C//DTD SVG 1.1//EN"
 "http://www.w3.org/Graphics/SVG/1.1/DTD/svg11.dtd">
<!-- Generated by graphviz version 2.44.1 (20200629.0846)
 -->
<!-- Title: Tree Pages: 1 -->
<svg width="1124pt" height="932pt"
 viewBox="0.00 0.00 1123.50 932.00" xmlns="http://www.w3.org/2000/svg" xmlns:xlink="http://www.w3.org/1999/xlink">
<g id="graph0" class="graph" transform="scale(1 1) rotate(0) translate(4 928)">
<title>Tree</title>
<polygon fill="white" stroke="transparent" points="-4,4 -4,-928 1119.5,-928 1119.5,4 -4,4"/>
<!-- 0 -->
<g id="node1" class="node">
<title>0</title>
<polygon fill="none" stroke="black" points="285.5,-924 180.5,-924 180.5,-886 285.5,-886 285.5,-924"/>
<text text-anchor="middle" x="233" y="-908.8" font-family="Times,serif" font-size="14.00">latitude &lt;= 42.9</text>
<text text-anchor="middle" x="233" y="-893.8" font-family="Times,serif" font-size="14.00">class = Canada</text>
</g>
<!-- 1 -->
<g id="node2" class="node">
<title>1</title>
<polygon fill="none" stroke="black" points="218.5,-850 99.5,-850 99.5,-812 218.5,-812 218.5,-850"/>
<text text-anchor="middle" x="159" y="-834.8" font-family="Times,serif" font-size="14.00">latitude &lt;= 42.096</text>
<text text-anchor="middle" x="159" y="-819.8" font-family="Times,serif" font-size="14.00">class = USA</text>
</g>
<!-- 0&#45;&gt;1 -->
<g id="edge1" class="edge">
<title>0&#45;&gt;1</title>
<path fill="none" stroke="black" d="M214.33,-885.83C205.48,-877.22 194.75,-866.79 185.11,-857.4"/>
<polygon fill="black" stroke="black" points="187.28,-854.63 177.67,-850.16 182.39,-859.64 187.28,-854.63"/>
<text text-anchor="middle" x="178.01" y="-871.46" font-family="Times,serif" font-size="14.00">True</text>
</g>
<!-- 6 -->
<g id="node7" class="node">
<title>6</title>
<polygon fill="none" stroke="black" points="377,-850 237,-850 237,-812 377,-812 377,-850"/>
<text text-anchor="middle" x="307" y="-834.8" font-family="Times,serif" font-size="14.00">longitude &lt;= &#45;130.017</text>
<text text-anchor="middle" x="307" y="-819.8" font-family="Times,serif" font-size="14.00">class = Canada</text>
</g>
<!-- 0&#45;&gt;6 -->
<g id="edge6" class="edge">
<title>0&#45;&gt;6</title>
<path fill="none" stroke="black" d="M251.67,-885.83C260.52,-877.22 271.25,-866.79 280.89,-857.4"/>
<polygon fill="black" stroke="black" points="283.61,-859.64 288.33,-850.16 278.72,-854.63 283.61,-859.64"/>
<text text-anchor="middle" x="287.99" y="-871.46" font-family="Times,serif" font-size="14.00">False</text>
</g>
<!-- 2 -->
<g id="node3" class="node">
<title>2</title>
<polygon fill="none" stroke="black" points="86,-775 0,-775 0,-739 86,-739 86,-775"/>
<text text-anchor="middle" x="43" y="-753.3" font-family="Times,serif" font-size="14.00">class = USA</text>
</g>
<!-- 1&#45;&gt;2 -->
<g id="edge2" class="edge">
<title>1&#45;&gt;2</title>
<path fill="none" stroke="black" d="M129.73,-811.83C114.44,-802.34 95.58,-790.64 79.37,-780.57"/>
<polygon fill="black" stroke="black" points="81.01,-777.47 70.67,-775.17 77.32,-783.42 81.01,-777.47"/>
</g>
<!-- 3 -->
<g id="node4" class="node">
<title>3</title>
<polygon fill="none" stroke="black" points="223.5,-776 104.5,-776 104.5,-738 223.5,-738 223.5,-776"/>
<text text-anchor="middle" x="164" y="-760.8" font-family="Times,serif" font-size="14.00">latitude &lt;= 42.324</text>
<text text-anchor="middle" x="164" y="-745.8" font-family="Times,serif" font-size="14.00">class = USA</text>
</g>
<!-- 1&#45;&gt;3 -->
<g id="edge3" class="edge">
<title>1&#45;&gt;3</title>
<path fill="none" stroke="black" d="M160.26,-811.83C160.8,-804.13 161.43,-794.97 162.03,-786.42"/>
<polygon fill="black" stroke="black" points="165.52,-786.63 162.72,-776.41 158.54,-786.15 165.52,-786.63"/>
</g>
<!-- 4 -->
<g id="node5" class="node">
<title>4</title>
<polygon fill="none" stroke="black" points="206.5,-701 107.5,-701 107.5,-665 206.5,-665 206.5,-701"/>
<text text-anchor="middle" x="157" y="-679.3" font-family="Times,serif" font-size="14.00">class = Canada</text>
</g>
<!-- 3&#45;&gt;4 -->
<g id="edge4" class="edge">
<title>3&#45;&gt;4</title>
<path fill="none" stroke="black" d="M162.23,-737.83C161.46,-729.89 160.54,-720.41 159.69,-711.63"/>
<polygon fill="black" stroke="black" points="163.14,-711.03 158.69,-701.42 156.18,-711.71 163.14,-711.03"/>
</g>
<!-- 5 -->
<g id="node6" class="node">
<title>5</title>
<polygon fill="none" stroke="black" points="311,-701 225,-701 225,-665 311,-665 311,-701"/>
<text text-anchor="middle" x="268" y="-679.3" font-family="Times,serif" font-size="14.00">class = USA</text>
</g>
<!-- 3&#45;&gt;5 -->
<g id="edge5" class="edge">
<title>3&#45;&gt;5</title>
<path fill="none" stroke="black" d="M190.24,-737.83C203.7,-728.52 220.23,-717.07 234.59,-707.13"/>
<polygon fill="black" stroke="black" points="236.97,-709.74 243.2,-701.17 232.98,-703.99 236.97,-709.74"/>
</g>
<!-- 7 -->
<g id="node8" class="node">
<title>7</title>
<polygon fill="none" stroke="black" points="341,-775 255,-775 255,-739 341,-739 341,-775"/>
<text text-anchor="middle" x="298" y="-753.3" font-family="Times,serif" font-size="14.00">class = USA</text>
</g>
<!-- 6&#45;&gt;7 -->
<g id="edge7" class="edge">
<title>6&#45;&gt;7</title>
<path fill="none" stroke="black" d="M304.73,-811.83C303.74,-803.89 302.55,-794.41 301.45,-785.63"/>
<polygon fill="black" stroke="black" points="304.89,-784.91 300.18,-775.42 297.94,-785.77 304.89,-784.91"/>
</g>
<!-- 8 -->
<g id="node9" class="node">
<title>8</title>
<polygon fill="none" stroke="black" points="464.5,-776 359.5,-776 359.5,-738 464.5,-738 464.5,-776"/>
<text text-anchor="middle" x="412" y="-760.8" font-family="Times,serif" font-size="14.00">latitude &lt;= 49.0</text>
<text text-anchor="middle" x="412" y="-745.8" font-family="Times,serif" font-size="14.00">class = Canada</text>
</g>
<!-- 6&#45;&gt;8 -->
<g id="edge8" class="edge">
<title>6&#45;&gt;8</title>
<path fill="none" stroke="black" d="M333.5,-811.83C346.68,-802.79 362.78,-791.75 376.97,-782.02"/>
<polygon fill="black" stroke="black" points="379.24,-784.7 385.51,-776.16 375.29,-778.93 379.24,-784.7"/>
</g>
<!-- 9 -->
<g id="node10" class="node">
<title>9</title>
<polygon fill="none" stroke="black" points="474,-702 340,-702 340,-664 474,-664 474,-702"/>
<text text-anchor="middle" x="407" y="-686.8" font-family="Times,serif" font-size="14.00">longitude &lt;= &#45;94.582</text>
<text text-anchor="middle" x="407" y="-671.8" font-family="Times,serif" font-size="14.00">class = Canada</text>
</g>
<!-- 8&#45;&gt;9 -->
<g id="edge9" class="edge">
<title>8&#45;&gt;9</title>
<path fill="none" stroke="black" d="M410.74,-737.83C410.2,-730.13 409.57,-720.97 408.97,-712.42"/>
<polygon fill="black" stroke="black" points="412.46,-712.15 408.28,-702.41 405.48,-712.63 412.46,-712.15"/>
</g>
<!-- 56 -->
<g id="node57" class="node">
<title>56</title>
<polygon fill="none" stroke="black" points="591.5,-701 492.5,-701 492.5,-665 591.5,-665 591.5,-701"/>
<text text-anchor="middle" x="542" y="-679.3" font-family="Times,serif" font-size="14.00">class = Canada</text>
</g>
<!-- 8&#45;&gt;56 -->
<g id="edge56" class="edge">
<title>8&#45;&gt;56</title>
<path fill="none" stroke="black" d="M444.8,-737.83C462.18,-728.21 483.66,-716.31 502,-706.15"/>
<polygon fill="black" stroke="black" points="503.94,-709.08 511,-701.17 500.55,-702.95 503.94,-709.08"/>
</g>
<!-- 10 -->
<g id="node11" class="node">
<title>10</title>
<polygon fill="none" stroke="black" points="400,-628 260,-628 260,-590 400,-590 400,-628"/>
<text text-anchor="middle" x="330" y="-612.8" font-family="Times,serif" font-size="14.00">longitude &lt;= &#45;123.222</text>
<text text-anchor="middle" x="330" y="-597.8" font-family="Times,serif" font-size="14.00">class = USA</text>
</g>
<!-- 9&#45;&gt;10 -->
<g id="edge10" class="edge">
<title>9&#45;&gt;10</title>
<path fill="none" stroke="black" d="M387.57,-663.83C378.27,-655.13 366.98,-644.58 356.87,-635.13"/>
<polygon fill="black" stroke="black" points="359.12,-632.44 349.42,-628.16 354.34,-637.55 359.12,-632.44"/>
</g>
<!-- 13 -->
<g id="node14" class="node">
<title>13</title>
<polygon fill="none" stroke="black" points="552,-628 418,-628 418,-590 552,-590 552,-628"/>
<text text-anchor="middle" x="485" y="-612.8" font-family="Times,serif" font-size="14.00">longitude &lt;= &#45;69.246</text>
<text text-anchor="middle" x="485" y="-597.8" font-family="Times,serif" font-size="14.00">class = Canada</text>
</g>
<!-- 9&#45;&gt;13 -->
<g id="edge13" class="edge">
<title>9&#45;&gt;13</title>
<path fill="none" stroke="black" d="M426.68,-663.83C436.11,-655.13 447.54,-644.58 457.78,-635.13"/>
<polygon fill="black" stroke="black" points="460.35,-637.52 465.32,-628.16 455.6,-632.37 460.35,-637.52"/>
</g>
<!-- 11 -->
<g id="node12" class="node">
<title>11</title>
<polygon fill="none" stroke="black" points="277.5,-553 178.5,-553 178.5,-517 277.5,-517 277.5,-553"/>
<text text-anchor="middle" x="228" y="-531.3" font-family="Times,serif" font-size="14.00">class = Canada</text>
</g>
<!-- 10&#45;&gt;11 -->
<g id="edge11" class="edge">
<title>10&#45;&gt;11</title>
<path fill="none" stroke="black" d="M304.26,-589.83C291.07,-580.52 274.85,-569.07 260.77,-559.13"/>
<polygon fill="black" stroke="black" points="262.51,-556.08 252.33,-553.17 258.48,-561.8 262.51,-556.08"/>
</g>
<!-- 12 -->
<g id="node13" class="node">
<title>12</title>
<polygon fill="none" stroke="black" points="382,-553 296,-553 296,-517 382,-517 382,-553"/>
<text text-anchor="middle" x="339" y="-531.3" font-family="Times,serif" font-size="14.00">class = USA</text>
</g>
<!-- 10&#45;&gt;12 -->
<g id="edge12" class="edge">
<title>10&#45;&gt;12</title>
<path fill="none" stroke="black" d="M332.27,-589.83C333.26,-581.89 334.45,-572.41 335.55,-563.63"/>
<polygon fill="black" stroke="black" points="339.06,-563.77 336.82,-553.42 332.11,-562.91 339.06,-563.77"/>
</g>
<!-- 14 -->
<g id="node15" class="node">
<title>14</title>
<polygon fill="none" stroke="black" points="536.5,-554 417.5,-554 417.5,-516 536.5,-516 536.5,-554"/>
<text text-anchor="middle" x="477" y="-538.8" font-family="Times,serif" font-size="14.00">latitude &lt;= 43.093</text>
<text text-anchor="middle" x="477" y="-523.8" font-family="Times,serif" font-size="14.00">class = Canada</text>
</g>
<!-- 13&#45;&gt;14 -->
<g id="edge14" class="edge">
<title>13&#45;&gt;14</title>
<path fill="none" stroke="black" d="M482.98,-589.83C482.13,-582.13 481.11,-572.97 480.16,-564.42"/>
<polygon fill="black" stroke="black" points="483.63,-563.97 479.05,-554.41 476.67,-564.74 483.63,-563.97"/>
</g>
<!-- 37 -->
<g id="node38" class="node">
<title>37</title>
<polygon fill="none" stroke="black" points="731,-554 597,-554 597,-516 731,-516 731,-554"/>
<text text-anchor="middle" x="664" y="-538.8" font-family="Times,serif" font-size="14.00">longitude &lt;= &#45;66.952</text>
<text text-anchor="middle" x="664" y="-523.8" font-family="Times,serif" font-size="14.00">class = Canada</text>
</g>
<!-- 13&#45;&gt;37 -->
<g id="edge37" class="edge">
<title>13&#45;&gt;37</title>
<path fill="none" stroke="black" d="M530.17,-589.83C554.32,-580.12 584.24,-568.08 609.66,-557.86"/>
<polygon fill="black" stroke="black" points="611.18,-561.02 619.16,-554.04 608.57,-554.52 611.18,-561.02"/>
</g>
<!-- 15 -->
<g id="node16" class="node">
<title>15</title>
<polygon fill="none" stroke="black" points="355.5,-480 236.5,-480 236.5,-442 355.5,-442 355.5,-480"/>
<text text-anchor="middle" x="296" y="-464.8" font-family="Times,serif" font-size="14.00">latitude &lt;= 43.014</text>
<text text-anchor="middle" x="296" y="-449.8" font-family="Times,serif" font-size="14.00">class = Canada</text>
</g>
<!-- 14&#45;&gt;15 -->
<g id="edge15" class="edge">
<title>14&#45;&gt;15</title>
<path fill="none" stroke="black" d="M431.33,-515.83C406.9,-506.12 376.65,-494.08 350.95,-483.86"/>
<polygon fill="black" stroke="black" points="351.93,-480.48 341.35,-480.04 349.34,-486.99 351.93,-480.48"/>
</g>
<!-- 20 -->
<g id="node21" class="node">
<title>20</title>
<polygon fill="none" stroke="black" points="536.5,-480 417.5,-480 417.5,-442 536.5,-442 536.5,-480"/>
<text text-anchor="middle" x="477" y="-464.8" font-family="Times,serif" font-size="14.00">latitude &lt;= 44.992</text>
<text text-anchor="middle" x="477" y="-449.8" font-family="Times,serif" font-size="14.00">class = Canada</text>
</g>
<!-- 14&#45;&gt;20 -->
<g id="edge20" class="edge">
<title>14&#45;&gt;20</title>
<path fill="none" stroke="black" d="M477,-515.83C477,-508.13 477,-498.97 477,-490.42"/>
<polygon fill="black" stroke="black" points="480.5,-490.41 477,-480.41 473.5,-490.41 480.5,-490.41"/>
</g>
<!-- 16 -->
<g id="node17" class="node">
<title>16</title>
<polygon fill="none" stroke="black" points="221,-406 87,-406 87,-368 221,-368 221,-406"/>
<text text-anchor="middle" x="154" y="-390.8" font-family="Times,serif" font-size="14.00">longitude &lt;= &#45;81.845</text>
<text text-anchor="middle" x="154" y="-375.8" font-family="Times,serif" font-size="14.00">class = Canada</text>
</g>
<!-- 15&#45;&gt;16 -->
<g id="edge16" class="edge">
<title>15&#45;&gt;16</title>
<path fill="none" stroke="black" d="M260.17,-441.83C241.58,-432.41 218.7,-420.81 198.94,-410.79"/>
<polygon fill="black" stroke="black" points="200.32,-407.56 189.82,-406.16 197.16,-413.81 200.32,-407.56"/>
</g>
<!-- 19 -->
<g id="node20" class="node">
<title>19</title>
<polygon fill="none" stroke="black" points="339,-405 253,-405 253,-369 339,-369 339,-405"/>
<text text-anchor="middle" x="296" y="-383.3" font-family="Times,serif" font-size="14.00">class = USA</text>
</g>
<!-- 15&#45;&gt;19 -->
<g id="edge19" class="edge">
<title>15&#45;&gt;19</title>
<path fill="none" stroke="black" d="M296,-441.83C296,-433.89 296,-424.41 296,-415.63"/>
<polygon fill="black" stroke="black" points="299.5,-415.42 296,-405.42 292.5,-415.42 299.5,-415.42"/>
</g>
<!-- 17 -->
<g id="node18" class="node">
<title>17</title>
<polygon fill="none" stroke="black" points="86,-331 0,-331 0,-295 86,-295 86,-331"/>
<text text-anchor="middle" x="43" y="-309.3" font-family="Times,serif" font-size="14.00">class = USA</text>
</g>
<!-- 16&#45;&gt;17 -->
<g id="edge17" class="edge">
<title>16&#45;&gt;17</title>
<path fill="none" stroke="black" d="M125.99,-367.83C111.49,-358.43 93.65,-346.86 78.23,-336.85"/>
<polygon fill="black" stroke="black" points="79.77,-333.68 69.47,-331.17 75.96,-339.55 79.77,-333.68"/>
</g>
<!-- 18 -->
<g id="node19" class="node">
<title>18</title>
<polygon fill="none" stroke="black" points="203.5,-331 104.5,-331 104.5,-295 203.5,-295 203.5,-331"/>
<text text-anchor="middle" x="154" y="-309.3" font-family="Times,serif" font-size="14.00">class = Canada</text>
</g>
<!-- 16&#45;&gt;18 -->
<g id="edge18" class="edge">
<title>16&#45;&gt;18</title>
<path fill="none" stroke="black" d="M154,-367.83C154,-359.89 154,-350.41 154,-341.63"/>
<polygon fill="black" stroke="black" points="157.5,-341.42 154,-331.42 150.5,-341.42 157.5,-341.42"/>
</g>
<!-- 21 -->
<g id="node22" class="node">
<title>21</title>
<polygon fill="none" stroke="black" points="478.5,-406 359.5,-406 359.5,-368 478.5,-368 478.5,-406"/>
<text text-anchor="middle" x="419" y="-390.8" font-family="Times,serif" font-size="14.00">latitude &lt;= 44.542</text>
<text text-anchor="middle" x="419" y="-375.8" font-family="Times,serif" font-size="14.00">class = Canada</text>
</g>
<!-- 20&#45;&gt;21 -->
<g id="edge21" class="edge">
<title>20&#45;&gt;21</title>
<path fill="none" stroke="black" d="M462.36,-441.83C455.68,-433.54 447.64,-423.56 440.31,-414.45"/>
<polygon fill="black" stroke="black" points="442.83,-412.01 433.83,-406.41 437.38,-416.4 442.83,-412.01"/>
</g>
<!-- 36 -->
<g id="node37" class="node">
<title>36</title>
<polygon fill="none" stroke="black" points="595.5,-405 496.5,-405 496.5,-369 595.5,-369 595.5,-405"/>
<text text-anchor="middle" x="546" y="-383.3" font-family="Times,serif" font-size="14.00">class = Canada</text>
</g>
<!-- 20&#45;&gt;36 -->
<g id="edge36" class="edge">
<title>20&#45;&gt;36</title>
<path fill="none" stroke="black" d="M494.41,-441.83C502.85,-433.02 513.12,-422.31 522.27,-412.76"/>
<polygon fill="black" stroke="black" points="524.92,-415.06 529.31,-405.42 519.86,-410.22 524.92,-415.06"/>
</g>
<!-- 22 -->
<g id="node23" class="node">
<title>22</title>
<polygon fill="none" stroke="black" points="356,-332 222,-332 222,-294 356,-294 356,-332"/>
<text text-anchor="middle" x="289" y="-316.8" font-family="Times,serif" font-size="14.00">longitude &lt;= &#45;79.076</text>
<text text-anchor="middle" x="289" y="-301.8" font-family="Times,serif" font-size="14.00">class = Canada</text>
</g>
<!-- 21&#45;&gt;22 -->
<g id="edge22" class="edge">
<title>21&#45;&gt;22</title>
<path fill="none" stroke="black" d="M386.2,-367.83C369.41,-358.54 348.8,-347.12 330.88,-337.2"/>
<polygon fill="black" stroke="black" points="332.24,-333.95 321.79,-332.16 328.85,-340.07 332.24,-333.95"/>
</g>
<!-- 31 -->
<g id="node32" class="node">
<title>31</title>
<polygon fill="none" stroke="black" points="493.5,-332 374.5,-332 374.5,-294 493.5,-294 493.5,-332"/>
<text text-anchor="middle" x="434" y="-316.8" font-family="Times,serif" font-size="14.00">latitude &lt;= 44.706</text>
<text text-anchor="middle" x="434" y="-301.8" font-family="Times,serif" font-size="14.00">class = USA</text>
</g>
<!-- 21&#45;&gt;31 -->
<g id="edge31" class="edge">
<title>21&#45;&gt;31</title>
<path fill="none" stroke="black" d="M422.79,-367.83C424.39,-360.13 426.3,-350.97 428.08,-342.42"/>
<polygon fill="black" stroke="black" points="431.55,-342.92 430.16,-332.41 424.7,-341.49 431.55,-342.92"/>
</g>
<!-- 23 -->
<g id="node24" class="node">
<title>23</title>
<polygon fill="none" stroke="black" points="211.5,-257 112.5,-257 112.5,-221 211.5,-221 211.5,-257"/>
<text text-anchor="middle" x="162" y="-235.3" font-family="Times,serif" font-size="14.00">class = Canada</text>
</g>
<!-- 22&#45;&gt;23 -->
<g id="edge23" class="edge">
<title>22&#45;&gt;23</title>
<path fill="none" stroke="black" d="M256.95,-293.83C240.06,-284.25 219.19,-272.42 201.32,-262.29"/>
<polygon fill="black" stroke="black" points="202.71,-259.06 192.29,-257.17 199.26,-265.15 202.71,-259.06"/>
</g>
<!-- 24 -->
<g id="node25" class="node">
<title>24</title>
<polygon fill="none" stroke="black" points="348.5,-258 229.5,-258 229.5,-220 348.5,-220 348.5,-258"/>
<text text-anchor="middle" x="289" y="-242.8" font-family="Times,serif" font-size="14.00">latitude &lt;= 44.168</text>
<text text-anchor="middle" x="289" y="-227.8" font-family="Times,serif" font-size="14.00">class = Canada</text>
</g>
<!-- 22&#45;&gt;24 -->
<g id="edge24" class="edge">
<title>22&#45;&gt;24</title>
<path fill="none" stroke="black" d="M289,-293.83C289,-286.13 289,-276.97 289,-268.42"/>
<polygon fill="black" stroke="black" points="292.5,-268.41 289,-258.41 285.5,-268.41 292.5,-268.41"/>
</g>
<!-- 25 -->
<g id="node26" class="node">
<title>25</title>
<polygon fill="none" stroke="black" points="234.5,-184 115.5,-184 115.5,-146 234.5,-146 234.5,-184"/>
<text text-anchor="middle" x="175" y="-168.8" font-family="Times,serif" font-size="14.00">latitude &lt;= 43.511</text>
<text text-anchor="middle" x="175" y="-153.8" font-family="Times,serif" font-size="14.00">class = USA</text>
</g>
<!-- 24&#45;&gt;25 -->
<g id="edge25" class="edge">
<title>24&#45;&gt;25</title>
<path fill="none" stroke="black" d="M260.23,-219.83C245.79,-210.71 228.1,-199.54 212.6,-189.74"/>
<polygon fill="black" stroke="black" points="214.08,-186.54 203.76,-184.16 210.34,-192.46 214.08,-186.54"/>
</g>
<!-- 30 -->
<g id="node31" class="node">
<title>30</title>
<polygon fill="none" stroke="black" points="351.5,-183 252.5,-183 252.5,-147 351.5,-147 351.5,-183"/>
<text text-anchor="middle" x="302" y="-161.3" font-family="Times,serif" font-size="14.00">class = Canada</text>
</g>
<!-- 24&#45;&gt;30 -->
<g id="edge30" class="edge">
<title>24&#45;&gt;30</title>
<path fill="none" stroke="black" d="M292.28,-219.83C293.73,-211.81 295.46,-202.2 297.06,-193.34"/>
<polygon fill="black" stroke="black" points="300.52,-193.88 298.86,-183.42 293.63,-192.64 300.52,-193.88"/>
</g>
<!-- 26 -->
<g id="node27" class="node">
<title>26</title>
<polygon fill="none" stroke="black" points="158,-109 72,-109 72,-73 158,-73 158,-109"/>
<text text-anchor="middle" x="115" y="-87.3" font-family="Times,serif" font-size="14.00">class = USA</text>
</g>
<!-- 25&#45;&gt;26 -->
<g id="edge26" class="edge">
<title>25&#45;&gt;26</title>
<path fill="none" stroke="black" d="M159.86,-145.83C152.66,-137.2 143.94,-126.73 136.11,-117.33"/>
<polygon fill="black" stroke="black" points="138.61,-114.86 129.51,-109.42 133.23,-119.34 138.61,-114.86"/>
</g>
<!-- 27 -->
<g id="node28" class="node">
<title>27</title>
<polygon fill="none" stroke="black" points="295.5,-110 176.5,-110 176.5,-72 295.5,-72 295.5,-110"/>
<text text-anchor="middle" x="236" y="-94.8" font-family="Times,serif" font-size="14.00">latitude &lt;= 43.988</text>
<text text-anchor="middle" x="236" y="-79.8" font-family="Times,serif" font-size="14.00">class = Canada</text>
</g>
<!-- 25&#45;&gt;27 -->
<g id="edge27" class="edge">
<title>25&#45;&gt;27</title>
<path fill="none" stroke="black" d="M190.39,-145.83C197.49,-137.45 206.05,-127.35 213.82,-118.17"/>
<polygon fill="black" stroke="black" points="216.61,-120.31 220.4,-110.41 211.27,-115.78 216.61,-120.31"/>
</g>
<!-- 28 -->
<g id="node29" class="node">
<title>28</title>
<polygon fill="none" stroke="black" points="229.5,-36 130.5,-36 130.5,0 229.5,0 229.5,-36"/>
<text text-anchor="middle" x="180" y="-14.3" font-family="Times,serif" font-size="14.00">class = Canada</text>
</g>
<!-- 27&#45;&gt;28 -->
<g id="edge28" class="edge">
<title>27&#45;&gt;28</title>
<path fill="none" stroke="black" d="M221.58,-71.72C214.93,-63.29 206.93,-53.15 199.73,-44.02"/>
<polygon fill="black" stroke="black" points="202.35,-41.69 193.41,-36 196.86,-46.02 202.35,-41.69"/>
</g>
<!-- 29 -->
<g id="node30" class="node">
<title>29</title>
<polygon fill="none" stroke="black" points="334,-36 248,-36 248,0 334,0 334,-36"/>
<text text-anchor="middle" x="291" y="-14.3" font-family="Times,serif" font-size="14.00">class = USA</text>
</g>
<!-- 27&#45;&gt;29 -->
<g id="edge29" class="edge">
<title>27&#45;&gt;29</title>
<path fill="none" stroke="black" d="M250.16,-71.72C256.69,-63.29 264.55,-53.15 271.62,-44.02"/>
<polygon fill="black" stroke="black" points="274.47,-46.05 277.83,-36 268.94,-41.77 274.47,-46.05"/>
</g>
<!-- 32 -->
<g id="node33" class="node">
<title>32</title>
<polygon fill="none" stroke="black" points="453,-257 367,-257 367,-221 453,-221 453,-257"/>
<text text-anchor="middle" x="410" y="-235.3" font-family="Times,serif" font-size="14.00">class = USA</text>
</g>
<!-- 31&#45;&gt;32 -->
<g id="edge32" class="edge">
<title>31&#45;&gt;32</title>
<path fill="none" stroke="black" d="M427.94,-293.83C425.24,-285.72 422,-275.99 419.02,-267.05"/>
<polygon fill="black" stroke="black" points="422.29,-265.8 415.81,-257.42 415.65,-268.01 422.29,-265.8"/>
</g>
<!-- 33 -->
<g id="node34" class="node">
<title>33</title>
<polygon fill="none" stroke="black" points="605,-258 471,-258 471,-220 605,-220 605,-258"/>
<text text-anchor="middle" x="538" y="-242.8" font-family="Times,serif" font-size="14.00">longitude &lt;= &#45;84.392</text>
<text text-anchor="middle" x="538" y="-227.8" font-family="Times,serif" font-size="14.00">class = Canada</text>
</g>
<!-- 31&#45;&gt;33 -->
<g id="edge33" class="edge">
<title>31&#45;&gt;33</title>
<path fill="none" stroke="black" d="M460.24,-293.83C473.3,-284.79 489.25,-273.75 503.3,-264.02"/>
<polygon fill="black" stroke="black" points="505.54,-266.73 511.76,-258.16 501.55,-260.98 505.54,-266.73"/>
</g>
<!-- 34 -->
<g id="node35" class="node">
<title>34</title>
<polygon fill="none" stroke="black" points="473,-183 387,-183 387,-147 473,-147 473,-183"/>
<text text-anchor="middle" x="430" y="-161.3" font-family="Times,serif" font-size="14.00">class = USA</text>
</g>
<!-- 33&#45;&gt;34 -->
<g id="edge34" class="edge">
<title>33&#45;&gt;34</title>
<path fill="none" stroke="black" d="M510.75,-219.83C496.64,-210.43 479.28,-198.86 464.28,-188.85"/>
<polygon fill="black" stroke="black" points="466.02,-185.81 455.76,-183.17 462.14,-191.63 466.02,-185.81"/>
</g>
<!-- 35 -->
<g id="node36" class="node">
<title>35</title>
<polygon fill="none" stroke="black" points="590.5,-183 491.5,-183 491.5,-147 590.5,-147 590.5,-183"/>
<text text-anchor="middle" x="541" y="-161.3" font-family="Times,serif" font-size="14.00">class = Canada</text>
</g>
<!-- 33&#45;&gt;35 -->
<g id="edge35" class="edge">
<title>33&#45;&gt;35</title>
<path fill="none" stroke="black" d="M538.76,-219.83C539.09,-211.89 539.48,-202.41 539.85,-193.63"/>
<polygon fill="black" stroke="black" points="543.35,-193.55 540.27,-183.42 536.36,-193.26 543.35,-193.55"/>
</g>
<!-- 38 -->
<g id="node39" class="node">
<title>38</title>
<polygon fill="none" stroke="black" points="723.5,-480 604.5,-480 604.5,-442 723.5,-442 723.5,-480"/>
<text text-anchor="middle" x="664" y="-464.8" font-family="Times,serif" font-size="14.00">latitude &lt;= 45.195</text>
<text text-anchor="middle" x="664" y="-449.8" font-family="Times,serif" font-size="14.00">class = USA</text>
</g>
<!-- 37&#45;&gt;38 -->
<g id="edge38" class="edge">
<title>37&#45;&gt;38</title>
<path fill="none" stroke="black" d="M664,-515.83C664,-508.13 664,-498.97 664,-490.42"/>
<polygon fill="black" stroke="black" points="667.5,-490.41 664,-480.41 660.5,-490.41 667.5,-490.41"/>
</g>
<!-- 55 -->
<g id="node56" class="node">
<title>55</title>
<polygon fill="none" stroke="black" points="840.5,-479 741.5,-479 741.5,-443 840.5,-443 840.5,-479"/>
<text text-anchor="middle" x="791" y="-457.3" font-family="Times,serif" font-size="14.00">class = Canada</text>
</g>
<!-- 37&#45;&gt;55 -->
<g id="edge55" class="edge">
<title>37&#45;&gt;55</title>
<path fill="none" stroke="black" d="M696.05,-515.83C712.94,-506.25 733.81,-494.42 751.68,-484.29"/>
<polygon fill="black" stroke="black" points="753.74,-487.15 760.71,-479.17 750.29,-481.06 753.74,-487.15"/>
</g>
<!-- 39 -->
<g id="node40" class="node">
<title>39</title>
<polygon fill="none" stroke="black" points="707,-405 621,-405 621,-369 707,-369 707,-405"/>
<text text-anchor="middle" x="664" y="-383.3" font-family="Times,serif" font-size="14.00">class = USA</text>
</g>
<!-- 38&#45;&gt;39 -->
<g id="edge39" class="edge">
<title>38&#45;&gt;39</title>
<path fill="none" stroke="black" d="M664,-441.83C664,-433.89 664,-424.41 664,-415.63"/>
<polygon fill="black" stroke="black" points="667.5,-415.42 664,-405.42 660.5,-415.42 667.5,-415.42"/>
</g>
<!-- 40 -->
<g id="node41" class="node">
<title>40</title>
<polygon fill="none" stroke="black" points="855.5,-406 728.5,-406 728.5,-368 855.5,-368 855.5,-406"/>
<text text-anchor="middle" x="792" y="-390.8" font-family="Times,serif" font-size="14.00">longitude &lt;= &#45;67.93</text>
<text text-anchor="middle" x="792" y="-375.8" font-family="Times,serif" font-size="14.00">class = Canada</text>
</g>
<!-- 38&#45;&gt;40 -->
<g id="edge40" class="edge">
<title>38&#45;&gt;40</title>
<path fill="none" stroke="black" d="M696.3,-441.83C712.82,-432.54 733.12,-421.12 750.76,-411.2"/>
<polygon fill="black" stroke="black" points="752.71,-414.12 759.71,-406.16 749.28,-408.01 752.71,-414.12"/>
</g>
<!-- 41 -->
<g id="node42" class="node">
<title>41</title>
<polygon fill="none" stroke="black" points="859,-332 725,-332 725,-294 859,-294 859,-332"/>
<text text-anchor="middle" x="792" y="-316.8" font-family="Times,serif" font-size="14.00">longitude &lt;= &#45;68.325</text>
<text text-anchor="middle" x="792" y="-301.8" font-family="Times,serif" font-size="14.00">class = USA</text>
</g>
<!-- 40&#45;&gt;41 -->
<g id="edge41" class="edge">
<title>40&#45;&gt;41</title>
<path fill="none" stroke="black" d="M792,-367.83C792,-360.13 792,-350.97 792,-342.42"/>
<polygon fill="black" stroke="black" points="795.5,-342.41 792,-332.41 788.5,-342.41 795.5,-342.41"/>
</g>
<!-- 50 -->
<g id="node51" class="node">
<title>50</title>
<polygon fill="none" stroke="black" points="998.5,-332 879.5,-332 879.5,-294 998.5,-294 998.5,-332"/>
<text text-anchor="middle" x="939" y="-316.8" font-family="Times,serif" font-size="14.00">latitude &lt;= 45.565</text>
<text text-anchor="middle" x="939" y="-301.8" font-family="Times,serif" font-size="14.00">class = Canada</text>
</g>
<!-- 40&#45;&gt;50 -->
<g id="edge50" class="edge">
<title>40&#45;&gt;50</title>
<path fill="none" stroke="black" d="M829.09,-367.83C848.49,-358.33 872.42,-346.61 892.99,-336.54"/>
<polygon fill="black" stroke="black" points="894.73,-339.58 902.17,-332.04 891.65,-333.29 894.73,-339.58"/>
</g>
<!-- 42 -->
<g id="node43" class="node">
<title>42</title>
<polygon fill="none" stroke="black" points="757,-258 623,-258 623,-220 757,-220 757,-258"/>
<text text-anchor="middle" x="690" y="-242.8" font-family="Times,serif" font-size="14.00">longitude &lt;= &#45;68.915</text>
<text text-anchor="middle" x="690" y="-227.8" font-family="Times,serif" font-size="14.00">class = Canada</text>
</g>
<!-- 41&#45;&gt;42 -->
<g id="edge42" class="edge">
<title>41&#45;&gt;42</title>
<path fill="none" stroke="black" d="M766.26,-293.83C753.46,-284.79 737.81,-273.75 724.03,-264.02"/>
<polygon fill="black" stroke="black" points="725.92,-261.07 715.73,-258.16 721.88,-266.79 725.92,-261.07"/>
</g>
<!-- 49 -->
<g id="node50" class="node">
<title>49</title>
<polygon fill="none" stroke="black" points="861,-257 775,-257 775,-221 861,-221 861,-257"/>
<text text-anchor="middle" x="818" y="-235.3" font-family="Times,serif" font-size="14.00">class = USA</text>
</g>
<!-- 41&#45;&gt;49 -->
<g id="edge49" class="edge">
<title>41&#45;&gt;49</title>
<path fill="none" stroke="black" d="M798.56,-293.83C801.49,-285.72 805,-275.99 808.23,-267.05"/>
<polygon fill="black" stroke="black" points="811.61,-268.01 811.71,-257.42 805.02,-265.63 811.61,-268.01"/>
</g>
<!-- 43 -->
<g id="node44" class="node">
<title>43</title>
<polygon fill="none" stroke="black" points="708,-183 622,-183 622,-147 708,-147 708,-183"/>
<text text-anchor="middle" x="665" y="-161.3" font-family="Times,serif" font-size="14.00">class = USA</text>
</g>
<!-- 42&#45;&gt;43 -->
<g id="edge43" class="edge">
<title>42&#45;&gt;43</title>
<path fill="none" stroke="black" d="M683.69,-219.83C680.87,-211.72 677.5,-201.99 674.39,-193.05"/>
<polygon fill="black" stroke="black" points="677.63,-191.72 671.05,-183.42 671.02,-194.01 677.63,-191.72"/>
</g>
<!-- 44 -->
<g id="node45" class="node">
<title>44</title>
<polygon fill="none" stroke="black" points="860,-184 726,-184 726,-146 860,-146 860,-184"/>
<text text-anchor="middle" x="793" y="-168.8" font-family="Times,serif" font-size="14.00">longitude &lt;= &#45;68.597</text>
<text text-anchor="middle" x="793" y="-153.8" font-family="Times,serif" font-size="14.00">class = Canada</text>
</g>
<!-- 42&#45;&gt;44 -->
<g id="edge44" class="edge">
<title>42&#45;&gt;44</title>
<path fill="none" stroke="black" d="M715.99,-219.83C728.92,-210.79 744.72,-199.75 758.64,-190.02"/>
<polygon fill="black" stroke="black" points="760.83,-192.76 767.02,-184.16 756.82,-187.02 760.83,-192.76"/>
</g>
<!-- 45 -->
<g id="node46" class="node">
<title>45</title>
<polygon fill="none" stroke="black" points="778.5,-109 679.5,-109 679.5,-73 778.5,-73 778.5,-109"/>
<text text-anchor="middle" x="729" y="-87.3" font-family="Times,serif" font-size="14.00">class = Canada</text>
</g>
<!-- 44&#45;&gt;45 -->
<g id="edge45" class="edge">
<title>44&#45;&gt;45</title>
<path fill="none" stroke="black" d="M776.85,-145.83C769.1,-137.11 759.68,-126.52 751.26,-117.05"/>
<polygon fill="black" stroke="black" points="753.74,-114.57 744.48,-109.42 748.51,-119.22 753.74,-114.57"/>
</g>
<!-- 46 -->
<g id="node47" class="node">
<title>46</title>
<polygon fill="none" stroke="black" points="915.5,-110 796.5,-110 796.5,-72 915.5,-72 915.5,-110"/>
<text text-anchor="middle" x="856" y="-94.8" font-family="Times,serif" font-size="14.00">latitude &lt;= 47.312</text>
<text text-anchor="middle" x="856" y="-79.8" font-family="Times,serif" font-size="14.00">class = Canada</text>
</g>
<!-- 44&#45;&gt;46 -->
<g id="edge46" class="edge">
<title>44&#45;&gt;46</title>
<path fill="none" stroke="black" d="M808.9,-145.83C816.23,-137.45 825.07,-127.35 833.1,-118.17"/>
<polygon fill="black" stroke="black" points="835.94,-120.24 839.89,-110.41 830.67,-115.63 835.94,-120.24"/>
</g>
<!-- 47 -->
<g id="node48" class="node">
<title>47</title>
<polygon fill="none" stroke="black" points="843,-36 757,-36 757,0 843,0 843,-36"/>
<text text-anchor="middle" x="800" y="-14.3" font-family="Times,serif" font-size="14.00">class = USA</text>
</g>
<!-- 46&#45;&gt;47 -->
<g id="edge47" class="edge">
<title>46&#45;&gt;47</title>
<path fill="none" stroke="black" d="M841.58,-71.72C834.93,-63.29 826.93,-53.15 819.73,-44.02"/>
<polygon fill="black" stroke="black" points="822.35,-41.69 813.41,-36 816.86,-46.02 822.35,-41.69"/>
</g>
<!-- 48 -->
<g id="node49" class="node">
<title>48</title>
<polygon fill="none" stroke="black" points="960.5,-36 861.5,-36 861.5,0 960.5,0 960.5,-36"/>
<text text-anchor="middle" x="911" y="-14.3" font-family="Times,serif" font-size="14.00">class = Canada</text>
</g>
<!-- 46&#45;&gt;48 -->
<g id="edge48" class="edge">
<title>46&#45;&gt;48</title>
<path fill="none" stroke="black" d="M870.16,-71.72C876.69,-63.29 884.55,-53.15 891.62,-44.02"/>
<polygon fill="black" stroke="black" points="894.47,-46.05 897.83,-36 888.94,-41.77 894.47,-46.05"/>
</g>
<!-- 51 -->
<g id="node52" class="node">
<title>51</title>
<polygon fill="none" stroke="black" points="998.5,-258 879.5,-258 879.5,-220 998.5,-220 998.5,-258"/>
<text text-anchor="middle" x="939" y="-242.8" font-family="Times,serif" font-size="14.00">latitude &lt;= 45.382</text>
<text text-anchor="middle" x="939" y="-227.8" font-family="Times,serif" font-size="14.00">class = Canada</text>
</g>
<!-- 50&#45;&gt;51 -->
<g id="edge51" class="edge">
<title>50&#45;&gt;51</title>
<path fill="none" stroke="black" d="M939,-293.83C939,-286.13 939,-276.97 939,-268.42"/>
<polygon fill="black" stroke="black" points="942.5,-268.41 939,-258.41 935.5,-268.41 942.5,-268.41"/>
</g>
<!-- 54 -->
<g id="node55" class="node">
<title>54</title>
<polygon fill="none" stroke="black" points="1115.5,-257 1016.5,-257 1016.5,-221 1115.5,-221 1115.5,-257"/>
<text text-anchor="middle" x="1066" y="-235.3" font-family="Times,serif" font-size="14.00">class = Canada</text>
</g>
<!-- 50&#45;&gt;54 -->
<g id="edge54" class="edge">
<title>50&#45;&gt;54</title>
<path fill="none" stroke="black" d="M971.05,-293.83C987.94,-284.25 1008.81,-272.42 1026.68,-262.29"/>
<polygon fill="black" stroke="black" points="1028.74,-265.15 1035.71,-257.17 1025.29,-259.06 1028.74,-265.15"/>
</g>
<!-- 52 -->
<g id="node53" class="node">
<title>52</title>
<polygon fill="none" stroke="black" points="984.5,-183 885.5,-183 885.5,-147 984.5,-147 984.5,-183"/>
<text text-anchor="middle" x="935" y="-161.3" font-family="Times,serif" font-size="14.00">class = Canada</text>
</g>
<!-- 51&#45;&gt;52 -->
<g id="edge52" class="edge">
<title>51&#45;&gt;52</title>
<path fill="none" stroke="black" d="M937.99,-219.83C937.55,-211.89 937.02,-202.41 936.53,-193.63"/>
<polygon fill="black" stroke="black" points="940.02,-193.21 935.97,-183.42 933.03,-193.6 940.02,-193.21"/>
</g>
<!-- 53 -->
<g id="node54" class="node">
<title>53</title>
<polygon fill="none" stroke="black" points="1089,-183 1003,-183 1003,-147 1089,-147 1089,-183"/>
<text text-anchor="middle" x="1046" y="-161.3" font-family="Times,serif" font-size="14.00">class = USA</text>
</g>
<!-- 51&#45;&gt;53 -->
<g id="edge53" class="edge">
<title>51&#45;&gt;53</title>
<path fill="none" stroke="black" d="M966,-219.83C979.97,-210.43 997.17,-198.86 1012.04,-188.85"/>
<polygon fill="black" stroke="black" points="1014.14,-191.66 1020.48,-183.17 1010.23,-185.85 1014.14,-191.66"/>
</g>
</g>
</svg>
