<?xml version="1.0" encoding="UTF-8" standalone="no"?>
<!DOCTYPE svg PUBLIC "-//W3C//DTD SVG 1.1//EN"
 "http://www.w3.org/Graphics/SVG/1.1/DTD/svg11.dtd">
<!-- Generated by graphviz version 2.44.1 (20200629.0846)
 -->
<!-- Title: Tree Pages: 1 -->
<svg width="1106pt" height="932pt"
 viewBox="0.00 0.00 1105.50 932.00" xmlns="http://www.w3.org/2000/svg" xmlns:xlink="http://www.w3.org/1999/xlink">
<g id="graph0" class="graph" transform="scale(1 1) rotate(0) translate(4 928)">
<title>Tree</title>
<polygon fill="white" stroke="transparent" points="-4,4 -4,-928 1101.5,-928 1101.5,4 -4,4"/>
<!-- 0 -->
<g id="node1" class="node">
<title>0</title>
<polygon fill="none" stroke="black" points="342.5,-924 237.5,-924 237.5,-886 342.5,-886 342.5,-924"/>
<text text-anchor="middle" x="290" y="-908.8" font-family="Times,serif" font-size="14.00">latitude &lt;= 42.9</text>
<text text-anchor="middle" x="290" y="-893.8" font-family="Times,serif" font-size="14.00">class = Canada</text>
</g>
<!-- 1 -->
<g id="node2" class="node">
<title>1</title>
<polygon fill="none" stroke="black" points="281.5,-850 162.5,-850 162.5,-812 281.5,-812 281.5,-850"/>
<text text-anchor="middle" x="222" y="-834.8" font-family="Times,serif" font-size="14.00">latitude &lt;= 42.096</text>
<text text-anchor="middle" x="222" y="-819.8" font-family="Times,serif" font-size="14.00">class = USA</text>
</g>
<!-- 0&#45;&gt;1 -->
<g id="edge1" class="edge">
<title>0&#45;&gt;1</title>
<path fill="none" stroke="black" d="M272.84,-885.83C264.85,-877.37 255.2,-867.15 246.46,-857.9"/>
<polygon fill="black" stroke="black" points="248.8,-855.28 239.39,-850.41 243.71,-860.09 248.8,-855.28"/>
<text text-anchor="middle" x="238.68" y="-871.7" font-family="Times,serif" font-size="14.00">True</text>
</g>
<!-- 6 -->
<g id="node7" class="node">
<title>6</title>
<polygon fill="none" stroke="black" points="418.5,-850 299.5,-850 299.5,-812 418.5,-812 418.5,-850"/>
<text text-anchor="middle" x="359" y="-834.8" font-family="Times,serif" font-size="14.00">latitude &lt;= 55.958</text>
<text text-anchor="middle" x="359" y="-819.8" font-family="Times,serif" font-size="14.00">class = Canada</text>
</g>
<!-- 0&#45;&gt;6 -->
<g id="edge6" class="edge">
<title>0&#45;&gt;6</title>
<path fill="none" stroke="black" d="M307.41,-885.83C315.52,-877.37 325.32,-867.15 334.18,-857.9"/>
<polygon fill="black" stroke="black" points="336.96,-860.05 341.35,-850.41 331.91,-855.21 336.96,-860.05"/>
<text text-anchor="middle" x="341.89" y="-871.71" font-family="Times,serif" font-size="14.00">False</text>
</g>
<!-- 2 -->
<g id="node3" class="node">
<title>2</title>
<polygon fill="none" stroke="black" points="146,-775 60,-775 60,-739 146,-739 146,-775"/>
<text text-anchor="middle" x="103" y="-753.3" font-family="Times,serif" font-size="14.00">class = USA</text>
</g>
<!-- 1&#45;&gt;2 -->
<g id="edge2" class="edge">
<title>1&#45;&gt;2</title>
<path fill="none" stroke="black" d="M191.97,-811.83C176.29,-802.34 156.94,-790.64 140.31,-780.57"/>
<polygon fill="black" stroke="black" points="141.75,-777.35 131.38,-775.17 138.12,-783.34 141.75,-777.35"/>
</g>
<!-- 3 -->
<g id="node4" class="node">
<title>3</title>
<polygon fill="none" stroke="black" points="283.5,-776 164.5,-776 164.5,-738 283.5,-738 283.5,-776"/>
<text text-anchor="middle" x="224" y="-760.8" font-family="Times,serif" font-size="14.00">latitude &lt;= 42.324</text>
<text text-anchor="middle" x="224" y="-745.8" font-family="Times,serif" font-size="14.00">class = USA</text>
</g>
<!-- 1&#45;&gt;3 -->
<g id="edge3" class="edge">
<title>1&#45;&gt;3</title>
<path fill="none" stroke="black" d="M222.5,-811.83C222.72,-804.13 222.97,-794.97 223.21,-786.42"/>
<polygon fill="black" stroke="black" points="226.71,-786.51 223.49,-776.41 219.71,-786.31 226.71,-786.51"/>
</g>
<!-- 4 -->
<g id="node5" class="node">
<title>4</title>
<polygon fill="none" stroke="black" points="163.5,-701 64.5,-701 64.5,-665 163.5,-665 163.5,-701"/>
<text text-anchor="middle" x="114" y="-679.3" font-family="Times,serif" font-size="14.00">class = Canada</text>
</g>
<!-- 3&#45;&gt;4 -->
<g id="edge4" class="edge">
<title>3&#45;&gt;4</title>
<path fill="none" stroke="black" d="M196.24,-737.83C181.88,-728.43 164.2,-716.86 148.91,-706.85"/>
<polygon fill="black" stroke="black" points="150.52,-703.72 140.23,-701.17 146.68,-709.58 150.52,-703.72"/>
</g>
<!-- 5 -->
<g id="node6" class="node">
<title>5</title>
<polygon fill="none" stroke="black" points="268,-701 182,-701 182,-665 268,-665 268,-701"/>
<text text-anchor="middle" x="225" y="-679.3" font-family="Times,serif" font-size="14.00">class = USA</text>
</g>
<!-- 3&#45;&gt;5 -->
<g id="edge5" class="edge">
<title>3&#45;&gt;5</title>
<path fill="none" stroke="black" d="M224.25,-737.83C224.36,-729.89 224.49,-720.41 224.62,-711.63"/>
<polygon fill="black" stroke="black" points="228.12,-711.47 224.76,-701.42 221.12,-711.37 228.12,-711.47"/>
</g>
<!-- 7 -->
<g id="node8" class="node">
<title>7</title>
<polygon fill="none" stroke="black" points="410.5,-776 305.5,-776 305.5,-738 410.5,-738 410.5,-776"/>
<text text-anchor="middle" x="358" y="-760.8" font-family="Times,serif" font-size="14.00">latitude &lt;= 49.0</text>
<text text-anchor="middle" x="358" y="-745.8" font-family="Times,serif" font-size="14.00">class = Canada</text>
</g>
<!-- 6&#45;&gt;7 -->
<g id="edge7" class="edge">
<title>6&#45;&gt;7</title>
<path fill="none" stroke="black" d="M358.75,-811.83C358.64,-804.13 358.51,-794.97 358.39,-786.42"/>
<polygon fill="black" stroke="black" points="361.89,-786.36 358.26,-776.41 354.9,-786.46 361.89,-786.36"/>
</g>
<!-- 54 -->
<g id="node55" class="node">
<title>54</title>
<polygon fill="none" stroke="black" points="515,-775 429,-775 429,-739 515,-739 515,-775"/>
<text text-anchor="middle" x="472" y="-753.3" font-family="Times,serif" font-size="14.00">class = USA</text>
</g>
<!-- 6&#45;&gt;54 -->
<g id="edge54" class="edge">
<title>6&#45;&gt;54</title>
<path fill="none" stroke="black" d="M387.51,-811.83C402.41,-802.34 420.78,-790.64 436.58,-780.57"/>
<polygon fill="black" stroke="black" points="438.5,-783.5 445.05,-775.17 434.74,-777.59 438.5,-783.5"/>
</g>
<!-- 8 -->
<g id="node9" class="node">
<title>8</title>
<polygon fill="none" stroke="black" points="424,-702 290,-702 290,-664 424,-664 424,-702"/>
<text text-anchor="middle" x="357" y="-686.8" font-family="Times,serif" font-size="14.00">longitude &lt;= &#45;94.582</text>
<text text-anchor="middle" x="357" y="-671.8" font-family="Times,serif" font-size="14.00">class = Canada</text>
</g>
<!-- 7&#45;&gt;8 -->
<g id="edge8" class="edge">
<title>7&#45;&gt;8</title>
<path fill="none" stroke="black" d="M357.75,-737.83C357.64,-730.13 357.51,-720.97 357.39,-712.42"/>
<polygon fill="black" stroke="black" points="360.89,-712.36 357.26,-702.41 353.9,-712.46 360.89,-712.36"/>
</g>
<!-- 53 -->
<g id="node54" class="node">
<title>53</title>
<polygon fill="none" stroke="black" points="541.5,-701 442.5,-701 442.5,-665 541.5,-665 541.5,-701"/>
<text text-anchor="middle" x="492" y="-679.3" font-family="Times,serif" font-size="14.00">class = Canada</text>
</g>
<!-- 7&#45;&gt;53 -->
<g id="edge53" class="edge">
<title>7&#45;&gt;53</title>
<path fill="none" stroke="black" d="M391.81,-737.83C409.8,-728.17 432.06,-716.2 451.03,-706.01"/>
<polygon fill="black" stroke="black" points="452.89,-708.99 460.04,-701.17 449.58,-702.82 452.89,-708.99"/>
</g>
<!-- 9 -->
<g id="node10" class="node">
<title>9</title>
<polygon fill="none" stroke="black" points="350,-628 210,-628 210,-590 350,-590 350,-628"/>
<text text-anchor="middle" x="280" y="-612.8" font-family="Times,serif" font-size="14.00">longitude &lt;= &#45;123.222</text>
<text text-anchor="middle" x="280" y="-597.8" font-family="Times,serif" font-size="14.00">class = USA</text>
</g>
<!-- 8&#45;&gt;9 -->
<g id="edge9" class="edge">
<title>8&#45;&gt;9</title>
<path fill="none" stroke="black" d="M337.57,-663.83C328.27,-655.13 316.98,-644.58 306.87,-635.13"/>
<polygon fill="black" stroke="black" points="309.12,-632.44 299.42,-628.16 304.34,-637.55 309.12,-632.44"/>
</g>
<!-- 12 -->
<g id="node13" class="node">
<title>12</title>
<polygon fill="none" stroke="black" points="502,-628 368,-628 368,-590 502,-590 502,-628"/>
<text text-anchor="middle" x="435" y="-612.8" font-family="Times,serif" font-size="14.00">longitude &lt;= &#45;69.246</text>
<text text-anchor="middle" x="435" y="-597.8" font-family="Times,serif" font-size="14.00">class = Canada</text>
</g>
<!-- 8&#45;&gt;12 -->
<g id="edge12" class="edge">
<title>8&#45;&gt;12</title>
<path fill="none" stroke="black" d="M376.68,-663.83C386.11,-655.13 397.54,-644.58 407.78,-635.13"/>
<polygon fill="black" stroke="black" points="410.35,-637.52 415.32,-628.16 405.6,-632.37 410.35,-637.52"/>
</g>
<!-- 10 -->
<g id="node11" class="node">
<title>10</title>
<polygon fill="none" stroke="black" points="227.5,-553 128.5,-553 128.5,-517 227.5,-517 227.5,-553"/>
<text text-anchor="middle" x="178" y="-531.3" font-family="Times,serif" font-size="14.00">class = Canada</text>
</g>
<!-- 9&#45;&gt;10 -->
<g id="edge10" class="edge">
<title>9&#45;&gt;10</title>
<path fill="none" stroke="black" d="M254.26,-589.83C241.07,-580.52 224.85,-569.07 210.77,-559.13"/>
<polygon fill="black" stroke="black" points="212.51,-556.08 202.33,-553.17 208.48,-561.8 212.51,-556.08"/>
</g>
<!-- 11 -->
<g id="node12" class="node">
<title>11</title>
<polygon fill="none" stroke="black" points="332,-553 246,-553 246,-517 332,-517 332,-553"/>
<text text-anchor="middle" x="289" y="-531.3" font-family="Times,serif" font-size="14.00">class = USA</text>
</g>
<!-- 9&#45;&gt;11 -->
<g id="edge11" class="edge">
<title>9&#45;&gt;11</title>
<path fill="none" stroke="black" d="M282.27,-589.83C283.26,-581.89 284.45,-572.41 285.55,-563.63"/>
<polygon fill="black" stroke="black" points="289.06,-563.77 286.82,-553.42 282.11,-562.91 289.06,-563.77"/>
</g>
<!-- 13 -->
<g id="node14" class="node">
<title>13</title>
<polygon fill="none" stroke="black" points="486.5,-554 367.5,-554 367.5,-516 486.5,-516 486.5,-554"/>
<text text-anchor="middle" x="427" y="-538.8" font-family="Times,serif" font-size="14.00">latitude &lt;= 43.093</text>
<text text-anchor="middle" x="427" y="-523.8" font-family="Times,serif" font-size="14.00">class = Canada</text>
</g>
<!-- 12&#45;&gt;13 -->
<g id="edge13" class="edge">
<title>12&#45;&gt;13</title>
<path fill="none" stroke="black" d="M432.98,-589.83C432.13,-582.13 431.11,-572.97 430.16,-564.42"/>
<polygon fill="black" stroke="black" points="433.63,-563.97 429.05,-554.41 426.67,-564.74 433.63,-563.97"/>
</g>
<!-- 36 -->
<g id="node37" class="node">
<title>36</title>
<polygon fill="none" stroke="black" points="792,-554 658,-554 658,-516 792,-516 792,-554"/>
<text text-anchor="middle" x="725" y="-538.8" font-family="Times,serif" font-size="14.00">longitude &lt;= &#45;66.952</text>
<text text-anchor="middle" x="725" y="-523.8" font-family="Times,serif" font-size="14.00">class = Canada</text>
</g>
<!-- 12&#45;&gt;36 -->
<g id="edge36" class="edge">
<title>12&#45;&gt;36</title>
<path fill="none" stroke="black" d="M502.26,-591.3C545.83,-580.48 602.7,-566.37 648.06,-555.1"/>
<polygon fill="black" stroke="black" points="648.99,-558.48 657.85,-552.67 647.3,-551.68 648.99,-558.48"/>
</g>
<!-- 14 -->
<g id="node15" class="node">
<title>14</title>
<polygon fill="none" stroke="black" points="231,-480 97,-480 97,-442 231,-442 231,-480"/>
<text text-anchor="middle" x="164" y="-464.8" font-family="Times,serif" font-size="14.00">longitude &lt;= &#45;81.845</text>
<text text-anchor="middle" x="164" y="-449.8" font-family="Times,serif" font-size="14.00">class = Canada</text>
</g>
<!-- 13&#45;&gt;14 -->
<g id="edge14" class="edge">
<title>13&#45;&gt;14</title>
<path fill="none" stroke="black" d="M367.32,-517.66C329.52,-507.31 280.29,-493.84 239.75,-482.74"/>
<polygon fill="black" stroke="black" points="240.47,-479.31 229.9,-480.04 238.63,-486.06 240.47,-479.31"/>
</g>
<!-- 19 -->
<g id="node20" class="node">
<title>19</title>
<polygon fill="none" stroke="black" points="486.5,-480 367.5,-480 367.5,-442 486.5,-442 486.5,-480"/>
<text text-anchor="middle" x="427" y="-464.8" font-family="Times,serif" font-size="14.00">latitude &lt;= 44.992</text>
<text text-anchor="middle" x="427" y="-449.8" font-family="Times,serif" font-size="14.00">class = Canada</text>
</g>
<!-- 13&#45;&gt;19 -->
<g id="edge19" class="edge">
<title>13&#45;&gt;19</title>
<path fill="none" stroke="black" d="M427,-515.83C427,-508.13 427,-498.97 427,-490.42"/>
<polygon fill="black" stroke="black" points="430.5,-490.41 427,-480.41 423.5,-490.41 430.5,-490.41"/>
</g>
<!-- 15 -->
<g id="node16" class="node">
<title>15</title>
<polygon fill="none" stroke="black" points="86,-405 0,-405 0,-369 86,-369 86,-405"/>
<text text-anchor="middle" x="43" y="-383.3" font-family="Times,serif" font-size="14.00">class = USA</text>
</g>
<!-- 14&#45;&gt;15 -->
<g id="edge15" class="edge">
<title>14&#45;&gt;15</title>
<path fill="none" stroke="black" d="M133.47,-441.83C117.37,-432.25 97.49,-420.42 80.46,-410.29"/>
<polygon fill="black" stroke="black" points="82.24,-407.28 71.86,-405.17 78.66,-413.29 82.24,-407.28"/>
</g>
<!-- 16 -->
<g id="node17" class="node">
<title>16</title>
<polygon fill="none" stroke="black" points="223.5,-406 104.5,-406 104.5,-368 223.5,-368 223.5,-406"/>
<text text-anchor="middle" x="164" y="-390.8" font-family="Times,serif" font-size="14.00">latitude &lt;= 43.039</text>
<text text-anchor="middle" x="164" y="-375.8" font-family="Times,serif" font-size="14.00">class = Canada</text>
</g>
<!-- 14&#45;&gt;16 -->
<g id="edge16" class="edge">
<title>14&#45;&gt;16</title>
<path fill="none" stroke="black" d="M164,-441.83C164,-434.13 164,-424.97 164,-416.42"/>
<polygon fill="black" stroke="black" points="167.5,-416.41 164,-406.41 160.5,-416.41 167.5,-416.41"/>
</g>
<!-- 17 -->
<g id="node18" class="node">
<title>17</title>
<polygon fill="none" stroke="black" points="102.5,-331 3.5,-331 3.5,-295 102.5,-295 102.5,-331"/>
<text text-anchor="middle" x="53" y="-309.3" font-family="Times,serif" font-size="14.00">class = Canada</text>
</g>
<!-- 16&#45;&gt;17 -->
<g id="edge17" class="edge">
<title>16&#45;&gt;17</title>
<path fill="none" stroke="black" d="M135.99,-367.83C121.49,-358.43 103.65,-346.86 88.23,-336.85"/>
<polygon fill="black" stroke="black" points="89.77,-333.68 79.47,-331.17 85.96,-339.55 89.77,-333.68"/>
</g>
<!-- 18 -->
<g id="node19" class="node">
<title>18</title>
<polygon fill="none" stroke="black" points="207,-331 121,-331 121,-295 207,-295 207,-331"/>
<text text-anchor="middle" x="164" y="-309.3" font-family="Times,serif" font-size="14.00">class = USA</text>
</g>
<!-- 16&#45;&gt;18 -->
<g id="edge18" class="edge">
<title>16&#45;&gt;18</title>
<path fill="none" stroke="black" d="M164,-367.83C164,-359.89 164,-350.41 164,-341.63"/>
<polygon fill="black" stroke="black" points="167.5,-341.42 164,-331.42 160.5,-341.42 167.5,-341.42"/>
</g>
<!-- 20 -->
<g id="node21" class="node">
<title>20</title>
<polygon fill="none" stroke="black" points="418.5,-406 299.5,-406 299.5,-368 418.5,-368 418.5,-406"/>
<text text-anchor="middle" x="359" y="-390.8" font-family="Times,serif" font-size="14.00">latitude &lt;= 44.542</text>
<text text-anchor="middle" x="359" y="-375.8" font-family="Times,serif" font-size="14.00">class = Canada</text>
</g>
<!-- 19&#45;&gt;20 -->
<g id="edge20" class="edge">
<title>19&#45;&gt;20</title>
<path fill="none" stroke="black" d="M409.84,-441.83C401.85,-433.37 392.2,-423.15 383.46,-413.9"/>
<polygon fill="black" stroke="black" points="385.8,-411.28 376.39,-406.41 380.71,-416.09 385.8,-411.28"/>
</g>
<!-- 35 -->
<g id="node36" class="node">
<title>35</title>
<polygon fill="none" stroke="black" points="535.5,-405 436.5,-405 436.5,-369 535.5,-369 535.5,-405"/>
<text text-anchor="middle" x="486" y="-383.3" font-family="Times,serif" font-size="14.00">class = Canada</text>
</g>
<!-- 19&#45;&gt;35 -->
<g id="edge35" class="edge">
<title>19&#45;&gt;35</title>
<path fill="none" stroke="black" d="M441.89,-441.83C448.96,-433.2 457.54,-422.73 465.24,-413.33"/>
<polygon fill="black" stroke="black" points="468.1,-415.37 471.73,-405.42 462.68,-410.93 468.1,-415.37"/>
</g>
<!-- 21 -->
<g id="node22" class="node">
<title>21</title>
<polygon fill="none" stroke="black" points="359,-332 225,-332 225,-294 359,-294 359,-332"/>
<text text-anchor="middle" x="292" y="-316.8" font-family="Times,serif" font-size="14.00">longitude &lt;= &#45;79.076</text>
<text text-anchor="middle" x="292" y="-301.8" font-family="Times,serif" font-size="14.00">class = Canada</text>
</g>
<!-- 20&#45;&gt;21 -->
<g id="edge21" class="edge">
<title>20&#45;&gt;21</title>
<path fill="none" stroke="black" d="M342.09,-367.83C334.22,-359.37 324.71,-349.15 316.1,-339.9"/>
<polygon fill="black" stroke="black" points="318.51,-337.35 309.13,-332.41 313.38,-342.12 318.51,-337.35"/>
</g>
<!-- 30 -->
<g id="node31" class="node">
<title>30</title>
<polygon fill="none" stroke="black" points="511,-332 377,-332 377,-294 511,-294 511,-332"/>
<text text-anchor="middle" x="444" y="-316.8" font-family="Times,serif" font-size="14.00">longitude &lt;= &#45;84.392</text>
<text text-anchor="middle" x="444" y="-301.8" font-family="Times,serif" font-size="14.00">class = USA</text>
</g>
<!-- 20&#45;&gt;30 -->
<g id="edge30" class="edge">
<title>20&#45;&gt;30</title>
<path fill="none" stroke="black" d="M380.45,-367.83C390.82,-359.05 403.42,-348.37 414.66,-338.85"/>
<polygon fill="black" stroke="black" points="417.19,-341.3 422.56,-332.16 412.67,-335.96 417.19,-341.3"/>
</g>
<!-- 22 -->
<g id="node23" class="node">
<title>22</title>
<polygon fill="none" stroke="black" points="214.5,-257 115.5,-257 115.5,-221 214.5,-221 214.5,-257"/>
<text text-anchor="middle" x="165" y="-235.3" font-family="Times,serif" font-size="14.00">class = Canada</text>
</g>
<!-- 21&#45;&gt;22 -->
<g id="edge22" class="edge">
<title>21&#45;&gt;22</title>
<path fill="none" stroke="black" d="M259.95,-293.83C243.06,-284.25 222.19,-272.42 204.32,-262.29"/>
<polygon fill="black" stroke="black" points="205.71,-259.06 195.29,-257.17 202.26,-265.15 205.71,-259.06"/>
</g>
<!-- 23 -->
<g id="node24" class="node">
<title>23</title>
<polygon fill="none" stroke="black" points="351.5,-258 232.5,-258 232.5,-220 351.5,-220 351.5,-258"/>
<text text-anchor="middle" x="292" y="-242.8" font-family="Times,serif" font-size="14.00">latitude &lt;= 44.168</text>
<text text-anchor="middle" x="292" y="-227.8" font-family="Times,serif" font-size="14.00">class = Canada</text>
</g>
<!-- 21&#45;&gt;23 -->
<g id="edge23" class="edge">
<title>21&#45;&gt;23</title>
<path fill="none" stroke="black" d="M292,-293.83C292,-286.13 292,-276.97 292,-268.42"/>
<polygon fill="black" stroke="black" points="295.5,-268.41 292,-258.41 288.5,-268.41 295.5,-268.41"/>
</g>
<!-- 24 -->
<g id="node25" class="node">
<title>24</title>
<polygon fill="none" stroke="black" points="234.5,-184 107.5,-184 107.5,-146 234.5,-146 234.5,-184"/>
<text text-anchor="middle" x="171" y="-168.8" font-family="Times,serif" font-size="14.00">longitude &lt;= &#45;79.03</text>
<text text-anchor="middle" x="171" y="-153.8" font-family="Times,serif" font-size="14.00">class = USA</text>
</g>
<!-- 23&#45;&gt;24 -->
<g id="edge24" class="edge">
<title>23&#45;&gt;24</title>
<path fill="none" stroke="black" d="M261.47,-219.83C245.99,-210.62 227.01,-199.33 210.44,-189.47"/>
<polygon fill="black" stroke="black" points="211.91,-186.27 201.52,-184.16 208.33,-192.28 211.91,-186.27"/>
</g>
<!-- 29 -->
<g id="node30" class="node">
<title>29</title>
<polygon fill="none" stroke="black" points="351.5,-183 252.5,-183 252.5,-147 351.5,-147 351.5,-183"/>
<text text-anchor="middle" x="302" y="-161.3" font-family="Times,serif" font-size="14.00">class = Canada</text>
</g>
<!-- 23&#45;&gt;29 -->
<g id="edge29" class="edge">
<title>23&#45;&gt;29</title>
<path fill="none" stroke="black" d="M294.52,-219.83C295.64,-211.81 296.97,-202.2 298.2,-193.34"/>
<polygon fill="black" stroke="black" points="301.67,-193.8 299.58,-183.42 294.74,-192.84 301.67,-193.8"/>
</g>
<!-- 25 -->
<g id="node26" class="node">
<title>25</title>
<polygon fill="none" stroke="black" points="154,-109 68,-109 68,-73 154,-73 154,-109"/>
<text text-anchor="middle" x="111" y="-87.3" font-family="Times,serif" font-size="14.00">class = USA</text>
</g>
<!-- 24&#45;&gt;25 -->
<g id="edge25" class="edge">
<title>24&#45;&gt;25</title>
<path fill="none" stroke="black" d="M155.86,-145.83C148.66,-137.2 139.94,-126.73 132.11,-117.33"/>
<polygon fill="black" stroke="black" points="134.61,-114.86 125.51,-109.42 129.23,-119.34 134.61,-114.86"/>
</g>
<!-- 26 -->
<g id="node27" class="node">
<title>26</title>
<polygon fill="none" stroke="black" points="291.5,-110 172.5,-110 172.5,-72 291.5,-72 291.5,-110"/>
<text text-anchor="middle" x="232" y="-94.8" font-family="Times,serif" font-size="14.00">latitude &lt;= 43.988</text>
<text text-anchor="middle" x="232" y="-79.8" font-family="Times,serif" font-size="14.00">class = Canada</text>
</g>
<!-- 24&#45;&gt;26 -->
<g id="edge26" class="edge">
<title>24&#45;&gt;26</title>
<path fill="none" stroke="black" d="M186.39,-145.83C193.49,-137.45 202.05,-127.35 209.82,-118.17"/>
<polygon fill="black" stroke="black" points="212.61,-120.31 216.4,-110.41 207.27,-115.78 212.61,-120.31"/>
</g>
<!-- 27 -->
<g id="node28" class="node">
<title>27</title>
<polygon fill="none" stroke="black" points="226.5,-36 127.5,-36 127.5,0 226.5,0 226.5,-36"/>
<text text-anchor="middle" x="177" y="-14.3" font-family="Times,serif" font-size="14.00">class = Canada</text>
</g>
<!-- 26&#45;&gt;27 -->
<g id="edge27" class="edge">
<title>26&#45;&gt;27</title>
<path fill="none" stroke="black" d="M217.84,-71.72C211.31,-63.29 203.45,-53.15 196.38,-44.02"/>
<polygon fill="black" stroke="black" points="199.06,-41.77 190.17,-36 193.53,-46.05 199.06,-41.77"/>
</g>
<!-- 28 -->
<g id="node29" class="node">
<title>28</title>
<polygon fill="none" stroke="black" points="331,-36 245,-36 245,0 331,0 331,-36"/>
<text text-anchor="middle" x="288" y="-14.3" font-family="Times,serif" font-size="14.00">class = USA</text>
</g>
<!-- 26&#45;&gt;28 -->
<g id="edge28" class="edge">
<title>26&#45;&gt;28</title>
<path fill="none" stroke="black" d="M246.42,-71.72C253.07,-63.29 261.07,-53.15 268.27,-44.02"/>
<polygon fill="black" stroke="black" points="271.14,-46.02 274.59,-36 265.65,-41.69 271.14,-46.02"/>
</g>
<!-- 31 -->
<g id="node32" class="node">
<title>31</title>
<polygon fill="none" stroke="black" points="456,-257 370,-257 370,-221 456,-221 456,-257"/>
<text text-anchor="middle" x="413" y="-235.3" font-family="Times,serif" font-size="14.00">class = USA</text>
</g>
<!-- 30&#45;&gt;31 -->
<g id="edge31" class="edge">
<title>30&#45;&gt;31</title>
<path fill="none" stroke="black" d="M436.18,-293.83C432.65,-285.63 428.41,-275.78 424.52,-266.76"/>
<polygon fill="black" stroke="black" points="427.67,-265.22 420.5,-257.42 421.24,-267.99 427.67,-265.22"/>
</g>
<!-- 32 -->
<g id="node33" class="node">
<title>32</title>
<polygon fill="none" stroke="black" points="593.5,-258 474.5,-258 474.5,-220 593.5,-220 593.5,-258"/>
<text text-anchor="middle" x="534" y="-242.8" font-family="Times,serif" font-size="14.00">latitude &lt;= 44.706</text>
<text text-anchor="middle" x="534" y="-227.8" font-family="Times,serif" font-size="14.00">class = Canada</text>
</g>
<!-- 30&#45;&gt;32 -->
<g id="edge32" class="edge">
<title>30&#45;&gt;32</title>
<path fill="none" stroke="black" d="M466.71,-293.83C477.8,-284.96 491.3,-274.16 503.29,-264.57"/>
<polygon fill="black" stroke="black" points="505.67,-267.14 511.3,-258.16 501.3,-261.68 505.67,-267.14"/>
</g>
<!-- 33 -->
<g id="node34" class="node">
<title>33</title>
<polygon fill="none" stroke="black" points="466,-183 380,-183 380,-147 466,-147 466,-183"/>
<text text-anchor="middle" x="423" y="-161.3" font-family="Times,serif" font-size="14.00">class = USA</text>
</g>
<!-- 32&#45;&gt;33 -->
<g id="edge33" class="edge">
<title>32&#45;&gt;33</title>
<path fill="none" stroke="black" d="M505.99,-219.83C491.49,-210.43 473.65,-198.86 458.23,-188.85"/>
<polygon fill="black" stroke="black" points="459.77,-185.68 449.47,-183.17 455.96,-191.55 459.77,-185.68"/>
</g>
<!-- 34 -->
<g id="node35" class="node">
<title>34</title>
<polygon fill="none" stroke="black" points="583.5,-183 484.5,-183 484.5,-147 583.5,-147 583.5,-183"/>
<text text-anchor="middle" x="534" y="-161.3" font-family="Times,serif" font-size="14.00">class = Canada</text>
</g>
<!-- 32&#45;&gt;34 -->
<g id="edge34" class="edge">
<title>32&#45;&gt;34</title>
<path fill="none" stroke="black" d="M534,-219.83C534,-211.89 534,-202.41 534,-193.63"/>
<polygon fill="black" stroke="black" points="537.5,-193.42 534,-183.42 530.5,-193.42 537.5,-193.42"/>
</g>
<!-- 37 -->
<g id="node38" class="node">
<title>37</title>
<polygon fill="none" stroke="black" points="792,-480 658,-480 658,-442 792,-442 792,-480"/>
<text text-anchor="middle" x="725" y="-464.8" font-family="Times,serif" font-size="14.00">longitude &lt;= &#45;67.279</text>
<text text-anchor="middle" x="725" y="-449.8" font-family="Times,serif" font-size="14.00">class = USA</text>
</g>
<!-- 36&#45;&gt;37 -->
<g id="edge37" class="edge">
<title>36&#45;&gt;37</title>
<path fill="none" stroke="black" d="M725,-515.83C725,-508.13 725,-498.97 725,-490.42"/>
<polygon fill="black" stroke="black" points="728.5,-490.41 725,-480.41 721.5,-490.41 728.5,-490.41"/>
</g>
<!-- 52 -->
<g id="node53" class="node">
<title>52</title>
<polygon fill="none" stroke="black" points="909.5,-479 810.5,-479 810.5,-443 909.5,-443 909.5,-479"/>
<text text-anchor="middle" x="860" y="-457.3" font-family="Times,serif" font-size="14.00">class = Canada</text>
</g>
<!-- 36&#45;&gt;52 -->
<g id="edge52" class="edge">
<title>36&#45;&gt;52</title>
<path fill="none" stroke="black" d="M759.07,-515.83C777.19,-506.17 799.62,-494.2 818.72,-484.01"/>
<polygon fill="black" stroke="black" points="820.63,-486.97 827.8,-479.17 817.33,-480.79 820.63,-486.97"/>
</g>
<!-- 38 -->
<g id="node39" class="node">
<title>38</title>
<polygon fill="none" stroke="black" points="788.5,-406 661.5,-406 661.5,-368 788.5,-368 788.5,-406"/>
<text text-anchor="middle" x="725" y="-390.8" font-family="Times,serif" font-size="14.00">longitude &lt;= &#45;67.93</text>
<text text-anchor="middle" x="725" y="-375.8" font-family="Times,serif" font-size="14.00">class = Canada</text>
</g>
<!-- 37&#45;&gt;38 -->
<g id="edge38" class="edge">
<title>37&#45;&gt;38</title>
<path fill="none" stroke="black" d="M725,-441.83C725,-434.13 725,-424.97 725,-416.42"/>
<polygon fill="black" stroke="black" points="728.5,-416.41 725,-406.41 721.5,-416.41 728.5,-416.41"/>
</g>
<!-- 51 -->
<g id="node52" class="node">
<title>51</title>
<polygon fill="none" stroke="black" points="893,-405 807,-405 807,-369 893,-369 893,-405"/>
<text text-anchor="middle" x="850" y="-383.3" font-family="Times,serif" font-size="14.00">class = USA</text>
</g>
<!-- 37&#45;&gt;51 -->
<g id="edge51" class="edge">
<title>37&#45;&gt;51</title>
<path fill="none" stroke="black" d="M756.54,-441.83C773.17,-432.25 793.71,-420.42 811.3,-410.29"/>
<polygon fill="black" stroke="black" points="813.27,-413.2 820.19,-405.17 809.78,-407.13 813.27,-413.2"/>
</g>
<!-- 39 -->
<g id="node40" class="node">
<title>39</title>
<polygon fill="none" stroke="black" points="792,-332 658,-332 658,-294 792,-294 792,-332"/>
<text text-anchor="middle" x="725" y="-316.8" font-family="Times,serif" font-size="14.00">longitude &lt;= &#45;68.325</text>
<text text-anchor="middle" x="725" y="-301.8" font-family="Times,serif" font-size="14.00">class = USA</text>
</g>
<!-- 38&#45;&gt;39 -->
<g id="edge39" class="edge">
<title>38&#45;&gt;39</title>
<path fill="none" stroke="black" d="M725,-367.83C725,-360.13 725,-350.97 725,-342.42"/>
<polygon fill="black" stroke="black" points="728.5,-342.41 725,-332.41 721.5,-342.41 728.5,-342.41"/>
</g>
<!-- 46 -->
<g id="node47" class="node">
<title>46</title>
<polygon fill="none" stroke="black" points="980.5,-332 861.5,-332 861.5,-294 980.5,-294 980.5,-332"/>
<text text-anchor="middle" x="921" y="-316.8" font-family="Times,serif" font-size="14.00">latitude &lt;= 45.565</text>
<text text-anchor="middle" x="921" y="-301.8" font-family="Times,serif" font-size="14.00">class = Canada</text>
</g>
<!-- 38&#45;&gt;46 -->
<g id="edge46" class="edge">
<title>38&#45;&gt;46</title>
<path fill="none" stroke="black" d="M774.21,-367.92C800.88,-358.12 834.04,-345.95 862.09,-335.64"/>
<polygon fill="black" stroke="black" points="863.59,-338.82 871.77,-332.08 861.18,-332.25 863.59,-338.82"/>
</g>
<!-- 40 -->
<g id="node41" class="node">
<title>40</title>
<polygon fill="none" stroke="black" points="734.5,-258 615.5,-258 615.5,-220 734.5,-220 734.5,-258"/>
<text text-anchor="middle" x="675" y="-242.8" font-family="Times,serif" font-size="14.00">latitude &lt;= 47.256</text>
<text text-anchor="middle" x="675" y="-227.8" font-family="Times,serif" font-size="14.00">class = Canada</text>
</g>
<!-- 39&#45;&gt;40 -->
<g id="edge40" class="edge">
<title>39&#45;&gt;40</title>
<path fill="none" stroke="black" d="M712.38,-293.83C706.68,-285.62 699.83,-275.76 693.56,-266.73"/>
<polygon fill="black" stroke="black" points="696.37,-264.63 687.79,-258.41 690.62,-268.62 696.37,-264.63"/>
</g>
<!-- 45 -->
<g id="node46" class="node">
<title>45</title>
<polygon fill="none" stroke="black" points="839,-257 753,-257 753,-221 839,-221 839,-257"/>
<text text-anchor="middle" x="796" y="-235.3" font-family="Times,serif" font-size="14.00">class = USA</text>
</g>
<!-- 39&#45;&gt;45 -->
<g id="edge45" class="edge">
<title>39&#45;&gt;45</title>
<path fill="none" stroke="black" d="M742.92,-293.83C751.6,-285.02 762.17,-274.31 771.58,-264.76"/>
<polygon fill="black" stroke="black" points="774.29,-267 778.82,-257.42 769.31,-262.08 774.29,-267"/>
</g>
<!-- 41 -->
<g id="node42" class="node">
<title>41</title>
<polygon fill="none" stroke="black" points="700.5,-183 601.5,-183 601.5,-147 700.5,-147 700.5,-183"/>
<text text-anchor="middle" x="651" y="-161.3" font-family="Times,serif" font-size="14.00">class = Canada</text>
</g>
<!-- 40&#45;&gt;41 -->
<g id="edge41" class="edge">
<title>40&#45;&gt;41</title>
<path fill="none" stroke="black" d="M668.94,-219.83C666.24,-211.72 663,-201.99 660.02,-193.05"/>
<polygon fill="black" stroke="black" points="663.29,-191.8 656.81,-183.42 656.65,-194.01 663.29,-191.8"/>
</g>
<!-- 42 -->
<g id="node43" class="node">
<title>42</title>
<polygon fill="none" stroke="black" points="853,-184 719,-184 719,-146 853,-146 853,-184"/>
<text text-anchor="middle" x="786" y="-168.8" font-family="Times,serif" font-size="14.00">longitude &lt;= &#45;68.459</text>
<text text-anchor="middle" x="786" y="-153.8" font-family="Times,serif" font-size="14.00">class = USA</text>
</g>
<!-- 40&#45;&gt;42 -->
<g id="edge42" class="edge">
<title>40&#45;&gt;42</title>
<path fill="none" stroke="black" d="M703.01,-219.83C717.08,-210.71 734.29,-199.54 749.39,-189.74"/>
<polygon fill="black" stroke="black" points="751.51,-192.54 758,-184.16 747.7,-186.67 751.51,-192.54"/>
</g>
<!-- 43 -->
<g id="node44" class="node">
<title>43</title>
<polygon fill="none" stroke="black" points="773,-109 687,-109 687,-73 773,-73 773,-109"/>
<text text-anchor="middle" x="730" y="-87.3" font-family="Times,serif" font-size="14.00">class = USA</text>
</g>
<!-- 42&#45;&gt;43 -->
<g id="edge43" class="edge">
<title>42&#45;&gt;43</title>
<path fill="none" stroke="black" d="M771.87,-145.83C765.15,-137.2 757.01,-126.73 749.7,-117.33"/>
<polygon fill="black" stroke="black" points="752.45,-115.16 743.55,-109.42 746.92,-119.46 752.45,-115.16"/>
</g>
<!-- 44 -->
<g id="node45" class="node">
<title>44</title>
<polygon fill="none" stroke="black" points="890.5,-109 791.5,-109 791.5,-73 890.5,-73 890.5,-109"/>
<text text-anchor="middle" x="841" y="-87.3" font-family="Times,serif" font-size="14.00">class = Canada</text>
</g>
<!-- 42&#45;&gt;44 -->
<g id="edge44" class="edge">
<title>42&#45;&gt;44</title>
<path fill="none" stroke="black" d="M799.88,-145.83C806.41,-137.28 814.31,-126.94 821.43,-117.62"/>
<polygon fill="black" stroke="black" points="824.41,-119.49 827.69,-109.42 818.84,-115.24 824.41,-119.49"/>
</g>
<!-- 47 -->
<g id="node48" class="node">
<title>47</title>
<polygon fill="none" stroke="black" points="980.5,-258 861.5,-258 861.5,-220 980.5,-220 980.5,-258"/>
<text text-anchor="middle" x="921" y="-242.8" font-family="Times,serif" font-size="14.00">latitude &lt;= 45.382</text>
<text text-anchor="middle" x="921" y="-227.8" font-family="Times,serif" font-size="14.00">class = Canada</text>
</g>
<!-- 46&#45;&gt;47 -->
<g id="edge47" class="edge">
<title>46&#45;&gt;47</title>
<path fill="none" stroke="black" d="M921,-293.83C921,-286.13 921,-276.97 921,-268.42"/>
<polygon fill="black" stroke="black" points="924.5,-268.41 921,-258.41 917.5,-268.41 924.5,-268.41"/>
</g>
<!-- 50 -->
<g id="node51" class="node">
<title>50</title>
<polygon fill="none" stroke="black" points="1097.5,-257 998.5,-257 998.5,-221 1097.5,-221 1097.5,-257"/>
<text text-anchor="middle" x="1048" y="-235.3" font-family="Times,serif" font-size="14.00">class = Canada</text>
</g>
<!-- 46&#45;&gt;50 -->
<g id="edge50" class="edge">
<title>46&#45;&gt;50</title>
<path fill="none" stroke="black" d="M953.05,-293.83C969.94,-284.25 990.81,-272.42 1008.68,-262.29"/>
<polygon fill="black" stroke="black" points="1010.74,-265.15 1017.71,-257.17 1007.29,-259.06 1010.74,-265.15"/>
</g>
<!-- 48 -->
<g id="node49" class="node">
<title>48</title>
<polygon fill="none" stroke="black" points="970.5,-183 871.5,-183 871.5,-147 970.5,-147 970.5,-183"/>
<text text-anchor="middle" x="921" y="-161.3" font-family="Times,serif" font-size="14.00">class = Canada</text>
</g>
<!-- 47&#45;&gt;48 -->
<g id="edge48" class="edge">
<title>47&#45;&gt;48</title>
<path fill="none" stroke="black" d="M921,-219.83C921,-211.89 921,-202.41 921,-193.63"/>
<polygon fill="black" stroke="black" points="924.5,-193.42 921,-183.42 917.5,-193.42 924.5,-193.42"/>
</g>
<!-- 49 -->
<g id="node50" class="node">
<title>49</title>
<polygon fill="none" stroke="black" points="1075,-183 989,-183 989,-147 1075,-147 1075,-183"/>
<text text-anchor="middle" x="1032" y="-161.3" font-family="Times,serif" font-size="14.00">class = USA</text>
</g>
<!-- 47&#45;&gt;49 -->
<g id="edge49" class="edge">
<title>47&#45;&gt;49</title>
<path fill="none" stroke="black" d="M949.01,-219.83C963.51,-210.43 981.35,-198.86 996.77,-188.85"/>
<polygon fill="black" stroke="black" points="999.04,-191.55 1005.53,-183.17 995.23,-185.68 999.04,-191.55"/>
</g>
</g>
</svg>
